%TF.GenerationSoftware,KiCad,Pcbnew,7.0.1*%
%TF.CreationDate,2023-06-06T13:02:27-04:00*%
%TF.ProjectId,nixie,6e697869-652e-46b6-9963-61645f706362,rev?*%
%TF.SameCoordinates,Original*%
%TF.FileFunction,Copper,L1,Top*%
%TF.FilePolarity,Positive*%
%FSLAX46Y46*%
G04 Gerber Fmt 4.6, Leading zero omitted, Abs format (unit mm)*
G04 Created by KiCad (PCBNEW 7.0.1) date 2023-06-06 13:02:27*
%MOMM*%
%LPD*%
G01*
G04 APERTURE LIST*
%TA.AperFunction,SMDPad,CuDef*%
%ADD10R,1.300000X1.500000*%
%TD*%
%TA.AperFunction,SMDPad,CuDef*%
%ADD11R,1.925000X0.650000*%
%TD*%
%TA.AperFunction,ComponentPad*%
%ADD12R,1.400000X1.400000*%
%TD*%
%TA.AperFunction,ComponentPad*%
%ADD13C,1.400000*%
%TD*%
%TA.AperFunction,ComponentPad*%
%ADD14O,2.316000X2.316000*%
%TD*%
%TA.AperFunction,ComponentPad*%
%ADD15C,2.316000*%
%TD*%
%TA.AperFunction,SMDPad,CuDef*%
%ADD16R,1.200000X0.600000*%
%TD*%
%TA.AperFunction,ComponentPad*%
%ADD17C,1.500000*%
%TD*%
%TA.AperFunction,ComponentPad*%
%ADD18C,1.348000*%
%TD*%
%TA.AperFunction,ComponentPad*%
%ADD19O,1.600000X3.200000*%
%TD*%
%TA.AperFunction,ComponentPad*%
%ADD20O,3.200000X1.600000*%
%TD*%
%TA.AperFunction,ViaPad*%
%ADD21C,0.600000*%
%TD*%
%TA.AperFunction,ViaPad*%
%ADD22C,1.000000*%
%TD*%
%TA.AperFunction,Conductor*%
%ADD23C,0.381000*%
%TD*%
%TA.AperFunction,Conductor*%
%ADD24C,0.254000*%
%TD*%
%TA.AperFunction,Conductor*%
%ADD25C,0.750000*%
%TD*%
%TA.AperFunction,Conductor*%
%ADD26C,0.152400*%
%TD*%
G04 APERTURE END LIST*
D10*
%TO.P,C6,1,1*%
%TO.N,+5V*%
X103886000Y-131826000D03*
%TO.P,C6,2,2*%
%TO.N,GND*%
X105786000Y-131826000D03*
%TD*%
D11*
%TO.P,IC6,1,32KHZ*%
%TO.N,unconnected-(IC6-32KHZ-Pad1)*%
X183248000Y-130175000D03*
%TO.P,IC6,2,VCC*%
%TO.N,+5V*%
X183248000Y-131445000D03*
%TO.P,IC6,3,~{INT}/SQW*%
%TO.N,unconnected-(IC6-~{INT}{slash}SQW-Pad3)*%
X183248000Y-132715000D03*
%TO.P,IC6,4,~{RST}*%
%TO.N,unconnected-(IC6-~{RST}-Pad4)*%
X183248000Y-133985000D03*
%TO.P,IC6,5,N.C._1*%
%TO.N,unconnected-(IC6-N.C._1-Pad5)*%
X183248000Y-135255000D03*
%TO.P,IC6,6,N.C._2*%
%TO.N,unconnected-(IC6-N.C._2-Pad6)*%
X183248000Y-136525000D03*
%TO.P,IC6,7,N.C._3*%
%TO.N,unconnected-(IC6-N.C._3-Pad7)*%
X183248000Y-137795000D03*
%TO.P,IC6,8,N.C._4*%
%TO.N,unconnected-(IC6-N.C._4-Pad8)*%
X183248000Y-139065000D03*
%TO.P,IC6,9,N.C._5*%
%TO.N,unconnected-(IC6-N.C._5-Pad9)*%
X192672000Y-139065000D03*
%TO.P,IC6,10,N.C._6*%
%TO.N,unconnected-(IC6-N.C._6-Pad10)*%
X192672000Y-137795000D03*
%TO.P,IC6,11,N.C._7*%
%TO.N,unconnected-(IC6-N.C._7-Pad11)*%
X192672000Y-136525000D03*
%TO.P,IC6,12,N.C._8*%
%TO.N,unconnected-(IC6-N.C._8-Pad12)*%
X192672000Y-135255000D03*
%TO.P,IC6,13,GND*%
%TO.N,GND*%
X192672000Y-133985000D03*
%TO.P,IC6,14,VBAT*%
%TO.N,Net-(IC6-VBAT)*%
X192672000Y-132715000D03*
%TO.P,IC6,15,SDA*%
%TO.N,/SDA*%
X192672000Y-131445000D03*
%TO.P,IC6,16,SCL*%
%TO.N,/SCL*%
X192672000Y-130175000D03*
%TD*%
D10*
%TO.P,R5,1,1*%
%TO.N,/SCL*%
X195580000Y-129794000D03*
%TO.P,R5,2,2*%
%TO.N,+5V*%
X197480000Y-129794000D03*
%TD*%
D12*
%TO.P,IC3,1,8*%
%TO.N,/N38*%
X154940000Y-109220000D03*
D13*
%TO.P,IC3,2,9*%
%TO.N,/N39*%
X157480000Y-109220000D03*
%TO.P,IC3,3,A*%
%TO.N,/A3*%
X160020000Y-109220000D03*
%TO.P,IC3,4,D*%
%TO.N,/D3*%
X162560000Y-109220000D03*
%TO.P,IC3,5,VCC*%
%TO.N,+5V*%
X165100000Y-109220000D03*
%TO.P,IC3,6,B*%
%TO.N,/B3*%
X167640000Y-109220000D03*
%TO.P,IC3,7,C*%
%TO.N,/C3*%
X170180000Y-109220000D03*
%TO.P,IC3,8,2*%
%TO.N,/N32*%
X172720000Y-109220000D03*
%TO.P,IC3,9,3*%
%TO.N,/N33*%
X172720000Y-101600000D03*
%TO.P,IC3,10,7*%
%TO.N,/N37*%
X170180000Y-101600000D03*
%TO.P,IC3,11,6*%
%TO.N,/N36*%
X167640000Y-101600000D03*
%TO.P,IC3,12,GND*%
%TO.N,GND*%
X165100000Y-101600000D03*
%TO.P,IC3,13,4*%
%TO.N,/N34*%
X162560000Y-101600000D03*
%TO.P,IC3,14,5*%
%TO.N,/N35*%
X160020000Y-101600000D03*
%TO.P,IC3,15,1*%
%TO.N,/N31*%
X157480000Y-101600000D03*
%TO.P,IC3,16,0*%
%TO.N,/N30*%
X154940000Y-101600000D03*
%TD*%
D14*
%TO.P,BAT1,+,+*%
%TO.N,Net-(IC6-VBAT)*%
X165100000Y-139700000D03*
D15*
%TO.P,BAT1,-,-*%
%TO.N,GND*%
X165100000Y-119200000D03*
%TD*%
D16*
%TO.P,IC5,1,IN*%
%TO.N,+12V*%
X177800000Y-137536000D03*
%TO.P,IC5,2,GND*%
%TO.N,GND*%
X177800000Y-136586000D03*
%TO.P,IC5,3,EN*%
%TO.N,+12V*%
X177800000Y-135636000D03*
%TO.P,IC5,4,BYP*%
%TO.N,unconnected-(IC5-BYP-Pad4)*%
X175300000Y-135636000D03*
%TO.P,IC5,5,OUT*%
%TO.N,+5V*%
X175300000Y-137536000D03*
%TD*%
D12*
%TO.P,IC4,1,8*%
%TO.N,/N48*%
X178816000Y-109220000D03*
D13*
%TO.P,IC4,2,9*%
%TO.N,/N49*%
X181356000Y-109220000D03*
%TO.P,IC4,3,A*%
%TO.N,/A4*%
X183896000Y-109220000D03*
%TO.P,IC4,4,D*%
%TO.N,/D4*%
X186436000Y-109220000D03*
%TO.P,IC4,5,VCC*%
%TO.N,+5V*%
X188976000Y-109220000D03*
%TO.P,IC4,6,B*%
%TO.N,/B4*%
X191516000Y-109220000D03*
%TO.P,IC4,7,C*%
%TO.N,/C4*%
X194056000Y-109220000D03*
%TO.P,IC4,8,2*%
%TO.N,/N42*%
X196596000Y-109220000D03*
%TO.P,IC4,9,3*%
%TO.N,/N43*%
X196596000Y-101600000D03*
%TO.P,IC4,10,7*%
%TO.N,/N47*%
X194056000Y-101600000D03*
%TO.P,IC4,11,6*%
%TO.N,/N46*%
X191516000Y-101600000D03*
%TO.P,IC4,12,GND*%
%TO.N,GND*%
X188976000Y-101600000D03*
%TO.P,IC4,13,4*%
%TO.N,/N44*%
X186436000Y-101600000D03*
%TO.P,IC4,14,5*%
%TO.N,/N45*%
X183896000Y-101600000D03*
%TO.P,IC4,15,1*%
%TO.N,/N41*%
X181356000Y-101600000D03*
%TO.P,IC4,16,0*%
%TO.N,/N40*%
X178816000Y-101600000D03*
%TD*%
D12*
%TO.P,IC2,1,8*%
%TO.N,/N28*%
X124460000Y-109220000D03*
D13*
%TO.P,IC2,2,9*%
%TO.N,/N29*%
X127000000Y-109220000D03*
%TO.P,IC2,3,A*%
%TO.N,/A2*%
X129540000Y-109220000D03*
%TO.P,IC2,4,D*%
%TO.N,/D2*%
X132080000Y-109220000D03*
%TO.P,IC2,5,VCC*%
%TO.N,+5V*%
X134620000Y-109220000D03*
%TO.P,IC2,6,B*%
%TO.N,/B2*%
X137160000Y-109220000D03*
%TO.P,IC2,7,C*%
%TO.N,/C2*%
X139700000Y-109220000D03*
%TO.P,IC2,8,2*%
%TO.N,/N22*%
X142240000Y-109220000D03*
%TO.P,IC2,9,3*%
%TO.N,/N23*%
X142240000Y-101600000D03*
%TO.P,IC2,10,7*%
%TO.N,/N27*%
X139700000Y-101600000D03*
%TO.P,IC2,11,6*%
%TO.N,/N26*%
X137160000Y-101600000D03*
%TO.P,IC2,12,GND*%
%TO.N,GND*%
X134620000Y-101600000D03*
%TO.P,IC2,13,4*%
%TO.N,/N24*%
X132080000Y-101600000D03*
%TO.P,IC2,14,5*%
%TO.N,/N25*%
X129540000Y-101600000D03*
%TO.P,IC2,15,1*%
%TO.N,/N21*%
X127000000Y-101600000D03*
%TO.P,IC2,16,0*%
%TO.N,/N20*%
X124460000Y-101600000D03*
%TD*%
D10*
%TO.P,R6,1,1*%
%TO.N,/SDA*%
X195580000Y-132334000D03*
%TO.P,R6,2,2*%
%TO.N,+5V*%
X197480000Y-132334000D03*
%TD*%
D12*
%TO.P,IC1,1,8*%
%TO.N,/N18*%
X100838000Y-109220000D03*
D13*
%TO.P,IC1,2,9*%
%TO.N,/N19*%
X103378000Y-109220000D03*
%TO.P,IC1,3,A*%
%TO.N,/A1*%
X105918000Y-109220000D03*
%TO.P,IC1,4,D*%
%TO.N,/D1*%
X108458000Y-109220000D03*
%TO.P,IC1,5,VCC*%
%TO.N,+5V*%
X110998000Y-109220000D03*
%TO.P,IC1,6,B*%
%TO.N,/B1*%
X113538000Y-109220000D03*
%TO.P,IC1,7,C*%
%TO.N,/C1*%
X116078000Y-109220000D03*
%TO.P,IC1,8,2*%
%TO.N,/N12*%
X118618000Y-109220000D03*
%TO.P,IC1,9,3*%
%TO.N,/N13*%
X118618000Y-101600000D03*
%TO.P,IC1,10,7*%
%TO.N,/N17*%
X116078000Y-101600000D03*
%TO.P,IC1,11,6*%
%TO.N,/N16*%
X113538000Y-101600000D03*
%TO.P,IC1,12,GND*%
%TO.N,GND*%
X110998000Y-101600000D03*
%TO.P,IC1,13,4*%
%TO.N,/N14*%
X108458000Y-101600000D03*
%TO.P,IC1,14,5*%
%TO.N,/N15*%
X105918000Y-101600000D03*
%TO.P,IC1,15,1*%
%TO.N,/N11*%
X103378000Y-101600000D03*
%TO.P,IC1,16,0*%
%TO.N,/N10*%
X100838000Y-101600000D03*
%TD*%
D17*
%TO.P,J1,1,1*%
%TO.N,VCC*%
X184262000Y-118872000D03*
%TO.P,J1,2,2*%
%TO.N,+12V*%
X187762000Y-118872000D03*
%TO.P,J1,3,3*%
%TO.N,/ENABLE*%
X191262000Y-118872000D03*
%TO.P,J1,4,4*%
%TO.N,GND*%
X194762000Y-118872000D03*
%TD*%
D18*
%TO.P,N4,RHDP,RHDP*%
%TO.N,unconnected-(N4-PadRHDP)*%
X190836600Y-94380900D03*
%TO.P,N4,LHDP,LHDP*%
%TO.N,unconnected-(N4-PadLHDP)*%
X185083400Y-94380900D03*
%TO.P,N4,A,A*%
%TO.N,/170V4*%
X187960000Y-95089900D03*
%TO.P,N4,9,9*%
%TO.N,/N49*%
X181815200Y-89646100D03*
%TO.P,N4,8,8*%
%TO.N,/N48*%
X182172300Y-86705000D03*
%TO.P,N4,7,7*%
%TO.N,/N47*%
X183855300Y-84266800D03*
%TO.P,N4,6,6*%
%TO.N,/N46*%
X186478700Y-82889900D03*
%TO.P,N4,5,5*%
%TO.N,/N45*%
X189441300Y-82889900D03*
%TO.P,N4,4,4*%
%TO.N,/N44*%
X192064700Y-84266800D03*
%TO.P,N4,3,3*%
%TO.N,/N43*%
X193747700Y-86705000D03*
%TO.P,N4,2,2*%
%TO.N,/N42*%
X194104800Y-89646100D03*
%TO.P,N4,1,1*%
%TO.N,/N41*%
X193054200Y-92416300D03*
%TO.P,N4,0,0*%
%TO.N,/N40*%
X182865800Y-92416300D03*
%TD*%
D19*
%TO.P,U$1,3V3,3V3*%
%TO.N,unconnected-(U$1-Pad3V3)*%
X111760000Y-135420000D03*
%TO.P,U$1,3V3_EN,3V3_EN*%
%TO.N,unconnected-(U$1-Pad3V3_EN)*%
X109220000Y-135420000D03*
%TO.P,U$1,ADC_VREF,ADC_VREF*%
%TO.N,unconnected-(U$1-PadADC_VREF)*%
X114300000Y-135420000D03*
%TO.P,U$1,AGND,AGND*%
%TO.N,GND*%
X119380000Y-135420000D03*
%TO.P,U$1,GND@1,GND*%
X106680000Y-116040000D03*
%TO.P,U$1,GND@2,GND*%
X119380000Y-116040000D03*
%TO.P,U$1,GND@3,GND*%
X132080000Y-116040000D03*
%TO.P,U$1,GND@4,GND*%
X144780000Y-116040000D03*
D20*
%TO.P,U$1,GND@5,GND*%
X150430000Y-125730000D03*
D19*
%TO.P,U$1,GND@6,GND*%
X144780000Y-135420000D03*
%TO.P,U$1,GND@7,GND*%
X132080000Y-135420000D03*
%TO.P,U$1,GND@8,GND*%
X106680000Y-135420000D03*
%TO.P,U$1,GP0,GP0*%
%TO.N,/SDA*%
X101600000Y-116040000D03*
%TO.P,U$1,GP1,GP1*%
%TO.N,/SCL*%
X104140000Y-116040000D03*
%TO.P,U$1,GP2,GP2*%
%TO.N,/A1*%
X109220000Y-116040000D03*
%TO.P,U$1,GP3,GP3*%
%TO.N,/D1*%
X111760000Y-116040000D03*
%TO.P,U$1,GP4,GP4*%
%TO.N,/B1*%
X114300000Y-116040000D03*
%TO.P,U$1,GP5,GP5*%
%TO.N,/C1*%
X116840000Y-116040000D03*
%TO.P,U$1,GP6,GP6*%
%TO.N,/A2*%
X121920000Y-116040000D03*
%TO.P,U$1,GP7,GP7*%
%TO.N,/D2*%
X124460000Y-116040000D03*
%TO.P,U$1,GP8,GP8*%
%TO.N,/B2*%
X127000000Y-116040000D03*
%TO.P,U$1,GP9,GP9*%
%TO.N,/C2*%
X129540000Y-116040000D03*
%TO.P,U$1,GP10,GP10*%
%TO.N,/A3*%
X134620000Y-116040000D03*
%TO.P,U$1,GP11,GP11*%
%TO.N,/D3*%
X137160000Y-116040000D03*
%TO.P,U$1,GP12,GP12*%
%TO.N,/B3*%
X139700000Y-116040000D03*
%TO.P,U$1,GP13,GP13*%
%TO.N,/C3*%
X142240000Y-116040000D03*
%TO.P,U$1,GP14,GP14*%
%TO.N,/A4*%
X147320000Y-116040000D03*
%TO.P,U$1,GP15,GP15*%
%TO.N,/D4*%
X149860000Y-116040000D03*
%TO.P,U$1,GP16,GP16*%
%TO.N,/C4*%
X149860000Y-135420000D03*
%TO.P,U$1,GP17,GP17*%
%TO.N,/B4*%
X147320000Y-135420000D03*
%TO.P,U$1,GP18,GP18*%
%TO.N,unconnected-(U$1-PadGP18)*%
X142240000Y-135420000D03*
%TO.P,U$1,GP19,GP19*%
%TO.N,unconnected-(U$1-PadGP19)*%
X139700000Y-135420000D03*
%TO.P,U$1,GP20,GP20*%
%TO.N,unconnected-(U$1-PadGP20)*%
X137160000Y-135420000D03*
%TO.P,U$1,GP21,GP21*%
%TO.N,unconnected-(U$1-PadGP21)*%
X134620000Y-135420000D03*
%TO.P,U$1,GP22,GP22*%
%TO.N,unconnected-(U$1-PadGP22)*%
X129540000Y-135420000D03*
%TO.P,U$1,GP26_A0,GP26_A0*%
%TO.N,unconnected-(U$1-PadGP26_A0)*%
X124460000Y-135420000D03*
%TO.P,U$1,GP27_A1,GP27_A1*%
%TO.N,unconnected-(U$1-PadGP27_A1)*%
X121920000Y-135420000D03*
%TO.P,U$1,GP28_A2,GP28_A2*%
%TO.N,unconnected-(U$1-PadGP28_A2)*%
X116840000Y-135420000D03*
%TO.P,U$1,RUN,RUN*%
%TO.N,unconnected-(U$1-PadRUN)*%
X127000000Y-135420000D03*
D20*
%TO.P,U$1,SWCLK,SWCLK*%
%TO.N,unconnected-(U$1-PadSWCLK)*%
X150430000Y-123190000D03*
%TO.P,U$1,SWDIO,SWDIO*%
%TO.N,unconnected-(U$1-PadSWDIO)*%
X150430000Y-128270000D03*
D19*
%TO.P,U$1,VBUS,VBUS*%
%TO.N,unconnected-(U$1-PadVBUS)*%
X101600000Y-135420000D03*
%TO.P,U$1,VSYS,VSYS*%
%TO.N,+5V*%
X104140000Y-135420000D03*
%TD*%
D18*
%TO.P,N3,0,0*%
%TO.N,/N30*%
X158947100Y-92416300D03*
%TO.P,N3,1,1*%
%TO.N,/N31*%
X169135500Y-92416300D03*
%TO.P,N3,2,2*%
%TO.N,/N32*%
X170186100Y-89646100D03*
%TO.P,N3,3,3*%
%TO.N,/N33*%
X169829000Y-86705000D03*
%TO.P,N3,4,4*%
%TO.N,/N34*%
X168146000Y-84266800D03*
%TO.P,N3,5,5*%
%TO.N,/N35*%
X165522600Y-82889900D03*
%TO.P,N3,6,6*%
%TO.N,/N36*%
X162560000Y-82889900D03*
%TO.P,N3,7,7*%
%TO.N,/N37*%
X159936600Y-84266800D03*
%TO.P,N3,8,8*%
%TO.N,/N38*%
X158253600Y-86705000D03*
%TO.P,N3,9,9*%
%TO.N,/N39*%
X157896500Y-89646100D03*
%TO.P,N3,A,A*%
%TO.N,/170V3*%
X164041300Y-95089900D03*
%TO.P,N3,LHDP,LHDP*%
%TO.N,unconnected-(N3-PadLHDP)*%
X161164700Y-94380900D03*
%TO.P,N3,RHDP,RHDP*%
%TO.N,unconnected-(N3-PadRHDP)*%
X166917900Y-94380900D03*
%TD*%
%TO.P,N1,0,0*%
%TO.N,/N10*%
X104140000Y-92416300D03*
%TO.P,N1,1,1*%
%TO.N,/N11*%
X114328400Y-92416300D03*
%TO.P,N1,2,2*%
%TO.N,/N12*%
X115379000Y-89646100D03*
%TO.P,N1,3,3*%
%TO.N,/N13*%
X115021900Y-86705000D03*
%TO.P,N1,4,4*%
%TO.N,/N14*%
X113338900Y-84266800D03*
%TO.P,N1,5,5*%
%TO.N,/N15*%
X110715500Y-82889900D03*
%TO.P,N1,6,6*%
%TO.N,/N16*%
X107752900Y-82889900D03*
%TO.P,N1,7,7*%
%TO.N,/N17*%
X105129500Y-84266800D03*
%TO.P,N1,8,8*%
%TO.N,/N18*%
X103446500Y-86705000D03*
%TO.P,N1,9,9*%
%TO.N,/N19*%
X103089400Y-89646100D03*
%TO.P,N1,A,A*%
%TO.N,/170V1*%
X109234200Y-95089900D03*
%TO.P,N1,LHDP,LHDP*%
%TO.N,unconnected-(N1-PadLHDP)*%
X106357600Y-94380900D03*
%TO.P,N1,RHDP,RHDP*%
%TO.N,unconnected-(N1-PadRHDP)*%
X112110800Y-94380900D03*
%TD*%
%TO.P,N2,0,0*%
%TO.N,/N20*%
X128001800Y-92416300D03*
%TO.P,N2,1,1*%
%TO.N,/N21*%
X138190200Y-92416300D03*
%TO.P,N2,2,2*%
%TO.N,/N22*%
X139240800Y-89646100D03*
%TO.P,N2,3,3*%
%TO.N,/N23*%
X138883700Y-86705000D03*
%TO.P,N2,4,4*%
%TO.N,/N24*%
X137200700Y-84266800D03*
%TO.P,N2,5,5*%
%TO.N,/N25*%
X134577300Y-82889900D03*
%TO.P,N2,6,6*%
%TO.N,/N26*%
X131614700Y-82889900D03*
%TO.P,N2,7,7*%
%TO.N,/N27*%
X128991300Y-84266800D03*
%TO.P,N2,8,8*%
%TO.N,/N28*%
X127308300Y-86705000D03*
%TO.P,N2,9,9*%
%TO.N,/N29*%
X126951200Y-89646100D03*
%TO.P,N2,A,A*%
%TO.N,/170V2*%
X133096000Y-95089900D03*
%TO.P,N2,LHDP,LHDP*%
%TO.N,unconnected-(N2-PadLHDP)*%
X130219400Y-94380900D03*
%TO.P,N2,RHDP,RHDP*%
%TO.N,unconnected-(N2-PadRHDP)*%
X135972600Y-94380900D03*
%TD*%
D21*
%TO.N,VCC*%
X176000000Y-102700000D03*
X176200000Y-114100000D03*
%TO.N,GND*%
X185191400Y-127838200D03*
X115189000Y-128092200D03*
X140500000Y-106400000D03*
X192200000Y-104000000D03*
X107000000Y-104800000D03*
X119100000Y-111200000D03*
X99466400Y-139192000D03*
X105638600Y-140995400D03*
X193802000Y-124053600D03*
X154627047Y-135210360D03*
X145200000Y-80400000D03*
X117729000Y-120472200D03*
X190600000Y-91400000D03*
X130429000Y-128092200D03*
X162300000Y-91200000D03*
X187900000Y-93300000D03*
X127889000Y-123012200D03*
X98399600Y-132816600D03*
X159800000Y-121400000D03*
X170800000Y-120300000D03*
X119100000Y-82200000D03*
X143129000Y-120472200D03*
X132969000Y-120472200D03*
X135509000Y-120472200D03*
X138049000Y-125552200D03*
X129900000Y-98900000D03*
X135509000Y-125552200D03*
X156700000Y-80900000D03*
X130182686Y-106483735D03*
X130429000Y-120472200D03*
X125349000Y-120472200D03*
X116000000Y-94900000D03*
X115189000Y-123012200D03*
X194335400Y-112191800D03*
X97700000Y-87800000D03*
X120269000Y-123012200D03*
X138049000Y-128092200D03*
X195600000Y-91300000D03*
X185400000Y-91300000D03*
X117729000Y-125552200D03*
X122809000Y-123012200D03*
X143129000Y-123012200D03*
X105384600Y-128193800D03*
X193300000Y-106500000D03*
X102495143Y-80755553D03*
X141579600Y-141071600D03*
X172615692Y-104384843D03*
X121615200Y-110769400D03*
X111658400Y-125196600D03*
X117729000Y-123012200D03*
X153670000Y-128955800D03*
X108432600Y-121031000D03*
X167300000Y-98600000D03*
X126263400Y-141122400D03*
X173900000Y-81600000D03*
X107300000Y-106800000D03*
X140589000Y-128092200D03*
X105400000Y-78400000D03*
X158700000Y-98700000D03*
D22*
X172593000Y-135382000D03*
D21*
X149800000Y-85200000D03*
X190550800Y-134213600D03*
X148100000Y-88600000D03*
X125349000Y-128092200D03*
X197000000Y-82000000D03*
X130429000Y-123012200D03*
X140589000Y-125552200D03*
X174600000Y-86100000D03*
X166900000Y-87800000D03*
X165300000Y-91300000D03*
X143129000Y-128092200D03*
X174000000Y-88400000D03*
X197561200Y-112141000D03*
X115189000Y-125552200D03*
X122809000Y-128092200D03*
X127889000Y-128092200D03*
X174650400Y-113766600D03*
X189738000Y-128549400D03*
X135509000Y-128092200D03*
X120269000Y-120472200D03*
X189052200Y-137718800D03*
X185685002Y-85978569D03*
X176800000Y-96400000D03*
X120269000Y-128092200D03*
X160000000Y-106300000D03*
X157454600Y-140182600D03*
X177400000Y-126900000D03*
X126459080Y-83878910D03*
X133200000Y-88000000D03*
X127889000Y-120472200D03*
X125349000Y-123012200D03*
X98450400Y-112801400D03*
X103300000Y-105000000D03*
X178900000Y-88300000D03*
X134000000Y-78800000D03*
X118300000Y-89800000D03*
X170600000Y-94300000D03*
X115900000Y-106400000D03*
X100100000Y-81400000D03*
X129600000Y-96200000D03*
X98700000Y-84200000D03*
X162900000Y-115700000D03*
X122809000Y-120472200D03*
X138049000Y-120472200D03*
X181200000Y-94600000D03*
X112014000Y-121361200D03*
X140397951Y-79502268D03*
X132969000Y-125552200D03*
X185100000Y-106900000D03*
X146500000Y-104400000D03*
X192700000Y-89100000D03*
X105900000Y-88200000D03*
X129700000Y-88800000D03*
X138400000Y-104600000D03*
X128900000Y-78100000D03*
X168500000Y-106400000D03*
X106200000Y-96100000D03*
X198100000Y-106700000D03*
X112400000Y-97300000D03*
X116382800Y-141274800D03*
X174675800Y-111201200D03*
X132969000Y-128092200D03*
X182829200Y-122555000D03*
X152100000Y-83000000D03*
X180300000Y-104100000D03*
X187900000Y-91500000D03*
X127889000Y-125552200D03*
X189292734Y-87203625D03*
X177000000Y-82300000D03*
X117700000Y-103900000D03*
X132969000Y-123012200D03*
X164300000Y-128800000D03*
X192481200Y-115798600D03*
X112400000Y-89400000D03*
X188061600Y-115976400D03*
X143129000Y-125552200D03*
X147000000Y-98700000D03*
X138049000Y-123012200D03*
X173700000Y-92400000D03*
X115100000Y-78700000D03*
X117729000Y-128092200D03*
X118400000Y-78600000D03*
X171300000Y-91900000D03*
X128900000Y-104100000D03*
X122809000Y-125552200D03*
X197231000Y-140589000D03*
X150114000Y-108331000D03*
X157000000Y-106000000D03*
X135509000Y-123012200D03*
X120269000Y-125552200D03*
X175400000Y-99000000D03*
X125349000Y-125552200D03*
X153441400Y-119329200D03*
X162100000Y-87300000D03*
X115189000Y-120472200D03*
X130429000Y-125552200D03*
X195935600Y-135407400D03*
X140589000Y-120472200D03*
X140589000Y-123012200D03*
X133200000Y-91500000D03*
X188468000Y-124053600D03*
X170500000Y-133200000D03*
X146659600Y-108280200D03*
X109500000Y-88400000D03*
X136700000Y-88500000D03*
D22*
%TO.N,+5V*%
X173355000Y-138176000D03*
D21*
X185369200Y-131419600D03*
X197027800Y-134162800D03*
D22*
X103378000Y-129286000D03*
D21*
%TO.N,/N15*%
X107800000Y-96900000D03*
%TO.N,/N14*%
X110800000Y-96900000D03*
%TO.N,/N17*%
X99900000Y-91100000D03*
X99900000Y-84200000D03*
X116100000Y-103500000D03*
%TO.N,/N18*%
X98695000Y-86705000D03*
%TO.N,/N25*%
X123500000Y-99100000D03*
%TO.N,/N24*%
X131600000Y-98800000D03*
X131600000Y-96400000D03*
%TO.N,/N26*%
X134400000Y-86400000D03*
X134400000Y-93400000D03*
%TO.N,/N22*%
X144250000Y-89750000D03*
%TO.N,/N29*%
X121000000Y-99300000D03*
X121100000Y-89600000D03*
%TO.N,/N28*%
X121900000Y-86700000D03*
%TO.N,/N35*%
X160000000Y-98600000D03*
X162600000Y-93200000D03*
%TO.N,/N34*%
X165400000Y-93400000D03*
X165500000Y-98500000D03*
%TO.N,/N37*%
X151800000Y-84300000D03*
%TO.N,/N32*%
X174600000Y-89646100D03*
%TO.N,/N39*%
X148500000Y-98700000D03*
X148553900Y-89646100D03*
%TO.N,/N38*%
X149900000Y-86600000D03*
%TO.N,/N45*%
X186600000Y-93300000D03*
%TO.N,/N44*%
X189200000Y-93400000D03*
%TO.N,/N46*%
X177500000Y-99000000D03*
%TO.N,/N47*%
X180100000Y-99000000D03*
X180100000Y-95500000D03*
%TO.N,/N42*%
X197900000Y-89700000D03*
%TO.N,/N49*%
X191500000Y-88100000D03*
X195200000Y-105100000D03*
X186400000Y-105100000D03*
%TO.N,/N48*%
X178900000Y-86800000D03*
X176100000Y-86800000D03*
%TO.N,/SDA*%
X190779400Y-131495800D03*
%TO.N,/SCL*%
X189865000Y-130352800D03*
%TO.N,/170V1*%
X117700000Y-96000000D03*
%TD*%
D23*
%TO.N,VCC*%
X176100000Y-102800000D02*
X176000000Y-102700000D01*
X176100000Y-114000000D02*
X176100000Y-102800000D01*
X176200000Y-114100000D02*
X176100000Y-114000000D01*
D24*
%TO.N,GND*%
X190550800Y-134213600D02*
X191236600Y-134213600D01*
X191465200Y-133985000D02*
X192672000Y-133985000D01*
D25*
X105786000Y-133726000D02*
X105786000Y-131826000D01*
D23*
X177800000Y-136586000D02*
X173797000Y-136586000D01*
X173797000Y-136586000D02*
X172593000Y-135382000D01*
D25*
X106680000Y-134620000D02*
X105786000Y-133726000D01*
D24*
X191236600Y-134213600D02*
X191465200Y-133985000D01*
D23*
%TO.N,Net-(IC6-VBAT)*%
X190271400Y-132715000D02*
X187121800Y-135864600D01*
X166258000Y-140858000D02*
X165100000Y-139700000D01*
X192672000Y-132715000D02*
X190271400Y-132715000D01*
X187121800Y-138353800D02*
X184617600Y-140858000D01*
X184617600Y-140858000D02*
X166258000Y-140858000D01*
X187121800Y-135864600D02*
X187121800Y-138353800D01*
%TO.N,+5V*%
X165735000Y-137287000D02*
X154813000Y-137287000D01*
X179324000Y-139446000D02*
X180340000Y-138430000D01*
X154813000Y-137287000D02*
X152654000Y-139446000D01*
X175300000Y-138938000D02*
X175300000Y-139406000D01*
X175300000Y-139152000D02*
X175006000Y-139446000D01*
X175300000Y-139152000D02*
X175300000Y-139232000D01*
D24*
X197027800Y-134162800D02*
X197027800Y-132786200D01*
D23*
X175514000Y-139446000D02*
X175260000Y-139446000D01*
X180340000Y-138430000D02*
X180340000Y-133009500D01*
X167894000Y-139446000D02*
X165735000Y-137287000D01*
D25*
X103886000Y-129794000D02*
X103378000Y-129286000D01*
X103886000Y-131826000D02*
X103886000Y-134366000D01*
D23*
X183248000Y-131445000D02*
X185343800Y-131445000D01*
X175295000Y-137541000D02*
X175300000Y-137536000D01*
D25*
X103886000Y-131826000D02*
X103886000Y-129794000D01*
D23*
X105664000Y-139446000D02*
X104140000Y-137922000D01*
X104140000Y-137922000D02*
X104140000Y-134620000D01*
X180340000Y-133009500D02*
X181904500Y-131445000D01*
X175300000Y-137536000D02*
X175300000Y-138938000D01*
X173355000Y-138176000D02*
X173990000Y-137541000D01*
X175260000Y-139446000D02*
X175006000Y-139446000D01*
X179324000Y-139446000D02*
X175514000Y-139446000D01*
X175006000Y-139446000D02*
X167894000Y-139446000D01*
X181904500Y-131445000D02*
X183248000Y-131445000D01*
X175300000Y-139232000D02*
X175514000Y-139446000D01*
X197027800Y-132786200D02*
X197480000Y-132334000D01*
X152654000Y-139446000D02*
X105664000Y-139446000D01*
D24*
X197480000Y-129794000D02*
X197480000Y-132334000D01*
D23*
X175300000Y-138938000D02*
X175300000Y-139152000D01*
X185343800Y-131445000D02*
X185369200Y-131419600D01*
X173990000Y-137541000D02*
X175295000Y-137541000D01*
D24*
%TO.N,/N13*%
X118618000Y-101600000D02*
X118618000Y-100282000D01*
X119300000Y-99600000D02*
X119300000Y-88700000D01*
X117305000Y-86705000D02*
X115021900Y-86705000D01*
X119300000Y-88700000D02*
X117305000Y-86705000D01*
X118618000Y-100282000D02*
X119300000Y-99600000D01*
%TO.N,/N10*%
X100838000Y-93362000D02*
X101783700Y-92416300D01*
X101783700Y-92416300D02*
X104140000Y-92416300D01*
X100838000Y-101600000D02*
X100838000Y-93362000D01*
%TO.N,/N11*%
X103378000Y-101600000D02*
X103378000Y-95222000D01*
X106183700Y-92416300D02*
X114328400Y-92416300D01*
X103378000Y-95222000D02*
X106183700Y-92416300D01*
%TO.N,/N15*%
X105918000Y-101600000D02*
X105918000Y-97982000D01*
X107000000Y-96900000D02*
X107800000Y-96900000D01*
X105918000Y-97982000D02*
X107000000Y-96900000D01*
%TO.N,/N14*%
X108458000Y-99242000D02*
X110800000Y-96900000D01*
X108458000Y-101600000D02*
X108458000Y-99242000D01*
%TO.N,/N17*%
X116100000Y-103500000D02*
X100100000Y-103500000D01*
X99000000Y-102400000D02*
X99000000Y-93800000D01*
X99900000Y-92900000D02*
X99900000Y-91100000D01*
X99000000Y-93800000D02*
X99900000Y-92900000D01*
X99966800Y-84266800D02*
X105129500Y-84266800D01*
X100100000Y-103500000D02*
X99000000Y-102400000D01*
X99900000Y-84200000D02*
X99966800Y-84266800D01*
%TO.N,/C1*%
X116840000Y-111760000D02*
X116840000Y-116840000D01*
X116078000Y-109220000D02*
X116078000Y-110998000D01*
X116078000Y-110998000D02*
X116840000Y-111760000D01*
%TO.N,/B1*%
X114300000Y-112014000D02*
X114300000Y-116840000D01*
X113538000Y-109220000D02*
X113538000Y-111252000D01*
X113538000Y-111252000D02*
X114300000Y-112014000D01*
%TO.N,/D1*%
X108458000Y-109220000D02*
X108458000Y-110236000D01*
X111760000Y-113538000D02*
X111760000Y-116840000D01*
X108458000Y-110236000D02*
X111760000Y-113538000D01*
%TO.N,/A1*%
X105918000Y-110490000D02*
X109220000Y-113792000D01*
X105918000Y-109220000D02*
X105918000Y-110490000D01*
X109220000Y-113792000D02*
X109220000Y-116840000D01*
%TO.N,/N19*%
X97700000Y-105700000D02*
X97700000Y-91400000D01*
X98400000Y-106400000D02*
X97700000Y-105700000D01*
X102300000Y-106400000D02*
X98400000Y-106400000D01*
X97700000Y-91400000D02*
X99453900Y-89646100D01*
X99453900Y-89646100D02*
X103089400Y-89646100D01*
X103378000Y-109220000D02*
X103378000Y-107478000D01*
X103378000Y-107478000D02*
X102300000Y-106400000D01*
%TO.N,/N18*%
X98695000Y-86705000D02*
X103446500Y-86705000D01*
%TO.N,/N23*%
X142240000Y-87940000D02*
X141005000Y-86705000D01*
X141005000Y-86705000D02*
X138883700Y-86705000D01*
X142240000Y-101600000D02*
X142240000Y-87940000D01*
%TO.N,/N20*%
X124460000Y-94540000D02*
X126583700Y-92416300D01*
X126583700Y-92416300D02*
X128001800Y-92416300D01*
X124460000Y-101600000D02*
X124460000Y-94540000D01*
%TO.N,/N21*%
X138173900Y-92400000D02*
X138190200Y-92416300D01*
X130116300Y-92416300D02*
X130132600Y-92400000D01*
X127000000Y-95500000D02*
X130100000Y-92400000D01*
X127000000Y-101600000D02*
X127000000Y-95500000D01*
X130132600Y-92400000D02*
X138173900Y-92400000D01*
%TO.N,/N25*%
X134577300Y-81777300D02*
X134577300Y-82889900D01*
X133900000Y-81100000D02*
X134577300Y-81777300D01*
X125100000Y-81100000D02*
X133900000Y-81100000D01*
X123500000Y-82700000D02*
X125100000Y-81100000D01*
X123500000Y-99100000D02*
X123500000Y-82700000D01*
%TO.N,/N24*%
X131600000Y-98800000D02*
X131600000Y-96400000D01*
%TO.N,/N26*%
X137160000Y-101600000D02*
X137160000Y-100260000D01*
X137160000Y-100260000D02*
X134400000Y-97500000D01*
X131614700Y-84714700D02*
X131614700Y-82889900D01*
X134400000Y-97500000D02*
X134400000Y-93400000D01*
X133300000Y-86400000D02*
X131614700Y-84714700D01*
X134400000Y-86400000D02*
X133300000Y-86400000D01*
%TO.N,/N27*%
X139700000Y-91700000D02*
X138900000Y-90900000D01*
X138900000Y-90900000D02*
X134100000Y-90900000D01*
X139700000Y-101600000D02*
X139700000Y-91700000D01*
X134100000Y-90900000D02*
X128991300Y-85791300D01*
X128991300Y-85791300D02*
X128991300Y-84266800D01*
%TO.N,/N22*%
X144250000Y-89750000D02*
X144300000Y-89800000D01*
X144300000Y-108500000D02*
X143580000Y-109220000D01*
X143580000Y-109220000D02*
X142240000Y-109220000D01*
X144300000Y-89800000D02*
X144300000Y-108500000D01*
%TO.N,/C2*%
X129540000Y-115443000D02*
X131699000Y-113284000D01*
X131699000Y-113284000D02*
X135128000Y-113284000D01*
X129540000Y-116840000D02*
X129540000Y-115443000D01*
X137922000Y-110490000D02*
X138430000Y-110490000D01*
X138430000Y-110490000D02*
X139700000Y-109220000D01*
X135128000Y-113284000D02*
X137922000Y-110490000D01*
%TO.N,/B2*%
X137160000Y-109940000D02*
X135848000Y-111252000D01*
X132842000Y-111252000D02*
X131572000Y-112522000D01*
X135848000Y-111252000D02*
X132842000Y-111252000D01*
X131572000Y-112522000D02*
X129032000Y-112522000D01*
X137160000Y-109220000D02*
X137160000Y-109940000D01*
X129032000Y-112522000D02*
X127000000Y-114554000D01*
X127000000Y-114554000D02*
X127000000Y-116840000D01*
%TO.N,/D2*%
X127355600Y-111658400D02*
X130403600Y-111658400D01*
X132080000Y-109982000D02*
X132080000Y-109220000D01*
X124460000Y-116840000D02*
X124460000Y-114554000D01*
X124460000Y-114554000D02*
X127355600Y-111658400D01*
X130403600Y-111658400D02*
X132080000Y-109982000D01*
%TO.N,/A2*%
X129540000Y-110236000D02*
X129540000Y-109220000D01*
X121920000Y-116840000D02*
X121920000Y-114554000D01*
X121920000Y-114554000D02*
X125730000Y-110744000D01*
X125730000Y-110744000D02*
X129032000Y-110744000D01*
X129032000Y-110744000D02*
X129540000Y-110236000D01*
%TO.N,/N29*%
X121000000Y-99300000D02*
X121000000Y-89700000D01*
X121000000Y-89700000D02*
X121100000Y-89600000D01*
%TO.N,/N28*%
X124460000Y-109220000D02*
X123020000Y-109220000D01*
X121900000Y-108100000D02*
X121900000Y-86700000D01*
X123020000Y-109220000D02*
X121900000Y-108100000D01*
%TO.N,/N33*%
X171705000Y-86705000D02*
X169829000Y-86705000D01*
X172720000Y-87720000D02*
X171705000Y-86705000D01*
X172720000Y-101600000D02*
X172720000Y-87720000D01*
%TO.N,/N30*%
X154940000Y-101600000D02*
X154940000Y-94160000D01*
X156683700Y-92416300D02*
X158947100Y-92416300D01*
X154940000Y-94160000D02*
X156683700Y-92416300D01*
%TO.N,/N31*%
X160983700Y-92416300D02*
X169135500Y-92416300D01*
X157480000Y-95920000D02*
X160983700Y-92416300D01*
X157480000Y-101600000D02*
X157480000Y-95920000D01*
%TO.N,/N35*%
X162600000Y-95500000D02*
X162600000Y-93200000D01*
X160000000Y-97500000D02*
X161300000Y-96200000D01*
X161300000Y-96200000D02*
X161900000Y-96200000D01*
X161900000Y-96200000D02*
X162600000Y-95500000D01*
X160000000Y-98600000D02*
X160000000Y-97500000D01*
%TO.N,/N34*%
X165500000Y-98500000D02*
X165500000Y-93500000D01*
X165500000Y-93500000D02*
X165400000Y-93400000D01*
%TO.N,/N36*%
X167640000Y-101600000D02*
X167640000Y-102960000D01*
X166900000Y-103700000D02*
X154200000Y-103700000D01*
X153200000Y-84900000D02*
X155200000Y-82900000D01*
X167640000Y-102960000D02*
X166900000Y-103700000D01*
X155300000Y-82900000D02*
X155310100Y-82889900D01*
X154200000Y-103700000D02*
X153200000Y-102700000D01*
X153200000Y-102700000D02*
X153200000Y-84900000D01*
X155310100Y-82889900D02*
X162560000Y-82889900D01*
X155200000Y-82900000D02*
X155300000Y-82900000D01*
%TO.N,/N37*%
X169300000Y-104700000D02*
X170180000Y-103820000D01*
X151800000Y-103700000D02*
X152800000Y-104700000D01*
X152800000Y-104700000D02*
X169300000Y-104700000D01*
X151800000Y-84300000D02*
X151800000Y-103700000D01*
X170180000Y-103820000D02*
X170180000Y-101600000D01*
%TO.N,/N32*%
X172720000Y-107280000D02*
X172720000Y-109220000D01*
X174600000Y-89646100D02*
X174600000Y-105400000D01*
X174600000Y-105400000D02*
X172720000Y-107280000D01*
%TO.N,/C3*%
X166370000Y-113030000D02*
X170180000Y-109220000D01*
X144018000Y-113030000D02*
X166370000Y-113030000D01*
X142240000Y-116840000D02*
X142240000Y-114808000D01*
X142240000Y-114808000D02*
X144018000Y-113030000D01*
%TO.N,/B3*%
X139700000Y-114554000D02*
X141986000Y-112268000D01*
X139700000Y-116840000D02*
X139700000Y-114554000D01*
X164592000Y-112268000D02*
X167640000Y-109220000D01*
X141986000Y-112268000D02*
X164592000Y-112268000D01*
%TO.N,/D3*%
X137160000Y-116840000D02*
X137160000Y-115316000D01*
X140970000Y-111506000D02*
X160020000Y-111506000D01*
X137160000Y-115316000D02*
X140970000Y-111506000D01*
X162306000Y-109220000D02*
X162560000Y-109220000D01*
X160020000Y-111506000D02*
X162306000Y-109220000D01*
%TO.N,/A3*%
X139700000Y-111252000D02*
X140208000Y-110744000D01*
X134620000Y-116840000D02*
X134620000Y-115570000D01*
X158496000Y-110744000D02*
X160020000Y-109220000D01*
X138938000Y-111252000D02*
X139700000Y-111252000D01*
X134620000Y-115570000D02*
X138938000Y-111252000D01*
X140208000Y-110744000D02*
X158496000Y-110744000D01*
%TO.N,/N39*%
X148500000Y-89700000D02*
X148553900Y-89646100D01*
X148500000Y-98700000D02*
X148500000Y-89700000D01*
%TO.N,/N38*%
X154940000Y-109220000D02*
X153720000Y-109220000D01*
X153720000Y-109220000D02*
X149900000Y-105400000D01*
X149900000Y-105400000D02*
X149900000Y-86600000D01*
%TO.N,/N43*%
X195205000Y-86705000D02*
X193747700Y-86705000D01*
X196596000Y-88096000D02*
X195205000Y-86705000D01*
X196596000Y-101600000D02*
X196596000Y-88096000D01*
%TO.N,/N40*%
X178816000Y-94584000D02*
X180983700Y-92416300D01*
X180983700Y-92416300D02*
X182865800Y-92416300D01*
X178816000Y-101600000D02*
X178816000Y-94584000D01*
%TO.N,/N41*%
X184883700Y-92416300D02*
X193054200Y-92416300D01*
X181356000Y-101600000D02*
X181356000Y-95944000D01*
X181356000Y-95944000D02*
X184883700Y-92416300D01*
%TO.N,/N45*%
X186600000Y-95400000D02*
X183896000Y-98104000D01*
X186600000Y-93300000D02*
X186600000Y-95400000D01*
X183896000Y-98104000D02*
X183896000Y-101600000D01*
%TO.N,/N44*%
X186436000Y-101600000D02*
X186436000Y-99464000D01*
X186436000Y-99464000D02*
X189200000Y-96700000D01*
X189200000Y-96700000D02*
X189200000Y-93400000D01*
%TO.N,/N46*%
X177500000Y-99000000D02*
X177500000Y-85900000D01*
X177500000Y-85900000D02*
X180510100Y-82889900D01*
X180510100Y-82889900D02*
X186478700Y-82889900D01*
%TO.N,/N47*%
X180100000Y-99000000D02*
X180100000Y-95500000D01*
%TO.N,/N42*%
X198100000Y-89900000D02*
X197900000Y-89700000D01*
X196596000Y-109220000D02*
X196596000Y-104204000D01*
X198100000Y-102700000D02*
X198100000Y-89900000D01*
X196596000Y-104204000D02*
X198100000Y-102700000D01*
%TO.N,/C4*%
X149860000Y-134620000D02*
X151130000Y-133350000D01*
X189992000Y-113284000D02*
X194056000Y-109220000D01*
X151130000Y-133350000D02*
X167081200Y-133350000D01*
X167081200Y-133350000D02*
X187147200Y-113284000D01*
X187147200Y-113284000D02*
X189992000Y-113284000D01*
%TO.N,/B4*%
X150368000Y-130810000D02*
X167132000Y-130810000D01*
X186436000Y-111506000D02*
X189230000Y-111506000D01*
X189230000Y-111506000D02*
X191516000Y-109220000D01*
X167132000Y-130810000D02*
X186436000Y-111506000D01*
X147320000Y-134620000D02*
X147320000Y-133858000D01*
X147320000Y-133858000D02*
X150368000Y-130810000D01*
%TO.N,/D4*%
X149860000Y-116840000D02*
X178816000Y-116840000D01*
X178816000Y-116840000D02*
X186436000Y-109220000D01*
%TO.N,/A4*%
X174498000Y-115570000D02*
X177546000Y-115570000D01*
X147320000Y-114300000D02*
X147828000Y-113792000D01*
X173601000Y-114673000D02*
X174498000Y-115570000D01*
X153535000Y-114673000D02*
X173601000Y-114673000D01*
X152654000Y-113792000D02*
X153535000Y-114673000D01*
X147320000Y-116840000D02*
X147320000Y-114300000D01*
X147828000Y-113792000D02*
X152654000Y-113792000D01*
X177546000Y-115570000D02*
X183896000Y-109220000D01*
%TO.N,/N49*%
X186400000Y-105100000D02*
X195200000Y-105100000D01*
X191500000Y-89100000D02*
X190953900Y-89646100D01*
X190953900Y-89646100D02*
X181815200Y-89646100D01*
X191500000Y-88100000D02*
X191500000Y-89100000D01*
%TO.N,/N48*%
X177300000Y-101200000D02*
X176100000Y-100000000D01*
X176100000Y-99800000D02*
X176100000Y-86800000D01*
X178900000Y-86800000D02*
X178995000Y-86705000D01*
X176100000Y-100000000D02*
X176100000Y-99800000D01*
X178816000Y-109220000D02*
X178816000Y-105316000D01*
X177300000Y-103800000D02*
X177300000Y-101200000D01*
X178816000Y-105316000D02*
X177300000Y-103800000D01*
X178995000Y-86705000D02*
X182172300Y-86705000D01*
D23*
%TO.N,+12V*%
X187762000Y-118872000D02*
X187762000Y-121102000D01*
X187762000Y-121102000D02*
X179558000Y-129306000D01*
X177800000Y-135636000D02*
X177800000Y-132888000D01*
D24*
X179324000Y-137287000D02*
X179324000Y-136017000D01*
X177800000Y-137536000D02*
X179075000Y-137536000D01*
X179324000Y-136017000D02*
X178943000Y-135636000D01*
X178943000Y-135636000D02*
X177800000Y-135636000D01*
X179075000Y-137536000D02*
X179324000Y-137287000D01*
D23*
X177800000Y-132888000D02*
X179558000Y-131130000D01*
X179558000Y-129306000D02*
X179558000Y-131130000D01*
D26*
%TO.N,/SDA*%
X190779400Y-131495800D02*
X190830200Y-131445000D01*
X192672000Y-131445000D02*
X194691000Y-131445000D01*
X194691000Y-131445000D02*
X195580000Y-132334000D01*
X190830200Y-131445000D02*
X192672000Y-131445000D01*
%TO.N,/SCL*%
X190042800Y-130175000D02*
X192672000Y-130175000D01*
X192672000Y-130175000D02*
X195199000Y-130175000D01*
X195199000Y-130175000D02*
X195580000Y-129794000D01*
X189865000Y-130352800D02*
X190042800Y-130175000D01*
D23*
%TO.N,/170V1*%
X109800000Y-96000000D02*
X109234200Y-95434200D01*
X117700000Y-96000000D02*
X109800000Y-96000000D01*
X109234200Y-95434200D02*
X109234200Y-95089900D01*
%TD*%
M02*
