%TF.GenerationSoftware,KiCad,Pcbnew,7.0.1*%
%TF.CreationDate,2023-06-06T13:02:27-04:00*%
%TF.ProjectId,nixie,6e697869-652e-46b6-9963-61645f706362,rev?*%
%TF.SameCoordinates,Original*%
%TF.FileFunction,Legend,Bot*%
%TF.FilePolarity,Positive*%
%FSLAX46Y46*%
G04 Gerber Fmt 4.6, Leading zero omitted, Abs format (unit mm)*
G04 Created by KiCad (PCBNEW 7.0.1) date 2023-06-06 13:02:27*
%MOMM*%
%LPD*%
G01*
G04 APERTURE LIST*
%ADD10C,0.134112*%
%ADD11C,0.101600*%
%ADD12C,0.150000*%
%ADD13C,0.200000*%
%ADD14C,0.100000*%
%ADD15C,0.127000*%
G04 APERTURE END LIST*
D10*
X196386123Y-77742808D02*
X196533008Y-77669366D01*
X196533008Y-77669366D02*
X196753334Y-77669366D01*
X196753334Y-77669366D02*
X196973661Y-77742808D01*
X196973661Y-77742808D02*
X197120546Y-77889693D01*
X197120546Y-77889693D02*
X197193988Y-78036577D01*
X197193988Y-78036577D02*
X197267430Y-78330346D01*
X197267430Y-78330346D02*
X197267430Y-78550673D01*
X197267430Y-78550673D02*
X197193988Y-78844442D01*
X197193988Y-78844442D02*
X197120546Y-78991327D01*
X197120546Y-78991327D02*
X196973661Y-79138212D01*
X196973661Y-79138212D02*
X196753334Y-79211654D01*
X196753334Y-79211654D02*
X196606450Y-79211654D01*
X196606450Y-79211654D02*
X196386123Y-79138212D01*
X196386123Y-79138212D02*
X196312681Y-79064769D01*
X196312681Y-79064769D02*
X196312681Y-78550673D01*
X196312681Y-78550673D02*
X196606450Y-78550673D01*
X195651700Y-79211654D02*
X195651700Y-78183462D01*
X195651700Y-78477231D02*
X195578258Y-78330346D01*
X195578258Y-78330346D02*
X195504816Y-78256904D01*
X195504816Y-78256904D02*
X195357931Y-78183462D01*
X195357931Y-78183462D02*
X195211046Y-78183462D01*
X194843835Y-78183462D02*
X194035970Y-78183462D01*
X194035970Y-78183462D02*
X194843835Y-79211654D01*
X194843835Y-79211654D02*
X194035970Y-79211654D01*
X192860893Y-79138212D02*
X193007777Y-79211654D01*
X193007777Y-79211654D02*
X193301547Y-79211654D01*
X193301547Y-79211654D02*
X193448431Y-79138212D01*
X193448431Y-79138212D02*
X193521873Y-78991327D01*
X193521873Y-78991327D02*
X193521873Y-78403789D01*
X193521873Y-78403789D02*
X193448431Y-78256904D01*
X193448431Y-78256904D02*
X193301547Y-78183462D01*
X193301547Y-78183462D02*
X193007777Y-78183462D01*
X193007777Y-78183462D02*
X192860893Y-78256904D01*
X192860893Y-78256904D02*
X192787451Y-78403789D01*
X192787451Y-78403789D02*
X192787451Y-78550673D01*
X192787451Y-78550673D02*
X193521873Y-78697558D01*
X191465490Y-78183462D02*
X191465490Y-79431981D01*
X191465490Y-79431981D02*
X191538932Y-79578865D01*
X191538932Y-79578865D02*
X191612374Y-79652308D01*
X191612374Y-79652308D02*
X191759259Y-79725750D01*
X191759259Y-79725750D02*
X191979586Y-79725750D01*
X191979586Y-79725750D02*
X192126470Y-79652308D01*
X191465490Y-79138212D02*
X191612374Y-79211654D01*
X191612374Y-79211654D02*
X191906143Y-79211654D01*
X191906143Y-79211654D02*
X192053028Y-79138212D01*
X192053028Y-79138212D02*
X192126470Y-79064769D01*
X192126470Y-79064769D02*
X192199912Y-78917885D01*
X192199912Y-78917885D02*
X192199912Y-78477231D01*
X192199912Y-78477231D02*
X192126470Y-78330346D01*
X192126470Y-78330346D02*
X192053028Y-78256904D01*
X192053028Y-78256904D02*
X191906143Y-78183462D01*
X191906143Y-78183462D02*
X191612374Y-78183462D01*
X191612374Y-78183462D02*
X191465490Y-78256904D01*
X190510740Y-79211654D02*
X190657625Y-79138212D01*
X190657625Y-79138212D02*
X190731067Y-79064769D01*
X190731067Y-79064769D02*
X190804509Y-78917885D01*
X190804509Y-78917885D02*
X190804509Y-78477231D01*
X190804509Y-78477231D02*
X190731067Y-78330346D01*
X190731067Y-78330346D02*
X190657625Y-78256904D01*
X190657625Y-78256904D02*
X190510740Y-78183462D01*
X190510740Y-78183462D02*
X190290413Y-78183462D01*
X190290413Y-78183462D02*
X190143529Y-78256904D01*
X190143529Y-78256904D02*
X190070087Y-78330346D01*
X190070087Y-78330346D02*
X189996644Y-78477231D01*
X189996644Y-78477231D02*
X189996644Y-78917885D01*
X189996644Y-78917885D02*
X190070087Y-79064769D01*
X190070087Y-79064769D02*
X190143529Y-79138212D01*
X190143529Y-79138212D02*
X190290413Y-79211654D01*
X190290413Y-79211654D02*
X190510740Y-79211654D01*
X189335664Y-79211654D02*
X189335664Y-78183462D01*
X189335664Y-78477231D02*
X189262222Y-78330346D01*
X189262222Y-78330346D02*
X189188780Y-78256904D01*
X189188780Y-78256904D02*
X189041895Y-78183462D01*
X189041895Y-78183462D02*
X188895010Y-78183462D01*
X188527799Y-78183462D02*
X187719934Y-78183462D01*
X187719934Y-78183462D02*
X188527799Y-79211654D01*
X188527799Y-79211654D02*
X187719934Y-79211654D01*
X185443222Y-78403789D02*
X185222895Y-78477231D01*
X185222895Y-78477231D02*
X185149453Y-78550673D01*
X185149453Y-78550673D02*
X185076011Y-78697558D01*
X185076011Y-78697558D02*
X185076011Y-78917885D01*
X185076011Y-78917885D02*
X185149453Y-79064769D01*
X185149453Y-79064769D02*
X185222895Y-79138212D01*
X185222895Y-79138212D02*
X185369780Y-79211654D01*
X185369780Y-79211654D02*
X185957318Y-79211654D01*
X185957318Y-79211654D02*
X185957318Y-77669366D01*
X185957318Y-77669366D02*
X185443222Y-77669366D01*
X185443222Y-77669366D02*
X185296338Y-77742808D01*
X185296338Y-77742808D02*
X185222895Y-77816250D01*
X185222895Y-77816250D02*
X185149453Y-77963135D01*
X185149453Y-77963135D02*
X185149453Y-78110020D01*
X185149453Y-78110020D02*
X185222895Y-78256904D01*
X185222895Y-78256904D02*
X185296338Y-78330346D01*
X185296338Y-78330346D02*
X185443222Y-78403789D01*
X185443222Y-78403789D02*
X185957318Y-78403789D01*
X184415030Y-79211654D02*
X184415030Y-78183462D01*
X184415030Y-78477231D02*
X184341588Y-78330346D01*
X184341588Y-78330346D02*
X184268146Y-78256904D01*
X184268146Y-78256904D02*
X184121261Y-78183462D01*
X184121261Y-78183462D02*
X183974376Y-78183462D01*
X183607165Y-78183462D02*
X182799300Y-78183462D01*
X182799300Y-78183462D02*
X183607165Y-79211654D01*
X183607165Y-79211654D02*
X182799300Y-79211654D01*
X181624223Y-79138212D02*
X181771107Y-79211654D01*
X181771107Y-79211654D02*
X182064877Y-79211654D01*
X182064877Y-79211654D02*
X182211761Y-79138212D01*
X182211761Y-79138212D02*
X182285203Y-78991327D01*
X182285203Y-78991327D02*
X182285203Y-78403789D01*
X182285203Y-78403789D02*
X182211761Y-78256904D01*
X182211761Y-78256904D02*
X182064877Y-78183462D01*
X182064877Y-78183462D02*
X181771107Y-78183462D01*
X181771107Y-78183462D02*
X181624223Y-78256904D01*
X181624223Y-78256904D02*
X181550781Y-78403789D01*
X181550781Y-78403789D02*
X181550781Y-78550673D01*
X181550781Y-78550673D02*
X182285203Y-78697558D01*
X181917992Y-79211654D02*
X182064877Y-79358538D01*
X182064877Y-79358538D02*
X182138319Y-79505423D01*
X182138319Y-79505423D02*
X182064877Y-79652308D01*
X182064877Y-79652308D02*
X181917992Y-79725750D01*
X181917992Y-79725750D02*
X181771107Y-79725750D01*
X180228820Y-79138212D02*
X180375704Y-79211654D01*
X180375704Y-79211654D02*
X180669473Y-79211654D01*
X180669473Y-79211654D02*
X180816358Y-79138212D01*
X180816358Y-79138212D02*
X180889800Y-79064769D01*
X180889800Y-79064769D02*
X180963242Y-78917885D01*
X180963242Y-78917885D02*
X180963242Y-78477231D01*
X180963242Y-78477231D02*
X180889800Y-78330346D01*
X180889800Y-78330346D02*
X180816358Y-78256904D01*
X180816358Y-78256904D02*
X180669473Y-78183462D01*
X180669473Y-78183462D02*
X180375704Y-78183462D01*
X180375704Y-78183462D02*
X180228820Y-78256904D01*
X179714724Y-78183462D02*
X178906859Y-78183462D01*
X178906859Y-78183462D02*
X179714724Y-79211654D01*
X179714724Y-79211654D02*
X178906859Y-79211654D01*
X178466205Y-78183462D02*
X178098993Y-79211654D01*
X177731782Y-78183462D02*
X178098993Y-79211654D01*
X178098993Y-79211654D02*
X178245878Y-79578865D01*
X178245878Y-79578865D02*
X178319320Y-79652308D01*
X178319320Y-79652308D02*
X178466205Y-79725750D01*
X177217685Y-79138212D02*
X177070801Y-79211654D01*
X177070801Y-79211654D02*
X176777032Y-79211654D01*
X176777032Y-79211654D02*
X176630147Y-79138212D01*
X176630147Y-79138212D02*
X176556705Y-78991327D01*
X176556705Y-78991327D02*
X176556705Y-78917885D01*
X176556705Y-78917885D02*
X176630147Y-78771000D01*
X176630147Y-78771000D02*
X176777032Y-78697558D01*
X176777032Y-78697558D02*
X176997359Y-78697558D01*
X176997359Y-78697558D02*
X177144243Y-78624116D01*
X177144243Y-78624116D02*
X177217685Y-78477231D01*
X177217685Y-78477231D02*
X177217685Y-78403789D01*
X177217685Y-78403789D02*
X177144243Y-78256904D01*
X177144243Y-78256904D02*
X176997359Y-78183462D01*
X176997359Y-78183462D02*
X176777032Y-78183462D01*
X176777032Y-78183462D02*
X176630147Y-78256904D01*
X176042609Y-78183462D02*
X175234744Y-78183462D01*
X175234744Y-78183462D02*
X176042609Y-79211654D01*
X176042609Y-79211654D02*
X175234744Y-79211654D01*
X173986225Y-79138212D02*
X174133109Y-79211654D01*
X174133109Y-79211654D02*
X174426878Y-79211654D01*
X174426878Y-79211654D02*
X174573763Y-79138212D01*
X174573763Y-79138212D02*
X174647205Y-79064769D01*
X174647205Y-79064769D02*
X174720647Y-78917885D01*
X174720647Y-78917885D02*
X174720647Y-78477231D01*
X174720647Y-78477231D02*
X174647205Y-78330346D01*
X174647205Y-78330346D02*
X174573763Y-78256904D01*
X174573763Y-78256904D02*
X174426878Y-78183462D01*
X174426878Y-78183462D02*
X174133109Y-78183462D01*
X174133109Y-78183462D02*
X173986225Y-78256904D01*
X173472129Y-78183462D02*
X172664264Y-78183462D01*
X172664264Y-78183462D02*
X173472129Y-79211654D01*
X173472129Y-79211654D02*
X172664264Y-79211654D01*
X172223610Y-78183462D02*
X171856398Y-79211654D01*
X171489187Y-78183462D02*
X171856398Y-79211654D01*
X171856398Y-79211654D02*
X172003283Y-79578865D01*
X172003283Y-79578865D02*
X172076725Y-79652308D01*
X172076725Y-79652308D02*
X172223610Y-79725750D01*
X170901648Y-79211654D02*
X170901648Y-77669366D01*
X170754764Y-78624116D02*
X170314110Y-79211654D01*
X170314110Y-78183462D02*
X170901648Y-78771000D01*
X169653129Y-79211654D02*
X169653129Y-78183462D01*
X169653129Y-77669366D02*
X169726571Y-77742808D01*
X169726571Y-77742808D02*
X169653129Y-77816250D01*
X169653129Y-77816250D02*
X169579687Y-77742808D01*
X169579687Y-77742808D02*
X169653129Y-77669366D01*
X169653129Y-77669366D02*
X169653129Y-77816250D01*
X168331168Y-79138212D02*
X168478052Y-79211654D01*
X168478052Y-79211654D02*
X168771822Y-79211654D01*
X168771822Y-79211654D02*
X168918706Y-79138212D01*
X168918706Y-79138212D02*
X168992148Y-78991327D01*
X168992148Y-78991327D02*
X168992148Y-78403789D01*
X168992148Y-78403789D02*
X168918706Y-78256904D01*
X168918706Y-78256904D02*
X168771822Y-78183462D01*
X168771822Y-78183462D02*
X168478052Y-78183462D01*
X168478052Y-78183462D02*
X168331168Y-78256904D01*
X168331168Y-78256904D02*
X168257726Y-78403789D01*
X168257726Y-78403789D02*
X168257726Y-78550673D01*
X168257726Y-78550673D02*
X168992148Y-78697558D01*
X167743630Y-78183462D02*
X167449861Y-79211654D01*
X167449861Y-79211654D02*
X167156091Y-78477231D01*
X167156091Y-78477231D02*
X166862322Y-79211654D01*
X166862322Y-79211654D02*
X166568553Y-78183462D01*
X165981015Y-79211654D02*
X165981015Y-78183462D01*
X165981015Y-77669366D02*
X166054457Y-77742808D01*
X166054457Y-77742808D02*
X165981015Y-77816250D01*
X165981015Y-77816250D02*
X165907573Y-77742808D01*
X165907573Y-77742808D02*
X165981015Y-77669366D01*
X165981015Y-77669366D02*
X165981015Y-77816250D01*
X164585612Y-79138212D02*
X164732496Y-79211654D01*
X164732496Y-79211654D02*
X165026265Y-79211654D01*
X165026265Y-79211654D02*
X165173150Y-79138212D01*
X165173150Y-79138212D02*
X165246592Y-79064769D01*
X165246592Y-79064769D02*
X165320034Y-78917885D01*
X165320034Y-78917885D02*
X165320034Y-78477231D01*
X165320034Y-78477231D02*
X165246592Y-78330346D01*
X165246592Y-78330346D02*
X165173150Y-78256904D01*
X165173150Y-78256904D02*
X165026265Y-78183462D01*
X165026265Y-78183462D02*
X164732496Y-78183462D01*
X164732496Y-78183462D02*
X164585612Y-78256904D01*
X164071516Y-78183462D02*
X163263651Y-78183462D01*
X163263651Y-78183462D02*
X164071516Y-79211654D01*
X164071516Y-79211654D02*
X163263651Y-79211654D01*
X161647920Y-78183462D02*
X161354151Y-79211654D01*
X161354151Y-79211654D02*
X161060381Y-78477231D01*
X161060381Y-78477231D02*
X160766612Y-79211654D01*
X160766612Y-79211654D02*
X160472843Y-78183462D01*
X159224325Y-79211654D02*
X159224325Y-78403789D01*
X159224325Y-78403789D02*
X159297767Y-78256904D01*
X159297767Y-78256904D02*
X159444651Y-78183462D01*
X159444651Y-78183462D02*
X159738421Y-78183462D01*
X159738421Y-78183462D02*
X159885305Y-78256904D01*
X159224325Y-79138212D02*
X159371209Y-79211654D01*
X159371209Y-79211654D02*
X159738421Y-79211654D01*
X159738421Y-79211654D02*
X159885305Y-79138212D01*
X159885305Y-79138212D02*
X159958747Y-78991327D01*
X159958747Y-78991327D02*
X159958747Y-78844442D01*
X159958747Y-78844442D02*
X159885305Y-78697558D01*
X159885305Y-78697558D02*
X159738421Y-78624116D01*
X159738421Y-78624116D02*
X159371209Y-78624116D01*
X159371209Y-78624116D02*
X159224325Y-78550673D01*
X158563344Y-79138212D02*
X158416460Y-79211654D01*
X158416460Y-79211654D02*
X158122691Y-79211654D01*
X158122691Y-79211654D02*
X157975806Y-79138212D01*
X157975806Y-79138212D02*
X157902364Y-78991327D01*
X157902364Y-78991327D02*
X157902364Y-78917885D01*
X157902364Y-78917885D02*
X157975806Y-78771000D01*
X157975806Y-78771000D02*
X158122691Y-78697558D01*
X158122691Y-78697558D02*
X158343018Y-78697558D01*
X158343018Y-78697558D02*
X158489902Y-78624116D01*
X158489902Y-78624116D02*
X158563344Y-78477231D01*
X158563344Y-78477231D02*
X158563344Y-78403789D01*
X158563344Y-78403789D02*
X158489902Y-78256904D01*
X158489902Y-78256904D02*
X158343018Y-78183462D01*
X158343018Y-78183462D02*
X158122691Y-78183462D01*
X158122691Y-78183462D02*
X157975806Y-78256904D01*
X156066306Y-79211654D02*
X156066306Y-77669366D01*
X155405326Y-79211654D02*
X155405326Y-78403789D01*
X155405326Y-78403789D02*
X155478768Y-78256904D01*
X155478768Y-78256904D02*
X155625652Y-78183462D01*
X155625652Y-78183462D02*
X155845979Y-78183462D01*
X155845979Y-78183462D02*
X155992864Y-78256904D01*
X155992864Y-78256904D02*
X156066306Y-78330346D01*
X154083365Y-79138212D02*
X154230249Y-79211654D01*
X154230249Y-79211654D02*
X154524019Y-79211654D01*
X154524019Y-79211654D02*
X154670903Y-79138212D01*
X154670903Y-79138212D02*
X154744345Y-78991327D01*
X154744345Y-78991327D02*
X154744345Y-78403789D01*
X154744345Y-78403789D02*
X154670903Y-78256904D01*
X154670903Y-78256904D02*
X154524019Y-78183462D01*
X154524019Y-78183462D02*
X154230249Y-78183462D01*
X154230249Y-78183462D02*
X154083365Y-78256904D01*
X154083365Y-78256904D02*
X154009923Y-78403789D01*
X154009923Y-78403789D02*
X154009923Y-78550673D01*
X154009923Y-78550673D02*
X154744345Y-78697558D01*
X153348942Y-79211654D02*
X153348942Y-78183462D01*
X153348942Y-78477231D02*
X153275500Y-78330346D01*
X153275500Y-78330346D02*
X153202058Y-78256904D01*
X153202058Y-78256904D02*
X153055173Y-78183462D01*
X153055173Y-78183462D02*
X152908288Y-78183462D01*
X151806654Y-79138212D02*
X151953538Y-79211654D01*
X151953538Y-79211654D02*
X152247308Y-79211654D01*
X152247308Y-79211654D02*
X152394192Y-79138212D01*
X152394192Y-79138212D02*
X152467634Y-78991327D01*
X152467634Y-78991327D02*
X152467634Y-78403789D01*
X152467634Y-78403789D02*
X152394192Y-78256904D01*
X152394192Y-78256904D02*
X152247308Y-78183462D01*
X152247308Y-78183462D02*
X151953538Y-78183462D01*
X151953538Y-78183462D02*
X151806654Y-78256904D01*
X151806654Y-78256904D02*
X151733212Y-78403789D01*
X151733212Y-78403789D02*
X151733212Y-78550673D01*
X151733212Y-78550673D02*
X152467634Y-78697558D01*
D11*
%TO.C,C1*%
X109727733Y-105918685D02*
X109783372Y-105863047D01*
X109783372Y-105863047D02*
X109839010Y-105696133D01*
X109839010Y-105696133D02*
X109839010Y-105584857D01*
X109839010Y-105584857D02*
X109783372Y-105417942D01*
X109783372Y-105417942D02*
X109672095Y-105306666D01*
X109672095Y-105306666D02*
X109560819Y-105251028D01*
X109560819Y-105251028D02*
X109338267Y-105195390D01*
X109338267Y-105195390D02*
X109171352Y-105195390D01*
X109171352Y-105195390D02*
X108948800Y-105251028D01*
X108948800Y-105251028D02*
X108837524Y-105306666D01*
X108837524Y-105306666D02*
X108726248Y-105417942D01*
X108726248Y-105417942D02*
X108670610Y-105584857D01*
X108670610Y-105584857D02*
X108670610Y-105696133D01*
X108670610Y-105696133D02*
X108726248Y-105863047D01*
X108726248Y-105863047D02*
X108781886Y-105918685D01*
X109839010Y-107031447D02*
X109839010Y-106363790D01*
X109839010Y-106697618D02*
X108670610Y-106697618D01*
X108670610Y-106697618D02*
X108837524Y-106586342D01*
X108837524Y-106586342D02*
X108948800Y-106475066D01*
X108948800Y-106475066D02*
X109004438Y-106363790D01*
%TO.C,J1*%
X188526466Y-119544124D02*
X188526466Y-120378695D01*
X188526466Y-120378695D02*
X188582105Y-120545609D01*
X188582105Y-120545609D02*
X188693381Y-120656886D01*
X188693381Y-120656886D02*
X188860295Y-120712524D01*
X188860295Y-120712524D02*
X188971571Y-120712524D01*
X187358066Y-120712524D02*
X188025723Y-120712524D01*
X187691895Y-120712524D02*
X187691895Y-119544124D01*
X187691895Y-119544124D02*
X187803171Y-119711038D01*
X187803171Y-119711038D02*
X187914447Y-119822314D01*
X187914447Y-119822314D02*
X188025723Y-119877952D01*
%TO.C,C4*%
X187705733Y-105918685D02*
X187761372Y-105863047D01*
X187761372Y-105863047D02*
X187817010Y-105696133D01*
X187817010Y-105696133D02*
X187817010Y-105584857D01*
X187817010Y-105584857D02*
X187761372Y-105417942D01*
X187761372Y-105417942D02*
X187650095Y-105306666D01*
X187650095Y-105306666D02*
X187538819Y-105251028D01*
X187538819Y-105251028D02*
X187316267Y-105195390D01*
X187316267Y-105195390D02*
X187149352Y-105195390D01*
X187149352Y-105195390D02*
X186926800Y-105251028D01*
X186926800Y-105251028D02*
X186815524Y-105306666D01*
X186815524Y-105306666D02*
X186704248Y-105417942D01*
X186704248Y-105417942D02*
X186648610Y-105584857D01*
X186648610Y-105584857D02*
X186648610Y-105696133D01*
X186648610Y-105696133D02*
X186704248Y-105863047D01*
X186704248Y-105863047D02*
X186759886Y-105918685D01*
X187038076Y-106920171D02*
X187817010Y-106920171D01*
X186592972Y-106641980D02*
X187427543Y-106363790D01*
X187427543Y-106363790D02*
X187427543Y-107087085D01*
%TO.C,C2*%
X133349733Y-106040685D02*
X133405372Y-105985047D01*
X133405372Y-105985047D02*
X133461010Y-105818133D01*
X133461010Y-105818133D02*
X133461010Y-105706857D01*
X133461010Y-105706857D02*
X133405372Y-105539942D01*
X133405372Y-105539942D02*
X133294095Y-105428666D01*
X133294095Y-105428666D02*
X133182819Y-105373028D01*
X133182819Y-105373028D02*
X132960267Y-105317390D01*
X132960267Y-105317390D02*
X132793352Y-105317390D01*
X132793352Y-105317390D02*
X132570800Y-105373028D01*
X132570800Y-105373028D02*
X132459524Y-105428666D01*
X132459524Y-105428666D02*
X132348248Y-105539942D01*
X132348248Y-105539942D02*
X132292610Y-105706857D01*
X132292610Y-105706857D02*
X132292610Y-105818133D01*
X132292610Y-105818133D02*
X132348248Y-105985047D01*
X132348248Y-105985047D02*
X132403886Y-106040685D01*
X132403886Y-106485790D02*
X132348248Y-106541428D01*
X132348248Y-106541428D02*
X132292610Y-106652704D01*
X132292610Y-106652704D02*
X132292610Y-106930895D01*
X132292610Y-106930895D02*
X132348248Y-107042171D01*
X132348248Y-107042171D02*
X132403886Y-107097809D01*
X132403886Y-107097809D02*
X132515162Y-107153447D01*
X132515162Y-107153447D02*
X132626438Y-107153447D01*
X132626438Y-107153447D02*
X132793352Y-107097809D01*
X132793352Y-107097809D02*
X133461010Y-106430152D01*
X133461010Y-106430152D02*
X133461010Y-107153447D01*
D12*
%TO.C,U$1*%
X115817526Y-124627618D02*
X116845621Y-124627618D01*
X116845621Y-124627618D02*
X116966573Y-124688095D01*
X116966573Y-124688095D02*
X117027050Y-124748571D01*
X117027050Y-124748571D02*
X117087526Y-124869523D01*
X117087526Y-124869523D02*
X117087526Y-125111428D01*
X117087526Y-125111428D02*
X117027050Y-125232380D01*
X117027050Y-125232380D02*
X116966573Y-125292857D01*
X116966573Y-125292857D02*
X116845621Y-125353333D01*
X116845621Y-125353333D02*
X115817526Y-125353333D01*
X117027050Y-125897618D02*
X117087526Y-126079047D01*
X117087526Y-126079047D02*
X117087526Y-126381428D01*
X117087526Y-126381428D02*
X117027050Y-126502380D01*
X117027050Y-126502380D02*
X116966573Y-126562856D01*
X116966573Y-126562856D02*
X116845621Y-126623333D01*
X116845621Y-126623333D02*
X116724669Y-126623333D01*
X116724669Y-126623333D02*
X116603716Y-126562856D01*
X116603716Y-126562856D02*
X116543240Y-126502380D01*
X116543240Y-126502380D02*
X116482764Y-126381428D01*
X116482764Y-126381428D02*
X116422288Y-126139523D01*
X116422288Y-126139523D02*
X116361811Y-126018571D01*
X116361811Y-126018571D02*
X116301335Y-125958094D01*
X116301335Y-125958094D02*
X116180383Y-125897618D01*
X116180383Y-125897618D02*
X116059430Y-125897618D01*
X116059430Y-125897618D02*
X115938478Y-125958094D01*
X115938478Y-125958094D02*
X115878002Y-126018571D01*
X115878002Y-126018571D02*
X115817526Y-126139523D01*
X115817526Y-126139523D02*
X115817526Y-126441904D01*
X115817526Y-126441904D02*
X115878002Y-126623333D01*
X115636097Y-126260475D02*
X117268954Y-126260475D01*
X117087526Y-127832857D02*
X117087526Y-127107142D01*
X117087526Y-127469999D02*
X115817526Y-127469999D01*
X115817526Y-127469999D02*
X115998954Y-127349047D01*
X115998954Y-127349047D02*
X116119907Y-127228095D01*
X116119907Y-127228095D02*
X116180383Y-127107142D01*
D11*
%TO.C,R3*%
X172557010Y-96945847D02*
X172000629Y-96556380D01*
X172557010Y-96278190D02*
X171388610Y-96278190D01*
X171388610Y-96278190D02*
X171388610Y-96723295D01*
X171388610Y-96723295D02*
X171444248Y-96834571D01*
X171444248Y-96834571D02*
X171499886Y-96890209D01*
X171499886Y-96890209D02*
X171611162Y-96945847D01*
X171611162Y-96945847D02*
X171778076Y-96945847D01*
X171778076Y-96945847D02*
X171889352Y-96890209D01*
X171889352Y-96890209D02*
X171944991Y-96834571D01*
X171944991Y-96834571D02*
X172000629Y-96723295D01*
X172000629Y-96723295D02*
X172000629Y-96278190D01*
X171388610Y-97335314D02*
X171388610Y-98058609D01*
X171388610Y-98058609D02*
X171833714Y-97669142D01*
X171833714Y-97669142D02*
X171833714Y-97836057D01*
X171833714Y-97836057D02*
X171889352Y-97947333D01*
X171889352Y-97947333D02*
X171944991Y-98002971D01*
X171944991Y-98002971D02*
X172056267Y-98058609D01*
X172056267Y-98058609D02*
X172334457Y-98058609D01*
X172334457Y-98058609D02*
X172445733Y-98002971D01*
X172445733Y-98002971D02*
X172501372Y-97947333D01*
X172501372Y-97947333D02*
X172557010Y-97836057D01*
X172557010Y-97836057D02*
X172557010Y-97502228D01*
X172557010Y-97502228D02*
X172501372Y-97390952D01*
X172501372Y-97390952D02*
X172445733Y-97335314D01*
%TO.C,C3*%
X163829733Y-105918685D02*
X163885372Y-105863047D01*
X163885372Y-105863047D02*
X163941010Y-105696133D01*
X163941010Y-105696133D02*
X163941010Y-105584857D01*
X163941010Y-105584857D02*
X163885372Y-105417942D01*
X163885372Y-105417942D02*
X163774095Y-105306666D01*
X163774095Y-105306666D02*
X163662819Y-105251028D01*
X163662819Y-105251028D02*
X163440267Y-105195390D01*
X163440267Y-105195390D02*
X163273352Y-105195390D01*
X163273352Y-105195390D02*
X163050800Y-105251028D01*
X163050800Y-105251028D02*
X162939524Y-105306666D01*
X162939524Y-105306666D02*
X162828248Y-105417942D01*
X162828248Y-105417942D02*
X162772610Y-105584857D01*
X162772610Y-105584857D02*
X162772610Y-105696133D01*
X162772610Y-105696133D02*
X162828248Y-105863047D01*
X162828248Y-105863047D02*
X162883886Y-105918685D01*
X162772610Y-106308152D02*
X162772610Y-107031447D01*
X162772610Y-107031447D02*
X163217714Y-106641980D01*
X163217714Y-106641980D02*
X163217714Y-106808895D01*
X163217714Y-106808895D02*
X163273352Y-106920171D01*
X163273352Y-106920171D02*
X163328991Y-106975809D01*
X163328991Y-106975809D02*
X163440267Y-107031447D01*
X163440267Y-107031447D02*
X163718457Y-107031447D01*
X163718457Y-107031447D02*
X163829733Y-106975809D01*
X163829733Y-106975809D02*
X163885372Y-106920171D01*
X163885372Y-106920171D02*
X163941010Y-106808895D01*
X163941010Y-106808895D02*
X163941010Y-106475066D01*
X163941010Y-106475066D02*
X163885372Y-106363790D01*
X163885372Y-106363790D02*
X163829733Y-106308152D01*
%TO.C,C5*%
X185927733Y-129972485D02*
X185983372Y-129916847D01*
X185983372Y-129916847D02*
X186039010Y-129749933D01*
X186039010Y-129749933D02*
X186039010Y-129638657D01*
X186039010Y-129638657D02*
X185983372Y-129471742D01*
X185983372Y-129471742D02*
X185872095Y-129360466D01*
X185872095Y-129360466D02*
X185760819Y-129304828D01*
X185760819Y-129304828D02*
X185538267Y-129249190D01*
X185538267Y-129249190D02*
X185371352Y-129249190D01*
X185371352Y-129249190D02*
X185148800Y-129304828D01*
X185148800Y-129304828D02*
X185037524Y-129360466D01*
X185037524Y-129360466D02*
X184926248Y-129471742D01*
X184926248Y-129471742D02*
X184870610Y-129638657D01*
X184870610Y-129638657D02*
X184870610Y-129749933D01*
X184870610Y-129749933D02*
X184926248Y-129916847D01*
X184926248Y-129916847D02*
X184981886Y-129972485D01*
X184870610Y-131029609D02*
X184870610Y-130473228D01*
X184870610Y-130473228D02*
X185426991Y-130417590D01*
X185426991Y-130417590D02*
X185371352Y-130473228D01*
X185371352Y-130473228D02*
X185315714Y-130584504D01*
X185315714Y-130584504D02*
X185315714Y-130862695D01*
X185315714Y-130862695D02*
X185371352Y-130973971D01*
X185371352Y-130973971D02*
X185426991Y-131029609D01*
X185426991Y-131029609D02*
X185538267Y-131085247D01*
X185538267Y-131085247D02*
X185816457Y-131085247D01*
X185816457Y-131085247D02*
X185927733Y-131029609D01*
X185927733Y-131029609D02*
X185983372Y-130973971D01*
X185983372Y-130973971D02*
X186039010Y-130862695D01*
X186039010Y-130862695D02*
X186039010Y-130584504D01*
X186039010Y-130584504D02*
X185983372Y-130473228D01*
X185983372Y-130473228D02*
X185927733Y-130417590D01*
%TO.C,R2*%
X141157010Y-96957847D02*
X140600629Y-96568380D01*
X141157010Y-96290190D02*
X139988610Y-96290190D01*
X139988610Y-96290190D02*
X139988610Y-96735295D01*
X139988610Y-96735295D02*
X140044248Y-96846571D01*
X140044248Y-96846571D02*
X140099886Y-96902209D01*
X140099886Y-96902209D02*
X140211162Y-96957847D01*
X140211162Y-96957847D02*
X140378076Y-96957847D01*
X140378076Y-96957847D02*
X140489352Y-96902209D01*
X140489352Y-96902209D02*
X140544991Y-96846571D01*
X140544991Y-96846571D02*
X140600629Y-96735295D01*
X140600629Y-96735295D02*
X140600629Y-96290190D01*
X140099886Y-97402952D02*
X140044248Y-97458590D01*
X140044248Y-97458590D02*
X139988610Y-97569866D01*
X139988610Y-97569866D02*
X139988610Y-97848057D01*
X139988610Y-97848057D02*
X140044248Y-97959333D01*
X140044248Y-97959333D02*
X140099886Y-98014971D01*
X140099886Y-98014971D02*
X140211162Y-98070609D01*
X140211162Y-98070609D02*
X140322438Y-98070609D01*
X140322438Y-98070609D02*
X140489352Y-98014971D01*
X140489352Y-98014971D02*
X141157010Y-97347314D01*
X141157010Y-97347314D02*
X141157010Y-98070609D01*
%TO.C,R4*%
X195957010Y-96891847D02*
X195400629Y-96502380D01*
X195957010Y-96224190D02*
X194788610Y-96224190D01*
X194788610Y-96224190D02*
X194788610Y-96669295D01*
X194788610Y-96669295D02*
X194844248Y-96780571D01*
X194844248Y-96780571D02*
X194899886Y-96836209D01*
X194899886Y-96836209D02*
X195011162Y-96891847D01*
X195011162Y-96891847D02*
X195178076Y-96891847D01*
X195178076Y-96891847D02*
X195289352Y-96836209D01*
X195289352Y-96836209D02*
X195344991Y-96780571D01*
X195344991Y-96780571D02*
X195400629Y-96669295D01*
X195400629Y-96669295D02*
X195400629Y-96224190D01*
X195178076Y-97893333D02*
X195957010Y-97893333D01*
X194732972Y-97615142D02*
X195567543Y-97336952D01*
X195567543Y-97336952D02*
X195567543Y-98060247D01*
%TO.C,R1*%
X118257010Y-96957847D02*
X117700629Y-96568380D01*
X118257010Y-96290190D02*
X117088610Y-96290190D01*
X117088610Y-96290190D02*
X117088610Y-96735295D01*
X117088610Y-96735295D02*
X117144248Y-96846571D01*
X117144248Y-96846571D02*
X117199886Y-96902209D01*
X117199886Y-96902209D02*
X117311162Y-96957847D01*
X117311162Y-96957847D02*
X117478076Y-96957847D01*
X117478076Y-96957847D02*
X117589352Y-96902209D01*
X117589352Y-96902209D02*
X117644991Y-96846571D01*
X117644991Y-96846571D02*
X117700629Y-96735295D01*
X117700629Y-96735295D02*
X117700629Y-96290190D01*
X118257010Y-98070609D02*
X118257010Y-97402952D01*
X118257010Y-97736780D02*
X117088610Y-97736780D01*
X117088610Y-97736780D02*
X117255524Y-97625504D01*
X117255524Y-97625504D02*
X117366800Y-97514228D01*
X117366800Y-97514228D02*
X117422438Y-97402952D01*
%TO.C,C7*%
X170377152Y-139699733D02*
X170432790Y-139755372D01*
X170432790Y-139755372D02*
X170599704Y-139811010D01*
X170599704Y-139811010D02*
X170710980Y-139811010D01*
X170710980Y-139811010D02*
X170877895Y-139755372D01*
X170877895Y-139755372D02*
X170989171Y-139644095D01*
X170989171Y-139644095D02*
X171044809Y-139532819D01*
X171044809Y-139532819D02*
X171100447Y-139310267D01*
X171100447Y-139310267D02*
X171100447Y-139143352D01*
X171100447Y-139143352D02*
X171044809Y-138920800D01*
X171044809Y-138920800D02*
X170989171Y-138809524D01*
X170989171Y-138809524D02*
X170877895Y-138698248D01*
X170877895Y-138698248D02*
X170710980Y-138642610D01*
X170710980Y-138642610D02*
X170599704Y-138642610D01*
X170599704Y-138642610D02*
X170432790Y-138698248D01*
X170432790Y-138698248D02*
X170377152Y-138753886D01*
X169987685Y-138642610D02*
X169208752Y-138642610D01*
X169208752Y-138642610D02*
X169709495Y-139811010D01*
D13*
%TO.C,J1*%
X179762000Y-118872000D02*
X179762000Y-118872000D01*
X179762000Y-118872000D02*
X179762000Y-118872000D01*
X179862000Y-118872000D02*
X179862000Y-118872000D01*
D14*
X181012000Y-114172000D02*
X181012000Y-126172000D01*
X181012000Y-126172000D02*
X196512000Y-126172000D01*
X196512000Y-114172000D02*
X181012000Y-114172000D01*
X196512000Y-126172000D02*
X196512000Y-114172000D01*
D13*
X179862000Y-118872000D02*
G75*
G03*
X179762000Y-118872000I-50000J0D01*
G01*
X179862000Y-118872000D02*
G75*
G03*
X179762000Y-118872000I-50000J0D01*
G01*
X179762000Y-118872000D02*
G75*
G03*
X179862000Y-118872000I50000J0D01*
G01*
%TO.C,G\u002A\u002A\u002A*%
G36*
X170878886Y-123053953D02*
G01*
X171042582Y-123288589D01*
X171033900Y-123545666D01*
X170792885Y-123729220D01*
X170573883Y-123766088D01*
X170325315Y-123667503D01*
X170195540Y-123454529D01*
X170220615Y-123202360D01*
X170436597Y-122986189D01*
X170649943Y-122924743D01*
X170878886Y-123053953D01*
G37*
G36*
X126397294Y-123053953D02*
G01*
X126560990Y-123288589D01*
X126552308Y-123545666D01*
X126311293Y-123729220D01*
X126092291Y-123766088D01*
X125843723Y-123667503D01*
X125713948Y-123454529D01*
X125739023Y-123202360D01*
X125955005Y-122986189D01*
X126168351Y-122924743D01*
X126397294Y-123053953D01*
G37*
G36*
X151202419Y-105113186D02*
G01*
X151313293Y-105358729D01*
X151339832Y-105592709D01*
X151222924Y-105807051D01*
X151071522Y-105880063D01*
X150763750Y-105888793D01*
X150550606Y-105716819D01*
X150499739Y-105402027D01*
X150605599Y-105163649D01*
X150885493Y-105060837D01*
X150986260Y-105052814D01*
X151202419Y-105113186D01*
G37*
G36*
X146806192Y-99790472D02*
G01*
X147032795Y-99970800D01*
X147116708Y-100238318D01*
X147021942Y-100482734D01*
X146900118Y-100563510D01*
X146612977Y-100597685D01*
X146345847Y-100496871D01*
X146208180Y-100287350D01*
X146264153Y-99992911D01*
X146486430Y-99798494D01*
X146794819Y-99786680D01*
X146806192Y-99790472D01*
G37*
G36*
X160141347Y-113139276D02*
G01*
X160162428Y-113191606D01*
X160068751Y-113400185D01*
X159793835Y-113709142D01*
X159682154Y-113820205D01*
X159422676Y-114134759D01*
X159314969Y-114426633D01*
X159317015Y-114791180D01*
X159274706Y-114952015D01*
X159078831Y-115143138D01*
X158919943Y-115267242D01*
X158819502Y-115467033D01*
X158759076Y-115631421D01*
X158612312Y-115611032D01*
X158444869Y-115407758D01*
X158408005Y-115334562D01*
X158383962Y-115235645D01*
X158406161Y-115105361D01*
X158491322Y-114906616D01*
X158656162Y-114602317D01*
X158917399Y-114155368D01*
X159291751Y-113528675D01*
X159370062Y-113418698D01*
X159636499Y-113191908D01*
X159922598Y-113085474D01*
X160141347Y-113139276D01*
G37*
G36*
X139423831Y-88908009D02*
G01*
X139497032Y-88996748D01*
X139635920Y-89075946D01*
X139860118Y-89070254D01*
X140248433Y-88987246D01*
X140486220Y-88933093D01*
X140794827Y-88892774D01*
X141011770Y-88939074D01*
X141234970Y-89081332D01*
X141355246Y-89180007D01*
X141543277Y-89431494D01*
X141509930Y-89622459D01*
X141254328Y-89723816D01*
X141056090Y-89762576D01*
X140516974Y-89936529D01*
X139827375Y-90223686D01*
X139027692Y-90606512D01*
X138158324Y-91067474D01*
X138053130Y-91125369D01*
X137364287Y-91476470D01*
X136832452Y-91693979D01*
X136479980Y-91768557D01*
X136292644Y-91755421D01*
X136041578Y-91647252D01*
X135985450Y-91451680D01*
X136107793Y-91195113D01*
X136392140Y-90903962D01*
X136822024Y-90604636D01*
X137380978Y-90323546D01*
X137490969Y-90276581D01*
X138135209Y-89992967D01*
X138581970Y-89774511D01*
X138865552Y-89600641D01*
X139020256Y-89450787D01*
X139080385Y-89304378D01*
X139113910Y-89112451D01*
X139192240Y-88835496D01*
X139288404Y-88775591D01*
X139423831Y-88908009D01*
G37*
G36*
X170862516Y-124870727D02*
G01*
X171201715Y-124949379D01*
X171472219Y-125045460D01*
X171582686Y-125137187D01*
X171542212Y-125203646D01*
X171334591Y-125273863D01*
X171041470Y-125269700D01*
X171008087Y-125360855D01*
X170982949Y-125657851D01*
X170972272Y-126112887D01*
X170978286Y-126676377D01*
X170999671Y-127263421D01*
X171038406Y-127746916D01*
X171094754Y-128022740D01*
X171171990Y-128115199D01*
X171418229Y-128145277D01*
X171554767Y-128194588D01*
X171582686Y-128288955D01*
X171581799Y-128294881D01*
X171445334Y-128357198D01*
X171112478Y-128399643D01*
X170634925Y-128415323D01*
X170590480Y-128415205D01*
X170123101Y-128397009D01*
X169804764Y-128352628D01*
X169687164Y-128288955D01*
X169688559Y-128271503D01*
X169817200Y-128157206D01*
X170097860Y-128147622D01*
X170106210Y-128148604D01*
X170151097Y-128129264D01*
X170182330Y-128039338D01*
X170202171Y-127842398D01*
X170212881Y-127502018D01*
X170216720Y-126981767D01*
X170215951Y-126245220D01*
X170216913Y-125956318D01*
X170237419Y-125352795D01*
X170284891Y-124986130D01*
X170360428Y-124845705D01*
X170545965Y-124831289D01*
X170862516Y-124870727D01*
G37*
G36*
X126379446Y-124871046D02*
G01*
X126719604Y-124948936D01*
X126990532Y-125044804D01*
X127101094Y-125137187D01*
X127062803Y-125201870D01*
X126857292Y-125273387D01*
X126564029Y-125271084D01*
X126516547Y-125321172D01*
X126482790Y-125510398D01*
X126461811Y-125867222D01*
X126451957Y-126419983D01*
X126451574Y-127197020D01*
X126458875Y-127547338D01*
X126497234Y-127881267D01*
X126583029Y-128052839D01*
X126732520Y-128115199D01*
X126740191Y-128116242D01*
X126974726Y-128146791D01*
X127003318Y-128153649D01*
X127101094Y-128288955D01*
X127096889Y-128301515D01*
X126937280Y-128360884D01*
X126580876Y-128400749D01*
X126074676Y-128415323D01*
X125892374Y-128414899D01*
X125460317Y-128405351D01*
X125228330Y-128376650D01*
X125156376Y-128320140D01*
X125204417Y-128227162D01*
X125310258Y-128132466D01*
X125463895Y-128102855D01*
X125570174Y-128118156D01*
X125654428Y-127982234D01*
X125707481Y-127663595D01*
X125732967Y-127139170D01*
X125734524Y-126385892D01*
X125734913Y-125754674D01*
X125756070Y-125254365D01*
X125801351Y-124960236D01*
X125872945Y-124847965D01*
X126061194Y-124832595D01*
X126379446Y-124871046D01*
G37*
G36*
X157682189Y-115816902D02*
G01*
X157667801Y-115883356D01*
X157495429Y-116136503D01*
X157160423Y-116465763D01*
X156703599Y-116833818D01*
X156165771Y-117203353D01*
X155829456Y-117428604D01*
X155465775Y-117700466D01*
X155232400Y-117908992D01*
X155111755Y-118051918D01*
X155071653Y-118175741D01*
X155200808Y-118253571D01*
X155347980Y-118353560D01*
X155388565Y-118572100D01*
X155209723Y-118818220D01*
X155118242Y-118881915D01*
X154930738Y-118902436D01*
X154653160Y-118770509D01*
X154610703Y-118745855D01*
X154298154Y-118607506D01*
X153996388Y-118588009D01*
X153632337Y-118695398D01*
X153132935Y-118937711D01*
X152910183Y-119054445D01*
X152554384Y-119228781D01*
X152354925Y-119293545D01*
X152267638Y-119258509D01*
X152248358Y-119133448D01*
X152252514Y-119113055D01*
X152393594Y-118951514D01*
X152694872Y-118726744D01*
X153101343Y-118480829D01*
X153112668Y-118474597D01*
X154007812Y-117971082D01*
X154847926Y-117478053D01*
X155599207Y-117016802D01*
X156227850Y-116608621D01*
X156700049Y-116274801D01*
X156982000Y-116036633D01*
X157121177Y-115901578D01*
X157408400Y-115698000D01*
X157607629Y-115665938D01*
X157682189Y-115816902D01*
G37*
G36*
X132345373Y-124624278D02*
G01*
X132512043Y-124791525D01*
X132812080Y-125129708D01*
X132915278Y-125322953D01*
X132819253Y-125367522D01*
X132733571Y-125356776D01*
X132585014Y-125374806D01*
X132490066Y-125484409D01*
X132436895Y-125725857D01*
X132413669Y-126139421D01*
X132408557Y-126765371D01*
X132408329Y-126974665D01*
X132401744Y-127520473D01*
X132379185Y-127879919D01*
X132331509Y-128103950D01*
X132249571Y-128243514D01*
X132124228Y-128349557D01*
X131771533Y-128483720D01*
X131286089Y-128473826D01*
X130789354Y-128301576D01*
X130629124Y-128202257D01*
X130523444Y-128060962D01*
X130648539Y-127986820D01*
X130992158Y-127998164D01*
X131137867Y-128014099D01*
X131425865Y-127998999D01*
X131612965Y-127875922D01*
X131717283Y-127609077D01*
X131756934Y-127162678D01*
X131750034Y-126500936D01*
X131713532Y-125319303D01*
X131176467Y-125326893D01*
X130921030Y-125321036D01*
X130700732Y-125263426D01*
X130639403Y-125129235D01*
X130641705Y-125093991D01*
X130748943Y-124966376D01*
X131050099Y-124938182D01*
X131284259Y-124940817D01*
X131594949Y-124893270D01*
X131740550Y-124744615D01*
X131776716Y-124458079D01*
X131776716Y-124066184D01*
X132345373Y-124624278D01*
G37*
G36*
X134828001Y-124881732D02*
G01*
X135286412Y-125097119D01*
X135580004Y-125421860D01*
X135679494Y-125817524D01*
X135555599Y-126245684D01*
X135396450Y-126427959D01*
X135062883Y-126688927D01*
X134651592Y-126937064D01*
X134604484Y-126961827D01*
X134198940Y-127201903D01*
X133986456Y-127401098D01*
X133924975Y-127597648D01*
X133941519Y-127738883D01*
X134107802Y-128009535D01*
X134394053Y-128149815D01*
X134727148Y-128152912D01*
X135033962Y-128012010D01*
X135241371Y-127720298D01*
X135400223Y-127399226D01*
X135551079Y-127299916D01*
X135652195Y-127438316D01*
X135669923Y-127807577D01*
X135628998Y-128123613D01*
X135524398Y-128329401D01*
X135315024Y-128433347D01*
X134846598Y-128508715D01*
X134293871Y-128453725D01*
X133817348Y-128259579D01*
X133473032Y-127950965D01*
X133316923Y-127552567D01*
X133314990Y-127532321D01*
X133326299Y-127171147D01*
X133461880Y-126884299D01*
X133760620Y-126621550D01*
X134261402Y-126332678D01*
X134703854Y-126073211D01*
X134975578Y-125818753D01*
X135026506Y-125579877D01*
X134870022Y-125334641D01*
X134746342Y-125230079D01*
X134410625Y-125117778D01*
X134101868Y-125241778D01*
X133861828Y-125591442D01*
X133739997Y-125840630D01*
X133611991Y-125955448D01*
X133520917Y-125821438D01*
X133464372Y-125437673D01*
X133474451Y-125180571D01*
X133618682Y-124935382D01*
X133940898Y-124820760D01*
X134468941Y-124819576D01*
X134828001Y-124881732D01*
G37*
G36*
X119996336Y-124854450D02*
G01*
X120368955Y-124960942D01*
X120485545Y-125022106D01*
X120867894Y-125339562D01*
X121014529Y-125705158D01*
X120929245Y-126094307D01*
X120615839Y-126482420D01*
X120078105Y-126844913D01*
X120022585Y-126874377D01*
X119604890Y-127124395D01*
X119376275Y-127337233D01*
X119291471Y-127553678D01*
X119290371Y-127563269D01*
X119352394Y-127903915D01*
X119610517Y-128102342D01*
X120040534Y-128139617D01*
X120227529Y-128110632D01*
X120439234Y-127983426D01*
X120557875Y-127688706D01*
X120592994Y-127575433D01*
X120717786Y-127344621D01*
X120845631Y-127262958D01*
X120927050Y-127372786D01*
X120930864Y-127393069D01*
X120989528Y-127914210D01*
X120927896Y-128241824D01*
X120740416Y-128406679D01*
X120467648Y-128476686D01*
X119956852Y-128494947D01*
X119447687Y-128405299D01*
X119021891Y-128225619D01*
X118761197Y-127973785D01*
X118753074Y-127958435D01*
X118597968Y-127452774D01*
X118685916Y-127005914D01*
X119012131Y-126627578D01*
X119571826Y-126327489D01*
X119871296Y-126192530D01*
X120216439Y-125932186D01*
X120330598Y-125652728D01*
X120203075Y-125370382D01*
X120132122Y-125301467D01*
X119811954Y-125146893D01*
X119489226Y-125169024D01*
X119239890Y-125347134D01*
X119139900Y-125660497D01*
X119109213Y-125784196D01*
X118950348Y-125887960D01*
X118887475Y-125863706D01*
X118790951Y-125677922D01*
X118755586Y-125393492D01*
X118787532Y-125112399D01*
X118892944Y-124936626D01*
X119119321Y-124857086D01*
X119540747Y-124819188D01*
X119996336Y-124854450D01*
G37*
G36*
X150793706Y-122982892D02*
G01*
X151293370Y-123004117D01*
X151623592Y-123047310D01*
X151742885Y-123107860D01*
X151739601Y-123136863D01*
X151616517Y-123250024D01*
X151607300Y-123251216D01*
X151363781Y-123297412D01*
X151354564Y-123299678D01*
X151111044Y-123344801D01*
X151083927Y-123385564D01*
X151041977Y-123645596D01*
X151010797Y-124129932D01*
X150991370Y-124820295D01*
X150984676Y-125698408D01*
X150984795Y-125909753D01*
X150988792Y-126692825D01*
X151000368Y-127262644D01*
X151022112Y-127651341D01*
X151056612Y-127891047D01*
X151106455Y-128013894D01*
X151174228Y-128052014D01*
X151251715Y-128058704D01*
X151511210Y-128083607D01*
X151566431Y-128099300D01*
X151711293Y-128257363D01*
X151694127Y-128320215D01*
X151530724Y-128376066D01*
X151178421Y-128406262D01*
X150605572Y-128415323D01*
X150146389Y-128410125D01*
X149745085Y-128385304D01*
X149540120Y-128335890D01*
X149499850Y-128257363D01*
X149527828Y-128200805D01*
X149699933Y-128083607D01*
X149765167Y-128076917D01*
X150036915Y-128052014D01*
X150054050Y-128049117D01*
X150117516Y-127994538D01*
X150163639Y-127847919D01*
X150195008Y-127577128D01*
X150214211Y-127150033D01*
X150223834Y-126534503D01*
X150226467Y-125698408D01*
X150224447Y-125196484D01*
X150210675Y-124418683D01*
X150184705Y-123838617D01*
X150147519Y-123474564D01*
X150100099Y-123344801D01*
X150090882Y-123343609D01*
X149847363Y-123297412D01*
X149838146Y-123295147D01*
X149594626Y-123250024D01*
X149566035Y-123243166D01*
X149468258Y-123107860D01*
X149480856Y-123086956D01*
X149671884Y-123031438D01*
X150060618Y-122994747D01*
X150605572Y-122981492D01*
X150793706Y-122982892D01*
G37*
G36*
X124556441Y-126031370D02*
G01*
X124671280Y-126457762D01*
X124679853Y-127033735D01*
X124539191Y-127575657D01*
X124242114Y-128032776D01*
X123781441Y-128354339D01*
X123780441Y-128354774D01*
X123391206Y-128481270D01*
X123028278Y-128536745D01*
X122828943Y-128522738D01*
X122437323Y-128430575D01*
X122061341Y-128281192D01*
X121778740Y-128108347D01*
X121667263Y-127945793D01*
X121706464Y-127831183D01*
X121888408Y-127854641D01*
X121934099Y-127872300D01*
X122239866Y-127948139D01*
X122626625Y-128005664D01*
X122935484Y-128003711D01*
X123400643Y-127842071D01*
X123722107Y-127507094D01*
X123856837Y-127032815D01*
X123878706Y-126601748D01*
X122867761Y-126591668D01*
X122749416Y-126589831D01*
X122268821Y-126568496D01*
X121895827Y-126530491D01*
X121702994Y-126482610D01*
X121623136Y-126340495D01*
X121622496Y-126159553D01*
X122299104Y-126159553D01*
X122406350Y-126212505D01*
X122702195Y-126251978D01*
X123120497Y-126267064D01*
X123502128Y-126261516D01*
X123783041Y-126230980D01*
X123911328Y-126159516D01*
X123941890Y-126031370D01*
X123907464Y-125838472D01*
X123722999Y-125516589D01*
X123446791Y-125274180D01*
X123156329Y-125193858D01*
X122959397Y-125214524D01*
X122722163Y-125239991D01*
X122611195Y-125337273D01*
X122468353Y-125589293D01*
X122349052Y-125896580D01*
X122299104Y-126159553D01*
X121622496Y-126159553D01*
X121622041Y-126030991D01*
X121715474Y-125652515D01*
X121890099Y-125290063D01*
X121976935Y-125185622D01*
X122336652Y-124957978D01*
X122805335Y-124827439D01*
X123282432Y-124827416D01*
X123288258Y-124828422D01*
X123821961Y-125033069D01*
X124235153Y-125406676D01*
X124520653Y-125898492D01*
X124556441Y-126031370D01*
G37*
G36*
X128098409Y-124902216D02*
G01*
X128523133Y-125215600D01*
X128630535Y-125310624D01*
X128801777Y-125424434D01*
X128840770Y-125382487D01*
X128823828Y-125261855D01*
X128884936Y-124984560D01*
X128957424Y-124885783D01*
X129135578Y-124832514D01*
X129468109Y-124883601D01*
X129555488Y-124903029D01*
X129853800Y-124964571D01*
X130004403Y-124987722D01*
X130080788Y-125029568D01*
X130104025Y-125175259D01*
X130018092Y-125271915D01*
X129981961Y-125276017D01*
X129723233Y-125303507D01*
X129723186Y-125303512D01*
X129652622Y-125426545D01*
X129594154Y-125738265D01*
X129550047Y-126175831D01*
X129522565Y-126676407D01*
X129513973Y-127177152D01*
X129526535Y-127615227D01*
X129562517Y-127927795D01*
X129624182Y-128052014D01*
X129650495Y-128055162D01*
X129902255Y-128083607D01*
X129957476Y-128099300D01*
X130102338Y-128257363D01*
X130101012Y-128303061D01*
X129977295Y-128368897D01*
X129665433Y-128404584D01*
X129133515Y-128415323D01*
X129035208Y-128414837D01*
X128553851Y-128395269D01*
X128230371Y-128351359D01*
X128112039Y-128288955D01*
X128115323Y-128259952D01*
X128238408Y-128146791D01*
X128247625Y-128145599D01*
X128491144Y-128099403D01*
X128503952Y-128096255D01*
X128726883Y-128052014D01*
X128740899Y-128041904D01*
X128791230Y-127863142D01*
X128828817Y-127508940D01*
X128846387Y-127040853D01*
X128847645Y-126871106D01*
X128838615Y-126416532D01*
X128796479Y-126125361D01*
X128705192Y-125928366D01*
X128548714Y-125756318D01*
X128409868Y-125636100D01*
X128189239Y-125538639D01*
X127943944Y-125602454D01*
X127770628Y-125663690D01*
X127604852Y-125615352D01*
X127433789Y-125376854D01*
X127301088Y-125128620D01*
X127302689Y-124997176D01*
X127445174Y-124899708D01*
X127721192Y-124817551D01*
X128098409Y-124902216D01*
G37*
G36*
X139358806Y-124851145D02*
G01*
X139594796Y-124882513D01*
X139927462Y-124936252D01*
X140082888Y-124964262D01*
X140274975Y-124993714D01*
X140330234Y-125004896D01*
X140379763Y-125089940D01*
X140261182Y-125205231D01*
X140022238Y-125294033D01*
X139674726Y-125363539D01*
X139665377Y-126636465D01*
X139659303Y-127083495D01*
X139637763Y-127536010D01*
X139591683Y-127834310D01*
X139510718Y-128035928D01*
X139384522Y-128198397D01*
X139367516Y-128216008D01*
X138962010Y-128457970D01*
X138460740Y-128506972D01*
X137936737Y-128355107D01*
X137855350Y-128315136D01*
X137538173Y-128186111D01*
X137379940Y-128195062D01*
X137336915Y-128340957D01*
X137302091Y-128433118D01*
X137115771Y-128476994D01*
X136836948Y-128444344D01*
X136473399Y-128424992D01*
X136172734Y-128378281D01*
X136105508Y-128257363D01*
X136191997Y-128165917D01*
X136431959Y-128114533D01*
X136437812Y-128114843D01*
X136610645Y-128088394D01*
X136690442Y-127941767D01*
X136713971Y-127609061D01*
X136725331Y-126929022D01*
X136738639Y-126181185D01*
X136752790Y-125633703D01*
X136771871Y-125256172D01*
X136799965Y-125018191D01*
X136841158Y-124889357D01*
X136899535Y-124839267D01*
X136979180Y-124837518D01*
X137084179Y-124853709D01*
X137631892Y-124933382D01*
X137967222Y-125012155D01*
X138103382Y-125097774D01*
X138067285Y-125199713D01*
X137977643Y-125243795D01*
X137730303Y-125289788D01*
X137568967Y-125327818D01*
X137452773Y-125440971D01*
X137450504Y-125483298D01*
X137442212Y-125741457D01*
X137431866Y-126159962D01*
X137421181Y-126672017D01*
X137414345Y-127192596D01*
X137426982Y-127526080D01*
X137472622Y-127712890D01*
X137564541Y-127806553D01*
X137716020Y-127860596D01*
X137787561Y-127880297D01*
X138232222Y-127972819D01*
X138551175Y-127953734D01*
X138766263Y-127794922D01*
X138899327Y-127468266D01*
X138972208Y-126945649D01*
X139006747Y-126198953D01*
X139042885Y-124813830D01*
X139358806Y-124851145D01*
G37*
G36*
X144287696Y-126688603D02*
G01*
X144306126Y-126917533D01*
X144201180Y-127501479D01*
X143949703Y-127998332D01*
X143558958Y-128343876D01*
X143347766Y-128439867D01*
X142795516Y-128519809D01*
X142265273Y-128352139D01*
X141956491Y-128198162D01*
X141801595Y-128194097D01*
X141759801Y-128340957D01*
X141724977Y-128433118D01*
X141538656Y-128476994D01*
X141259834Y-128444344D01*
X140896285Y-128424992D01*
X140595622Y-128378234D01*
X140527711Y-128257363D01*
X140555689Y-128200805D01*
X140727794Y-128083607D01*
X140757755Y-128080356D01*
X141001592Y-128052014D01*
X141039446Y-127962856D01*
X141077089Y-127636578D01*
X141104870Y-127085594D01*
X141117859Y-126511285D01*
X141759801Y-126511285D01*
X141759849Y-126617782D01*
X141764744Y-127156517D01*
X141785117Y-127500155D01*
X141831470Y-127698436D01*
X141914307Y-127801102D01*
X142044129Y-127857893D01*
X142552631Y-127963797D01*
X143006894Y-127894618D01*
X143326676Y-127615018D01*
X143521883Y-127120049D01*
X143575665Y-126688603D01*
X143511140Y-126127771D01*
X143304954Y-125664527D01*
X142981631Y-125347472D01*
X142565698Y-125225208D01*
X142252654Y-125219517D01*
X142000387Y-125241331D01*
X141853034Y-125336628D01*
X141782528Y-125550195D01*
X141760805Y-125926818D01*
X141759801Y-126511285D01*
X141117859Y-126511285D01*
X141122067Y-126325203D01*
X141127960Y-125370705D01*
X141127960Y-122705192D01*
X141665024Y-122773737D01*
X141788084Y-122789068D01*
X142145298Y-122829411D01*
X142370580Y-122848702D01*
X142438745Y-122867408D01*
X142486418Y-123013084D01*
X142483089Y-123022874D01*
X142417770Y-123128974D01*
X142265424Y-123183733D01*
X141943323Y-123218432D01*
X141893807Y-123228865D01*
X141808674Y-123327944D01*
X141775989Y-123572843D01*
X141785363Y-124016025D01*
X141822985Y-124797821D01*
X142416740Y-124818630D01*
X142777353Y-124862145D01*
X143398289Y-125096258D01*
X143880787Y-125499360D01*
X144047358Y-125745235D01*
X144257273Y-126310713D01*
X144287696Y-126688603D01*
G37*
G36*
X162526845Y-124466318D02*
G01*
X162522450Y-124571255D01*
X162512241Y-125201175D01*
X162514322Y-125866992D01*
X162528324Y-126520634D01*
X162553881Y-127114030D01*
X162590624Y-127599106D01*
X162638186Y-127927792D01*
X162696200Y-128052014D01*
X162924849Y-128078522D01*
X163113490Y-128135836D01*
X163261343Y-128257363D01*
X163281976Y-128281461D01*
X163271025Y-128347245D01*
X163106116Y-128388275D01*
X162754393Y-128409363D01*
X162183001Y-128415323D01*
X161632609Y-128408514D01*
X161239562Y-128382739D01*
X161038931Y-128333750D01*
X160999353Y-128257363D01*
X161008179Y-128232424D01*
X161078861Y-128133797D01*
X161243676Y-128082972D01*
X161581861Y-128052014D01*
X161623952Y-128047190D01*
X161725642Y-127992162D01*
X161783250Y-127837653D01*
X161808221Y-127532639D01*
X161812001Y-127026100D01*
X161807146Y-126015982D01*
X161214456Y-126065500D01*
X160580934Y-126030986D01*
X159989760Y-125828770D01*
X159510639Y-125489611D01*
X159189492Y-125046383D01*
X159072238Y-124531958D01*
X159078506Y-124497910D01*
X159899282Y-124497910D01*
X159931765Y-124838437D01*
X160108786Y-125233449D01*
X160381433Y-125499398D01*
X160581588Y-125576661D01*
X160935163Y-125656280D01*
X161310842Y-125702465D01*
X161619692Y-125705281D01*
X161772778Y-125654797D01*
X161781756Y-125618081D01*
X161800538Y-125377091D01*
X161812910Y-124972159D01*
X161816551Y-124466318D01*
X161813455Y-123360597D01*
X161295832Y-123361069D01*
X161250413Y-123361857D01*
X160802169Y-123437724D01*
X160384864Y-123609769D01*
X160072122Y-123838733D01*
X159937568Y-124085356D01*
X159927333Y-124200846D01*
X159899282Y-124497910D01*
X159078506Y-124497910D01*
X159173797Y-123980327D01*
X159487862Y-123499264D01*
X159984438Y-123174736D01*
X160271613Y-123096011D01*
X160725246Y-123029609D01*
X161262059Y-122987555D01*
X161826296Y-122970195D01*
X162362203Y-122977872D01*
X162814024Y-123010933D01*
X163126004Y-123069722D01*
X163242388Y-123154583D01*
X163208328Y-123246458D01*
X163021243Y-123326813D01*
X162904844Y-123328340D01*
X162660211Y-123343274D01*
X162630482Y-123377601D01*
X162581203Y-123611396D01*
X162545314Y-124025305D01*
X162526845Y-124466318D01*
G37*
G36*
X157907133Y-123360597D02*
G01*
X157835540Y-123443246D01*
X157809918Y-123595986D01*
X157788663Y-123951110D01*
X157773048Y-124456532D01*
X157763153Y-125061882D01*
X157759057Y-125716791D01*
X157760840Y-126370889D01*
X157768583Y-126973806D01*
X157782365Y-127475174D01*
X157802266Y-127824622D01*
X157828365Y-127971781D01*
X157932841Y-128019020D01*
X158188662Y-128076527D01*
X158389507Y-128138382D01*
X158539032Y-128268937D01*
X158527249Y-128313478D01*
X158356910Y-128371821D01*
X157976975Y-128404888D01*
X157366268Y-128415323D01*
X156833016Y-128408822D01*
X156438473Y-128383212D01*
X156237062Y-128334141D01*
X156197363Y-128257363D01*
X156208977Y-128225262D01*
X156282196Y-128130377D01*
X156452480Y-128081498D01*
X156797612Y-128052014D01*
X156855722Y-128045573D01*
X156960338Y-127991010D01*
X157018996Y-127839798D01*
X157044673Y-127539941D01*
X157050348Y-127039441D01*
X157050348Y-126042664D01*
X156313589Y-126059484D01*
X156262334Y-126060499D01*
X155787521Y-126040612D01*
X155423847Y-125939665D01*
X155044818Y-125724234D01*
X155028474Y-125713345D01*
X154559338Y-125296410D01*
X154327051Y-124821581D01*
X154325601Y-124733581D01*
X155129514Y-124733581D01*
X155304794Y-125194340D01*
X155694951Y-125527401D01*
X155784975Y-125566561D01*
X156103259Y-125648767D01*
X156474462Y-125699589D01*
X156799375Y-125708421D01*
X156978791Y-125664658D01*
X156993170Y-125627479D01*
X157022450Y-125387606D01*
X157042752Y-124983435D01*
X157050348Y-124476849D01*
X157050348Y-123360597D01*
X156538600Y-123360597D01*
X156322157Y-123372050D01*
X155820514Y-123489437D01*
X155429276Y-123706849D01*
X155218519Y-123990831D01*
X155172351Y-124155577D01*
X155129514Y-124733581D01*
X154325601Y-124733581D01*
X154317817Y-124261092D01*
X154365789Y-124055137D01*
X154652012Y-123550823D01*
X155154527Y-123172172D01*
X155244791Y-123139150D01*
X155570158Y-123078595D01*
X156032198Y-123031686D01*
X156575415Y-122999577D01*
X157144311Y-122983419D01*
X157683390Y-122984365D01*
X158137157Y-123003565D01*
X158450114Y-123042172D01*
X158566766Y-123101339D01*
X158545771Y-123163694D01*
X158377214Y-123250024D01*
X158093373Y-123280779D01*
X157929289Y-123335020D01*
X157907133Y-123360597D01*
G37*
G36*
X146925438Y-124862804D02*
G01*
X147263899Y-124974499D01*
X147434671Y-125034632D01*
X147655145Y-124939026D01*
X147726539Y-124884203D01*
X147961959Y-124836933D01*
X148355333Y-124896563D01*
X148497358Y-124929989D01*
X148801250Y-125013687D01*
X148948649Y-125073491D01*
X148975573Y-125128546D01*
X148870941Y-125231175D01*
X148594080Y-125290081D01*
X148523069Y-125298099D01*
X148429334Y-125341158D01*
X148373426Y-125458889D01*
X148347945Y-125695776D01*
X148345487Y-126096300D01*
X148358652Y-126704945D01*
X148378664Y-127255040D01*
X148417348Y-127742991D01*
X148474054Y-128021675D01*
X148552089Y-128115199D01*
X148798328Y-128145277D01*
X148934866Y-128194588D01*
X148962786Y-128288955D01*
X148961899Y-128294881D01*
X148825434Y-128357198D01*
X148492577Y-128399643D01*
X148015024Y-128415323D01*
X147970580Y-128415205D01*
X147503201Y-128397009D01*
X147184863Y-128352628D01*
X147067263Y-128288955D01*
X147068658Y-128271503D01*
X147197300Y-128157206D01*
X147477960Y-128147622D01*
X147519536Y-128153183D01*
X147555748Y-128130415D01*
X147578694Y-128033053D01*
X147593065Y-127816574D01*
X147603550Y-127436460D01*
X147614838Y-126848190D01*
X147616547Y-126648199D01*
X147601286Y-126138238D01*
X147561178Y-125746585D01*
X147502007Y-125540280D01*
X147477517Y-125512563D01*
X147221875Y-125396668D01*
X146855083Y-125361901D01*
X146486838Y-125408553D01*
X146226840Y-125536912D01*
X146198838Y-125580163D01*
X146127957Y-125832097D01*
X146069305Y-126227050D01*
X146026525Y-126699449D01*
X146003263Y-127183719D01*
X146003164Y-127614286D01*
X146029872Y-127925576D01*
X146087034Y-128052014D01*
X146112376Y-128055979D01*
X146330116Y-128083607D01*
X146385336Y-128099300D01*
X146530199Y-128257363D01*
X146508532Y-128304662D01*
X146313646Y-128368812D01*
X145981205Y-128407955D01*
X145583887Y-128420815D01*
X145194370Y-128406119D01*
X144885333Y-128362590D01*
X144729452Y-128288955D01*
X144742439Y-128206117D01*
X144920435Y-128142021D01*
X145203333Y-128147622D01*
X145227583Y-128111645D01*
X145263858Y-127880611D01*
X145288820Y-127482118D01*
X145298109Y-126970316D01*
X145298820Y-126810368D01*
X145330008Y-126070828D01*
X145413718Y-125536158D01*
X145558695Y-125168872D01*
X145773682Y-124931487D01*
X145784621Y-124923923D01*
X146076002Y-124834347D01*
X146492873Y-124815030D01*
X146925438Y-124862804D01*
G37*
G36*
X153233519Y-100233577D02*
G01*
X153428808Y-100467677D01*
X153729228Y-100844251D01*
X153938782Y-101129003D01*
X154017512Y-101274692D01*
X153948729Y-101371166D01*
X153769819Y-101316860D01*
X153549229Y-101123686D01*
X153456848Y-101020603D01*
X153331947Y-100949353D01*
X153169253Y-101009332D01*
X152887033Y-101211362D01*
X152793538Y-101282113D01*
X152449480Y-101552080D01*
X152185174Y-101772649D01*
X152036647Y-101899721D01*
X151716252Y-102166428D01*
X151293077Y-102514336D01*
X150819005Y-102900607D01*
X150789954Y-102924202D01*
X150284472Y-103349410D01*
X149964132Y-103656245D01*
X149806917Y-103868461D01*
X149790804Y-104009814D01*
X149839701Y-104136962D01*
X149944047Y-104453883D01*
X149964867Y-104542781D01*
X149933678Y-104650194D01*
X149769558Y-104547921D01*
X149471295Y-104234970D01*
X149037680Y-103710348D01*
X148882485Y-103509534D01*
X148629621Y-103149080D01*
X148483522Y-102890354D01*
X148472071Y-102779260D01*
X148638669Y-102818757D01*
X148868306Y-102991048D01*
X149040309Y-103144627D01*
X149205590Y-103173130D01*
X149445603Y-103040331D01*
X149567175Y-102954911D01*
X149901907Y-102692873D01*
X150255980Y-102390196D01*
X150328332Y-102324569D01*
X150570510Y-102078152D01*
X150641181Y-101924868D01*
X150566327Y-101816704D01*
X150470009Y-101739249D01*
X150087016Y-101271427D01*
X149820782Y-100682392D01*
X149769475Y-100369861D01*
X150226467Y-100369861D01*
X150243273Y-100505577D01*
X150369977Y-100881564D01*
X150574836Y-101281217D01*
X150802484Y-101587502D01*
X150815152Y-101600149D01*
X150968968Y-101726811D01*
X151105507Y-101707315D01*
X151327600Y-101530497D01*
X151366881Y-101496889D01*
X151661379Y-101256489D01*
X151998788Y-100993432D01*
X152253813Y-100797515D01*
X152543080Y-100553382D01*
X152675164Y-100381291D01*
X152680265Y-100233577D01*
X152588583Y-100062576D01*
X152442030Y-99874996D01*
X152062355Y-99553270D01*
X151640365Y-99344675D01*
X151264064Y-99299885D01*
X151251667Y-99302111D01*
X150917303Y-99452732D01*
X150584244Y-99733218D01*
X150328596Y-100065089D01*
X150226467Y-100369861D01*
X149769475Y-100369861D01*
X149720995Y-100074550D01*
X149721835Y-99964713D01*
X149758985Y-99590859D01*
X149888776Y-99318961D01*
X150162558Y-99027225D01*
X150482219Y-98763643D01*
X150770704Y-98650934D01*
X151150667Y-98641631D01*
X151260125Y-98651267D01*
X151675951Y-98739378D01*
X151990202Y-98877702D01*
X152117586Y-98988014D01*
X152381910Y-99259450D01*
X152715192Y-99628034D01*
X153077477Y-100046524D01*
X153233519Y-100233577D01*
G37*
G36*
X175725043Y-123360597D02*
G01*
X175653450Y-123443246D01*
X175627828Y-123595986D01*
X175606573Y-123951110D01*
X175590958Y-124456532D01*
X175581063Y-125061882D01*
X175577581Y-125618622D01*
X175576967Y-125716791D01*
X175578751Y-126370889D01*
X175586494Y-126973806D01*
X175600276Y-127475174D01*
X175620176Y-127824622D01*
X175646275Y-127971781D01*
X175750751Y-128019020D01*
X176006572Y-128076527D01*
X176207663Y-128139614D01*
X176358918Y-128274863D01*
X176350683Y-128304648D01*
X176176599Y-128364388D01*
X175824972Y-128401549D01*
X175349009Y-128417171D01*
X174801915Y-128412294D01*
X174236896Y-128387956D01*
X173707157Y-128345197D01*
X173265904Y-128285058D01*
X172966343Y-128208577D01*
X172505852Y-127904735D01*
X172197553Y-127429180D01*
X172088159Y-126835179D01*
X172095316Y-126730119D01*
X172906894Y-126730119D01*
X172914756Y-127243606D01*
X173121016Y-127647801D01*
X173508999Y-127901648D01*
X173531836Y-127909334D01*
X173941131Y-127999204D01*
X174381643Y-128036218D01*
X174868258Y-128036218D01*
X174868258Y-126827420D01*
X174868258Y-125618622D01*
X174331194Y-125678018D01*
X173993980Y-125726913D01*
X173479931Y-125885072D01*
X173147237Y-126145349D01*
X172953531Y-126534070D01*
X172906894Y-126730119D01*
X172095316Y-126730119D01*
X172102665Y-126622246D01*
X172225835Y-126288274D01*
X172517811Y-125938507D01*
X172658204Y-125808928D01*
X172957058Y-125592999D01*
X173181243Y-125506726D01*
X173264849Y-125494169D01*
X173242239Y-125413561D01*
X173004803Y-125241882D01*
X172737332Y-125017420D01*
X172483830Y-124585868D01*
X172465945Y-124418018D01*
X173165306Y-124418018D01*
X173300626Y-124837080D01*
X173619800Y-125137898D01*
X173909422Y-125246594D01*
X174274286Y-125320021D01*
X174602179Y-125339017D01*
X174791848Y-125290406D01*
X174796575Y-125283912D01*
X174832869Y-125103535D01*
X174858529Y-124748160D01*
X174868258Y-124287296D01*
X174868258Y-123360597D01*
X174434196Y-123360597D01*
X173943938Y-123407506D01*
X173503557Y-123602992D01*
X173239500Y-123958571D01*
X173239189Y-123959323D01*
X173165306Y-124418018D01*
X172465945Y-124418018D01*
X172433226Y-124110956D01*
X172587323Y-123654846D01*
X172947923Y-123279698D01*
X172959341Y-123272028D01*
X173163669Y-123156417D01*
X173401816Y-123078644D01*
X173728500Y-123030433D01*
X174198440Y-123003512D01*
X174866353Y-122989606D01*
X175300829Y-122987467D01*
X175895672Y-123002551D01*
X176260602Y-123041031D01*
X176384676Y-123102096D01*
X176363685Y-123164102D01*
X176195124Y-123250024D01*
X175911283Y-123280779D01*
X175747199Y-123335020D01*
X175725043Y-123360597D01*
G37*
G36*
X148995362Y-95016281D02*
G01*
X149169368Y-95235376D01*
X149445723Y-95576770D01*
X149477038Y-95616035D01*
X149635460Y-95884421D01*
X149655628Y-96057693D01*
X149551561Y-96089652D01*
X149337281Y-95934097D01*
X149172059Y-95782303D01*
X148991092Y-95706586D01*
X148785762Y-95787265D01*
X148476924Y-96033482D01*
X148421611Y-96080722D01*
X148063811Y-96379105D01*
X147746921Y-96633731D01*
X147455914Y-96867539D01*
X147129447Y-97143298D01*
X147097193Y-97171378D01*
X146779162Y-97435848D01*
X146429785Y-97711955D01*
X146353512Y-97770447D01*
X145910239Y-98118335D01*
X145637072Y-98359948D01*
X145503959Y-98532633D01*
X145480850Y-98673735D01*
X145537693Y-98820599D01*
X145621443Y-99006353D01*
X145677214Y-99226501D01*
X145669406Y-99275362D01*
X145558346Y-99329585D01*
X145480047Y-99270695D01*
X145271824Y-99051995D01*
X144996578Y-98729226D01*
X144701080Y-98361171D01*
X144432103Y-98006613D01*
X144236418Y-97724336D01*
X144160796Y-97573122D01*
X144201947Y-97470309D01*
X144360494Y-97497471D01*
X144595372Y-97699338D01*
X144620970Y-97726473D01*
X144875581Y-97869890D01*
X145164832Y-97793249D01*
X145519253Y-97489621D01*
X145548133Y-97459513D01*
X145729464Y-97292412D01*
X145803582Y-97264805D01*
X145809927Y-97273091D01*
X145924506Y-97201873D01*
X146137419Y-97006406D01*
X146471257Y-96672569D01*
X146138369Y-96386527D01*
X145786919Y-95963118D01*
X145521847Y-95357019D01*
X145484060Y-95101204D01*
X145958004Y-95101204D01*
X145980032Y-95339017D01*
X146115766Y-95677684D01*
X146217386Y-95888202D01*
X146468996Y-96281105D01*
X146697832Y-96456912D01*
X146888036Y-96400775D01*
X146921061Y-96367775D01*
X147142941Y-96175067D01*
X147441955Y-95938706D01*
X147528233Y-95873064D01*
X148039061Y-95465835D01*
X148351418Y-95177821D01*
X148457313Y-95016281D01*
X148457297Y-95015068D01*
X148363834Y-94853656D01*
X148135230Y-94609647D01*
X147841548Y-94345997D01*
X147552849Y-94125659D01*
X147339196Y-94011589D01*
X147118267Y-94001238D01*
X146723369Y-94133518D01*
X146349966Y-94402294D01*
X146085817Y-94755479D01*
X146045695Y-94841438D01*
X145958004Y-95101204D01*
X145484060Y-95101204D01*
X145424477Y-94697825D01*
X145428577Y-94570233D01*
X145528888Y-94177874D01*
X145804681Y-93809189D01*
X146045413Y-93563193D01*
X146228341Y-93431289D01*
X146449000Y-93377137D01*
X146814527Y-93352259D01*
X147030329Y-93355936D01*
X147426952Y-93461588D01*
X147832466Y-93717785D01*
X148281829Y-94149572D01*
X148809998Y-94781997D01*
X148863768Y-94850589D01*
X148995362Y-95016281D01*
G37*
G36*
X162280128Y-95959790D02*
G01*
X162292250Y-96002272D01*
X162367195Y-96272573D01*
X162465570Y-96633731D01*
X162479725Y-96681301D01*
X162636689Y-97057936D01*
X162885469Y-97533574D01*
X163179023Y-98017009D01*
X163265668Y-98152212D01*
X163502758Y-98564669D01*
X163652523Y-98893681D01*
X163685625Y-99077821D01*
X163688303Y-99245394D01*
X163823324Y-99490583D01*
X163829546Y-99497506D01*
X163954972Y-99706083D01*
X163922312Y-99934324D01*
X163721045Y-100261543D01*
X163650077Y-100400590D01*
X163635644Y-100653741D01*
X163720241Y-101053157D01*
X163772521Y-101292605D01*
X163845560Y-101831653D01*
X163874228Y-102365710D01*
X163894720Y-102823471D01*
X163972232Y-103126617D01*
X164126965Y-103331243D01*
X164246009Y-103447705D01*
X164364518Y-103647624D01*
X164252502Y-103747064D01*
X163906929Y-103751822D01*
X163756060Y-103739878D01*
X163526985Y-103757753D01*
X163421752Y-103894389D01*
X163362942Y-104215820D01*
X163351967Y-104286426D01*
X163257780Y-104689490D01*
X163139628Y-104999299D01*
X163101103Y-105106347D01*
X163038240Y-105471586D01*
X162993059Y-106002441D01*
X162971382Y-106642085D01*
X162969611Y-106746522D01*
X162922053Y-107543293D01*
X162822102Y-108286347D01*
X162680446Y-108925975D01*
X162507772Y-109412469D01*
X162314767Y-109696120D01*
X162297663Y-109712891D01*
X162156019Y-109918918D01*
X161953801Y-110275891D01*
X161728843Y-110717841D01*
X161673228Y-110830275D01*
X161457880Y-111220763D01*
X161276466Y-111484356D01*
X161163495Y-111569095D01*
X161087157Y-111523701D01*
X160987588Y-111274342D01*
X161013778Y-110858407D01*
X161160965Y-110310643D01*
X161424387Y-109665798D01*
X161627179Y-109210759D01*
X161809696Y-108691443D01*
X161918690Y-108164659D01*
X161986054Y-107507867D01*
X162001094Y-107272624D01*
X162015363Y-106764771D01*
X162001822Y-106367240D01*
X161961734Y-106150604D01*
X161925011Y-105971253D01*
X162027919Y-105828950D01*
X162232335Y-105859158D01*
X162283099Y-105891067D01*
X162327174Y-105893382D01*
X162372224Y-105827935D01*
X162430306Y-105659239D01*
X162513479Y-105351806D01*
X162633803Y-104870151D01*
X162803336Y-104178785D01*
X162823290Y-104097198D01*
X162970915Y-103461480D01*
X163059569Y-102969738D01*
X163097544Y-102532322D01*
X163093132Y-102059582D01*
X163054625Y-101461869D01*
X163030951Y-101127834D01*
X162996848Y-100525542D01*
X162977586Y-100004700D01*
X162976824Y-99650465D01*
X162977329Y-99635474D01*
X162921202Y-99117010D01*
X162746254Y-98472035D01*
X162478009Y-97778138D01*
X162141994Y-97112907D01*
X162078189Y-96994423D01*
X161916585Y-96576527D01*
X161875025Y-96238075D01*
X161906188Y-96094536D01*
X162026336Y-95887132D01*
X162171493Y-95828127D01*
X162280128Y-95959790D01*
G37*
G36*
X168935959Y-125927278D02*
G01*
X168927375Y-126403295D01*
X168707607Y-126883477D01*
X168681652Y-126918624D01*
X168539035Y-127136794D01*
X168548535Y-127266576D01*
X168710766Y-127410242D01*
X168842868Y-127566850D01*
X168948146Y-127883286D01*
X168936178Y-128203229D01*
X168797633Y-128418385D01*
X168739475Y-128478930D01*
X168767938Y-128640979D01*
X168971389Y-128919181D01*
X169034489Y-128997472D01*
X169165059Y-129240185D01*
X169267588Y-129430775D01*
X169255381Y-129804216D01*
X168998615Y-130115518D01*
X168498040Y-130362401D01*
X168407190Y-130390091D01*
X167924691Y-130472230D01*
X167440184Y-130478623D01*
X166728118Y-130327630D01*
X166203975Y-130030151D01*
X165880377Y-129596915D01*
X165866362Y-129526188D01*
X166432629Y-129526188D01*
X166653608Y-129867905D01*
X166712732Y-129913151D01*
X167042952Y-130062748D01*
X167445695Y-130149874D01*
X167508019Y-130154919D01*
X168001298Y-130101809D01*
X168371934Y-129903375D01*
X168587695Y-129602030D01*
X168616352Y-129240185D01*
X168425677Y-128860256D01*
X168406455Y-128839824D01*
X168136179Y-128714374D01*
X167728417Y-128659576D01*
X167276220Y-128673437D01*
X166872640Y-128753961D01*
X166610729Y-128899154D01*
X166451992Y-129152449D01*
X166432629Y-129526188D01*
X165866362Y-129526188D01*
X165769751Y-129038632D01*
X165785649Y-128800748D01*
X165905161Y-128478463D01*
X166171046Y-128260073D01*
X166617923Y-128122779D01*
X167280412Y-128043781D01*
X167397404Y-128034558D01*
X167862858Y-127984689D01*
X168212560Y-127926549D01*
X168378192Y-127870895D01*
X168418553Y-127791294D01*
X168363760Y-127597826D01*
X168191448Y-127431851D01*
X167975595Y-127383017D01*
X167638941Y-127397822D01*
X167151996Y-127282302D01*
X166714881Y-127043175D01*
X166395229Y-126720940D01*
X166260672Y-126356096D01*
X166276651Y-125969707D01*
X166959859Y-125969707D01*
X166966932Y-126389549D01*
X167114178Y-126759261D01*
X167210137Y-126870613D01*
X167518280Y-127020322D01*
X167836916Y-126953906D01*
X168089501Y-126677761D01*
X168199251Y-126372345D01*
X168226901Y-125927278D01*
X168122797Y-125528015D01*
X167907630Y-125240269D01*
X167602089Y-125129751D01*
X167563447Y-125131564D01*
X167279740Y-125268499D01*
X167071336Y-125571952D01*
X166959859Y-125969707D01*
X166276651Y-125969707D01*
X166284720Y-125774583D01*
X166429395Y-125414079D01*
X166440899Y-125399525D01*
X166460879Y-125284211D01*
X166259105Y-125241154D01*
X166054360Y-125235135D01*
X165864527Y-125241154D01*
X165820363Y-125226148D01*
X165769751Y-125066567D01*
X165770253Y-125055600D01*
X165835639Y-124963776D01*
X166032012Y-124900018D01*
X166389710Y-124860817D01*
X166939076Y-124842662D01*
X167710448Y-124842043D01*
X167976123Y-124872353D01*
X168432975Y-125082978D01*
X168762304Y-125446225D01*
X168936356Y-125905271D01*
X168935959Y-125927278D01*
G37*
G36*
X157657713Y-105701210D02*
G01*
X157917507Y-106026905D01*
X158195952Y-106424099D01*
X158316023Y-106667097D01*
X158272783Y-106745941D01*
X158061293Y-106650673D01*
X157903288Y-106530791D01*
X157808557Y-106396866D01*
X157791313Y-106330070D01*
X157643710Y-106309233D01*
X157374358Y-106450092D01*
X157018756Y-106737345D01*
X156840070Y-106897250D01*
X156627696Y-107071727D01*
X156544875Y-107115845D01*
X156524923Y-107122288D01*
X156486717Y-107134626D01*
X156317584Y-107280248D01*
X156147811Y-107438568D01*
X155731265Y-107801588D01*
X155244381Y-108204363D01*
X154772304Y-108575522D01*
X154496561Y-108787698D01*
X154217805Y-109026165D01*
X154095326Y-109197054D01*
X154099789Y-109349607D01*
X154201857Y-109533071D01*
X154334563Y-109753847D01*
X154396617Y-109897942D01*
X154372958Y-109967229D01*
X154224514Y-109923740D01*
X153945780Y-109679192D01*
X153543709Y-109238955D01*
X153475822Y-109159615D01*
X152844432Y-108360711D01*
X152418371Y-107680471D01*
X152223487Y-107178630D01*
X152753830Y-107178630D01*
X152769871Y-107304353D01*
X152893063Y-107662342D01*
X153097987Y-108044754D01*
X153224306Y-108231236D01*
X153415204Y-108478620D01*
X153526454Y-108575522D01*
X153569511Y-108556362D01*
X153778123Y-108415578D01*
X154109460Y-108167877D01*
X154515027Y-107848905D01*
X155419288Y-107122288D01*
X154853578Y-106604268D01*
X154541078Y-106335252D01*
X154251173Y-106169287D01*
X153931653Y-106123090D01*
X153474413Y-106161992D01*
X153463917Y-106163682D01*
X153250803Y-106299744D01*
X153018062Y-106575424D01*
X152830727Y-106898969D01*
X152753830Y-107178630D01*
X152223487Y-107178630D01*
X152192799Y-107099606D01*
X152162874Y-106598829D01*
X152323756Y-106158853D01*
X152670602Y-105760389D01*
X152785728Y-105678115D01*
X154946107Y-105678115D01*
X154975317Y-105827370D01*
X155090615Y-106088811D01*
X155095729Y-106098722D01*
X155196673Y-106331098D01*
X155201489Y-106427263D01*
X155201986Y-106467519D01*
X155326325Y-106616815D01*
X155377928Y-106665556D01*
X155567538Y-106774678D01*
X155785058Y-106751821D01*
X156080611Y-106581263D01*
X156504317Y-106247282D01*
X157158783Y-105701210D01*
X156820237Y-105317969D01*
X156720073Y-105207868D01*
X156346256Y-104880031D01*
X156009563Y-104753542D01*
X155656401Y-104804771D01*
X155479311Y-104893934D01*
X155205447Y-105182493D01*
X154946107Y-105678115D01*
X152785728Y-105678115D01*
X152904150Y-105593486D01*
X153413123Y-105444703D01*
X154012029Y-105526114D01*
X154107181Y-105554299D01*
X154399167Y-105636142D01*
X154543863Y-105669054D01*
X154549152Y-105666897D01*
X154568184Y-105530773D01*
X154549430Y-105247850D01*
X154539617Y-105062667D01*
X154619793Y-104764445D01*
X154871274Y-104455629D01*
X155199859Y-104187843D01*
X155566662Y-104054422D01*
X155954031Y-104107377D01*
X156386027Y-104356145D01*
X156886710Y-104810164D01*
X157480140Y-105478870D01*
X157485627Y-105485472D01*
X157657713Y-105701210D01*
G37*
G36*
X150681643Y-87282487D02*
G01*
X150986801Y-87360407D01*
X151589663Y-87467870D01*
X152343345Y-87570982D01*
X153207311Y-87663008D01*
X153487115Y-87688341D01*
X153837677Y-87708965D01*
X154019537Y-87684889D01*
X154086379Y-87603259D01*
X154091888Y-87451224D01*
X154097662Y-87306451D01*
X154193213Y-87196332D01*
X154459801Y-87199677D01*
X154739866Y-87268563D01*
X154886993Y-87375532D01*
X154928055Y-87447562D01*
X155104580Y-87680643D01*
X155360873Y-87979130D01*
X155413467Y-88041422D01*
X155503214Y-88147717D01*
X155647773Y-88356616D01*
X155706719Y-88441798D01*
X155786666Y-88641281D01*
X155808222Y-88704952D01*
X156011919Y-88875015D01*
X156386915Y-89043782D01*
X156773192Y-89176751D01*
X157265859Y-89325854D01*
X157611243Y-89389423D01*
X157862977Y-89375330D01*
X158074695Y-89291445D01*
X158411165Y-89148002D01*
X158637658Y-89148273D01*
X158693071Y-89284719D01*
X158565949Y-89521557D01*
X158244839Y-89822999D01*
X158120846Y-89926143D01*
X157912614Y-90159735D01*
X157858881Y-90327380D01*
X157924485Y-90437880D01*
X158122264Y-90719357D01*
X158414707Y-91112436D01*
X158766372Y-91568639D01*
X159611525Y-92647448D01*
X159969834Y-92435790D01*
X160114797Y-92357933D01*
X160357692Y-92299946D01*
X160435038Y-92432871D01*
X160345745Y-92755782D01*
X160321547Y-92816553D01*
X160274481Y-93012087D01*
X160311221Y-93211466D01*
X160454024Y-93481069D01*
X160725149Y-93887274D01*
X160973925Y-94279475D01*
X161148165Y-94639991D01*
X161178588Y-94854703D01*
X161130412Y-94954143D01*
X161027346Y-95054129D01*
X161018870Y-95051930D01*
X160873360Y-94947199D01*
X160605206Y-94716774D01*
X160265171Y-94403957D01*
X160005031Y-94143936D01*
X159686136Y-93746098D01*
X159577711Y-93459441D01*
X159516642Y-93235330D01*
X159230199Y-92984306D01*
X159034451Y-92867964D01*
X158520994Y-92388875D01*
X158078521Y-91684631D01*
X158030959Y-91595690D01*
X157655741Y-91067122D01*
X157126738Y-90502427D01*
X156506641Y-89962999D01*
X155858145Y-89510232D01*
X155730593Y-89434873D01*
X155145512Y-89135642D01*
X154469008Y-88865733D01*
X153661000Y-88612231D01*
X152681408Y-88362222D01*
X152655666Y-88356616D01*
X154902089Y-88356616D01*
X154907232Y-88391253D01*
X155035915Y-88482985D01*
X155081622Y-88473063D01*
X155091641Y-88356616D01*
X155065705Y-88318799D01*
X154957815Y-88230248D01*
X154945204Y-88233534D01*
X154902089Y-88356616D01*
X152655666Y-88356616D01*
X151529395Y-88111338D01*
X154017512Y-88111338D01*
X154037433Y-88164775D01*
X154203098Y-88230248D01*
X154296166Y-88203928D01*
X154316225Y-88041422D01*
X154243371Y-87943911D01*
X154094811Y-87943204D01*
X154017512Y-88111338D01*
X151529395Y-88111338D01*
X151490149Y-88102791D01*
X150774649Y-87959911D01*
X150130827Y-87846277D01*
X149581853Y-87775523D01*
X149047551Y-87740070D01*
X148447745Y-87732340D01*
X147702260Y-87744754D01*
X147072613Y-87757730D01*
X146538590Y-87760787D01*
X146185797Y-87747451D01*
X145975800Y-87714214D01*
X145870163Y-87657573D01*
X145830451Y-87574020D01*
X145826334Y-87547385D01*
X145849294Y-87442412D01*
X145964426Y-87359381D01*
X146203779Y-87291373D01*
X146262466Y-87282487D01*
X149720995Y-87282487D01*
X149784179Y-87345671D01*
X149847363Y-87282487D01*
X149784179Y-87219303D01*
X149720995Y-87282487D01*
X146262466Y-87282487D01*
X146599403Y-87231470D01*
X147183348Y-87172751D01*
X147987662Y-87108299D01*
X148010277Y-87106593D01*
X148620609Y-87055007D01*
X149037531Y-87000225D01*
X149318313Y-86927601D01*
X149520228Y-86822487D01*
X149700547Y-86670237D01*
X149932897Y-86469479D01*
X150182999Y-86340686D01*
X150305620Y-86419387D01*
X150291581Y-86705044D01*
X150277044Y-86778055D01*
X150285005Y-87045195D01*
X150452791Y-87205167D01*
X150575296Y-87255332D01*
X150681643Y-87282487D01*
G37*
G36*
X167023640Y-105237517D02*
G01*
X167017136Y-105580901D01*
X166840549Y-106121510D01*
X166490965Y-106756175D01*
X165962765Y-107524375D01*
X165676305Y-107931078D01*
X165407180Y-108382074D01*
X165290411Y-108719546D01*
X165313818Y-108985002D01*
X165465220Y-109219948D01*
X165555844Y-109344497D01*
X165598839Y-109585521D01*
X165463718Y-109859617D01*
X165134189Y-110192803D01*
X164593958Y-110611094D01*
X164033022Y-111028993D01*
X163432921Y-111521448D01*
X163027897Y-111918701D01*
X162826725Y-112211853D01*
X162838176Y-112392007D01*
X162915929Y-112525304D01*
X162981587Y-112886565D01*
X162972924Y-113349280D01*
X162894084Y-113827564D01*
X162749213Y-114235531D01*
X162579919Y-114530526D01*
X162314437Y-114858409D01*
X161959795Y-115140643D01*
X161464787Y-115415864D01*
X160778209Y-115722707D01*
X160482691Y-115848315D01*
X160019370Y-116052157D01*
X159672272Y-116213785D01*
X159500199Y-116306346D01*
X159436826Y-116408277D01*
X159346094Y-116709542D01*
X159276851Y-117115871D01*
X159131019Y-117811100D01*
X158839142Y-118492205D01*
X158441191Y-119000895D01*
X158364207Y-119062508D01*
X158107149Y-119184991D01*
X157719430Y-119264833D01*
X157140182Y-119316815D01*
X156118011Y-119380000D01*
X155962883Y-119990238D01*
X155907041Y-120182386D01*
X155752247Y-120574438D01*
X155593357Y-120837385D01*
X155507026Y-120911423D01*
X155166077Y-121113240D01*
X154641221Y-121362918D01*
X153971541Y-121642573D01*
X153196119Y-121934323D01*
X153136866Y-121954968D01*
X152480497Y-122089049D01*
X151919241Y-122003250D01*
X151417750Y-121692768D01*
X151235180Y-121527610D01*
X151055069Y-121308089D01*
X151005456Y-121073265D01*
X151044524Y-120713415D01*
X151065936Y-120565005D01*
X151112478Y-120057119D01*
X151089143Y-119610665D01*
X150978799Y-119173518D01*
X150764312Y-118693548D01*
X150428548Y-118118630D01*
X149954376Y-117396635D01*
X149952961Y-117394539D01*
X149708754Y-117015628D01*
X149534651Y-116712653D01*
X149468258Y-116551036D01*
X149464482Y-116535659D01*
X149337044Y-116379983D01*
X149065044Y-116130164D01*
X148698116Y-115832509D01*
X148450655Y-115636422D01*
X147960818Y-115183248D01*
X147652698Y-114756836D01*
X147491908Y-114300265D01*
X147444065Y-113756616D01*
X147438036Y-113588895D01*
X147357940Y-113029242D01*
X147209779Y-112556119D01*
X147091757Y-112324103D01*
X146753423Y-111768588D01*
X146305759Y-111120301D01*
X145792157Y-110438098D01*
X145256012Y-109780834D01*
X144740718Y-109207363D01*
X144240045Y-108649858D01*
X143756457Y-108047788D01*
X143334872Y-107461580D01*
X143014255Y-106945455D01*
X142833573Y-106553631D01*
X142831990Y-106548677D01*
X142735469Y-106308559D01*
X142552388Y-105900399D01*
X142308418Y-105380057D01*
X142029228Y-104803389D01*
X141664473Y-104115461D01*
X141094079Y-103216038D01*
X140500473Y-102465925D01*
X139910230Y-101897464D01*
X139349929Y-101542996D01*
X139252663Y-101495708D01*
X138883421Y-101246342D01*
X138622662Y-100969018D01*
X138505652Y-100821731D01*
X138218767Y-100511268D01*
X137809077Y-100094510D01*
X137311981Y-99607307D01*
X136762879Y-99085512D01*
X136313567Y-98660290D01*
X135816352Y-98177709D01*
X135404698Y-97764802D01*
X135112136Y-97455325D01*
X134972201Y-97283031D01*
X134925482Y-97187606D01*
X134789000Y-96855424D01*
X134614344Y-96387615D01*
X134427858Y-95853363D01*
X134325079Y-95559505D01*
X134142619Y-95086068D01*
X133984582Y-94733141D01*
X133876681Y-94561014D01*
X133868493Y-94554796D01*
X133653758Y-94461743D01*
X133273685Y-94347861D01*
X132804917Y-94236366D01*
X132360460Y-94134331D01*
X131739141Y-93933587D01*
X131316421Y-93679543D01*
X131057528Y-93335791D01*
X130927691Y-92865923D01*
X130892139Y-92233531D01*
X130897681Y-92066606D01*
X131398084Y-92066606D01*
X131431509Y-92255107D01*
X131598426Y-92650458D01*
X131865112Y-93093291D01*
X132185997Y-93500670D01*
X132270238Y-93575761D01*
X132638644Y-93774308D01*
X133124931Y-93921248D01*
X133516201Y-94025203D01*
X134016533Y-94285628D01*
X134366891Y-94696417D01*
X134620480Y-95306865D01*
X134737931Y-95631605D01*
X134896983Y-95928314D01*
X135134268Y-96245687D01*
X135486575Y-96632919D01*
X135990690Y-97139204D01*
X136414658Y-97564249D01*
X136988729Y-98159843D01*
X137532286Y-98743290D01*
X137968915Y-99233685D01*
X138089357Y-99370944D01*
X138623175Y-99934097D01*
X139221816Y-100513365D01*
X139777039Y-101002840D01*
X140053559Y-101243100D01*
X140853396Y-102068602D01*
X141630622Y-103045634D01*
X142336744Y-104103750D01*
X142923268Y-105172500D01*
X143341704Y-106181437D01*
X143452237Y-106490918D01*
X143799275Y-107216465D01*
X144261754Y-107853500D01*
X144600596Y-108249859D01*
X145131195Y-108877357D01*
X145560121Y-109397612D01*
X145930323Y-109864147D01*
X146284750Y-110330485D01*
X146666348Y-110850149D01*
X146899658Y-111168426D01*
X147231226Y-111610067D01*
X147501357Y-111957374D01*
X147667331Y-112154675D01*
X147776279Y-112311686D01*
X147838878Y-112544315D01*
X147860830Y-112909416D01*
X147850450Y-113466550D01*
X147812243Y-114548027D01*
X148405059Y-115100083D01*
X148680545Y-115333664D01*
X149031802Y-115565080D01*
X149286546Y-115652139D01*
X149365919Y-115662162D01*
X149571537Y-115779929D01*
X149823969Y-116056883D01*
X150156429Y-116526406D01*
X150176099Y-116555913D01*
X150533005Y-117071272D01*
X150911972Y-117589114D01*
X151234178Y-118001552D01*
X151472582Y-118308928D01*
X151636156Y-118601000D01*
X151615536Y-118761995D01*
X151415061Y-118811343D01*
X151369085Y-118813446D01*
X151292462Y-118879255D01*
X151374885Y-119084827D01*
X151414410Y-119184876D01*
X151466927Y-119616701D01*
X151438372Y-120272894D01*
X151415387Y-120536068D01*
X151396151Y-120914157D01*
X151425837Y-121146060D01*
X151519601Y-121302111D01*
X151692600Y-121452643D01*
X151919933Y-121596899D01*
X152253529Y-121689468D01*
X152670833Y-121670201D01*
X153217675Y-121535624D01*
X153939885Y-121282262D01*
X154166413Y-121194673D01*
X154773117Y-120933088D01*
X155183853Y-120690245D01*
X155435952Y-120431459D01*
X155566746Y-120122046D01*
X155613569Y-119727323D01*
X155621297Y-119537011D01*
X155636975Y-119205841D01*
X155648483Y-119032487D01*
X155687926Y-119009127D01*
X155925157Y-118972422D01*
X156328275Y-118947131D01*
X156841210Y-118937711D01*
X156936029Y-118937572D01*
X157490449Y-118926455D01*
X157853980Y-118891350D01*
X158080606Y-118823536D01*
X158224311Y-118714294D01*
X158362756Y-118537570D01*
X158657473Y-117980370D01*
X158863944Y-117328082D01*
X158943095Y-116690710D01*
X158962103Y-116291024D01*
X159030644Y-116055068D01*
X159167015Y-115951917D01*
X159411906Y-115869147D01*
X159949052Y-115670477D01*
X160519199Y-115442783D01*
X161054559Y-115214472D01*
X161487342Y-115013950D01*
X161749759Y-114869624D01*
X161913071Y-114719252D01*
X162181034Y-114370609D01*
X162422390Y-113954630D01*
X162601659Y-113570835D01*
X162678570Y-113318545D01*
X162659933Y-113120139D01*
X162556560Y-112889826D01*
X162550526Y-112878053D01*
X162414212Y-112545692D01*
X162357811Y-112278861D01*
X162365560Y-112246569D01*
X162500830Y-112041558D01*
X162772274Y-111723750D01*
X163137813Y-111334607D01*
X163555366Y-110915590D01*
X163982852Y-110508161D01*
X164378192Y-110153780D01*
X164699305Y-109893909D01*
X164904112Y-109770009D01*
X164963218Y-109747962D01*
X165063447Y-109628832D01*
X165005862Y-109381976D01*
X164947036Y-109210518D01*
X164880480Y-108803015D01*
X164951537Y-108402813D01*
X165176954Y-107951120D01*
X165573477Y-107389142D01*
X165803088Y-107080674D01*
X166280933Y-106346018D01*
X166562213Y-105736543D01*
X166654328Y-105237517D01*
X166653439Y-105218436D01*
X166560828Y-104943504D01*
X166340224Y-104547824D01*
X166026284Y-104094468D01*
X165398240Y-103264707D01*
X165773547Y-102246817D01*
X165948942Y-101740741D01*
X166106585Y-101137794D01*
X166137196Y-100694386D01*
X166041557Y-100375557D01*
X165820448Y-100146347D01*
X165632964Y-100011994D01*
X165213783Y-99679365D01*
X164853424Y-99352997D01*
X164601112Y-99079379D01*
X164506069Y-98905000D01*
X164506091Y-98903193D01*
X164559307Y-98709160D01*
X164695270Y-98363691D01*
X164885074Y-97940351D01*
X165031176Y-97619153D01*
X165230502Y-97066178D01*
X165266325Y-96664371D01*
X165126952Y-96376338D01*
X164800690Y-96164685D01*
X164275847Y-95992017D01*
X164259380Y-95987671D01*
X163836313Y-95873532D01*
X163525377Y-95785121D01*
X163392839Y-95741258D01*
X163392231Y-95714368D01*
X163464497Y-95527187D01*
X163613983Y-95227513D01*
X163794381Y-94752061D01*
X163867400Y-94243820D01*
X163827353Y-93791762D01*
X163671492Y-93479396D01*
X163621375Y-93434065D01*
X163337597Y-93232556D01*
X162980693Y-93027668D01*
X162875076Y-92969578D01*
X162551957Y-92739564D01*
X162353971Y-92519591D01*
X162226085Y-92349287D01*
X161893212Y-92072905D01*
X161500601Y-91856643D01*
X161157313Y-91768918D01*
X161129091Y-91768304D01*
X161008238Y-91732533D01*
X160938094Y-91603333D01*
X160903027Y-91327612D01*
X160887402Y-90852276D01*
X160867330Y-90362172D01*
X160789639Y-89833111D01*
X160625437Y-89440090D01*
X160342770Y-89115808D01*
X159909684Y-88792963D01*
X159621539Y-88607767D01*
X159330188Y-88455596D01*
X159127487Y-88420889D01*
X158947208Y-88482269D01*
X158738607Y-88558921D01*
X158499544Y-88562105D01*
X158417215Y-88482649D01*
X158234842Y-88211510D01*
X157999836Y-87799301D01*
X157742813Y-87297198D01*
X157651568Y-87110050D01*
X157365807Y-86542750D01*
X157145038Y-86169736D01*
X156955793Y-85963754D01*
X156764600Y-85897547D01*
X156537990Y-85943860D01*
X156242493Y-86075436D01*
X156113260Y-86135707D01*
X155484473Y-86359873D01*
X154949895Y-86435167D01*
X154558170Y-86353556D01*
X154489860Y-86302418D01*
X154297194Y-86027517D01*
X154141189Y-85630090D01*
X153974925Y-85185576D01*
X153705530Y-84736756D01*
X153399326Y-84427825D01*
X153099075Y-84312835D01*
X152942046Y-84329809D01*
X152549681Y-84414654D01*
X152046630Y-84550619D01*
X151509902Y-84714966D01*
X151016503Y-84884958D01*
X150643444Y-85037860D01*
X150557184Y-85078277D01*
X150313390Y-85159562D01*
X150118827Y-85109231D01*
X149855614Y-84907826D01*
X149444321Y-84632646D01*
X148799435Y-84340942D01*
X148104382Y-84136904D01*
X147470485Y-84060099D01*
X147085768Y-84088813D01*
X146539494Y-84176749D01*
X145995352Y-84303253D01*
X145740960Y-84377666D01*
X145287522Y-84552663D01*
X144935242Y-84781495D01*
X144579895Y-85124646D01*
X144320795Y-85396343D01*
X144095944Y-85617876D01*
X143990126Y-85702885D01*
X143972158Y-85699437D01*
X143787221Y-85634524D01*
X143485262Y-85513333D01*
X143325162Y-85456183D01*
X142710583Y-85344743D01*
X142023640Y-85341122D01*
X141384681Y-85449006D01*
X141298350Y-85480781D01*
X140965356Y-85676560D01*
X140573951Y-85980398D01*
X140177182Y-86341632D01*
X139828098Y-86709600D01*
X139579746Y-87033640D01*
X139485174Y-87263090D01*
X139484350Y-87302244D01*
X139441119Y-87426218D01*
X139284349Y-87454790D01*
X138948109Y-87405434D01*
X138852896Y-87389094D01*
X138409127Y-87335971D01*
X138040339Y-87322831D01*
X137769103Y-87383685D01*
X137357179Y-87536497D01*
X136871941Y-87750567D01*
X136375187Y-87995391D01*
X135928719Y-88240465D01*
X135594336Y-88455287D01*
X135433838Y-88609353D01*
X135374295Y-88771467D01*
X135266751Y-89122945D01*
X135147215Y-89557114D01*
X135055490Y-89895636D01*
X134911473Y-90392073D01*
X134789621Y-90775012D01*
X134630225Y-91234702D01*
X133550983Y-91292863D01*
X133129495Y-91325220D01*
X132410562Y-91436768D01*
X131865058Y-91603730D01*
X131518919Y-91816783D01*
X131398084Y-92066606D01*
X130897681Y-92066606D01*
X130898767Y-92033897D01*
X131010614Y-91531499D01*
X131263792Y-91234421D01*
X131662475Y-91136716D01*
X131920832Y-91103349D01*
X132092636Y-91010348D01*
X132150736Y-90969511D01*
X132408036Y-90908137D01*
X132780381Y-90883980D01*
X132843299Y-90883749D01*
X133195757Y-90860908D01*
X133377637Y-90780698D01*
X133460409Y-90614831D01*
X133547117Y-90442708D01*
X133737926Y-90425166D01*
X133850905Y-90461435D01*
X134228574Y-90449604D01*
X134526064Y-90199708D01*
X134745474Y-89710255D01*
X134809945Y-89476319D01*
X134900408Y-89069281D01*
X134935920Y-88785169D01*
X134945316Y-88707734D01*
X135120230Y-88401908D01*
X135479087Y-88071746D01*
X135973297Y-87743267D01*
X136554273Y-87442490D01*
X137173428Y-87195434D01*
X137782173Y-87028120D01*
X138331921Y-86966567D01*
X138513468Y-86964584D01*
X138795223Y-86933732D01*
X139025377Y-86833975D01*
X139277471Y-86625647D01*
X139625046Y-86269081D01*
X139637551Y-86255889D01*
X140019809Y-85876321D01*
X140391828Y-85544685D01*
X140674737Y-85331432D01*
X141002845Y-85188410D01*
X141566547Y-85056751D01*
X142213490Y-84986723D01*
X142851637Y-84987279D01*
X143388954Y-85067373D01*
X143943094Y-85216588D01*
X144525825Y-84643032D01*
X144824457Y-84366795D01*
X145141426Y-84148411D01*
X145511245Y-84001382D01*
X146032987Y-83875235D01*
X146610102Y-83766099D01*
X147281870Y-83696128D01*
X147884578Y-83729139D01*
X148514254Y-83872843D01*
X149266924Y-84134953D01*
X150452934Y-84588911D01*
X151445422Y-84315924D01*
X151996555Y-84168198D01*
X152580802Y-84030487D01*
X153001322Y-83967390D01*
X153302494Y-83976727D01*
X153528696Y-84056316D01*
X153724307Y-84203979D01*
X153862168Y-84356749D01*
X154122628Y-84730357D01*
X154357944Y-85156236D01*
X154501943Y-85430587D01*
X154700414Y-85733777D01*
X154851287Y-85879703D01*
X154882607Y-85887261D01*
X155129097Y-85846240D01*
X155441280Y-85700207D01*
X155682936Y-85583610D01*
X156208177Y-85466781D01*
X156733958Y-85488710D01*
X157156356Y-85652300D01*
X157177575Y-85668586D01*
X157381692Y-85903802D01*
X157631174Y-86286353D01*
X157876859Y-86741893D01*
X157943943Y-86879254D01*
X158199790Y-87381800D01*
X158396383Y-87702709D01*
X158570056Y-87882170D01*
X158757146Y-87960375D01*
X158993990Y-87977512D01*
X159166833Y-88000107D01*
X159617145Y-88169703D01*
X160170683Y-88487436D01*
X160275429Y-88556611D01*
X160655231Y-88836163D01*
X160914999Y-89113193D01*
X161090165Y-89451283D01*
X161216160Y-89914013D01*
X161328417Y-90564966D01*
X161363848Y-90769725D01*
X161496691Y-91225462D01*
X161672854Y-91449543D01*
X161825430Y-91553941D01*
X162129226Y-91794452D01*
X162477316Y-92093694D01*
X162729159Y-92308649D01*
X163159773Y-92643402D01*
X163528315Y-92894790D01*
X163731301Y-93025050D01*
X164023621Y-93284200D01*
X164182470Y-93593991D01*
X164233164Y-94019578D01*
X164201016Y-94626113D01*
X164117599Y-95546650D01*
X164659347Y-95701619D01*
X165039642Y-95823060D01*
X165337849Y-95979930D01*
X165500841Y-96195267D01*
X165591821Y-96524871D01*
X165607267Y-96634072D01*
X165592894Y-96952173D01*
X165482993Y-97352973D01*
X165261361Y-97904104D01*
X165099663Y-98279817D01*
X164972038Y-98613420D01*
X164931631Y-98821408D01*
X164969177Y-98963312D01*
X165075407Y-99098662D01*
X165162500Y-99183168D01*
X165471230Y-99424130D01*
X165843115Y-99665852D01*
X166017657Y-99778910D01*
X166313622Y-100028269D01*
X166467239Y-100242984D01*
X166489250Y-100339265D01*
X166500355Y-100760185D01*
X166436005Y-101297971D01*
X166310065Y-101863577D01*
X166136398Y-102367954D01*
X166065083Y-102540078D01*
X165943995Y-102881698D01*
X165896119Y-103096925D01*
X165896686Y-103105522D01*
X165982322Y-103299531D01*
X166185226Y-103618178D01*
X166464696Y-103997030D01*
X166565085Y-104128625D01*
X166873786Y-104623937D01*
X167026342Y-105094870D01*
X167023640Y-105237517D01*
G37*
D15*
%TO.C,U$1*%
X151230000Y-115230000D02*
X100230000Y-115230000D01*
X100230000Y-115230000D02*
X100230000Y-121730000D01*
X104730000Y-121730000D02*
X104730000Y-129730000D01*
X100230000Y-121730000D02*
X104730000Y-121730000D01*
X100230000Y-121730000D02*
X98730000Y-121730000D01*
X100230000Y-121730000D02*
X100230000Y-129630000D01*
X98730000Y-121730000D02*
X98730000Y-129730000D01*
X100230000Y-129630000D02*
X100230000Y-136230000D01*
X104730000Y-129730000D02*
X100230000Y-129630000D01*
X98730000Y-129730000D02*
X100230000Y-129630000D01*
X151230000Y-136230000D02*
X151230000Y-115230000D01*
X100230000Y-136230000D02*
X151230000Y-136230000D01*
%TD*%
M02*
