M48
; DRILL file {KiCad 7.0.1} date Tue Jun  6 13:02:25 2023
; FORMAT={-:-/ absolute / inch / decimal}
; #@! TF.CreationDate,2023-06-06T13:02:25-04:00
; #@! TF.GenerationSoftware,Kicad,Pcbnew,7.0.1
; #@! TF.FileFunction,Plated,1,4,PTH
FMAT,2
INCH
; #@! TA.AperFunction,Plated,PTH,ViaDrill
T1C0.0118
; #@! TA.AperFunction,Plated,PTH,ViaDrill
T2C0.0197
; #@! TA.AperFunction,Plated,PTH,ComponentDrill
T3C0.0331
; #@! TA.AperFunction,Plated,PTH,ComponentDrill
T4C0.0354
; #@! TA.AperFunction,Plated,PTH,ComponentDrill
T5C0.0394
; #@! TA.AperFunction,Plated,PTH,ComponentDrill
T6C0.0433
; #@! TA.AperFunction,Plated,PTH,ComponentDrill
T7C0.0500
%
G90
G05
T1
X3.8465Y-3.4567
X3.874Y-5.229
X3.876Y-4.441
X3.8856Y-3.4136
X3.8858Y-3.315
X3.916Y-5.48
X3.9331Y-3.315
X3.9331Y-3.5866
X3.9409Y-3.2047
X4.0352Y-3.1794
X4.0669Y-4.1339
X4.149Y-5.047
X4.1496Y-3.0866
X4.159Y-5.551
X4.1693Y-3.4724
X4.1811Y-3.7835
X4.2126Y-4.126
X4.2244Y-4.2047
X4.2441Y-3.815
X4.269Y-4.765
X4.311Y-3.4803
X4.3622Y-3.815
X4.396Y-4.929
X4.41Y-4.778
X4.4252Y-3.5197
X4.4252Y-3.8307
X4.5315Y-3.0984
X4.535Y-4.743
X4.535Y-4.843
X4.535Y-4.943
X4.535Y-5.043
X4.563Y-4.189
X4.5669Y-3.7362
X4.5709Y-4.0748
X4.582Y-5.562
X4.6339Y-3.7795
X4.6339Y-4.0906
X4.635Y-4.743
X4.635Y-4.843
X4.635Y-4.943
X4.635Y-5.043
X4.6575Y-3.5354
X4.6614Y-3.0945
X4.689Y-3.2362
X4.689Y-4.378
X4.735Y-4.743
X4.735Y-4.843
X4.735Y-4.943
X4.735Y-5.043
X4.7638Y-3.9094
X4.7677Y-3.5276
X4.788Y-4.361
X4.7992Y-3.4134
X4.835Y-4.743
X4.835Y-4.843
X4.835Y-4.943
X4.835Y-5.043
X4.8622Y-3.9016
X4.935Y-4.743
X4.935Y-4.843
X4.935Y-4.943
X4.935Y-5.043
X4.971Y-5.556
X4.9787Y-3.3023
X5.035Y-4.743
X5.035Y-4.843
X5.035Y-4.943
X5.035Y-5.043
X5.0748Y-3.0748
X5.0748Y-4.0984
X5.1024Y-3.7874
X5.1063Y-3.4961
X5.1142Y-3.8937
X5.1253Y-4.1923
X5.135Y-4.743
X5.135Y-4.843
X5.135Y-4.943
X5.135Y-5.043
X5.1811Y-3.7953
X5.1811Y-3.8898
X5.235Y-4.743
X5.235Y-4.843
X5.235Y-4.943
X5.235Y-5.043
X5.2441Y-3.4646
X5.2441Y-3.6024
X5.2756Y-3.1024
X5.2913Y-3.4016
X5.2913Y-3.6772
X5.335Y-4.743
X5.335Y-4.843
X5.335Y-4.943
X5.335Y-5.043
X5.3819Y-3.4843
X5.435Y-4.743
X5.435Y-4.843
X5.435Y-4.943
X5.435Y-5.043
X5.4488Y-4.1181
X5.5275Y-3.13
X5.5315Y-4.189
X5.535Y-4.743
X5.535Y-4.843
X5.535Y-4.943
X5.535Y-5.043
X5.574Y-5.554
X5.635Y-4.743
X5.635Y-4.843
X5.635Y-4.943
X5.635Y-5.043
X5.6791Y-3.5335
X5.7165Y-3.1654
X5.7677Y-4.1102
X5.774Y-4.263
X5.7874Y-3.8858
X5.8307Y-3.4882
X5.8465Y-3.8858
X5.8486Y-3.5294
X5.8976Y-3.3543
X5.9016Y-3.4094
X5.91Y-4.265
X5.9764Y-3.3189
X5.9882Y-3.2677
X6.041Y-4.698
X6.05Y-5.077
X6.0877Y-5.3232
X6.1693Y-3.185
X6.1811Y-4.1732
X6.199Y-5.519
X6.248Y-3.8858
X6.2913Y-4.7795
X6.2992Y-3.8819
X6.2992Y-4.185
X6.3819Y-3.437
X6.3898Y-3.5906
X6.4016Y-3.6693
X6.4134Y-4.5551
X6.4685Y-5.0709
X6.5079Y-3.5945
X6.5118Y-3.6772
X6.5157Y-3.878
X6.5709Y-3.4567
X6.5866Y-3.8819
X6.6339Y-4.189
X6.7126Y-5.2441
X6.7165Y-3.7126
X6.7244Y-4.7362
X6.7441Y-3.6181
X6.7959Y-4.1096
X6.8386Y-3.6378
X6.8465Y-3.2126
X6.8504Y-3.4803
X6.874Y-3.3898
X6.874Y-3.5294
X6.876Y-4.479
X6.877Y-4.378
X6.9055Y-3.8976
X6.9291Y-4.0433
X6.9331Y-3.4173
X6.937Y-4.4921
X6.9606Y-3.7953
X6.9685Y-3.2402
X6.9843Y-4.9961
X6.9882Y-3.8976
X7.0433Y-3.4173
X7.0433Y-3.4764
X7.0906Y-3.7598
X7.0906Y-3.8976
X7.0984Y-4.0984
X7.1339Y-3.7244
X7.198Y-4.825
X7.2874Y-4.2087
X7.291Y-5.033
X7.298Y-5.174
X7.2992Y-3.5945
X7.3104Y-3.385
X7.3386Y-4.1378
X7.3465Y-3.6732
X7.3976Y-3.6024
X7.3976Y-3.6732
X7.404Y-4.566
X7.42Y-4.884
X7.443Y-5.422
X7.4488Y-3.6772
X7.4525Y-3.4332
X7.47Y-5.061
X7.475Y-5.132
X7.502Y-5.284
X7.5039Y-3.5984
X7.511Y-5.177
X7.5394Y-3.4685
X7.5669Y-4.0945
X7.578Y-4.559
X7.5866Y-3.5079
X7.6102Y-4.1929
X7.63Y-4.884
X7.651Y-4.417
X7.685Y-4.1378
X7.7008Y-3.5945
X7.714Y-5.331
X7.7559Y-3.2283
X7.757Y-5.282
X7.765Y-5.535
X7.778Y-4.415
X7.7913Y-3.5315
X7.7992Y-4.2008
T2
X4.07Y-5.09
X6.795Y-5.33
X6.825Y-5.44
T3
X4.0586Y-3.5294
X4.0727Y-3.4136
X4.1Y-3.6384
X4.139Y-3.3176
X4.1873Y-3.7158
X4.2422Y-3.2634
X4.3006Y-3.7437
X4.3589Y-3.2634
X4.4138Y-3.7158
X4.4622Y-3.3176
X4.5011Y-3.6384
X4.5284Y-3.4136
X4.5425Y-3.5294
X4.9981Y-3.5294
X5.0121Y-3.4136
X5.0394Y-3.6384
X5.0784Y-3.3176
X5.1267Y-3.7158
X5.1817Y-3.2634
X5.24Y-3.7437
X5.2983Y-3.2634
X5.3533Y-3.7158
X5.4016Y-3.3176
X5.4406Y-3.6384
X5.4679Y-3.4136
X5.4819Y-3.5294
X6.2164Y-3.5294
X6.2305Y-3.4136
X6.2578Y-3.6384
X6.2967Y-3.3176
X6.3451Y-3.7158
X6.4Y-3.2634
X6.4583Y-3.7437
X6.5166Y-3.2634
X6.5716Y-3.7158
X6.6199Y-3.3176
X6.6589Y-3.6384
X6.6862Y-3.4136
X6.7002Y-3.5294
X7.1581Y-3.5294
X7.1721Y-3.4136
X7.1994Y-3.6384
X7.2384Y-3.3176
X7.2867Y-3.7158
X7.3417Y-3.2634
X7.4Y-3.7437
X7.4583Y-3.2634
X7.5133Y-3.7158
X7.5616Y-3.3176
X7.6006Y-3.6384
X7.6279Y-3.4136
X7.6419Y-3.5294
T4
X3.97Y-4.0
X3.97Y-4.3
X4.07Y-4.0
X4.07Y-4.3
X4.17Y-4.0
X4.17Y-4.3
X4.27Y-4.0
X4.27Y-4.3
X4.37Y-4.0
X4.37Y-4.3
X4.47Y-4.0
X4.47Y-4.3
X4.57Y-4.0
X4.57Y-4.3
X4.67Y-4.0
X4.67Y-4.3
X4.9Y-4.0
X4.9Y-4.3
X5.0Y-4.0
X5.0Y-4.3
X5.1Y-4.0
X5.1Y-4.3
X5.2Y-4.0
X5.2Y-4.3
X5.3Y-4.0
X5.3Y-4.3
X5.4Y-4.0
X5.4Y-4.3
X5.5Y-4.0
X5.5Y-4.3
X5.6Y-4.0
X5.6Y-4.3
X6.1Y-4.0
X6.1Y-4.3
X6.2Y-4.0
X6.2Y-4.3
X6.3Y-4.0
X6.3Y-4.3
X6.4Y-4.0
X6.4Y-4.3
X6.5Y-4.0
X6.5Y-4.3
X6.6Y-4.0
X6.6Y-4.3
X6.7Y-4.0
X6.7Y-4.3
X6.8Y-4.0
X6.8Y-4.3
X7.04Y-4.0
X7.04Y-4.3
X7.14Y-4.0
X7.14Y-4.3
X7.24Y-4.0
X7.24Y-4.3
X7.34Y-4.0
X7.34Y-4.3
X7.44Y-4.0
X7.44Y-4.3
X7.54Y-4.0
X7.54Y-4.3
X7.64Y-4.0
X7.64Y-4.3
X7.74Y-4.0
X7.74Y-4.3
T5
X7.2544Y-4.68
X7.3922Y-4.68
X7.53Y-4.68
X7.6678Y-4.68
T6
X4.0Y-4.6
X4.0Y-5.3
X4.1Y-4.6
X4.1Y-5.3
X4.2Y-4.6
X4.2Y-5.3
X4.3Y-4.6
X4.3Y-5.3
X4.4Y-4.6
X4.4Y-5.3
X4.5Y-4.6
X4.5Y-5.3
X4.6Y-4.6
X4.6Y-5.3
X4.7Y-4.6
X4.7Y-5.3
X4.8Y-4.6
X4.8Y-5.3
X4.9Y-4.6
X4.9Y-5.3
X5.0Y-4.6
X5.0Y-5.3
X5.1Y-4.6
X5.1Y-5.3
X5.2Y-4.6
X5.2Y-5.3
X5.3Y-4.6
X5.3Y-5.3
X5.4Y-4.6
X5.4Y-5.3
X5.5Y-4.6
X5.5Y-5.3
X5.6Y-4.6
X5.6Y-5.3
X5.7Y-4.6
X5.7Y-5.3
X5.8Y-4.6
X5.8Y-5.3
X5.8909Y-4.85
X5.8909Y-4.95
X5.8909Y-5.05
X5.9Y-4.6
X5.9Y-5.3
T7
X6.5Y-4.6929
X6.5Y-5.5
T0
M30
