%TF.GenerationSoftware,KiCad,Pcbnew,7.0.1*%
%TF.CreationDate,2023-06-06T13:02:26-04:00*%
%TF.ProjectId,nixie,6e697869-652e-46b6-9963-61645f706362,rev?*%
%TF.SameCoordinates,Original*%
%TF.FileFunction,Drillmap*%
%TF.FilePolarity,Positive*%
%FSLAX45Y45*%
G04 Gerber Fmt 4.5, Leading zero omitted, Abs format (unit mm)*
G04 Created by KiCad (PCBNEW 7.0.1) date 2023-06-06 13:02:26*
%MOMM*%
%LPD*%
G01*
G04 APERTURE LIST*
%ADD10C,0.050000*%
%ADD11C,0.200000*%
G04 APERTURE END LIST*
D10*
X19913610Y-14224000D02*
X19913610Y-7700510D01*
X9652000Y-14224000D02*
X19913610Y-14224000D01*
X19913610Y-7700510D02*
X9652000Y-7700510D01*
X9652000Y-7700510D02*
X9652000Y-14224000D01*
D11*
X9897119Y-14539024D02*
X9897119Y-14339024D01*
X9897119Y-14339024D02*
X9944738Y-14339024D01*
X9944738Y-14339024D02*
X9973310Y-14348548D01*
X9973310Y-14348548D02*
X9992357Y-14367595D01*
X9992357Y-14367595D02*
X10001881Y-14386643D01*
X10001881Y-14386643D02*
X10011405Y-14424738D01*
X10011405Y-14424738D02*
X10011405Y-14453309D01*
X10011405Y-14453309D02*
X10001881Y-14491405D01*
X10001881Y-14491405D02*
X9992357Y-14510452D01*
X9992357Y-14510452D02*
X9973310Y-14529500D01*
X9973310Y-14529500D02*
X9944738Y-14539024D01*
X9944738Y-14539024D02*
X9897119Y-14539024D01*
X10097119Y-14539024D02*
X10097119Y-14405690D01*
X10097119Y-14443786D02*
X10106643Y-14424738D01*
X10106643Y-14424738D02*
X10116167Y-14415214D01*
X10116167Y-14415214D02*
X10135214Y-14405690D01*
X10135214Y-14405690D02*
X10154262Y-14405690D01*
X10220929Y-14539024D02*
X10220929Y-14405690D01*
X10220929Y-14339024D02*
X10211405Y-14348548D01*
X10211405Y-14348548D02*
X10220929Y-14358071D01*
X10220929Y-14358071D02*
X10230452Y-14348548D01*
X10230452Y-14348548D02*
X10220929Y-14339024D01*
X10220929Y-14339024D02*
X10220929Y-14358071D01*
X10344738Y-14539024D02*
X10325690Y-14529500D01*
X10325690Y-14529500D02*
X10316167Y-14510452D01*
X10316167Y-14510452D02*
X10316167Y-14339024D01*
X10449500Y-14539024D02*
X10430452Y-14529500D01*
X10430452Y-14529500D02*
X10420929Y-14510452D01*
X10420929Y-14510452D02*
X10420929Y-14339024D01*
X10678071Y-14539024D02*
X10678071Y-14339024D01*
X10678071Y-14339024D02*
X10744738Y-14481881D01*
X10744738Y-14481881D02*
X10811405Y-14339024D01*
X10811405Y-14339024D02*
X10811405Y-14539024D01*
X10992357Y-14539024D02*
X10992357Y-14434262D01*
X10992357Y-14434262D02*
X10982833Y-14415214D01*
X10982833Y-14415214D02*
X10963786Y-14405690D01*
X10963786Y-14405690D02*
X10925690Y-14405690D01*
X10925690Y-14405690D02*
X10906643Y-14415214D01*
X10992357Y-14529500D02*
X10973310Y-14539024D01*
X10973310Y-14539024D02*
X10925690Y-14539024D01*
X10925690Y-14539024D02*
X10906643Y-14529500D01*
X10906643Y-14529500D02*
X10897119Y-14510452D01*
X10897119Y-14510452D02*
X10897119Y-14491405D01*
X10897119Y-14491405D02*
X10906643Y-14472357D01*
X10906643Y-14472357D02*
X10925690Y-14462833D01*
X10925690Y-14462833D02*
X10973310Y-14462833D01*
X10973310Y-14462833D02*
X10992357Y-14453309D01*
X11087595Y-14405690D02*
X11087595Y-14605690D01*
X11087595Y-14415214D02*
X11106643Y-14405690D01*
X11106643Y-14405690D02*
X11144738Y-14405690D01*
X11144738Y-14405690D02*
X11163786Y-14415214D01*
X11163786Y-14415214D02*
X11173310Y-14424738D01*
X11173310Y-14424738D02*
X11182833Y-14443786D01*
X11182833Y-14443786D02*
X11182833Y-14500928D01*
X11182833Y-14500928D02*
X11173310Y-14519976D01*
X11173310Y-14519976D02*
X11163786Y-14529500D01*
X11163786Y-14529500D02*
X11144738Y-14539024D01*
X11144738Y-14539024D02*
X11106643Y-14539024D01*
X11106643Y-14539024D02*
X11087595Y-14529500D01*
X11268548Y-14519976D02*
X11278071Y-14529500D01*
X11278071Y-14529500D02*
X11268548Y-14539024D01*
X11268548Y-14539024D02*
X11259024Y-14529500D01*
X11259024Y-14529500D02*
X11268548Y-14519976D01*
X11268548Y-14519976D02*
X11268548Y-14539024D01*
X11268548Y-14415214D02*
X11278071Y-14424738D01*
X11278071Y-14424738D02*
X11268548Y-14434262D01*
X11268548Y-14434262D02*
X11259024Y-14424738D01*
X11259024Y-14424738D02*
X11268548Y-14415214D01*
X11268548Y-14415214D02*
X11268548Y-14434262D01*
M02*
