%TF.GenerationSoftware,KiCad,Pcbnew,7.0.1*%
%TF.CreationDate,2023-06-06T13:02:27-04:00*%
%TF.ProjectId,nixie,6e697869-652e-46b6-9963-61645f706362,rev?*%
%TF.SameCoordinates,Original*%
%TF.FileFunction,Copper,L4,Bot*%
%TF.FilePolarity,Positive*%
%FSLAX46Y46*%
G04 Gerber Fmt 4.6, Leading zero omitted, Abs format (unit mm)*
G04 Created by KiCad (PCBNEW 7.0.1) date 2023-06-06 13:02:27*
%MOMM*%
%LPD*%
G01*
G04 APERTURE LIST*
%TA.AperFunction,ComponentPad*%
%ADD10R,1.400000X1.400000*%
%TD*%
%TA.AperFunction,ComponentPad*%
%ADD11C,1.400000*%
%TD*%
%TA.AperFunction,ComponentPad*%
%ADD12O,2.316000X2.316000*%
%TD*%
%TA.AperFunction,ComponentPad*%
%ADD13C,2.316000*%
%TD*%
%TA.AperFunction,SMDPad,CuDef*%
%ADD14R,1.500000X1.300000*%
%TD*%
%TA.AperFunction,ComponentPad*%
%ADD15C,1.500000*%
%TD*%
%TA.AperFunction,ComponentPad*%
%ADD16C,1.348000*%
%TD*%
%TA.AperFunction,ComponentPad*%
%ADD17O,1.600000X3.200000*%
%TD*%
%TA.AperFunction,ComponentPad*%
%ADD18O,3.200000X1.600000*%
%TD*%
%TA.AperFunction,SMDPad,CuDef*%
%ADD19R,1.300000X1.500000*%
%TD*%
%TA.AperFunction,ViaPad*%
%ADD20C,0.600000*%
%TD*%
%TA.AperFunction,ViaPad*%
%ADD21C,1.000000*%
%TD*%
%TA.AperFunction,Conductor*%
%ADD22C,0.381000*%
%TD*%
%TA.AperFunction,Conductor*%
%ADD23C,0.254000*%
%TD*%
%TA.AperFunction,Conductor*%
%ADD24C,0.152400*%
%TD*%
G04 APERTURE END LIST*
D10*
%TO.P,IC3,1,8*%
%TO.N,/N38*%
X154940000Y-109220000D03*
D11*
%TO.P,IC3,2,9*%
%TO.N,/N39*%
X157480000Y-109220000D03*
%TO.P,IC3,3,A*%
%TO.N,/A3*%
X160020000Y-109220000D03*
%TO.P,IC3,4,D*%
%TO.N,/D3*%
X162560000Y-109220000D03*
%TO.P,IC3,5,VCC*%
%TO.N,+5V*%
X165100000Y-109220000D03*
%TO.P,IC3,6,B*%
%TO.N,/B3*%
X167640000Y-109220000D03*
%TO.P,IC3,7,C*%
%TO.N,/C3*%
X170180000Y-109220000D03*
%TO.P,IC3,8,2*%
%TO.N,/N32*%
X172720000Y-109220000D03*
%TO.P,IC3,9,3*%
%TO.N,/N33*%
X172720000Y-101600000D03*
%TO.P,IC3,10,7*%
%TO.N,/N37*%
X170180000Y-101600000D03*
%TO.P,IC3,11,6*%
%TO.N,/N36*%
X167640000Y-101600000D03*
%TO.P,IC3,12,GND*%
%TO.N,GND*%
X165100000Y-101600000D03*
%TO.P,IC3,13,4*%
%TO.N,/N34*%
X162560000Y-101600000D03*
%TO.P,IC3,14,5*%
%TO.N,/N35*%
X160020000Y-101600000D03*
%TO.P,IC3,15,1*%
%TO.N,/N31*%
X157480000Y-101600000D03*
%TO.P,IC3,16,0*%
%TO.N,/N30*%
X154940000Y-101600000D03*
%TD*%
D12*
%TO.P,BAT1,+,+*%
%TO.N,Net-(IC6-VBAT)*%
X165100000Y-139700000D03*
D13*
%TO.P,BAT1,-,-*%
%TO.N,GND*%
X165100000Y-119200000D03*
%TD*%
D10*
%TO.P,IC4,1,8*%
%TO.N,/N48*%
X178816000Y-109220000D03*
D11*
%TO.P,IC4,2,9*%
%TO.N,/N49*%
X181356000Y-109220000D03*
%TO.P,IC4,3,A*%
%TO.N,/A4*%
X183896000Y-109220000D03*
%TO.P,IC4,4,D*%
%TO.N,/D4*%
X186436000Y-109220000D03*
%TO.P,IC4,5,VCC*%
%TO.N,+5V*%
X188976000Y-109220000D03*
%TO.P,IC4,6,B*%
%TO.N,/B4*%
X191516000Y-109220000D03*
%TO.P,IC4,7,C*%
%TO.N,/C4*%
X194056000Y-109220000D03*
%TO.P,IC4,8,2*%
%TO.N,/N42*%
X196596000Y-109220000D03*
%TO.P,IC4,9,3*%
%TO.N,/N43*%
X196596000Y-101600000D03*
%TO.P,IC4,10,7*%
%TO.N,/N47*%
X194056000Y-101600000D03*
%TO.P,IC4,11,6*%
%TO.N,/N46*%
X191516000Y-101600000D03*
%TO.P,IC4,12,GND*%
%TO.N,GND*%
X188976000Y-101600000D03*
%TO.P,IC4,13,4*%
%TO.N,/N44*%
X186436000Y-101600000D03*
%TO.P,IC4,14,5*%
%TO.N,/N45*%
X183896000Y-101600000D03*
%TO.P,IC4,15,1*%
%TO.N,/N41*%
X181356000Y-101600000D03*
%TO.P,IC4,16,0*%
%TO.N,/N40*%
X178816000Y-101600000D03*
%TD*%
D10*
%TO.P,IC2,1,8*%
%TO.N,/N28*%
X124460000Y-109220000D03*
D11*
%TO.P,IC2,2,9*%
%TO.N,/N29*%
X127000000Y-109220000D03*
%TO.P,IC2,3,A*%
%TO.N,/A2*%
X129540000Y-109220000D03*
%TO.P,IC2,4,D*%
%TO.N,/D2*%
X132080000Y-109220000D03*
%TO.P,IC2,5,VCC*%
%TO.N,+5V*%
X134620000Y-109220000D03*
%TO.P,IC2,6,B*%
%TO.N,/B2*%
X137160000Y-109220000D03*
%TO.P,IC2,7,C*%
%TO.N,/C2*%
X139700000Y-109220000D03*
%TO.P,IC2,8,2*%
%TO.N,/N22*%
X142240000Y-109220000D03*
%TO.P,IC2,9,3*%
%TO.N,/N23*%
X142240000Y-101600000D03*
%TO.P,IC2,10,7*%
%TO.N,/N27*%
X139700000Y-101600000D03*
%TO.P,IC2,11,6*%
%TO.N,/N26*%
X137160000Y-101600000D03*
%TO.P,IC2,12,GND*%
%TO.N,GND*%
X134620000Y-101600000D03*
%TO.P,IC2,13,4*%
%TO.N,/N24*%
X132080000Y-101600000D03*
%TO.P,IC2,14,5*%
%TO.N,/N25*%
X129540000Y-101600000D03*
%TO.P,IC2,15,1*%
%TO.N,/N21*%
X127000000Y-101600000D03*
%TO.P,IC2,16,0*%
%TO.N,/N20*%
X124460000Y-101600000D03*
%TD*%
D10*
%TO.P,IC1,1,8*%
%TO.N,/N18*%
X100838000Y-109220000D03*
D11*
%TO.P,IC1,2,9*%
%TO.N,/N19*%
X103378000Y-109220000D03*
%TO.P,IC1,3,A*%
%TO.N,/A1*%
X105918000Y-109220000D03*
%TO.P,IC1,4,D*%
%TO.N,/D1*%
X108458000Y-109220000D03*
%TO.P,IC1,5,VCC*%
%TO.N,+5V*%
X110998000Y-109220000D03*
%TO.P,IC1,6,B*%
%TO.N,/B1*%
X113538000Y-109220000D03*
%TO.P,IC1,7,C*%
%TO.N,/C1*%
X116078000Y-109220000D03*
%TO.P,IC1,8,2*%
%TO.N,/N12*%
X118618000Y-109220000D03*
%TO.P,IC1,9,3*%
%TO.N,/N13*%
X118618000Y-101600000D03*
%TO.P,IC1,10,7*%
%TO.N,/N17*%
X116078000Y-101600000D03*
%TO.P,IC1,11,6*%
%TO.N,/N16*%
X113538000Y-101600000D03*
%TO.P,IC1,12,GND*%
%TO.N,GND*%
X110998000Y-101600000D03*
%TO.P,IC1,13,4*%
%TO.N,/N14*%
X108458000Y-101600000D03*
%TO.P,IC1,14,5*%
%TO.N,/N15*%
X105918000Y-101600000D03*
%TO.P,IC1,15,1*%
%TO.N,/N11*%
X103378000Y-101600000D03*
%TO.P,IC1,16,0*%
%TO.N,/N10*%
X100838000Y-101600000D03*
%TD*%
D14*
%TO.P,C1,1,1*%
%TO.N,+5V*%
X110998000Y-106934000D03*
%TO.P,C1,2,2*%
%TO.N,GND*%
X110998000Y-105034000D03*
%TD*%
D15*
%TO.P,J1,1,1*%
%TO.N,VCC*%
X184262000Y-118872000D03*
%TO.P,J1,2,2*%
%TO.N,+12V*%
X187762000Y-118872000D03*
%TO.P,J1,3,3*%
%TO.N,/ENABLE*%
X191262000Y-118872000D03*
%TO.P,J1,4,4*%
%TO.N,GND*%
X194762000Y-118872000D03*
%TD*%
D14*
%TO.P,C4,1,1*%
%TO.N,+5V*%
X188976000Y-106934000D03*
%TO.P,C4,2,2*%
%TO.N,GND*%
X188976000Y-105034000D03*
%TD*%
%TO.P,C2,1,1*%
%TO.N,+5V*%
X134620000Y-107056000D03*
%TO.P,C2,2,2*%
%TO.N,GND*%
X134620000Y-105156000D03*
%TD*%
D16*
%TO.P,N4,RHDP,RHDP*%
%TO.N,unconnected-(N4-PadRHDP)*%
X190836600Y-94380900D03*
%TO.P,N4,LHDP,LHDP*%
%TO.N,unconnected-(N4-PadLHDP)*%
X185083400Y-94380900D03*
%TO.P,N4,A,A*%
%TO.N,/170V4*%
X187960000Y-95089900D03*
%TO.P,N4,9,9*%
%TO.N,/N49*%
X181815200Y-89646100D03*
%TO.P,N4,8,8*%
%TO.N,/N48*%
X182172300Y-86705000D03*
%TO.P,N4,7,7*%
%TO.N,/N47*%
X183855300Y-84266800D03*
%TO.P,N4,6,6*%
%TO.N,/N46*%
X186478700Y-82889900D03*
%TO.P,N4,5,5*%
%TO.N,/N45*%
X189441300Y-82889900D03*
%TO.P,N4,4,4*%
%TO.N,/N44*%
X192064700Y-84266800D03*
%TO.P,N4,3,3*%
%TO.N,/N43*%
X193747700Y-86705000D03*
%TO.P,N4,2,2*%
%TO.N,/N42*%
X194104800Y-89646100D03*
%TO.P,N4,1,1*%
%TO.N,/N41*%
X193054200Y-92416300D03*
%TO.P,N4,0,0*%
%TO.N,/N40*%
X182865800Y-92416300D03*
%TD*%
D17*
%TO.P,U$1,3V3,3V3*%
%TO.N,unconnected-(U$1-Pad3V3)*%
X111760000Y-135420000D03*
%TO.P,U$1,3V3_EN,3V3_EN*%
%TO.N,unconnected-(U$1-Pad3V3_EN)*%
X109220000Y-135420000D03*
%TO.P,U$1,ADC_VREF,ADC_VREF*%
%TO.N,unconnected-(U$1-PadADC_VREF)*%
X114300000Y-135420000D03*
%TO.P,U$1,AGND,AGND*%
%TO.N,GND*%
X119380000Y-135420000D03*
%TO.P,U$1,GND@1,GND*%
X106680000Y-116040000D03*
%TO.P,U$1,GND@2,GND*%
X119380000Y-116040000D03*
%TO.P,U$1,GND@3,GND*%
X132080000Y-116040000D03*
%TO.P,U$1,GND@4,GND*%
X144780000Y-116040000D03*
D18*
%TO.P,U$1,GND@5,GND*%
X150430000Y-125730000D03*
D17*
%TO.P,U$1,GND@6,GND*%
X144780000Y-135420000D03*
%TO.P,U$1,GND@7,GND*%
X132080000Y-135420000D03*
%TO.P,U$1,GND@8,GND*%
X106680000Y-135420000D03*
%TO.P,U$1,GP0,GP0*%
%TO.N,/SDA*%
X101600000Y-116040000D03*
%TO.P,U$1,GP1,GP1*%
%TO.N,/SCL*%
X104140000Y-116040000D03*
%TO.P,U$1,GP2,GP2*%
%TO.N,/A1*%
X109220000Y-116040000D03*
%TO.P,U$1,GP3,GP3*%
%TO.N,/D1*%
X111760000Y-116040000D03*
%TO.P,U$1,GP4,GP4*%
%TO.N,/B1*%
X114300000Y-116040000D03*
%TO.P,U$1,GP5,GP5*%
%TO.N,/C1*%
X116840000Y-116040000D03*
%TO.P,U$1,GP6,GP6*%
%TO.N,/A2*%
X121920000Y-116040000D03*
%TO.P,U$1,GP7,GP7*%
%TO.N,/D2*%
X124460000Y-116040000D03*
%TO.P,U$1,GP8,GP8*%
%TO.N,/B2*%
X127000000Y-116040000D03*
%TO.P,U$1,GP9,GP9*%
%TO.N,/C2*%
X129540000Y-116040000D03*
%TO.P,U$1,GP10,GP10*%
%TO.N,/A3*%
X134620000Y-116040000D03*
%TO.P,U$1,GP11,GP11*%
%TO.N,/D3*%
X137160000Y-116040000D03*
%TO.P,U$1,GP12,GP12*%
%TO.N,/B3*%
X139700000Y-116040000D03*
%TO.P,U$1,GP13,GP13*%
%TO.N,/C3*%
X142240000Y-116040000D03*
%TO.P,U$1,GP14,GP14*%
%TO.N,/A4*%
X147320000Y-116040000D03*
%TO.P,U$1,GP15,GP15*%
%TO.N,/D4*%
X149860000Y-116040000D03*
%TO.P,U$1,GP16,GP16*%
%TO.N,/C4*%
X149860000Y-135420000D03*
%TO.P,U$1,GP17,GP17*%
%TO.N,/B4*%
X147320000Y-135420000D03*
%TO.P,U$1,GP18,GP18*%
%TO.N,unconnected-(U$1-PadGP18)*%
X142240000Y-135420000D03*
%TO.P,U$1,GP19,GP19*%
%TO.N,unconnected-(U$1-PadGP19)*%
X139700000Y-135420000D03*
%TO.P,U$1,GP20,GP20*%
%TO.N,unconnected-(U$1-PadGP20)*%
X137160000Y-135420000D03*
%TO.P,U$1,GP21,GP21*%
%TO.N,unconnected-(U$1-PadGP21)*%
X134620000Y-135420000D03*
%TO.P,U$1,GP22,GP22*%
%TO.N,unconnected-(U$1-PadGP22)*%
X129540000Y-135420000D03*
%TO.P,U$1,GP26_A0,GP26_A0*%
%TO.N,unconnected-(U$1-PadGP26_A0)*%
X124460000Y-135420000D03*
%TO.P,U$1,GP27_A1,GP27_A1*%
%TO.N,unconnected-(U$1-PadGP27_A1)*%
X121920000Y-135420000D03*
%TO.P,U$1,GP28_A2,GP28_A2*%
%TO.N,unconnected-(U$1-PadGP28_A2)*%
X116840000Y-135420000D03*
%TO.P,U$1,RUN,RUN*%
%TO.N,unconnected-(U$1-PadRUN)*%
X127000000Y-135420000D03*
D18*
%TO.P,U$1,SWCLK,SWCLK*%
%TO.N,unconnected-(U$1-PadSWCLK)*%
X150430000Y-123190000D03*
%TO.P,U$1,SWDIO,SWDIO*%
%TO.N,unconnected-(U$1-PadSWDIO)*%
X150430000Y-128270000D03*
D17*
%TO.P,U$1,VBUS,VBUS*%
%TO.N,unconnected-(U$1-PadVBUS)*%
X101600000Y-135420000D03*
%TO.P,U$1,VSYS,VSYS*%
%TO.N,+5V*%
X104140000Y-135420000D03*
%TD*%
D14*
%TO.P,R3,1,1*%
%TO.N,/170V3*%
X173736000Y-95570000D03*
%TO.P,R3,2,2*%
%TO.N,VCC*%
X173736000Y-97470000D03*
%TD*%
%TO.P,C3,1,1*%
%TO.N,+5V*%
X165100000Y-106934000D03*
%TO.P,C3,2,2*%
%TO.N,GND*%
X165100000Y-105034000D03*
%TD*%
%TO.P,C5,1,1*%
%TO.N,+5V*%
X187198000Y-130987800D03*
%TO.P,C5,2,2*%
%TO.N,GND*%
X187198000Y-129087800D03*
%TD*%
%TO.P,R2,1,1*%
%TO.N,/170V2*%
X142240000Y-95570000D03*
%TO.P,R2,2,2*%
%TO.N,VCC*%
X142240000Y-97470000D03*
%TD*%
%TO.P,R4,1,1*%
%TO.N,/170V4*%
X197104000Y-95570000D03*
%TO.P,R4,2,2*%
%TO.N,VCC*%
X197104000Y-97470000D03*
%TD*%
%TO.P,R1,1,1*%
%TO.N,/170V1*%
X119380000Y-95570000D03*
%TO.P,R1,2,2*%
%TO.N,VCC*%
X119380000Y-97470000D03*
%TD*%
D19*
%TO.P,C7,1,1*%
%TO.N,+5V*%
X171196000Y-137414000D03*
%TO.P,C7,2,2*%
%TO.N,GND*%
X169296000Y-137414000D03*
%TD*%
D16*
%TO.P,N3,0,0*%
%TO.N,/N30*%
X158947100Y-92416300D03*
%TO.P,N3,1,1*%
%TO.N,/N31*%
X169135500Y-92416300D03*
%TO.P,N3,2,2*%
%TO.N,/N32*%
X170186100Y-89646100D03*
%TO.P,N3,3,3*%
%TO.N,/N33*%
X169829000Y-86705000D03*
%TO.P,N3,4,4*%
%TO.N,/N34*%
X168146000Y-84266800D03*
%TO.P,N3,5,5*%
%TO.N,/N35*%
X165522600Y-82889900D03*
%TO.P,N3,6,6*%
%TO.N,/N36*%
X162560000Y-82889900D03*
%TO.P,N3,7,7*%
%TO.N,/N37*%
X159936600Y-84266800D03*
%TO.P,N3,8,8*%
%TO.N,/N38*%
X158253600Y-86705000D03*
%TO.P,N3,9,9*%
%TO.N,/N39*%
X157896500Y-89646100D03*
%TO.P,N3,A,A*%
%TO.N,/170V3*%
X164041300Y-95089900D03*
%TO.P,N3,LHDP,LHDP*%
%TO.N,unconnected-(N3-PadLHDP)*%
X161164700Y-94380900D03*
%TO.P,N3,RHDP,RHDP*%
%TO.N,unconnected-(N3-PadRHDP)*%
X166917900Y-94380900D03*
%TD*%
%TO.P,N1,0,0*%
%TO.N,/N10*%
X104140000Y-92416300D03*
%TO.P,N1,1,1*%
%TO.N,/N11*%
X114328400Y-92416300D03*
%TO.P,N1,2,2*%
%TO.N,/N12*%
X115379000Y-89646100D03*
%TO.P,N1,3,3*%
%TO.N,/N13*%
X115021900Y-86705000D03*
%TO.P,N1,4,4*%
%TO.N,/N14*%
X113338900Y-84266800D03*
%TO.P,N1,5,5*%
%TO.N,/N15*%
X110715500Y-82889900D03*
%TO.P,N1,6,6*%
%TO.N,/N16*%
X107752900Y-82889900D03*
%TO.P,N1,7,7*%
%TO.N,/N17*%
X105129500Y-84266800D03*
%TO.P,N1,8,8*%
%TO.N,/N18*%
X103446500Y-86705000D03*
%TO.P,N1,9,9*%
%TO.N,/N19*%
X103089400Y-89646100D03*
%TO.P,N1,A,A*%
%TO.N,/170V1*%
X109234200Y-95089900D03*
%TO.P,N1,LHDP,LHDP*%
%TO.N,unconnected-(N1-PadLHDP)*%
X106357600Y-94380900D03*
%TO.P,N1,RHDP,RHDP*%
%TO.N,unconnected-(N1-PadRHDP)*%
X112110800Y-94380900D03*
%TD*%
%TO.P,N2,0,0*%
%TO.N,/N20*%
X128001800Y-92416300D03*
%TO.P,N2,1,1*%
%TO.N,/N21*%
X138190200Y-92416300D03*
%TO.P,N2,2,2*%
%TO.N,/N22*%
X139240800Y-89646100D03*
%TO.P,N2,3,3*%
%TO.N,/N23*%
X138883700Y-86705000D03*
%TO.P,N2,4,4*%
%TO.N,/N24*%
X137200700Y-84266800D03*
%TO.P,N2,5,5*%
%TO.N,/N25*%
X134577300Y-82889900D03*
%TO.P,N2,6,6*%
%TO.N,/N26*%
X131614700Y-82889900D03*
%TO.P,N2,7,7*%
%TO.N,/N27*%
X128991300Y-84266800D03*
%TO.P,N2,8,8*%
%TO.N,/N28*%
X127308300Y-86705000D03*
%TO.P,N2,9,9*%
%TO.N,/N29*%
X126951200Y-89646100D03*
%TO.P,N2,A,A*%
%TO.N,/170V2*%
X133096000Y-95089900D03*
%TO.P,N2,LHDP,LHDP*%
%TO.N,unconnected-(N2-PadLHDP)*%
X130219400Y-94380900D03*
%TO.P,N2,RHDP,RHDP*%
%TO.N,unconnected-(N2-PadRHDP)*%
X135972600Y-94380900D03*
%TD*%
D20*
%TO.N,VCC*%
X176000000Y-102700000D03*
X176200000Y-114100000D03*
%TO.N,GND*%
X185191400Y-127838200D03*
X115189000Y-128092200D03*
X140500000Y-106400000D03*
X192200000Y-104000000D03*
X107000000Y-104800000D03*
X119100000Y-111200000D03*
X99466400Y-139192000D03*
X105638600Y-140995400D03*
X193802000Y-124053600D03*
X154627047Y-135210360D03*
X145200000Y-80400000D03*
X117729000Y-120472200D03*
X190600000Y-91400000D03*
X130429000Y-128092200D03*
X162300000Y-91200000D03*
X187900000Y-93300000D03*
X127889000Y-123012200D03*
X98399600Y-132816600D03*
X159800000Y-121400000D03*
X170800000Y-120300000D03*
X119100000Y-82200000D03*
X143129000Y-120472200D03*
X132969000Y-120472200D03*
X135509000Y-120472200D03*
X138049000Y-125552200D03*
X129900000Y-98900000D03*
X135509000Y-125552200D03*
X156700000Y-80900000D03*
X130182686Y-106483735D03*
X130429000Y-120472200D03*
X125349000Y-120472200D03*
X116000000Y-94900000D03*
X115189000Y-123012200D03*
X194335400Y-112191800D03*
X97700000Y-87800000D03*
X120269000Y-123012200D03*
X138049000Y-128092200D03*
X195600000Y-91300000D03*
X185400000Y-91300000D03*
X117729000Y-125552200D03*
X122809000Y-123012200D03*
X143129000Y-123012200D03*
X105384600Y-128193800D03*
X193300000Y-106500000D03*
X102495143Y-80755553D03*
X141579600Y-141071600D03*
X172615692Y-104384843D03*
X121615200Y-110769400D03*
X111658400Y-125196600D03*
X117729000Y-123012200D03*
X153670000Y-128955800D03*
X108432600Y-121031000D03*
X167300000Y-98600000D03*
X126263400Y-141122400D03*
X173900000Y-81600000D03*
X107300000Y-106800000D03*
X140589000Y-128092200D03*
X105400000Y-78400000D03*
X158700000Y-98700000D03*
D21*
X172593000Y-135382000D03*
D20*
X149800000Y-85200000D03*
X190550800Y-134213600D03*
X148100000Y-88600000D03*
X125349000Y-128092200D03*
X197000000Y-82000000D03*
X130429000Y-123012200D03*
X140589000Y-125552200D03*
X174600000Y-86100000D03*
X166900000Y-87800000D03*
X165300000Y-91300000D03*
X143129000Y-128092200D03*
X174000000Y-88400000D03*
X197561200Y-112141000D03*
X115189000Y-125552200D03*
X122809000Y-128092200D03*
X127889000Y-128092200D03*
X174650400Y-113766600D03*
X189738000Y-128549400D03*
X135509000Y-128092200D03*
X120269000Y-120472200D03*
X189052200Y-137718800D03*
X185685002Y-85978569D03*
X176800000Y-96400000D03*
X120269000Y-128092200D03*
X160000000Y-106300000D03*
X157454600Y-140182600D03*
X177400000Y-126900000D03*
X126459080Y-83878910D03*
X133200000Y-88000000D03*
X127889000Y-120472200D03*
X125349000Y-123012200D03*
X98450400Y-112801400D03*
X103300000Y-105000000D03*
X178900000Y-88300000D03*
X134000000Y-78800000D03*
X118300000Y-89800000D03*
X170600000Y-94300000D03*
X115900000Y-106400000D03*
X100100000Y-81400000D03*
X129600000Y-96200000D03*
X98700000Y-84200000D03*
X162900000Y-115700000D03*
X122809000Y-120472200D03*
X138049000Y-120472200D03*
X181200000Y-94600000D03*
X112014000Y-121361200D03*
X140397951Y-79502268D03*
X132969000Y-125552200D03*
X185100000Y-106900000D03*
X146500000Y-104400000D03*
X192700000Y-89100000D03*
X105900000Y-88200000D03*
X129700000Y-88800000D03*
X138400000Y-104600000D03*
X128900000Y-78100000D03*
X168500000Y-106400000D03*
X106200000Y-96100000D03*
X198100000Y-106700000D03*
X112400000Y-97300000D03*
X116382800Y-141274800D03*
X174675800Y-111201200D03*
X132969000Y-128092200D03*
X182829200Y-122555000D03*
X152100000Y-83000000D03*
X180300000Y-104100000D03*
X187900000Y-91500000D03*
X127889000Y-125552200D03*
X189292734Y-87203625D03*
X177000000Y-82300000D03*
X117700000Y-103900000D03*
X132969000Y-123012200D03*
X164300000Y-128800000D03*
X192481200Y-115798600D03*
X112400000Y-89400000D03*
X188061600Y-115976400D03*
X143129000Y-125552200D03*
X147000000Y-98700000D03*
X138049000Y-123012200D03*
X173700000Y-92400000D03*
X115100000Y-78700000D03*
X117729000Y-128092200D03*
X118400000Y-78600000D03*
X171300000Y-91900000D03*
X128900000Y-104100000D03*
X122809000Y-125552200D03*
X197231000Y-140589000D03*
X150114000Y-108331000D03*
X157000000Y-106000000D03*
X135509000Y-123012200D03*
X120269000Y-125552200D03*
X175400000Y-99000000D03*
X125349000Y-125552200D03*
X153441400Y-119329200D03*
X162100000Y-87300000D03*
X115189000Y-120472200D03*
X130429000Y-125552200D03*
X195935600Y-135407400D03*
X140589000Y-120472200D03*
X140589000Y-123012200D03*
X133200000Y-91500000D03*
X188468000Y-124053600D03*
X170500000Y-133200000D03*
X146659600Y-108280200D03*
X109500000Y-88400000D03*
X136700000Y-88500000D03*
D21*
%TO.N,+5V*%
X173355000Y-138176000D03*
D20*
X185369200Y-131419600D03*
X197027800Y-134162800D03*
D21*
X103378000Y-129286000D03*
D20*
%TO.N,/N15*%
X107800000Y-96900000D03*
%TO.N,/N14*%
X110800000Y-96900000D03*
%TO.N,/N17*%
X99900000Y-91100000D03*
X99900000Y-84200000D03*
X116100000Y-103500000D03*
%TO.N,/N18*%
X98695000Y-86705000D03*
%TO.N,/N25*%
X123500000Y-99100000D03*
%TO.N,/N24*%
X131600000Y-98800000D03*
X131600000Y-96400000D03*
%TO.N,/N26*%
X134400000Y-86400000D03*
X134400000Y-93400000D03*
%TO.N,/N22*%
X144250000Y-89750000D03*
%TO.N,/N29*%
X121000000Y-99300000D03*
X121100000Y-89600000D03*
%TO.N,/N28*%
X121900000Y-86700000D03*
%TO.N,/N35*%
X160000000Y-98600000D03*
X162600000Y-93200000D03*
%TO.N,/N34*%
X165400000Y-93400000D03*
X165500000Y-98500000D03*
%TO.N,/N37*%
X151800000Y-84300000D03*
%TO.N,/N32*%
X174600000Y-89646100D03*
%TO.N,/N39*%
X148500000Y-98700000D03*
X148553900Y-89646100D03*
%TO.N,/N38*%
X149900000Y-86600000D03*
%TO.N,/N45*%
X186600000Y-93300000D03*
%TO.N,/N44*%
X189200000Y-93400000D03*
%TO.N,/N46*%
X177500000Y-99000000D03*
%TO.N,/N47*%
X180100000Y-99000000D03*
X180100000Y-95500000D03*
%TO.N,/N42*%
X197900000Y-89700000D03*
%TO.N,/N49*%
X191500000Y-88100000D03*
X195200000Y-105100000D03*
X186400000Y-105100000D03*
%TO.N,/N48*%
X178900000Y-86800000D03*
X176100000Y-86800000D03*
%TO.N,/SDA*%
X190779400Y-131495800D03*
%TO.N,/SCL*%
X189865000Y-130352800D03*
%TO.N,/170V1*%
X117700000Y-96000000D03*
%TD*%
D22*
%TO.N,VCC*%
X173736000Y-99336000D02*
X173736000Y-97470000D01*
X184262000Y-118872000D02*
X180972000Y-118872000D01*
X180972000Y-118872000D02*
X176200000Y-114100000D01*
X197104000Y-97470000D02*
X173736000Y-97470000D01*
X176000000Y-101600000D02*
X173736000Y-99336000D01*
X173736000Y-97470000D02*
X142240000Y-97470000D01*
X119380000Y-97470000D02*
X142240000Y-97470000D01*
X176000000Y-102700000D02*
X176000000Y-101600000D01*
%TO.N,GND*%
X172593000Y-135382000D02*
X170197000Y-135382000D01*
D23*
X187198000Y-129087800D02*
X186441000Y-129087800D01*
D22*
X110998000Y-105034000D02*
X110998000Y-101600000D01*
X169296000Y-136283000D02*
X169296000Y-137414000D01*
X170197000Y-135382000D02*
X169296000Y-136283000D01*
D23*
X186441000Y-129087800D02*
X185191400Y-127838200D01*
D22*
X134620000Y-105156000D02*
X134620000Y-101600000D01*
X165100000Y-105034000D02*
X165100000Y-101600000D01*
X188976000Y-105034000D02*
X188976000Y-101600000D01*
%TO.N,+5V*%
X134366000Y-112522000D02*
X133858000Y-112522000D01*
X110998000Y-112014000D02*
X110998000Y-109220000D01*
X134620000Y-109220000D02*
X134620000Y-112268000D01*
D23*
X197027800Y-137947400D02*
X197027800Y-134162800D01*
D22*
X98806000Y-124714000D02*
X103378000Y-129286000D01*
D23*
X176695200Y-141516200D02*
X193459000Y-141516200D01*
X193459000Y-141516200D02*
X197027800Y-137947400D01*
D22*
X135128000Y-112522000D02*
X134620000Y-112522000D01*
X165100000Y-112014000D02*
X165608000Y-112522000D01*
X165100000Y-109220000D02*
X165100000Y-112014000D01*
D23*
X173355000Y-138176000D02*
X176695200Y-141516200D01*
D22*
X101346000Y-112522000D02*
X98806000Y-115062000D01*
X172720000Y-137541000D02*
X171323000Y-137541000D01*
X173355000Y-138176000D02*
X172720000Y-137541000D01*
X110998000Y-112522000D02*
X110998000Y-112014000D01*
X185369200Y-131419600D02*
X186766200Y-131419600D01*
X134620000Y-109220000D02*
X134620000Y-107056000D01*
X134874000Y-112522000D02*
X135128000Y-112522000D01*
X165608000Y-112522000D02*
X165100000Y-112522000D01*
X188976000Y-106934000D02*
X188976000Y-109220000D01*
X165100000Y-112522000D02*
X164592000Y-112522000D01*
X110998000Y-109220000D02*
X110998000Y-106934000D01*
X186766200Y-131419600D02*
X187198000Y-130987800D01*
X165100000Y-106934000D02*
X165100000Y-109220000D01*
X110490000Y-112522000D02*
X101346000Y-112522000D01*
X110998000Y-112522000D02*
X110490000Y-112522000D01*
X110998000Y-112014000D02*
X110490000Y-112522000D01*
X133858000Y-112522000D02*
X111506000Y-112522000D01*
X134620000Y-112268000D02*
X134620000Y-112522000D01*
X134620000Y-112268000D02*
X134874000Y-112522000D01*
X111506000Y-112522000D02*
X110998000Y-112522000D01*
X165100000Y-112014000D02*
X164592000Y-112522000D01*
X98806000Y-115062000D02*
X98806000Y-124714000D01*
X134620000Y-112522000D02*
X133858000Y-112522000D01*
X188976000Y-109220000D02*
X185674000Y-112522000D01*
X185674000Y-112522000D02*
X165608000Y-112522000D01*
X134620000Y-112268000D02*
X134366000Y-112522000D01*
X110998000Y-112014000D02*
X111506000Y-112522000D01*
X165100000Y-112014000D02*
X165100000Y-112522000D01*
X164592000Y-112522000D02*
X135128000Y-112522000D01*
D23*
%TO.N,/N15*%
X110715500Y-84184500D02*
X110715500Y-82889900D01*
X107800000Y-87100000D02*
X110715500Y-84184500D01*
X107800000Y-96900000D02*
X107800000Y-87100000D01*
%TO.N,/N14*%
X113338900Y-85861100D02*
X113338900Y-84266800D01*
X110800000Y-96900000D02*
X110800000Y-88400000D01*
X110800000Y-88400000D02*
X113338900Y-85861100D01*
%TO.N,/N16*%
X113538000Y-100338000D02*
X112600000Y-99400000D01*
X101200000Y-84300000D02*
X102610100Y-82889900D01*
X102600000Y-99400000D02*
X101200000Y-98000000D01*
X101200000Y-98000000D02*
X101200000Y-84300000D01*
X102610100Y-82889900D02*
X107752900Y-82889900D01*
X112600000Y-99400000D02*
X102600000Y-99400000D01*
X113538000Y-101600000D02*
X113538000Y-100338000D01*
%TO.N,/N17*%
X116078000Y-103478000D02*
X116100000Y-103500000D01*
X99900000Y-91100000D02*
X99900000Y-84200000D01*
X116078000Y-101600000D02*
X116078000Y-103478000D01*
%TO.N,/N12*%
X120200000Y-106000000D02*
X120200000Y-101000000D01*
X117000000Y-97800000D02*
X117000000Y-90000000D01*
X116646100Y-89646100D02*
X115379000Y-89646100D01*
X120200000Y-101000000D02*
X117000000Y-97800000D01*
X118618000Y-109220000D02*
X118600000Y-109202000D01*
X118600000Y-107600000D02*
X120200000Y-106000000D01*
X118600000Y-109202000D02*
X118600000Y-107600000D01*
X117000000Y-90000000D02*
X116646100Y-89646100D01*
%TO.N,/N18*%
X98700000Y-86710000D02*
X98700000Y-108700000D01*
X98695000Y-86705000D02*
X98700000Y-86710000D01*
X99220000Y-109220000D02*
X100838000Y-109220000D01*
X98700000Y-108700000D02*
X99220000Y-109220000D01*
%TO.N,/N25*%
X129540000Y-101600000D02*
X129540000Y-100440000D01*
X129540000Y-100440000D02*
X128200000Y-99100000D01*
X128200000Y-99100000D02*
X123500000Y-99100000D01*
%TO.N,/N24*%
X131600000Y-87200000D02*
X134533200Y-84266800D01*
X132080000Y-99980000D02*
X131600000Y-99500000D01*
X131600000Y-99500000D02*
X131600000Y-98800000D01*
X132080000Y-101600000D02*
X132080000Y-99980000D01*
X134533200Y-84266800D02*
X137200700Y-84266800D01*
X131600000Y-96400000D02*
X131600000Y-87200000D01*
%TO.N,/N26*%
X134400000Y-93400000D02*
X134400000Y-86400000D01*
%TO.N,/N22*%
X144250000Y-89750000D02*
X144146100Y-89646100D01*
X144146100Y-89646100D02*
X139240800Y-89646100D01*
%TO.N,/N29*%
X121100000Y-89600000D02*
X121146100Y-89646100D01*
X127000000Y-109220000D02*
X127000000Y-107900000D01*
X121000000Y-101900000D02*
X121000000Y-99300000D01*
X127000000Y-107900000D02*
X121000000Y-101900000D01*
X121146100Y-89646100D02*
X126951200Y-89646100D01*
%TO.N,/N28*%
X121905000Y-86705000D02*
X127308300Y-86705000D01*
X121900000Y-86700000D02*
X121905000Y-86705000D01*
%TO.N,/N35*%
X160020000Y-98620000D02*
X160000000Y-98600000D01*
X162600000Y-92100000D02*
X165522600Y-89177400D01*
X165522600Y-89177400D02*
X165522600Y-82889900D01*
X160020000Y-101600000D02*
X160020000Y-98620000D01*
X162600000Y-93200000D02*
X162600000Y-92100000D01*
%TO.N,/N34*%
X164300000Y-98500000D02*
X165500000Y-98500000D01*
X165400000Y-92600000D02*
X168100000Y-89900000D01*
X162560000Y-101600000D02*
X162560000Y-100240000D01*
X162560000Y-100240000D02*
X164300000Y-98500000D01*
X165400000Y-93400000D02*
X165400000Y-92600000D01*
X168100000Y-89900000D02*
X168100000Y-84312800D01*
X168100000Y-84312800D02*
X168146000Y-84266800D01*
%TO.N,/N37*%
X151833200Y-84266800D02*
X159936600Y-84266800D01*
X151800000Y-84300000D02*
X151833200Y-84266800D01*
%TO.N,/N32*%
X174600000Y-89646100D02*
X170186100Y-89646100D01*
%TO.N,/N39*%
X150100000Y-107400000D02*
X148500000Y-105800000D01*
X157480000Y-107980000D02*
X156900000Y-107400000D01*
X157480000Y-109220000D02*
X157480000Y-107980000D01*
X148500000Y-105800000D02*
X148500000Y-98700000D01*
X156900000Y-107400000D02*
X150100000Y-107400000D01*
X148553900Y-89646100D02*
X157896500Y-89646100D01*
%TO.N,/N38*%
X150005000Y-86705000D02*
X158253600Y-86705000D01*
X149900000Y-86600000D02*
X150005000Y-86705000D01*
%TO.N,/N45*%
X189441300Y-85658700D02*
X189441300Y-82889900D01*
X186600000Y-88500000D02*
X189441300Y-85658700D01*
X186600000Y-93300000D02*
X186600000Y-88500000D01*
%TO.N,/N44*%
X192064700Y-86035300D02*
X192064700Y-84266800D01*
X189200000Y-88900000D02*
X192064700Y-86035300D01*
X189200000Y-93400000D02*
X189200000Y-88900000D01*
%TO.N,/N46*%
X191516000Y-100316000D02*
X191516000Y-101600000D01*
X191100000Y-99900000D02*
X191516000Y-100316000D01*
X177500000Y-99400000D02*
X178000000Y-99900000D01*
X177500000Y-99000000D02*
X177500000Y-99400000D01*
X178000000Y-99900000D02*
X191100000Y-99900000D01*
%TO.N,/N47*%
X193100000Y-99000000D02*
X180100000Y-99000000D01*
X180100000Y-95500000D02*
X180100000Y-85300000D01*
X180100000Y-85300000D02*
X181133200Y-84266800D01*
X181133200Y-84266800D02*
X183855300Y-84266800D01*
X194056000Y-101600000D02*
X194056000Y-99956000D01*
X194056000Y-99956000D02*
X193100000Y-99000000D01*
%TO.N,/N42*%
X197900000Y-89700000D02*
X197846100Y-89646100D01*
X197846100Y-89646100D02*
X194104800Y-89646100D01*
%TO.N,/N49*%
X197900000Y-88100000D02*
X191500000Y-88100000D01*
X198882100Y-104017900D02*
X198882100Y-89082100D01*
X197800000Y-105100000D02*
X198882100Y-104017900D01*
X198882100Y-89082100D02*
X197900000Y-88100000D01*
X195200000Y-105100000D02*
X197800000Y-105100000D01*
X181356000Y-107344000D02*
X181356000Y-109220000D01*
X183600000Y-105100000D02*
X181356000Y-107344000D01*
X186400000Y-105100000D02*
X183600000Y-105100000D01*
%TO.N,/N48*%
X178800000Y-86700000D02*
X178900000Y-86800000D01*
X176200000Y-86700000D02*
X178800000Y-86700000D01*
X176100000Y-86800000D02*
X176200000Y-86700000D01*
D24*
%TO.N,/SDA*%
X184683400Y-135407400D02*
X181000400Y-131724400D01*
X187985400Y-135407400D02*
X184683400Y-135407400D01*
X190779400Y-132613400D02*
X187985400Y-135407400D01*
X190779400Y-131495800D02*
X190779400Y-132613400D01*
X101600000Y-120751600D02*
X101600000Y-116840000D01*
X181000400Y-131724400D02*
X112572800Y-131724400D01*
X112572800Y-131724400D02*
X101600000Y-120751600D01*
%TO.N,/SCL*%
X104140000Y-120624600D02*
X113842800Y-130327400D01*
X104140000Y-116840000D02*
X104140000Y-120624600D01*
X189560200Y-130657600D02*
X189865000Y-130352800D01*
X113842800Y-130327400D02*
X181559200Y-130327400D01*
X188239400Y-133019800D02*
X189560200Y-131699000D01*
X181559200Y-130327400D02*
X184251600Y-133019800D01*
X189560200Y-131699000D02*
X189560200Y-130657600D01*
X184251600Y-133019800D02*
X188239400Y-133019800D01*
D22*
%TO.N,/170V1*%
X118950000Y-96000000D02*
X119380000Y-95570000D01*
X117700000Y-96000000D02*
X118950000Y-96000000D01*
%TO.N,/170V2*%
X133500000Y-96000000D02*
X133096000Y-95596000D01*
X133096000Y-95596000D02*
X133096000Y-95089900D01*
X142240000Y-95570000D02*
X141810000Y-96000000D01*
X141810000Y-96000000D02*
X133500000Y-96000000D01*
%TO.N,/170V3*%
X173306000Y-96000000D02*
X164500000Y-96000000D01*
X164500000Y-96000000D02*
X164041300Y-95541300D01*
X164041300Y-95541300D02*
X164041300Y-95089900D01*
X173736000Y-95570000D02*
X173306000Y-96000000D01*
%TO.N,/170V4*%
X197104000Y-95570000D02*
X196674000Y-96000000D01*
X196674000Y-96000000D02*
X188500000Y-96000000D01*
X187960000Y-95460000D02*
X187960000Y-95089900D01*
X188500000Y-96000000D02*
X187960000Y-95460000D01*
%TD*%
M02*
