%TF.GenerationSoftware,KiCad,Pcbnew,7.0.1*%
%TF.CreationDate,2023-06-06T13:02:26-04:00*%
%TF.ProjectId,nixie,6e697869-652e-46b6-9963-61645f706362,rev?*%
%TF.SameCoordinates,Original*%
%TF.FileFunction,Drillmap*%
%TF.FilePolarity,Positive*%
%FSLAX45Y45*%
G04 Gerber Fmt 4.5, Leading zero omitted, Abs format (unit mm)*
G04 Created by KiCad (PCBNEW 7.0.1) date 2023-06-06 13:02:26*
%MOMM*%
%LPD*%
G01*
G04 APERTURE LIST*
%ADD10C,0.050000*%
%ADD11C,0.200000*%
%ADD12C,0.030000*%
%ADD13C,0.084000*%
%ADD14C,0.090000*%
%ADD15C,0.100000*%
%ADD16C,0.110000*%
%ADD17C,0.127000*%
G04 APERTURE END LIST*
D10*
X19913610Y-14224000D02*
X19913610Y-7700510D01*
X9652000Y-14224000D02*
X19913610Y-14224000D01*
X19913610Y-7700510D02*
X9652000Y-7700510D01*
X9652000Y-7700510D02*
X9652000Y-14224000D01*
D11*
D12*
X9755000Y-8765000D02*
X9785000Y-8795000D01*
X9785000Y-8765000D02*
X9755000Y-8795000D01*
X9824960Y-13266660D02*
X9854960Y-13296660D01*
X9854960Y-13266660D02*
X9824960Y-13296660D01*
X9830040Y-11265140D02*
X9860040Y-11295140D01*
X9860040Y-11265140D02*
X9830040Y-11295140D01*
X9854500Y-8655500D02*
X9884500Y-8685500D01*
X9884500Y-8655500D02*
X9854500Y-8685500D01*
X9855000Y-8405000D02*
X9885000Y-8435000D01*
X9885000Y-8405000D02*
X9855000Y-8435000D01*
X9931640Y-13904200D02*
X9961640Y-13934200D01*
X9961640Y-13904200D02*
X9931640Y-13934200D01*
X9975000Y-8405000D02*
X10005000Y-8435000D01*
X10005000Y-8405000D02*
X9975000Y-8435000D01*
X9975000Y-9095000D02*
X10005000Y-9125000D01*
X10005000Y-9095000D02*
X9975000Y-9125000D01*
X9995000Y-8125000D02*
X10025000Y-8155000D01*
X10025000Y-8125000D02*
X9995000Y-8155000D01*
X10234514Y-8060555D02*
X10264514Y-8090555D01*
X10264514Y-8060555D02*
X10234514Y-8090555D01*
X10315000Y-10485000D02*
X10345000Y-10515000D01*
X10345000Y-10485000D02*
X10315000Y-10515000D01*
X10523460Y-12804380D02*
X10553460Y-12834380D01*
X10553460Y-12804380D02*
X10523460Y-12834380D01*
X10525000Y-7825000D02*
X10555000Y-7855000D01*
X10555000Y-7825000D02*
X10525000Y-7855000D01*
X10548860Y-14084540D02*
X10578860Y-14114540D01*
X10578860Y-14084540D02*
X10548860Y-14114540D01*
X10575000Y-8805000D02*
X10605000Y-8835000D01*
X10605000Y-8805000D02*
X10575000Y-8835000D01*
X10605000Y-9595000D02*
X10635000Y-9625000D01*
X10635000Y-9595000D02*
X10605000Y-9625000D01*
X10685000Y-10465000D02*
X10715000Y-10495000D01*
X10715000Y-10465000D02*
X10685000Y-10495000D01*
X10715000Y-10665000D02*
X10745000Y-10695000D01*
X10745000Y-10665000D02*
X10715000Y-10695000D01*
X10765000Y-9675000D02*
X10795000Y-9705000D01*
X10795000Y-9675000D02*
X10765000Y-9705000D01*
X10828260Y-12088100D02*
X10858260Y-12118100D01*
X10858260Y-12088100D02*
X10828260Y-12118100D01*
X10935000Y-8825000D02*
X10965000Y-8855000D01*
X10965000Y-8825000D02*
X10935000Y-8855000D01*
X11065000Y-9675000D02*
X11095000Y-9705000D01*
X11095000Y-9675000D02*
X11065000Y-9705000D01*
X11150840Y-12504660D02*
X11180840Y-12534660D01*
X11180840Y-12504660D02*
X11150840Y-12534660D01*
X11186400Y-12121120D02*
X11216400Y-12151120D01*
X11216400Y-12121120D02*
X11186400Y-12151120D01*
X11225000Y-8925000D02*
X11255000Y-8955000D01*
X11255000Y-8925000D02*
X11225000Y-8955000D01*
X11225000Y-9715000D02*
X11255000Y-9745000D01*
X11255000Y-9715000D02*
X11225000Y-9745000D01*
X11495000Y-7855000D02*
X11525000Y-7885000D01*
X11525000Y-7855000D02*
X11495000Y-7885000D01*
X11503900Y-12032220D02*
X11533900Y-12062220D01*
X11533900Y-12032220D02*
X11503900Y-12062220D01*
X11503900Y-12286220D02*
X11533900Y-12316220D01*
X11533900Y-12286220D02*
X11503900Y-12316220D01*
X11503900Y-12540220D02*
X11533900Y-12570220D01*
X11533900Y-12540220D02*
X11503900Y-12570220D01*
X11503900Y-12794220D02*
X11533900Y-12824220D01*
X11533900Y-12794220D02*
X11503900Y-12824220D01*
X11575000Y-10625000D02*
X11605000Y-10655000D01*
X11605000Y-10625000D02*
X11575000Y-10655000D01*
X11585000Y-9475000D02*
X11615000Y-9505000D01*
X11615000Y-9475000D02*
X11585000Y-9505000D01*
X11595000Y-10335000D02*
X11625000Y-10365000D01*
X11625000Y-10335000D02*
X11595000Y-10365000D01*
X11623280Y-14112480D02*
X11653280Y-14142480D01*
X11653280Y-14112480D02*
X11623280Y-14142480D01*
X11755000Y-9585000D02*
X11785000Y-9615000D01*
X11785000Y-9585000D02*
X11755000Y-9615000D01*
X11755000Y-10375000D02*
X11785000Y-10405000D01*
X11785000Y-10375000D02*
X11755000Y-10405000D01*
X11757900Y-12032220D02*
X11787900Y-12062220D01*
X11787900Y-12032220D02*
X11757900Y-12062220D01*
X11757900Y-12286220D02*
X11787900Y-12316220D01*
X11787900Y-12286220D02*
X11757900Y-12316220D01*
X11757900Y-12540220D02*
X11787900Y-12570220D01*
X11787900Y-12540220D02*
X11757900Y-12570220D01*
X11757900Y-12794220D02*
X11787900Y-12824220D01*
X11787900Y-12794220D02*
X11757900Y-12824220D01*
X11815000Y-8965000D02*
X11845000Y-8995000D01*
X11845000Y-8965000D02*
X11815000Y-8995000D01*
X11825000Y-7845000D02*
X11855000Y-7875000D01*
X11855000Y-7845000D02*
X11825000Y-7875000D01*
X11895000Y-8205000D02*
X11925000Y-8235000D01*
X11925000Y-8205000D02*
X11895000Y-8235000D01*
X11895000Y-11105000D02*
X11925000Y-11135000D01*
X11925000Y-11105000D02*
X11895000Y-11135000D01*
X12011900Y-12032220D02*
X12041900Y-12062220D01*
X12041900Y-12032220D02*
X12011900Y-12062220D01*
X12011900Y-12286220D02*
X12041900Y-12316220D01*
X12041900Y-12286220D02*
X12011900Y-12316220D01*
X12011900Y-12540220D02*
X12041900Y-12570220D01*
X12041900Y-12540220D02*
X12011900Y-12570220D01*
X12011900Y-12794220D02*
X12041900Y-12824220D01*
X12041900Y-12794220D02*
X12011900Y-12824220D01*
X12085000Y-9915000D02*
X12115000Y-9945000D01*
X12115000Y-9915000D02*
X12085000Y-9945000D01*
X12095000Y-8945000D02*
X12125000Y-8975000D01*
X12125000Y-8945000D02*
X12095000Y-8975000D01*
X12146520Y-11061940D02*
X12176520Y-11091940D01*
X12176520Y-11061940D02*
X12146520Y-11091940D01*
X12175000Y-8655000D02*
X12205000Y-8685000D01*
X12205000Y-8655000D02*
X12175000Y-8685000D01*
X12265900Y-12032220D02*
X12295900Y-12062220D01*
X12295900Y-12032220D02*
X12265900Y-12062220D01*
X12265900Y-12286220D02*
X12295900Y-12316220D01*
X12295900Y-12286220D02*
X12265900Y-12316220D01*
X12265900Y-12540220D02*
X12295900Y-12570220D01*
X12295900Y-12540220D02*
X12265900Y-12570220D01*
X12265900Y-12794220D02*
X12295900Y-12824220D01*
X12295900Y-12794220D02*
X12265900Y-12824220D01*
X12335000Y-9895000D02*
X12365000Y-9925000D01*
X12365000Y-9895000D02*
X12335000Y-9925000D01*
X12519900Y-12032220D02*
X12549900Y-12062220D01*
X12549900Y-12032220D02*
X12519900Y-12062220D01*
X12519900Y-12286220D02*
X12549900Y-12316220D01*
X12549900Y-12286220D02*
X12519900Y-12316220D01*
X12519900Y-12540220D02*
X12549900Y-12570220D01*
X12549900Y-12540220D02*
X12519900Y-12570220D01*
X12519900Y-12794220D02*
X12549900Y-12824220D01*
X12549900Y-12794220D02*
X12519900Y-12824220D01*
X12611340Y-14097240D02*
X12641340Y-14127240D01*
X12641340Y-14097240D02*
X12611340Y-14127240D01*
X12630908Y-8372891D02*
X12660908Y-8402891D01*
X12660908Y-8372891D02*
X12630908Y-8402891D01*
X12773900Y-12032220D02*
X12803900Y-12062220D01*
X12803900Y-12032220D02*
X12773900Y-12062220D01*
X12773900Y-12286220D02*
X12803900Y-12316220D01*
X12803900Y-12286220D02*
X12773900Y-12316220D01*
X12773900Y-12540220D02*
X12803900Y-12570220D01*
X12803900Y-12540220D02*
X12773900Y-12570220D01*
X12773900Y-12794220D02*
X12803900Y-12824220D01*
X12803900Y-12794220D02*
X12773900Y-12824220D01*
X12875000Y-7795000D02*
X12905000Y-7825000D01*
X12905000Y-7795000D02*
X12875000Y-7825000D01*
X12875000Y-10395000D02*
X12905000Y-10425000D01*
X12905000Y-10395000D02*
X12875000Y-10425000D01*
X12945000Y-9605000D02*
X12975000Y-9635000D01*
X12975000Y-9605000D02*
X12945000Y-9635000D01*
X12955000Y-8865000D02*
X12985000Y-8895000D01*
X12985000Y-8865000D02*
X12955000Y-8895000D01*
X12975000Y-9875000D02*
X13005000Y-9905000D01*
X13005000Y-9875000D02*
X12975000Y-9905000D01*
X13003269Y-10633374D02*
X13033269Y-10663374D01*
X13033269Y-10633374D02*
X13003269Y-10663374D01*
X13027900Y-12032220D02*
X13057900Y-12062220D01*
X13057900Y-12032220D02*
X13027900Y-12062220D01*
X13027900Y-12286220D02*
X13057900Y-12316220D01*
X13057900Y-12286220D02*
X13027900Y-12316220D01*
X13027900Y-12540220D02*
X13057900Y-12570220D01*
X13057900Y-12540220D02*
X13027900Y-12570220D01*
X13027900Y-12794220D02*
X13057900Y-12824220D01*
X13057900Y-12794220D02*
X13027900Y-12824220D01*
X13145000Y-9625000D02*
X13175000Y-9655000D01*
X13175000Y-9625000D02*
X13145000Y-9655000D01*
X13145000Y-9865000D02*
X13175000Y-9895000D01*
X13175000Y-9865000D02*
X13145000Y-9895000D01*
X13281900Y-12032220D02*
X13311900Y-12062220D01*
X13311900Y-12032220D02*
X13281900Y-12062220D01*
X13281900Y-12286220D02*
X13311900Y-12316220D01*
X13311900Y-12286220D02*
X13281900Y-12316220D01*
X13281900Y-12540220D02*
X13311900Y-12570220D01*
X13311900Y-12540220D02*
X13281900Y-12570220D01*
X13281900Y-12794220D02*
X13311900Y-12824220D01*
X13311900Y-12794220D02*
X13281900Y-12824220D01*
X13305000Y-8785000D02*
X13335000Y-8815000D01*
X13335000Y-8785000D02*
X13305000Y-8815000D01*
X13305000Y-9135000D02*
X13335000Y-9165000D01*
X13335000Y-9135000D02*
X13305000Y-9165000D01*
X13385000Y-7865000D02*
X13415000Y-7895000D01*
X13415000Y-7865000D02*
X13385000Y-7895000D01*
X13425000Y-8625000D02*
X13455000Y-8655000D01*
X13455000Y-8625000D02*
X13425000Y-8655000D01*
X13425000Y-9325000D02*
X13455000Y-9355000D01*
X13455000Y-9325000D02*
X13425000Y-9355000D01*
X13535900Y-12032220D02*
X13565900Y-12062220D01*
X13565900Y-12032220D02*
X13535900Y-12062220D01*
X13535900Y-12286220D02*
X13565900Y-12316220D01*
X13565900Y-12286220D02*
X13535900Y-12316220D01*
X13535900Y-12540220D02*
X13565900Y-12570220D01*
X13565900Y-12540220D02*
X13535900Y-12570220D01*
X13535900Y-12794220D02*
X13565900Y-12824220D01*
X13565900Y-12794220D02*
X13535900Y-12824220D01*
X13655000Y-8835000D02*
X13685000Y-8865000D01*
X13685000Y-8835000D02*
X13655000Y-8865000D01*
X13789900Y-12032220D02*
X13819900Y-12062220D01*
X13819900Y-12032220D02*
X13789900Y-12062220D01*
X13789900Y-12286220D02*
X13819900Y-12316220D01*
X13819900Y-12286220D02*
X13789900Y-12316220D01*
X13789900Y-12540220D02*
X13819900Y-12570220D01*
X13819900Y-12540220D02*
X13789900Y-12570220D01*
X13789900Y-12794220D02*
X13819900Y-12824220D01*
X13819900Y-12794220D02*
X13789900Y-12824220D01*
X13825000Y-10445000D02*
X13855000Y-10475000D01*
X13855000Y-10445000D02*
X13825000Y-10475000D01*
X14024795Y-7935227D02*
X14054795Y-7965227D01*
X14054795Y-7935227D02*
X14024795Y-7965227D01*
X14035000Y-10625000D02*
X14065000Y-10655000D01*
X14065000Y-10625000D02*
X14035000Y-10655000D01*
X14043900Y-12032220D02*
X14073900Y-12062220D01*
X14073900Y-12032220D02*
X14043900Y-12062220D01*
X14043900Y-12286220D02*
X14073900Y-12316220D01*
X14073900Y-12286220D02*
X14043900Y-12316220D01*
X14043900Y-12540220D02*
X14073900Y-12570220D01*
X14073900Y-12540220D02*
X14043900Y-12570220D01*
X14043900Y-12794220D02*
X14073900Y-12824220D01*
X14073900Y-12794220D02*
X14043900Y-12824220D01*
X14142960Y-14092160D02*
X14172960Y-14122160D01*
X14172960Y-14092160D02*
X14142960Y-14122160D01*
X14297900Y-12032220D02*
X14327900Y-12062220D01*
X14327900Y-12032220D02*
X14297900Y-12062220D01*
X14297900Y-12286220D02*
X14327900Y-12316220D01*
X14327900Y-12286220D02*
X14297900Y-12316220D01*
X14297900Y-12540220D02*
X14327900Y-12570220D01*
X14327900Y-12540220D02*
X14297900Y-12570220D01*
X14297900Y-12794220D02*
X14327900Y-12824220D01*
X14327900Y-12794220D02*
X14297900Y-12824220D01*
X14410000Y-8960000D02*
X14440000Y-8990000D01*
X14440000Y-8960000D02*
X14410000Y-8990000D01*
X14505000Y-8025000D02*
X14535000Y-8055000D01*
X14535000Y-8025000D02*
X14505000Y-8055000D01*
X14635000Y-10425000D02*
X14665000Y-10455000D01*
X14665000Y-10425000D02*
X14635000Y-10455000D01*
X14650960Y-10813020D02*
X14680960Y-10843020D01*
X14680960Y-10813020D02*
X14650960Y-10843020D01*
X14685000Y-9855000D02*
X14715000Y-9885000D01*
X14715000Y-9855000D02*
X14685000Y-9885000D01*
X14795000Y-8845000D02*
X14825000Y-8875000D01*
X14825000Y-8845000D02*
X14795000Y-8875000D01*
X14835000Y-9855000D02*
X14865000Y-9885000D01*
X14865000Y-9855000D02*
X14835000Y-9885000D01*
X14840390Y-8949610D02*
X14870390Y-8979610D01*
X14870390Y-8949610D02*
X14840390Y-8979610D01*
X14965000Y-8505000D02*
X14995000Y-8535000D01*
X14995000Y-8505000D02*
X14965000Y-8535000D01*
X14975000Y-8645000D02*
X15005000Y-8675000D01*
X15005000Y-8645000D02*
X14975000Y-8675000D01*
X14996400Y-10818100D02*
X15026400Y-10848100D01*
X15026400Y-10818100D02*
X14996400Y-10848100D01*
X15165000Y-8415000D02*
X15195000Y-8445000D01*
X15195000Y-8415000D02*
X15165000Y-8445000D01*
X15195000Y-8285000D02*
X15225000Y-8315000D01*
X15225000Y-8285000D02*
X15195000Y-8315000D01*
X15329140Y-11917920D02*
X15359140Y-11947920D01*
X15359140Y-11917920D02*
X15329140Y-11947920D01*
X15352000Y-12880580D02*
X15382000Y-12910580D01*
X15382000Y-12880580D02*
X15352000Y-12910580D01*
X15447705Y-13506036D02*
X15477705Y-13536036D01*
X15477705Y-13506036D02*
X15447705Y-13536036D01*
X15655000Y-8075000D02*
X15685000Y-8105000D01*
X15685000Y-8075000D02*
X15655000Y-8105000D01*
X15685000Y-10585000D02*
X15715000Y-10615000D01*
X15715000Y-10585000D02*
X15685000Y-10615000D01*
X15730460Y-14003260D02*
X15760460Y-14033260D01*
X15760460Y-14003260D02*
X15730460Y-14033260D01*
X15855000Y-9855000D02*
X15885000Y-9885000D01*
X15885000Y-9855000D02*
X15855000Y-9885000D01*
X15965000Y-12125000D02*
X15995000Y-12155000D01*
X15995000Y-12125000D02*
X15965000Y-12155000D01*
X15985000Y-9845000D02*
X16015000Y-9875000D01*
X16015000Y-9845000D02*
X15985000Y-9875000D01*
X15985000Y-10615000D02*
X16015000Y-10645000D01*
X16015000Y-10615000D02*
X15985000Y-10645000D01*
X16195000Y-8715000D02*
X16225000Y-8745000D01*
X16225000Y-8715000D02*
X16195000Y-8745000D01*
X16215000Y-9105000D02*
X16245000Y-9135000D01*
X16245000Y-9105000D02*
X16215000Y-9135000D01*
X16245000Y-9305000D02*
X16275000Y-9335000D01*
X16275000Y-9305000D02*
X16245000Y-9335000D01*
X16275000Y-11555000D02*
X16305000Y-11585000D01*
X16305000Y-11555000D02*
X16275000Y-11585000D01*
X16415000Y-12865000D02*
X16445000Y-12895000D01*
X16445000Y-12865000D02*
X16415000Y-12895000D01*
X16515000Y-9115000D02*
X16545000Y-9145000D01*
X16545000Y-9115000D02*
X16515000Y-9145000D01*
X16525000Y-9325000D02*
X16555000Y-9355000D01*
X16555000Y-9325000D02*
X16525000Y-9355000D01*
X16535000Y-9835000D02*
X16565000Y-9865000D01*
X16565000Y-9835000D02*
X16535000Y-9865000D01*
X16675000Y-8765000D02*
X16705000Y-8795000D01*
X16705000Y-8765000D02*
X16675000Y-8795000D01*
X16715000Y-9845000D02*
X16745000Y-9875000D01*
X16745000Y-9845000D02*
X16715000Y-9875000D01*
X16835000Y-10625000D02*
X16865000Y-10655000D01*
X16865000Y-10625000D02*
X16835000Y-10655000D01*
X17035000Y-13305000D02*
X17065000Y-13335000D01*
X17065000Y-13305000D02*
X17035000Y-13335000D01*
X17045000Y-9415000D02*
X17075000Y-9445000D01*
X17075000Y-9415000D02*
X17045000Y-9445000D01*
X17065000Y-12015000D02*
X17095000Y-12045000D01*
X17095000Y-12015000D02*
X17065000Y-12045000D01*
X17115000Y-9175000D02*
X17145000Y-9205000D01*
X17145000Y-9175000D02*
X17115000Y-9205000D01*
X17246569Y-10423484D02*
X17276569Y-10453484D01*
X17276569Y-10423484D02*
X17246569Y-10453484D01*
X17355000Y-9225000D02*
X17385000Y-9255000D01*
X17385000Y-9225000D02*
X17355000Y-9255000D01*
X17375000Y-8145000D02*
X17405000Y-8175000D01*
X17405000Y-8145000D02*
X17375000Y-8175000D01*
X17385000Y-8825000D02*
X17415000Y-8855000D01*
X17415000Y-8825000D02*
X17385000Y-8855000D01*
X17445000Y-8595000D02*
X17475000Y-8625000D01*
X17475000Y-8595000D02*
X17445000Y-8625000D01*
X17445000Y-8949610D02*
X17475000Y-8979610D01*
X17475000Y-8949610D02*
X17445000Y-8979610D01*
X17450040Y-11361660D02*
X17480040Y-11391660D01*
X17480040Y-11361660D02*
X17450040Y-11391660D01*
X17452580Y-11105120D02*
X17482580Y-11135120D01*
X17482580Y-11105120D02*
X17452580Y-11135120D01*
X17525000Y-9885000D02*
X17555000Y-9915000D01*
X17555000Y-9885000D02*
X17525000Y-9915000D01*
X17585000Y-10255000D02*
X17615000Y-10285000D01*
X17615000Y-10255000D02*
X17585000Y-10285000D01*
X17595000Y-8665000D02*
X17625000Y-8695000D01*
X17625000Y-8665000D02*
X17595000Y-8695000D01*
X17605000Y-11395000D02*
X17635000Y-11425000D01*
X17635000Y-11395000D02*
X17605000Y-11425000D01*
X17665000Y-9625000D02*
X17695000Y-9655000D01*
X17695000Y-9625000D02*
X17665000Y-9655000D01*
X17685000Y-8215000D02*
X17715000Y-8245000D01*
X17715000Y-8215000D02*
X17685000Y-8245000D01*
X17725000Y-12675000D02*
X17755000Y-12705000D01*
X17755000Y-12675000D02*
X17725000Y-12705000D01*
X17735000Y-9885000D02*
X17765000Y-9915000D01*
X17765000Y-9885000D02*
X17735000Y-9915000D01*
X17875000Y-8665000D02*
X17905000Y-8695000D01*
X17905000Y-8665000D02*
X17875000Y-8695000D01*
X17875000Y-8815000D02*
X17905000Y-8845000D01*
X17905000Y-8815000D02*
X17875000Y-8845000D01*
X17995000Y-9535000D02*
X18025000Y-9565000D01*
X18025000Y-9535000D02*
X17995000Y-9565000D01*
X17995000Y-9885000D02*
X18025000Y-9915000D01*
X18025000Y-9885000D02*
X17995000Y-9915000D01*
X18015000Y-10395000D02*
X18045000Y-10425000D01*
X18045000Y-10395000D02*
X18015000Y-10425000D01*
X18105000Y-9445000D02*
X18135000Y-9475000D01*
X18135000Y-9445000D02*
X18105000Y-9475000D01*
X18267920Y-12240500D02*
X18297920Y-12270500D01*
X18297920Y-12240500D02*
X18267920Y-12270500D01*
X18495000Y-10675000D02*
X18525000Y-10705000D01*
X18525000Y-10675000D02*
X18495000Y-10705000D01*
X18504140Y-12768820D02*
X18534140Y-12798820D01*
X18534140Y-12768820D02*
X18504140Y-12798820D01*
X18521920Y-13126960D02*
X18551920Y-13156960D01*
X18551920Y-13126960D02*
X18521920Y-13156960D01*
X18525000Y-9115000D02*
X18555000Y-9145000D01*
X18555000Y-9115000D02*
X18525000Y-9145000D01*
X18553500Y-8582857D02*
X18583500Y-8612857D01*
X18583500Y-8582857D02*
X18553500Y-8612857D01*
X18625000Y-10495000D02*
X18655000Y-10525000D01*
X18655000Y-10495000D02*
X18625000Y-10525000D01*
X18645000Y-9315000D02*
X18675000Y-9345000D01*
X18675000Y-9315000D02*
X18645000Y-9345000D01*
X18775000Y-9135000D02*
X18805000Y-9165000D01*
X18805000Y-9135000D02*
X18775000Y-9165000D01*
X18775000Y-9315000D02*
X18805000Y-9345000D01*
X18805000Y-9315000D02*
X18775000Y-9345000D01*
X18791160Y-11582640D02*
X18821160Y-11612640D01*
X18821160Y-11582640D02*
X18791160Y-11612640D01*
X18831800Y-12390360D02*
X18861800Y-12420360D01*
X18861800Y-12390360D02*
X18831800Y-12420360D01*
X18890220Y-13756880D02*
X18920220Y-13786880D01*
X18920220Y-13756880D02*
X18890220Y-13786880D01*
X18905000Y-9325000D02*
X18935000Y-9355000D01*
X18935000Y-9325000D02*
X18905000Y-9355000D01*
X18914273Y-8705363D02*
X18944273Y-8735363D01*
X18944273Y-8705363D02*
X18914273Y-8735363D01*
X18958800Y-12839940D02*
X18988800Y-12869940D01*
X18988800Y-12839940D02*
X18958800Y-12869940D01*
X18971500Y-13020280D02*
X19001500Y-13050280D01*
X19001500Y-13020280D02*
X18971500Y-13050280D01*
X19040080Y-13406360D02*
X19070080Y-13436360D01*
X19070080Y-13406360D02*
X19040080Y-13436360D01*
X19045000Y-9125000D02*
X19075000Y-9155000D01*
X19075000Y-9125000D02*
X19045000Y-9155000D01*
X19062940Y-13134580D02*
X19092940Y-13164580D01*
X19092940Y-13134580D02*
X19062940Y-13164580D01*
X19135000Y-8795000D02*
X19165000Y-8825000D01*
X19165000Y-8795000D02*
X19135000Y-8825000D01*
X19205000Y-10385000D02*
X19235000Y-10415000D01*
X19235000Y-10385000D02*
X19205000Y-10415000D01*
X19233120Y-11564860D02*
X19263120Y-11594860D01*
X19263120Y-11564860D02*
X19233120Y-11594860D01*
X19255000Y-8895000D02*
X19285000Y-8925000D01*
X19285000Y-8895000D02*
X19255000Y-8925000D01*
X19315000Y-10635000D02*
X19345000Y-10665000D01*
X19345000Y-10635000D02*
X19315000Y-10665000D01*
X19365200Y-12390360D02*
X19395200Y-12420360D01*
X19395200Y-12390360D02*
X19365200Y-12420360D01*
X19418540Y-11204180D02*
X19448540Y-11234180D01*
X19448540Y-11204180D02*
X19418540Y-11234180D01*
X19505000Y-10495000D02*
X19535000Y-10525000D01*
X19535000Y-10495000D02*
X19505000Y-10525000D01*
X19545000Y-9115000D02*
X19575000Y-9145000D01*
X19575000Y-9115000D02*
X19545000Y-9145000D01*
X19578560Y-13525740D02*
X19608560Y-13555740D01*
X19608560Y-13525740D02*
X19578560Y-13555740D01*
X19685000Y-8185000D02*
X19715000Y-8215000D01*
X19715000Y-8185000D02*
X19685000Y-8215000D01*
X19687780Y-13401280D02*
X19717780Y-13431280D01*
X19717780Y-13401280D02*
X19687780Y-13431280D01*
X19708100Y-14043900D02*
X19738100Y-14073900D01*
X19738100Y-14043900D02*
X19708100Y-14073900D01*
X19741120Y-11199100D02*
X19771120Y-11229100D01*
X19771120Y-11199100D02*
X19741120Y-11229100D01*
X19775000Y-8955000D02*
X19805000Y-8985000D01*
X19805000Y-8955000D02*
X19775000Y-8985000D01*
X19795000Y-10655000D02*
X19825000Y-10685000D01*
X19825000Y-10655000D02*
X19795000Y-10685000D01*
D10*
X10362800Y-12928600D02*
G75*
G03*
X10362800Y-12928600I-25000J0D01*
G01*
X17284300Y-13538200D02*
G75*
G03*
X17284300Y-13538200I-25000J0D01*
G01*
X17360500Y-13817600D02*
G75*
G03*
X17360500Y-13817600I-25000J0D01*
G01*
D13*
X10308940Y-8922610D02*
X10308940Y-9006610D01*
X10266940Y-8964610D02*
X10350940Y-8964610D01*
X10344650Y-8628500D02*
X10344650Y-8712500D01*
X10302650Y-8670500D02*
X10386650Y-8670500D01*
X10414000Y-9199630D02*
X10414000Y-9283630D01*
X10372000Y-9241630D02*
X10456000Y-9241630D01*
X10512950Y-8384680D02*
X10512950Y-8468680D01*
X10470950Y-8426680D02*
X10554950Y-8426680D01*
X10635760Y-9396090D02*
X10635760Y-9480090D01*
X10593760Y-9438090D02*
X10677760Y-9438090D01*
X10775290Y-8246990D02*
X10775290Y-8330990D01*
X10733290Y-8288990D02*
X10817290Y-8288990D01*
X10923420Y-9466990D02*
X10923420Y-9550990D01*
X10881420Y-9508990D02*
X10965420Y-9508990D01*
X11071550Y-8246990D02*
X11071550Y-8330990D01*
X11029550Y-8288990D02*
X11113550Y-8288990D01*
X11211080Y-9396090D02*
X11211080Y-9480090D01*
X11169080Y-9438090D02*
X11253080Y-9438090D01*
X11333890Y-8384680D02*
X11333890Y-8468680D01*
X11291890Y-8426680D02*
X11375890Y-8426680D01*
X11432840Y-9199630D02*
X11432840Y-9283630D01*
X11390840Y-9241630D02*
X11474840Y-9241630D01*
X11502190Y-8628500D02*
X11502190Y-8712500D01*
X11460190Y-8670500D02*
X11544190Y-8670500D01*
X11537900Y-8922610D02*
X11537900Y-9006610D01*
X11495900Y-8964610D02*
X11579900Y-8964610D01*
X12695120Y-8922610D02*
X12695120Y-9006610D01*
X12653120Y-8964610D02*
X12737120Y-8964610D01*
X12730830Y-8628500D02*
X12730830Y-8712500D01*
X12688830Y-8670500D02*
X12772830Y-8670500D01*
X12800180Y-9199630D02*
X12800180Y-9283630D01*
X12758180Y-9241630D02*
X12842180Y-9241630D01*
X12899130Y-8384680D02*
X12899130Y-8468680D01*
X12857130Y-8426680D02*
X12941130Y-8426680D01*
X13021940Y-9396090D02*
X13021940Y-9480090D01*
X12979940Y-9438090D02*
X13063940Y-9438090D01*
X13161470Y-8246990D02*
X13161470Y-8330990D01*
X13119470Y-8288990D02*
X13203470Y-8288990D01*
X13309600Y-9466990D02*
X13309600Y-9550990D01*
X13267600Y-9508990D02*
X13351600Y-9508990D01*
X13457730Y-8246990D02*
X13457730Y-8330990D01*
X13415730Y-8288990D02*
X13499730Y-8288990D01*
X13597260Y-9396090D02*
X13597260Y-9480090D01*
X13555260Y-9438090D02*
X13639260Y-9438090D01*
X13720070Y-8384680D02*
X13720070Y-8468680D01*
X13678070Y-8426680D02*
X13762070Y-8426680D01*
X13819020Y-9199630D02*
X13819020Y-9283630D01*
X13777020Y-9241630D02*
X13861020Y-9241630D01*
X13888370Y-8628500D02*
X13888370Y-8712500D01*
X13846370Y-8670500D02*
X13930370Y-8670500D01*
X13924080Y-8922610D02*
X13924080Y-9006610D01*
X13882080Y-8964610D02*
X13966080Y-8964610D01*
X15789650Y-8922610D02*
X15789650Y-9006610D01*
X15747650Y-8964610D02*
X15831650Y-8964610D01*
X15825360Y-8628500D02*
X15825360Y-8712500D01*
X15783360Y-8670500D02*
X15867360Y-8670500D01*
X15894710Y-9199630D02*
X15894710Y-9283630D01*
X15852710Y-9241630D02*
X15936710Y-9241630D01*
X15993660Y-8384680D02*
X15993660Y-8468680D01*
X15951660Y-8426680D02*
X16035660Y-8426680D01*
X16116470Y-9396090D02*
X16116470Y-9480090D01*
X16074470Y-9438090D02*
X16158470Y-9438090D01*
X16256000Y-8246990D02*
X16256000Y-8330990D01*
X16214000Y-8288990D02*
X16298000Y-8288990D01*
X16404130Y-9466990D02*
X16404130Y-9550990D01*
X16362130Y-9508990D02*
X16446130Y-9508990D01*
X16552260Y-8246990D02*
X16552260Y-8330990D01*
X16510260Y-8288990D02*
X16594260Y-8288990D01*
X16691790Y-9396090D02*
X16691790Y-9480090D01*
X16649790Y-9438090D02*
X16733790Y-9438090D01*
X16814600Y-8384680D02*
X16814600Y-8468680D01*
X16772600Y-8426680D02*
X16856600Y-8426680D01*
X16913550Y-9199630D02*
X16913550Y-9283630D01*
X16871550Y-9241630D02*
X16955550Y-9241630D01*
X16982900Y-8628500D02*
X16982900Y-8712500D01*
X16940900Y-8670500D02*
X17024900Y-8670500D01*
X17018610Y-8922610D02*
X17018610Y-9006610D01*
X16976610Y-8964610D02*
X17060610Y-8964610D01*
X18181520Y-8922610D02*
X18181520Y-9006610D01*
X18139520Y-8964610D02*
X18223520Y-8964610D01*
X18217230Y-8628500D02*
X18217230Y-8712500D01*
X18175230Y-8670500D02*
X18259230Y-8670500D01*
X18286580Y-9199630D02*
X18286580Y-9283630D01*
X18244580Y-9241630D02*
X18328580Y-9241630D01*
X18385530Y-8384680D02*
X18385530Y-8468680D01*
X18343530Y-8426680D02*
X18427530Y-8426680D01*
X18508340Y-9396090D02*
X18508340Y-9480090D01*
X18466340Y-9438090D02*
X18550340Y-9438090D01*
X18647870Y-8246990D02*
X18647870Y-8330990D01*
X18605870Y-8288990D02*
X18689870Y-8288990D01*
X18796000Y-9466990D02*
X18796000Y-9550990D01*
X18754000Y-9508990D02*
X18838000Y-9508990D01*
X18944130Y-8246990D02*
X18944130Y-8330990D01*
X18902130Y-8288990D02*
X18986130Y-8288990D01*
X19083660Y-9396090D02*
X19083660Y-9480090D01*
X19041660Y-9438090D02*
X19125660Y-9438090D01*
X19206470Y-8384680D02*
X19206470Y-8468680D01*
X19164470Y-8426680D02*
X19248470Y-8426680D01*
X19305420Y-9199630D02*
X19305420Y-9283630D01*
X19263420Y-9241630D02*
X19347420Y-9241630D01*
X19374770Y-8628500D02*
X19374770Y-8712500D01*
X19332770Y-8670500D02*
X19416770Y-8670500D01*
X19410480Y-8922610D02*
X19410480Y-9006610D01*
X19368480Y-8964610D02*
X19452480Y-8964610D01*
D14*
X10115620Y-10191820D02*
X10115620Y-10128180D01*
X10051980Y-10128180D01*
X10051980Y-10191820D01*
X10115620Y-10191820D01*
X10115620Y-10953820D02*
X10115620Y-10890180D01*
X10051980Y-10890180D01*
X10051980Y-10953820D01*
X10115620Y-10953820D01*
X10369620Y-10191820D02*
X10369620Y-10128180D01*
X10305980Y-10128180D01*
X10305980Y-10191820D01*
X10369620Y-10191820D01*
X10369620Y-10953820D02*
X10369620Y-10890180D01*
X10305980Y-10890180D01*
X10305980Y-10953820D01*
X10369620Y-10953820D01*
X10623620Y-10191820D02*
X10623620Y-10128180D01*
X10559980Y-10128180D01*
X10559980Y-10191820D01*
X10623620Y-10191820D01*
X10623620Y-10953820D02*
X10623620Y-10890180D01*
X10559980Y-10890180D01*
X10559980Y-10953820D01*
X10623620Y-10953820D01*
X10877620Y-10191820D02*
X10877620Y-10128180D01*
X10813980Y-10128180D01*
X10813980Y-10191820D01*
X10877620Y-10191820D01*
X10877620Y-10953820D02*
X10877620Y-10890180D01*
X10813980Y-10890180D01*
X10813980Y-10953820D01*
X10877620Y-10953820D01*
X11131620Y-10191820D02*
X11131620Y-10128180D01*
X11067980Y-10128180D01*
X11067980Y-10191820D01*
X11131620Y-10191820D01*
X11131620Y-10953820D02*
X11131620Y-10890180D01*
X11067980Y-10890180D01*
X11067980Y-10953820D01*
X11131620Y-10953820D01*
X11385620Y-10191820D02*
X11385620Y-10128180D01*
X11321980Y-10128180D01*
X11321980Y-10191820D01*
X11385620Y-10191820D01*
X11385620Y-10953820D02*
X11385620Y-10890180D01*
X11321980Y-10890180D01*
X11321980Y-10953820D01*
X11385620Y-10953820D01*
X11639620Y-10191820D02*
X11639620Y-10128180D01*
X11575980Y-10128180D01*
X11575980Y-10191820D01*
X11639620Y-10191820D01*
X11639620Y-10953820D02*
X11639620Y-10890180D01*
X11575980Y-10890180D01*
X11575980Y-10953820D01*
X11639620Y-10953820D01*
X11893620Y-10191820D02*
X11893620Y-10128180D01*
X11829980Y-10128180D01*
X11829980Y-10191820D01*
X11893620Y-10191820D01*
X11893620Y-10953820D02*
X11893620Y-10890180D01*
X11829980Y-10890180D01*
X11829980Y-10953820D01*
X11893620Y-10953820D01*
X12477820Y-10191820D02*
X12477820Y-10128180D01*
X12414180Y-10128180D01*
X12414180Y-10191820D01*
X12477820Y-10191820D01*
X12477820Y-10953820D02*
X12477820Y-10890180D01*
X12414180Y-10890180D01*
X12414180Y-10953820D01*
X12477820Y-10953820D01*
X12731820Y-10191820D02*
X12731820Y-10128180D01*
X12668180Y-10128180D01*
X12668180Y-10191820D01*
X12731820Y-10191820D01*
X12731820Y-10953820D02*
X12731820Y-10890180D01*
X12668180Y-10890180D01*
X12668180Y-10953820D01*
X12731820Y-10953820D01*
X12985820Y-10191820D02*
X12985820Y-10128180D01*
X12922180Y-10128180D01*
X12922180Y-10191820D01*
X12985820Y-10191820D01*
X12985820Y-10953820D02*
X12985820Y-10890180D01*
X12922180Y-10890180D01*
X12922180Y-10953820D01*
X12985820Y-10953820D01*
X13239820Y-10191820D02*
X13239820Y-10128180D01*
X13176180Y-10128180D01*
X13176180Y-10191820D01*
X13239820Y-10191820D01*
X13239820Y-10953820D02*
X13239820Y-10890180D01*
X13176180Y-10890180D01*
X13176180Y-10953820D01*
X13239820Y-10953820D01*
X13493820Y-10191820D02*
X13493820Y-10128180D01*
X13430180Y-10128180D01*
X13430180Y-10191820D01*
X13493820Y-10191820D01*
X13493820Y-10953820D02*
X13493820Y-10890180D01*
X13430180Y-10890180D01*
X13430180Y-10953820D01*
X13493820Y-10953820D01*
X13747820Y-10191820D02*
X13747820Y-10128180D01*
X13684180Y-10128180D01*
X13684180Y-10191820D01*
X13747820Y-10191820D01*
X13747820Y-10953820D02*
X13747820Y-10890180D01*
X13684180Y-10890180D01*
X13684180Y-10953820D01*
X13747820Y-10953820D01*
X14001820Y-10191820D02*
X14001820Y-10128180D01*
X13938180Y-10128180D01*
X13938180Y-10191820D01*
X14001820Y-10191820D01*
X14001820Y-10953820D02*
X14001820Y-10890180D01*
X13938180Y-10890180D01*
X13938180Y-10953820D01*
X14001820Y-10953820D01*
X14255820Y-10191820D02*
X14255820Y-10128180D01*
X14192180Y-10128180D01*
X14192180Y-10191820D01*
X14255820Y-10191820D01*
X14255820Y-10953820D02*
X14255820Y-10890180D01*
X14192180Y-10890180D01*
X14192180Y-10953820D01*
X14255820Y-10953820D01*
X15525820Y-10191820D02*
X15525820Y-10128180D01*
X15462180Y-10128180D01*
X15462180Y-10191820D01*
X15525820Y-10191820D01*
X15525820Y-10953820D02*
X15525820Y-10890180D01*
X15462180Y-10890180D01*
X15462180Y-10953820D01*
X15525820Y-10953820D01*
X15779820Y-10191820D02*
X15779820Y-10128180D01*
X15716180Y-10128180D01*
X15716180Y-10191820D01*
X15779820Y-10191820D01*
X15779820Y-10953820D02*
X15779820Y-10890180D01*
X15716180Y-10890180D01*
X15716180Y-10953820D01*
X15779820Y-10953820D01*
X16033820Y-10191820D02*
X16033820Y-10128180D01*
X15970180Y-10128180D01*
X15970180Y-10191820D01*
X16033820Y-10191820D01*
X16033820Y-10953820D02*
X16033820Y-10890180D01*
X15970180Y-10890180D01*
X15970180Y-10953820D01*
X16033820Y-10953820D01*
X16287820Y-10191820D02*
X16287820Y-10128180D01*
X16224180Y-10128180D01*
X16224180Y-10191820D01*
X16287820Y-10191820D01*
X16287820Y-10953820D02*
X16287820Y-10890180D01*
X16224180Y-10890180D01*
X16224180Y-10953820D01*
X16287820Y-10953820D01*
X16541820Y-10191820D02*
X16541820Y-10128180D01*
X16478180Y-10128180D01*
X16478180Y-10191820D01*
X16541820Y-10191820D01*
X16541820Y-10953820D02*
X16541820Y-10890180D01*
X16478180Y-10890180D01*
X16478180Y-10953820D01*
X16541820Y-10953820D01*
X16795820Y-10191820D02*
X16795820Y-10128180D01*
X16732180Y-10128180D01*
X16732180Y-10191820D01*
X16795820Y-10191820D01*
X16795820Y-10953820D02*
X16795820Y-10890180D01*
X16732180Y-10890180D01*
X16732180Y-10953820D01*
X16795820Y-10953820D01*
X17049820Y-10191820D02*
X17049820Y-10128180D01*
X16986180Y-10128180D01*
X16986180Y-10191820D01*
X17049820Y-10191820D01*
X17049820Y-10953820D02*
X17049820Y-10890180D01*
X16986180Y-10890180D01*
X16986180Y-10953820D01*
X17049820Y-10953820D01*
X17303820Y-10191820D02*
X17303820Y-10128180D01*
X17240180Y-10128180D01*
X17240180Y-10191820D01*
X17303820Y-10191820D01*
X17303820Y-10953820D02*
X17303820Y-10890180D01*
X17240180Y-10890180D01*
X17240180Y-10953820D01*
X17303820Y-10953820D01*
X17913420Y-10191820D02*
X17913420Y-10128180D01*
X17849780Y-10128180D01*
X17849780Y-10191820D01*
X17913420Y-10191820D01*
X17913420Y-10953820D02*
X17913420Y-10890180D01*
X17849780Y-10890180D01*
X17849780Y-10953820D01*
X17913420Y-10953820D01*
X18167420Y-10191820D02*
X18167420Y-10128180D01*
X18103780Y-10128180D01*
X18103780Y-10191820D01*
X18167420Y-10191820D01*
X18167420Y-10953820D02*
X18167420Y-10890180D01*
X18103780Y-10890180D01*
X18103780Y-10953820D01*
X18167420Y-10953820D01*
X18421420Y-10191820D02*
X18421420Y-10128180D01*
X18357780Y-10128180D01*
X18357780Y-10191820D01*
X18421420Y-10191820D01*
X18421420Y-10953820D02*
X18421420Y-10890180D01*
X18357780Y-10890180D01*
X18357780Y-10953820D01*
X18421420Y-10953820D01*
X18675420Y-10191820D02*
X18675420Y-10128180D01*
X18611780Y-10128180D01*
X18611780Y-10191820D01*
X18675420Y-10191820D01*
X18675420Y-10953820D02*
X18675420Y-10890180D01*
X18611780Y-10890180D01*
X18611780Y-10953820D01*
X18675420Y-10953820D01*
X18929420Y-10191820D02*
X18929420Y-10128180D01*
X18865780Y-10128180D01*
X18865780Y-10191820D01*
X18929420Y-10191820D01*
X18929420Y-10953820D02*
X18929420Y-10890180D01*
X18865780Y-10890180D01*
X18865780Y-10953820D01*
X18929420Y-10953820D01*
X19183420Y-10191820D02*
X19183420Y-10128180D01*
X19119780Y-10128180D01*
X19119780Y-10191820D01*
X19183420Y-10191820D01*
X19183420Y-10953820D02*
X19183420Y-10890180D01*
X19119780Y-10890180D01*
X19119780Y-10953820D01*
X19183420Y-10953820D01*
X19437420Y-10191820D02*
X19437420Y-10128180D01*
X19373780Y-10128180D01*
X19373780Y-10191820D01*
X19437420Y-10191820D01*
X19437420Y-10953820D02*
X19437420Y-10890180D01*
X19373780Y-10890180D01*
X19373780Y-10953820D01*
X19437420Y-10953820D01*
X19691420Y-10191820D02*
X19691420Y-10128180D01*
X19627780Y-10128180D01*
X19627780Y-10191820D01*
X19691420Y-10191820D01*
X19691420Y-10953820D02*
X19691420Y-10890180D01*
X19627780Y-10890180D01*
X19627780Y-10953820D01*
X19691420Y-10953820D01*
D15*
X18426200Y-11937200D02*
X18476200Y-11887200D01*
X18426200Y-11837200D01*
X18376200Y-11887200D01*
X18426200Y-11937200D01*
X18776200Y-11937200D02*
X18826200Y-11887200D01*
X18776200Y-11837200D01*
X18726200Y-11887200D01*
X18776200Y-11937200D01*
X19126200Y-11937200D02*
X19176200Y-11887200D01*
X19126200Y-11837200D01*
X19076200Y-11887200D01*
X19126200Y-11937200D01*
X19476200Y-11937200D02*
X19526200Y-11887200D01*
X19476200Y-11837200D01*
X19426200Y-11887200D01*
X19476200Y-11937200D01*
D16*
X10105000Y-11629000D02*
X10215000Y-11739000D01*
X10215000Y-11629000D02*
X10105000Y-11739000D01*
X10215000Y-11684000D02*
G75*
G03*
X10215000Y-11684000I-55000J0D01*
G01*
X10105000Y-13407000D02*
X10215000Y-13517000D01*
X10215000Y-13407000D02*
X10105000Y-13517000D01*
X10215000Y-13462000D02*
G75*
G03*
X10215000Y-13462000I-55000J0D01*
G01*
X10359000Y-11629000D02*
X10469000Y-11739000D01*
X10469000Y-11629000D02*
X10359000Y-11739000D01*
X10469000Y-11684000D02*
G75*
G03*
X10469000Y-11684000I-55000J0D01*
G01*
X10359000Y-13407000D02*
X10469000Y-13517000D01*
X10469000Y-13407000D02*
X10359000Y-13517000D01*
X10469000Y-13462000D02*
G75*
G03*
X10469000Y-13462000I-55000J0D01*
G01*
X10613000Y-11629000D02*
X10723000Y-11739000D01*
X10723000Y-11629000D02*
X10613000Y-11739000D01*
X10723000Y-11684000D02*
G75*
G03*
X10723000Y-11684000I-55000J0D01*
G01*
X10613000Y-13407000D02*
X10723000Y-13517000D01*
X10723000Y-13407000D02*
X10613000Y-13517000D01*
X10723000Y-13462000D02*
G75*
G03*
X10723000Y-13462000I-55000J0D01*
G01*
X10867000Y-11629000D02*
X10977000Y-11739000D01*
X10977000Y-11629000D02*
X10867000Y-11739000D01*
X10977000Y-11684000D02*
G75*
G03*
X10977000Y-11684000I-55000J0D01*
G01*
X10867000Y-13407000D02*
X10977000Y-13517000D01*
X10977000Y-13407000D02*
X10867000Y-13517000D01*
X10977000Y-13462000D02*
G75*
G03*
X10977000Y-13462000I-55000J0D01*
G01*
X11121000Y-11629000D02*
X11231000Y-11739000D01*
X11231000Y-11629000D02*
X11121000Y-11739000D01*
X11231000Y-11684000D02*
G75*
G03*
X11231000Y-11684000I-55000J0D01*
G01*
X11121000Y-13407000D02*
X11231000Y-13517000D01*
X11231000Y-13407000D02*
X11121000Y-13517000D01*
X11231000Y-13462000D02*
G75*
G03*
X11231000Y-13462000I-55000J0D01*
G01*
X11375000Y-11629000D02*
X11485000Y-11739000D01*
X11485000Y-11629000D02*
X11375000Y-11739000D01*
X11485000Y-11684000D02*
G75*
G03*
X11485000Y-11684000I-55000J0D01*
G01*
X11375000Y-13407000D02*
X11485000Y-13517000D01*
X11485000Y-13407000D02*
X11375000Y-13517000D01*
X11485000Y-13462000D02*
G75*
G03*
X11485000Y-13462000I-55000J0D01*
G01*
X11629000Y-11629000D02*
X11739000Y-11739000D01*
X11739000Y-11629000D02*
X11629000Y-11739000D01*
X11739000Y-11684000D02*
G75*
G03*
X11739000Y-11684000I-55000J0D01*
G01*
X11629000Y-13407000D02*
X11739000Y-13517000D01*
X11739000Y-13407000D02*
X11629000Y-13517000D01*
X11739000Y-13462000D02*
G75*
G03*
X11739000Y-13462000I-55000J0D01*
G01*
X11883000Y-11629000D02*
X11993000Y-11739000D01*
X11993000Y-11629000D02*
X11883000Y-11739000D01*
X11993000Y-11684000D02*
G75*
G03*
X11993000Y-11684000I-55000J0D01*
G01*
X11883000Y-13407000D02*
X11993000Y-13517000D01*
X11993000Y-13407000D02*
X11883000Y-13517000D01*
X11993000Y-13462000D02*
G75*
G03*
X11993000Y-13462000I-55000J0D01*
G01*
X12137000Y-11629000D02*
X12247000Y-11739000D01*
X12247000Y-11629000D02*
X12137000Y-11739000D01*
X12247000Y-11684000D02*
G75*
G03*
X12247000Y-11684000I-55000J0D01*
G01*
X12137000Y-13407000D02*
X12247000Y-13517000D01*
X12247000Y-13407000D02*
X12137000Y-13517000D01*
X12247000Y-13462000D02*
G75*
G03*
X12247000Y-13462000I-55000J0D01*
G01*
X12391000Y-11629000D02*
X12501000Y-11739000D01*
X12501000Y-11629000D02*
X12391000Y-11739000D01*
X12501000Y-11684000D02*
G75*
G03*
X12501000Y-11684000I-55000J0D01*
G01*
X12391000Y-13407000D02*
X12501000Y-13517000D01*
X12501000Y-13407000D02*
X12391000Y-13517000D01*
X12501000Y-13462000D02*
G75*
G03*
X12501000Y-13462000I-55000J0D01*
G01*
X12645000Y-11629000D02*
X12755000Y-11739000D01*
X12755000Y-11629000D02*
X12645000Y-11739000D01*
X12755000Y-11684000D02*
G75*
G03*
X12755000Y-11684000I-55000J0D01*
G01*
X12645000Y-13407000D02*
X12755000Y-13517000D01*
X12755000Y-13407000D02*
X12645000Y-13517000D01*
X12755000Y-13462000D02*
G75*
G03*
X12755000Y-13462000I-55000J0D01*
G01*
X12899000Y-11629000D02*
X13009000Y-11739000D01*
X13009000Y-11629000D02*
X12899000Y-11739000D01*
X13009000Y-11684000D02*
G75*
G03*
X13009000Y-11684000I-55000J0D01*
G01*
X12899000Y-13407000D02*
X13009000Y-13517000D01*
X13009000Y-13407000D02*
X12899000Y-13517000D01*
X13009000Y-13462000D02*
G75*
G03*
X13009000Y-13462000I-55000J0D01*
G01*
X13153000Y-11629000D02*
X13263000Y-11739000D01*
X13263000Y-11629000D02*
X13153000Y-11739000D01*
X13263000Y-11684000D02*
G75*
G03*
X13263000Y-11684000I-55000J0D01*
G01*
X13153000Y-13407000D02*
X13263000Y-13517000D01*
X13263000Y-13407000D02*
X13153000Y-13517000D01*
X13263000Y-13462000D02*
G75*
G03*
X13263000Y-13462000I-55000J0D01*
G01*
X13407000Y-11629000D02*
X13517000Y-11739000D01*
X13517000Y-11629000D02*
X13407000Y-11739000D01*
X13517000Y-11684000D02*
G75*
G03*
X13517000Y-11684000I-55000J0D01*
G01*
X13407000Y-13407000D02*
X13517000Y-13517000D01*
X13517000Y-13407000D02*
X13407000Y-13517000D01*
X13517000Y-13462000D02*
G75*
G03*
X13517000Y-13462000I-55000J0D01*
G01*
X13661000Y-11629000D02*
X13771000Y-11739000D01*
X13771000Y-11629000D02*
X13661000Y-11739000D01*
X13771000Y-11684000D02*
G75*
G03*
X13771000Y-11684000I-55000J0D01*
G01*
X13661000Y-13407000D02*
X13771000Y-13517000D01*
X13771000Y-13407000D02*
X13661000Y-13517000D01*
X13771000Y-13462000D02*
G75*
G03*
X13771000Y-13462000I-55000J0D01*
G01*
X13915000Y-11629000D02*
X14025000Y-11739000D01*
X14025000Y-11629000D02*
X13915000Y-11739000D01*
X14025000Y-11684000D02*
G75*
G03*
X14025000Y-11684000I-55000J0D01*
G01*
X13915000Y-13407000D02*
X14025000Y-13517000D01*
X14025000Y-13407000D02*
X13915000Y-13517000D01*
X14025000Y-13462000D02*
G75*
G03*
X14025000Y-13462000I-55000J0D01*
G01*
X14169000Y-11629000D02*
X14279000Y-11739000D01*
X14279000Y-11629000D02*
X14169000Y-11739000D01*
X14279000Y-11684000D02*
G75*
G03*
X14279000Y-11684000I-55000J0D01*
G01*
X14169000Y-13407000D02*
X14279000Y-13517000D01*
X14279000Y-13407000D02*
X14169000Y-13517000D01*
X14279000Y-13462000D02*
G75*
G03*
X14279000Y-13462000I-55000J0D01*
G01*
X14423000Y-11629000D02*
X14533000Y-11739000D01*
X14533000Y-11629000D02*
X14423000Y-11739000D01*
X14533000Y-11684000D02*
G75*
G03*
X14533000Y-11684000I-55000J0D01*
G01*
X14423000Y-13407000D02*
X14533000Y-13517000D01*
X14533000Y-13407000D02*
X14423000Y-13517000D01*
X14533000Y-13462000D02*
G75*
G03*
X14533000Y-13462000I-55000J0D01*
G01*
X14677000Y-11629000D02*
X14787000Y-11739000D01*
X14787000Y-11629000D02*
X14677000Y-11739000D01*
X14787000Y-11684000D02*
G75*
G03*
X14787000Y-11684000I-55000J0D01*
G01*
X14677000Y-13407000D02*
X14787000Y-13517000D01*
X14787000Y-13407000D02*
X14677000Y-13517000D01*
X14787000Y-13462000D02*
G75*
G03*
X14787000Y-13462000I-55000J0D01*
G01*
X14908000Y-12264000D02*
X15018000Y-12374000D01*
X15018000Y-12264000D02*
X14908000Y-12374000D01*
X15018000Y-12319000D02*
G75*
G03*
X15018000Y-12319000I-55000J0D01*
G01*
X14908000Y-12518000D02*
X15018000Y-12628000D01*
X15018000Y-12518000D02*
X14908000Y-12628000D01*
X15018000Y-12573000D02*
G75*
G03*
X15018000Y-12573000I-55000J0D01*
G01*
X14908000Y-12772000D02*
X15018000Y-12882000D01*
X15018000Y-12772000D02*
X14908000Y-12882000D01*
X15018000Y-12827000D02*
G75*
G03*
X15018000Y-12827000I-55000J0D01*
G01*
X14931000Y-11629000D02*
X15041000Y-11739000D01*
X15041000Y-11629000D02*
X14931000Y-11739000D01*
X15041000Y-11684000D02*
G75*
G03*
X15041000Y-11684000I-55000J0D01*
G01*
X14931000Y-13407000D02*
X15041000Y-13517000D01*
X15041000Y-13407000D02*
X14931000Y-13517000D01*
X15041000Y-13462000D02*
G75*
G03*
X15041000Y-13462000I-55000J0D01*
G01*
D17*
X16446500Y-11856500D02*
X16573500Y-11983500D01*
X16573500Y-11856500D02*
X16446500Y-11983500D01*
X16510000Y-11856500D02*
X16510000Y-11983500D01*
X16446500Y-11920000D02*
X16573500Y-11920000D01*
X16446500Y-13906500D02*
X16573500Y-14033500D01*
X16573500Y-13906500D02*
X16446500Y-14033500D01*
X16510000Y-13906500D02*
X16510000Y-14033500D01*
X16446500Y-13970000D02*
X16573500Y-13970000D01*
D11*
X9897119Y-14539024D02*
X9897119Y-14339024D01*
X9897119Y-14339024D02*
X9944738Y-14339024D01*
X9944738Y-14339024D02*
X9973310Y-14348548D01*
X9973310Y-14348548D02*
X9992357Y-14367595D01*
X9992357Y-14367595D02*
X10001881Y-14386643D01*
X10001881Y-14386643D02*
X10011405Y-14424738D01*
X10011405Y-14424738D02*
X10011405Y-14453309D01*
X10011405Y-14453309D02*
X10001881Y-14491405D01*
X10001881Y-14491405D02*
X9992357Y-14510452D01*
X9992357Y-14510452D02*
X9973310Y-14529500D01*
X9973310Y-14529500D02*
X9944738Y-14539024D01*
X9944738Y-14539024D02*
X9897119Y-14539024D01*
X10097119Y-14539024D02*
X10097119Y-14405690D01*
X10097119Y-14443786D02*
X10106643Y-14424738D01*
X10106643Y-14424738D02*
X10116167Y-14415214D01*
X10116167Y-14415214D02*
X10135214Y-14405690D01*
X10135214Y-14405690D02*
X10154262Y-14405690D01*
X10220929Y-14539024D02*
X10220929Y-14405690D01*
X10220929Y-14339024D02*
X10211405Y-14348548D01*
X10211405Y-14348548D02*
X10220929Y-14358071D01*
X10220929Y-14358071D02*
X10230452Y-14348548D01*
X10230452Y-14348548D02*
X10220929Y-14339024D01*
X10220929Y-14339024D02*
X10220929Y-14358071D01*
X10344738Y-14539024D02*
X10325690Y-14529500D01*
X10325690Y-14529500D02*
X10316167Y-14510452D01*
X10316167Y-14510452D02*
X10316167Y-14339024D01*
X10449500Y-14539024D02*
X10430452Y-14529500D01*
X10430452Y-14529500D02*
X10420929Y-14510452D01*
X10420929Y-14510452D02*
X10420929Y-14339024D01*
X10678071Y-14539024D02*
X10678071Y-14339024D01*
X10678071Y-14339024D02*
X10744738Y-14481881D01*
X10744738Y-14481881D02*
X10811405Y-14339024D01*
X10811405Y-14339024D02*
X10811405Y-14539024D01*
X10992357Y-14539024D02*
X10992357Y-14434262D01*
X10992357Y-14434262D02*
X10982833Y-14415214D01*
X10982833Y-14415214D02*
X10963786Y-14405690D01*
X10963786Y-14405690D02*
X10925690Y-14405690D01*
X10925690Y-14405690D02*
X10906643Y-14415214D01*
X10992357Y-14529500D02*
X10973310Y-14539024D01*
X10973310Y-14539024D02*
X10925690Y-14539024D01*
X10925690Y-14539024D02*
X10906643Y-14529500D01*
X10906643Y-14529500D02*
X10897119Y-14510452D01*
X10897119Y-14510452D02*
X10897119Y-14491405D01*
X10897119Y-14491405D02*
X10906643Y-14472357D01*
X10906643Y-14472357D02*
X10925690Y-14462833D01*
X10925690Y-14462833D02*
X10973310Y-14462833D01*
X10973310Y-14462833D02*
X10992357Y-14453309D01*
X11087595Y-14405690D02*
X11087595Y-14605690D01*
X11087595Y-14415214D02*
X11106643Y-14405690D01*
X11106643Y-14405690D02*
X11144738Y-14405690D01*
X11144738Y-14405690D02*
X11163786Y-14415214D01*
X11163786Y-14415214D02*
X11173310Y-14424738D01*
X11173310Y-14424738D02*
X11182833Y-14443786D01*
X11182833Y-14443786D02*
X11182833Y-14500928D01*
X11182833Y-14500928D02*
X11173310Y-14519976D01*
X11173310Y-14519976D02*
X11163786Y-14529500D01*
X11163786Y-14529500D02*
X11144738Y-14539024D01*
X11144738Y-14539024D02*
X11106643Y-14539024D01*
X11106643Y-14539024D02*
X11087595Y-14529500D01*
X11268548Y-14519976D02*
X11278071Y-14529500D01*
X11278071Y-14529500D02*
X11268548Y-14539024D01*
X11268548Y-14539024D02*
X11259024Y-14529500D01*
X11259024Y-14529500D02*
X11268548Y-14519976D01*
X11268548Y-14519976D02*
X11268548Y-14539024D01*
X11268548Y-14415214D02*
X11278071Y-14424738D01*
X11278071Y-14424738D02*
X11268548Y-14434262D01*
X11268548Y-14434262D02*
X11259024Y-14424738D01*
X11259024Y-14424738D02*
X11268548Y-14415214D01*
X11268548Y-14415214D02*
X11268548Y-14434262D01*
D12*
X9619500Y-14851500D02*
X9649500Y-14881500D01*
X9649500Y-14851500D02*
X9619500Y-14881500D01*
D11*
X9935214Y-14759024D02*
X9954262Y-14759024D01*
X9954262Y-14759024D02*
X9973310Y-14768548D01*
X9973310Y-14768548D02*
X9982833Y-14778071D01*
X9982833Y-14778071D02*
X9992357Y-14797119D01*
X9992357Y-14797119D02*
X10001881Y-14835214D01*
X10001881Y-14835214D02*
X10001881Y-14882833D01*
X10001881Y-14882833D02*
X9992357Y-14920928D01*
X9992357Y-14920928D02*
X9982833Y-14939976D01*
X9982833Y-14939976D02*
X9973310Y-14949500D01*
X9973310Y-14949500D02*
X9954262Y-14959024D01*
X9954262Y-14959024D02*
X9935214Y-14959024D01*
X9935214Y-14959024D02*
X9916167Y-14949500D01*
X9916167Y-14949500D02*
X9906643Y-14939976D01*
X9906643Y-14939976D02*
X9897119Y-14920928D01*
X9897119Y-14920928D02*
X9887595Y-14882833D01*
X9887595Y-14882833D02*
X9887595Y-14835214D01*
X9887595Y-14835214D02*
X9897119Y-14797119D01*
X9897119Y-14797119D02*
X9906643Y-14778071D01*
X9906643Y-14778071D02*
X9916167Y-14768548D01*
X9916167Y-14768548D02*
X9935214Y-14759024D01*
X10087595Y-14939976D02*
X10097119Y-14949500D01*
X10097119Y-14949500D02*
X10087595Y-14959024D01*
X10087595Y-14959024D02*
X10078071Y-14949500D01*
X10078071Y-14949500D02*
X10087595Y-14939976D01*
X10087595Y-14939976D02*
X10087595Y-14959024D01*
X10163786Y-14759024D02*
X10287595Y-14759024D01*
X10287595Y-14759024D02*
X10220929Y-14835214D01*
X10220929Y-14835214D02*
X10249500Y-14835214D01*
X10249500Y-14835214D02*
X10268548Y-14844738D01*
X10268548Y-14844738D02*
X10278071Y-14854262D01*
X10278071Y-14854262D02*
X10287595Y-14873309D01*
X10287595Y-14873309D02*
X10287595Y-14920928D01*
X10287595Y-14920928D02*
X10278071Y-14939976D01*
X10278071Y-14939976D02*
X10268548Y-14949500D01*
X10268548Y-14949500D02*
X10249500Y-14959024D01*
X10249500Y-14959024D02*
X10192357Y-14959024D01*
X10192357Y-14959024D02*
X10173310Y-14949500D01*
X10173310Y-14949500D02*
X10163786Y-14939976D01*
X10411405Y-14759024D02*
X10430452Y-14759024D01*
X10430452Y-14759024D02*
X10449500Y-14768548D01*
X10449500Y-14768548D02*
X10459024Y-14778071D01*
X10459024Y-14778071D02*
X10468548Y-14797119D01*
X10468548Y-14797119D02*
X10478071Y-14835214D01*
X10478071Y-14835214D02*
X10478071Y-14882833D01*
X10478071Y-14882833D02*
X10468548Y-14920928D01*
X10468548Y-14920928D02*
X10459024Y-14939976D01*
X10459024Y-14939976D02*
X10449500Y-14949500D01*
X10449500Y-14949500D02*
X10430452Y-14959024D01*
X10430452Y-14959024D02*
X10411405Y-14959024D01*
X10411405Y-14959024D02*
X10392357Y-14949500D01*
X10392357Y-14949500D02*
X10382833Y-14939976D01*
X10382833Y-14939976D02*
X10373310Y-14920928D01*
X10373310Y-14920928D02*
X10363786Y-14882833D01*
X10363786Y-14882833D02*
X10363786Y-14835214D01*
X10363786Y-14835214D02*
X10373310Y-14797119D01*
X10373310Y-14797119D02*
X10382833Y-14778071D01*
X10382833Y-14778071D02*
X10392357Y-14768548D01*
X10392357Y-14768548D02*
X10411405Y-14759024D01*
X10601881Y-14759024D02*
X10620929Y-14759024D01*
X10620929Y-14759024D02*
X10639976Y-14768548D01*
X10639976Y-14768548D02*
X10649500Y-14778071D01*
X10649500Y-14778071D02*
X10659024Y-14797119D01*
X10659024Y-14797119D02*
X10668548Y-14835214D01*
X10668548Y-14835214D02*
X10668548Y-14882833D01*
X10668548Y-14882833D02*
X10659024Y-14920928D01*
X10659024Y-14920928D02*
X10649500Y-14939976D01*
X10649500Y-14939976D02*
X10639976Y-14949500D01*
X10639976Y-14949500D02*
X10620929Y-14959024D01*
X10620929Y-14959024D02*
X10601881Y-14959024D01*
X10601881Y-14959024D02*
X10582833Y-14949500D01*
X10582833Y-14949500D02*
X10573310Y-14939976D01*
X10573310Y-14939976D02*
X10563786Y-14920928D01*
X10563786Y-14920928D02*
X10554262Y-14882833D01*
X10554262Y-14882833D02*
X10554262Y-14835214D01*
X10554262Y-14835214D02*
X10563786Y-14797119D01*
X10563786Y-14797119D02*
X10573310Y-14778071D01*
X10573310Y-14778071D02*
X10582833Y-14768548D01*
X10582833Y-14768548D02*
X10601881Y-14759024D01*
X10754262Y-14959024D02*
X10754262Y-14825690D01*
X10754262Y-14844738D02*
X10763786Y-14835214D01*
X10763786Y-14835214D02*
X10782833Y-14825690D01*
X10782833Y-14825690D02*
X10811405Y-14825690D01*
X10811405Y-14825690D02*
X10830452Y-14835214D01*
X10830452Y-14835214D02*
X10839976Y-14854262D01*
X10839976Y-14854262D02*
X10839976Y-14959024D01*
X10839976Y-14854262D02*
X10849500Y-14835214D01*
X10849500Y-14835214D02*
X10868548Y-14825690D01*
X10868548Y-14825690D02*
X10897119Y-14825690D01*
X10897119Y-14825690D02*
X10916167Y-14835214D01*
X10916167Y-14835214D02*
X10925691Y-14854262D01*
X10925691Y-14854262D02*
X10925691Y-14959024D01*
X11020929Y-14959024D02*
X11020929Y-14825690D01*
X11020929Y-14844738D02*
X11030452Y-14835214D01*
X11030452Y-14835214D02*
X11049500Y-14825690D01*
X11049500Y-14825690D02*
X11078072Y-14825690D01*
X11078072Y-14825690D02*
X11097119Y-14835214D01*
X11097119Y-14835214D02*
X11106643Y-14854262D01*
X11106643Y-14854262D02*
X11106643Y-14959024D01*
X11106643Y-14854262D02*
X11116167Y-14835214D01*
X11116167Y-14835214D02*
X11135214Y-14825690D01*
X11135214Y-14825690D02*
X11163786Y-14825690D01*
X11163786Y-14825690D02*
X11182833Y-14835214D01*
X11182833Y-14835214D02*
X11192357Y-14854262D01*
X11192357Y-14854262D02*
X11192357Y-14959024D01*
X11582833Y-14749500D02*
X11411405Y-15006643D01*
X11839976Y-14759024D02*
X11859024Y-14759024D01*
X11859024Y-14759024D02*
X11878072Y-14768548D01*
X11878072Y-14768548D02*
X11887595Y-14778071D01*
X11887595Y-14778071D02*
X11897119Y-14797119D01*
X11897119Y-14797119D02*
X11906643Y-14835214D01*
X11906643Y-14835214D02*
X11906643Y-14882833D01*
X11906643Y-14882833D02*
X11897119Y-14920928D01*
X11897119Y-14920928D02*
X11887595Y-14939976D01*
X11887595Y-14939976D02*
X11878072Y-14949500D01*
X11878072Y-14949500D02*
X11859024Y-14959024D01*
X11859024Y-14959024D02*
X11839976Y-14959024D01*
X11839976Y-14959024D02*
X11820929Y-14949500D01*
X11820929Y-14949500D02*
X11811405Y-14939976D01*
X11811405Y-14939976D02*
X11801881Y-14920928D01*
X11801881Y-14920928D02*
X11792357Y-14882833D01*
X11792357Y-14882833D02*
X11792357Y-14835214D01*
X11792357Y-14835214D02*
X11801881Y-14797119D01*
X11801881Y-14797119D02*
X11811405Y-14778071D01*
X11811405Y-14778071D02*
X11820929Y-14768548D01*
X11820929Y-14768548D02*
X11839976Y-14759024D01*
X11992357Y-14939976D02*
X12001881Y-14949500D01*
X12001881Y-14949500D02*
X11992357Y-14959024D01*
X11992357Y-14959024D02*
X11982833Y-14949500D01*
X11982833Y-14949500D02*
X11992357Y-14939976D01*
X11992357Y-14939976D02*
X11992357Y-14959024D01*
X12125691Y-14759024D02*
X12144738Y-14759024D01*
X12144738Y-14759024D02*
X12163786Y-14768548D01*
X12163786Y-14768548D02*
X12173310Y-14778071D01*
X12173310Y-14778071D02*
X12182833Y-14797119D01*
X12182833Y-14797119D02*
X12192357Y-14835214D01*
X12192357Y-14835214D02*
X12192357Y-14882833D01*
X12192357Y-14882833D02*
X12182833Y-14920928D01*
X12182833Y-14920928D02*
X12173310Y-14939976D01*
X12173310Y-14939976D02*
X12163786Y-14949500D01*
X12163786Y-14949500D02*
X12144738Y-14959024D01*
X12144738Y-14959024D02*
X12125691Y-14959024D01*
X12125691Y-14959024D02*
X12106643Y-14949500D01*
X12106643Y-14949500D02*
X12097119Y-14939976D01*
X12097119Y-14939976D02*
X12087595Y-14920928D01*
X12087595Y-14920928D02*
X12078072Y-14882833D01*
X12078072Y-14882833D02*
X12078072Y-14835214D01*
X12078072Y-14835214D02*
X12087595Y-14797119D01*
X12087595Y-14797119D02*
X12097119Y-14778071D01*
X12097119Y-14778071D02*
X12106643Y-14768548D01*
X12106643Y-14768548D02*
X12125691Y-14759024D01*
X12382833Y-14959024D02*
X12268548Y-14959024D01*
X12325691Y-14959024D02*
X12325691Y-14759024D01*
X12325691Y-14759024D02*
X12306643Y-14787595D01*
X12306643Y-14787595D02*
X12287595Y-14806643D01*
X12287595Y-14806643D02*
X12268548Y-14816167D01*
X12573310Y-14959024D02*
X12459024Y-14959024D01*
X12516167Y-14959024D02*
X12516167Y-14759024D01*
X12516167Y-14759024D02*
X12497119Y-14787595D01*
X12497119Y-14787595D02*
X12478072Y-14806643D01*
X12478072Y-14806643D02*
X12459024Y-14816167D01*
X12687595Y-14844738D02*
X12668548Y-14835214D01*
X12668548Y-14835214D02*
X12659024Y-14825690D01*
X12659024Y-14825690D02*
X12649500Y-14806643D01*
X12649500Y-14806643D02*
X12649500Y-14797119D01*
X12649500Y-14797119D02*
X12659024Y-14778071D01*
X12659024Y-14778071D02*
X12668548Y-14768548D01*
X12668548Y-14768548D02*
X12687595Y-14759024D01*
X12687595Y-14759024D02*
X12725691Y-14759024D01*
X12725691Y-14759024D02*
X12744738Y-14768548D01*
X12744738Y-14768548D02*
X12754262Y-14778071D01*
X12754262Y-14778071D02*
X12763786Y-14797119D01*
X12763786Y-14797119D02*
X12763786Y-14806643D01*
X12763786Y-14806643D02*
X12754262Y-14825690D01*
X12754262Y-14825690D02*
X12744738Y-14835214D01*
X12744738Y-14835214D02*
X12725691Y-14844738D01*
X12725691Y-14844738D02*
X12687595Y-14844738D01*
X12687595Y-14844738D02*
X12668548Y-14854262D01*
X12668548Y-14854262D02*
X12659024Y-14863786D01*
X12659024Y-14863786D02*
X12649500Y-14882833D01*
X12649500Y-14882833D02*
X12649500Y-14920928D01*
X12649500Y-14920928D02*
X12659024Y-14939976D01*
X12659024Y-14939976D02*
X12668548Y-14949500D01*
X12668548Y-14949500D02*
X12687595Y-14959024D01*
X12687595Y-14959024D02*
X12725691Y-14959024D01*
X12725691Y-14959024D02*
X12744738Y-14949500D01*
X12744738Y-14949500D02*
X12754262Y-14939976D01*
X12754262Y-14939976D02*
X12763786Y-14920928D01*
X12763786Y-14920928D02*
X12763786Y-14882833D01*
X12763786Y-14882833D02*
X12754262Y-14863786D01*
X12754262Y-14863786D02*
X12744738Y-14854262D01*
X12744738Y-14854262D02*
X12725691Y-14844738D01*
X12839976Y-14759024D02*
X12839976Y-14797119D01*
X12916167Y-14759024D02*
X12916167Y-14797119D01*
X13211405Y-15035214D02*
X13201881Y-15025690D01*
X13201881Y-15025690D02*
X13182834Y-14997119D01*
X13182834Y-14997119D02*
X13173310Y-14978071D01*
X13173310Y-14978071D02*
X13163786Y-14949500D01*
X13163786Y-14949500D02*
X13154262Y-14901881D01*
X13154262Y-14901881D02*
X13154262Y-14863786D01*
X13154262Y-14863786D02*
X13163786Y-14816167D01*
X13163786Y-14816167D02*
X13173310Y-14787595D01*
X13173310Y-14787595D02*
X13182834Y-14768548D01*
X13182834Y-14768548D02*
X13201881Y-14739976D01*
X13201881Y-14739976D02*
X13211405Y-14730452D01*
X13278072Y-14778071D02*
X13287595Y-14768548D01*
X13287595Y-14768548D02*
X13306643Y-14759024D01*
X13306643Y-14759024D02*
X13354262Y-14759024D01*
X13354262Y-14759024D02*
X13373310Y-14768548D01*
X13373310Y-14768548D02*
X13382834Y-14778071D01*
X13382834Y-14778071D02*
X13392357Y-14797119D01*
X13392357Y-14797119D02*
X13392357Y-14816167D01*
X13392357Y-14816167D02*
X13382834Y-14844738D01*
X13382834Y-14844738D02*
X13268548Y-14959024D01*
X13268548Y-14959024D02*
X13392357Y-14959024D01*
X13516167Y-14759024D02*
X13535215Y-14759024D01*
X13535215Y-14759024D02*
X13554262Y-14768548D01*
X13554262Y-14768548D02*
X13563786Y-14778071D01*
X13563786Y-14778071D02*
X13573310Y-14797119D01*
X13573310Y-14797119D02*
X13582834Y-14835214D01*
X13582834Y-14835214D02*
X13582834Y-14882833D01*
X13582834Y-14882833D02*
X13573310Y-14920928D01*
X13573310Y-14920928D02*
X13563786Y-14939976D01*
X13563786Y-14939976D02*
X13554262Y-14949500D01*
X13554262Y-14949500D02*
X13535215Y-14959024D01*
X13535215Y-14959024D02*
X13516167Y-14959024D01*
X13516167Y-14959024D02*
X13497119Y-14949500D01*
X13497119Y-14949500D02*
X13487595Y-14939976D01*
X13487595Y-14939976D02*
X13478072Y-14920928D01*
X13478072Y-14920928D02*
X13468548Y-14882833D01*
X13468548Y-14882833D02*
X13468548Y-14835214D01*
X13468548Y-14835214D02*
X13478072Y-14797119D01*
X13478072Y-14797119D02*
X13487595Y-14778071D01*
X13487595Y-14778071D02*
X13497119Y-14768548D01*
X13497119Y-14768548D02*
X13516167Y-14759024D01*
X13754262Y-14759024D02*
X13716167Y-14759024D01*
X13716167Y-14759024D02*
X13697119Y-14768548D01*
X13697119Y-14768548D02*
X13687595Y-14778071D01*
X13687595Y-14778071D02*
X13668548Y-14806643D01*
X13668548Y-14806643D02*
X13659024Y-14844738D01*
X13659024Y-14844738D02*
X13659024Y-14920928D01*
X13659024Y-14920928D02*
X13668548Y-14939976D01*
X13668548Y-14939976D02*
X13678072Y-14949500D01*
X13678072Y-14949500D02*
X13697119Y-14959024D01*
X13697119Y-14959024D02*
X13735215Y-14959024D01*
X13735215Y-14959024D02*
X13754262Y-14949500D01*
X13754262Y-14949500D02*
X13763786Y-14939976D01*
X13763786Y-14939976D02*
X13773310Y-14920928D01*
X13773310Y-14920928D02*
X13773310Y-14873309D01*
X13773310Y-14873309D02*
X13763786Y-14854262D01*
X13763786Y-14854262D02*
X13754262Y-14844738D01*
X13754262Y-14844738D02*
X13735215Y-14835214D01*
X13735215Y-14835214D02*
X13697119Y-14835214D01*
X13697119Y-14835214D02*
X13678072Y-14844738D01*
X13678072Y-14844738D02*
X13668548Y-14854262D01*
X13668548Y-14854262D02*
X13659024Y-14873309D01*
X14011405Y-14959024D02*
X14011405Y-14759024D01*
X14097119Y-14959024D02*
X14097119Y-14854262D01*
X14097119Y-14854262D02*
X14087596Y-14835214D01*
X14087596Y-14835214D02*
X14068548Y-14825690D01*
X14068548Y-14825690D02*
X14039976Y-14825690D01*
X14039976Y-14825690D02*
X14020929Y-14835214D01*
X14020929Y-14835214D02*
X14011405Y-14844738D01*
X14220929Y-14959024D02*
X14201881Y-14949500D01*
X14201881Y-14949500D02*
X14192357Y-14939976D01*
X14192357Y-14939976D02*
X14182834Y-14920928D01*
X14182834Y-14920928D02*
X14182834Y-14863786D01*
X14182834Y-14863786D02*
X14192357Y-14844738D01*
X14192357Y-14844738D02*
X14201881Y-14835214D01*
X14201881Y-14835214D02*
X14220929Y-14825690D01*
X14220929Y-14825690D02*
X14249500Y-14825690D01*
X14249500Y-14825690D02*
X14268548Y-14835214D01*
X14268548Y-14835214D02*
X14278072Y-14844738D01*
X14278072Y-14844738D02*
X14287596Y-14863786D01*
X14287596Y-14863786D02*
X14287596Y-14920928D01*
X14287596Y-14920928D02*
X14278072Y-14939976D01*
X14278072Y-14939976D02*
X14268548Y-14949500D01*
X14268548Y-14949500D02*
X14249500Y-14959024D01*
X14249500Y-14959024D02*
X14220929Y-14959024D01*
X14401881Y-14959024D02*
X14382834Y-14949500D01*
X14382834Y-14949500D02*
X14373310Y-14930452D01*
X14373310Y-14930452D02*
X14373310Y-14759024D01*
X14554262Y-14949500D02*
X14535215Y-14959024D01*
X14535215Y-14959024D02*
X14497119Y-14959024D01*
X14497119Y-14959024D02*
X14478072Y-14949500D01*
X14478072Y-14949500D02*
X14468548Y-14930452D01*
X14468548Y-14930452D02*
X14468548Y-14854262D01*
X14468548Y-14854262D02*
X14478072Y-14835214D01*
X14478072Y-14835214D02*
X14497119Y-14825690D01*
X14497119Y-14825690D02*
X14535215Y-14825690D01*
X14535215Y-14825690D02*
X14554262Y-14835214D01*
X14554262Y-14835214D02*
X14563786Y-14854262D01*
X14563786Y-14854262D02*
X14563786Y-14873309D01*
X14563786Y-14873309D02*
X14468548Y-14892357D01*
X14639977Y-14949500D02*
X14659024Y-14959024D01*
X14659024Y-14959024D02*
X14697119Y-14959024D01*
X14697119Y-14959024D02*
X14716167Y-14949500D01*
X14716167Y-14949500D02*
X14725691Y-14930452D01*
X14725691Y-14930452D02*
X14725691Y-14920928D01*
X14725691Y-14920928D02*
X14716167Y-14901881D01*
X14716167Y-14901881D02*
X14697119Y-14892357D01*
X14697119Y-14892357D02*
X14668548Y-14892357D01*
X14668548Y-14892357D02*
X14649500Y-14882833D01*
X14649500Y-14882833D02*
X14639977Y-14863786D01*
X14639977Y-14863786D02*
X14639977Y-14854262D01*
X14639977Y-14854262D02*
X14649500Y-14835214D01*
X14649500Y-14835214D02*
X14668548Y-14825690D01*
X14668548Y-14825690D02*
X14697119Y-14825690D01*
X14697119Y-14825690D02*
X14716167Y-14835214D01*
X14792358Y-15035214D02*
X14801881Y-15025690D01*
X14801881Y-15025690D02*
X14820929Y-14997119D01*
X14820929Y-14997119D02*
X14830453Y-14978071D01*
X14830453Y-14978071D02*
X14839977Y-14949500D01*
X14839977Y-14949500D02*
X14849500Y-14901881D01*
X14849500Y-14901881D02*
X14849500Y-14863786D01*
X14849500Y-14863786D02*
X14839977Y-14816167D01*
X14839977Y-14816167D02*
X14830453Y-14787595D01*
X14830453Y-14787595D02*
X14820929Y-14768548D01*
X14820929Y-14768548D02*
X14801881Y-14739976D01*
X14801881Y-14739976D02*
X14792358Y-14730452D01*
D10*
X9649500Y-15130500D02*
G75*
G03*
X9649500Y-15130500I-25000J0D01*
G01*
D11*
X9935214Y-15023024D02*
X9954262Y-15023024D01*
X9954262Y-15023024D02*
X9973310Y-15032548D01*
X9973310Y-15032548D02*
X9982833Y-15042071D01*
X9982833Y-15042071D02*
X9992357Y-15061119D01*
X9992357Y-15061119D02*
X10001881Y-15099214D01*
X10001881Y-15099214D02*
X10001881Y-15146833D01*
X10001881Y-15146833D02*
X9992357Y-15184928D01*
X9992357Y-15184928D02*
X9982833Y-15203976D01*
X9982833Y-15203976D02*
X9973310Y-15213500D01*
X9973310Y-15213500D02*
X9954262Y-15223024D01*
X9954262Y-15223024D02*
X9935214Y-15223024D01*
X9935214Y-15223024D02*
X9916167Y-15213500D01*
X9916167Y-15213500D02*
X9906643Y-15203976D01*
X9906643Y-15203976D02*
X9897119Y-15184928D01*
X9897119Y-15184928D02*
X9887595Y-15146833D01*
X9887595Y-15146833D02*
X9887595Y-15099214D01*
X9887595Y-15099214D02*
X9897119Y-15061119D01*
X9897119Y-15061119D02*
X9906643Y-15042071D01*
X9906643Y-15042071D02*
X9916167Y-15032548D01*
X9916167Y-15032548D02*
X9935214Y-15023024D01*
X10087595Y-15203976D02*
X10097119Y-15213500D01*
X10097119Y-15213500D02*
X10087595Y-15223024D01*
X10087595Y-15223024D02*
X10078071Y-15213500D01*
X10078071Y-15213500D02*
X10087595Y-15203976D01*
X10087595Y-15203976D02*
X10087595Y-15223024D01*
X10278071Y-15023024D02*
X10182833Y-15023024D01*
X10182833Y-15023024D02*
X10173310Y-15118262D01*
X10173310Y-15118262D02*
X10182833Y-15108738D01*
X10182833Y-15108738D02*
X10201881Y-15099214D01*
X10201881Y-15099214D02*
X10249500Y-15099214D01*
X10249500Y-15099214D02*
X10268548Y-15108738D01*
X10268548Y-15108738D02*
X10278071Y-15118262D01*
X10278071Y-15118262D02*
X10287595Y-15137309D01*
X10287595Y-15137309D02*
X10287595Y-15184928D01*
X10287595Y-15184928D02*
X10278071Y-15203976D01*
X10278071Y-15203976D02*
X10268548Y-15213500D01*
X10268548Y-15213500D02*
X10249500Y-15223024D01*
X10249500Y-15223024D02*
X10201881Y-15223024D01*
X10201881Y-15223024D02*
X10182833Y-15213500D01*
X10182833Y-15213500D02*
X10173310Y-15203976D01*
X10411405Y-15023024D02*
X10430452Y-15023024D01*
X10430452Y-15023024D02*
X10449500Y-15032548D01*
X10449500Y-15032548D02*
X10459024Y-15042071D01*
X10459024Y-15042071D02*
X10468548Y-15061119D01*
X10468548Y-15061119D02*
X10478071Y-15099214D01*
X10478071Y-15099214D02*
X10478071Y-15146833D01*
X10478071Y-15146833D02*
X10468548Y-15184928D01*
X10468548Y-15184928D02*
X10459024Y-15203976D01*
X10459024Y-15203976D02*
X10449500Y-15213500D01*
X10449500Y-15213500D02*
X10430452Y-15223024D01*
X10430452Y-15223024D02*
X10411405Y-15223024D01*
X10411405Y-15223024D02*
X10392357Y-15213500D01*
X10392357Y-15213500D02*
X10382833Y-15203976D01*
X10382833Y-15203976D02*
X10373310Y-15184928D01*
X10373310Y-15184928D02*
X10363786Y-15146833D01*
X10363786Y-15146833D02*
X10363786Y-15099214D01*
X10363786Y-15099214D02*
X10373310Y-15061119D01*
X10373310Y-15061119D02*
X10382833Y-15042071D01*
X10382833Y-15042071D02*
X10392357Y-15032548D01*
X10392357Y-15032548D02*
X10411405Y-15023024D01*
X10601881Y-15023024D02*
X10620929Y-15023024D01*
X10620929Y-15023024D02*
X10639976Y-15032548D01*
X10639976Y-15032548D02*
X10649500Y-15042071D01*
X10649500Y-15042071D02*
X10659024Y-15061119D01*
X10659024Y-15061119D02*
X10668548Y-15099214D01*
X10668548Y-15099214D02*
X10668548Y-15146833D01*
X10668548Y-15146833D02*
X10659024Y-15184928D01*
X10659024Y-15184928D02*
X10649500Y-15203976D01*
X10649500Y-15203976D02*
X10639976Y-15213500D01*
X10639976Y-15213500D02*
X10620929Y-15223024D01*
X10620929Y-15223024D02*
X10601881Y-15223024D01*
X10601881Y-15223024D02*
X10582833Y-15213500D01*
X10582833Y-15213500D02*
X10573310Y-15203976D01*
X10573310Y-15203976D02*
X10563786Y-15184928D01*
X10563786Y-15184928D02*
X10554262Y-15146833D01*
X10554262Y-15146833D02*
X10554262Y-15099214D01*
X10554262Y-15099214D02*
X10563786Y-15061119D01*
X10563786Y-15061119D02*
X10573310Y-15042071D01*
X10573310Y-15042071D02*
X10582833Y-15032548D01*
X10582833Y-15032548D02*
X10601881Y-15023024D01*
X10754262Y-15223024D02*
X10754262Y-15089690D01*
X10754262Y-15108738D02*
X10763786Y-15099214D01*
X10763786Y-15099214D02*
X10782833Y-15089690D01*
X10782833Y-15089690D02*
X10811405Y-15089690D01*
X10811405Y-15089690D02*
X10830452Y-15099214D01*
X10830452Y-15099214D02*
X10839976Y-15118262D01*
X10839976Y-15118262D02*
X10839976Y-15223024D01*
X10839976Y-15118262D02*
X10849500Y-15099214D01*
X10849500Y-15099214D02*
X10868548Y-15089690D01*
X10868548Y-15089690D02*
X10897119Y-15089690D01*
X10897119Y-15089690D02*
X10916167Y-15099214D01*
X10916167Y-15099214D02*
X10925691Y-15118262D01*
X10925691Y-15118262D02*
X10925691Y-15223024D01*
X11020929Y-15223024D02*
X11020929Y-15089690D01*
X11020929Y-15108738D02*
X11030452Y-15099214D01*
X11030452Y-15099214D02*
X11049500Y-15089690D01*
X11049500Y-15089690D02*
X11078072Y-15089690D01*
X11078072Y-15089690D02*
X11097119Y-15099214D01*
X11097119Y-15099214D02*
X11106643Y-15118262D01*
X11106643Y-15118262D02*
X11106643Y-15223024D01*
X11106643Y-15118262D02*
X11116167Y-15099214D01*
X11116167Y-15099214D02*
X11135214Y-15089690D01*
X11135214Y-15089690D02*
X11163786Y-15089690D01*
X11163786Y-15089690D02*
X11182833Y-15099214D01*
X11182833Y-15099214D02*
X11192357Y-15118262D01*
X11192357Y-15118262D02*
X11192357Y-15223024D01*
X11582833Y-15013500D02*
X11411405Y-15270643D01*
X11839976Y-15023024D02*
X11859024Y-15023024D01*
X11859024Y-15023024D02*
X11878072Y-15032548D01*
X11878072Y-15032548D02*
X11887595Y-15042071D01*
X11887595Y-15042071D02*
X11897119Y-15061119D01*
X11897119Y-15061119D02*
X11906643Y-15099214D01*
X11906643Y-15099214D02*
X11906643Y-15146833D01*
X11906643Y-15146833D02*
X11897119Y-15184928D01*
X11897119Y-15184928D02*
X11887595Y-15203976D01*
X11887595Y-15203976D02*
X11878072Y-15213500D01*
X11878072Y-15213500D02*
X11859024Y-15223024D01*
X11859024Y-15223024D02*
X11839976Y-15223024D01*
X11839976Y-15223024D02*
X11820929Y-15213500D01*
X11820929Y-15213500D02*
X11811405Y-15203976D01*
X11811405Y-15203976D02*
X11801881Y-15184928D01*
X11801881Y-15184928D02*
X11792357Y-15146833D01*
X11792357Y-15146833D02*
X11792357Y-15099214D01*
X11792357Y-15099214D02*
X11801881Y-15061119D01*
X11801881Y-15061119D02*
X11811405Y-15042071D01*
X11811405Y-15042071D02*
X11820929Y-15032548D01*
X11820929Y-15032548D02*
X11839976Y-15023024D01*
X11992357Y-15203976D02*
X12001881Y-15213500D01*
X12001881Y-15213500D02*
X11992357Y-15223024D01*
X11992357Y-15223024D02*
X11982833Y-15213500D01*
X11982833Y-15213500D02*
X11992357Y-15203976D01*
X11992357Y-15203976D02*
X11992357Y-15223024D01*
X12125691Y-15023024D02*
X12144738Y-15023024D01*
X12144738Y-15023024D02*
X12163786Y-15032548D01*
X12163786Y-15032548D02*
X12173310Y-15042071D01*
X12173310Y-15042071D02*
X12182833Y-15061119D01*
X12182833Y-15061119D02*
X12192357Y-15099214D01*
X12192357Y-15099214D02*
X12192357Y-15146833D01*
X12192357Y-15146833D02*
X12182833Y-15184928D01*
X12182833Y-15184928D02*
X12173310Y-15203976D01*
X12173310Y-15203976D02*
X12163786Y-15213500D01*
X12163786Y-15213500D02*
X12144738Y-15223024D01*
X12144738Y-15223024D02*
X12125691Y-15223024D01*
X12125691Y-15223024D02*
X12106643Y-15213500D01*
X12106643Y-15213500D02*
X12097119Y-15203976D01*
X12097119Y-15203976D02*
X12087595Y-15184928D01*
X12087595Y-15184928D02*
X12078072Y-15146833D01*
X12078072Y-15146833D02*
X12078072Y-15099214D01*
X12078072Y-15099214D02*
X12087595Y-15061119D01*
X12087595Y-15061119D02*
X12097119Y-15042071D01*
X12097119Y-15042071D02*
X12106643Y-15032548D01*
X12106643Y-15032548D02*
X12125691Y-15023024D01*
X12382833Y-15223024D02*
X12268548Y-15223024D01*
X12325691Y-15223024D02*
X12325691Y-15023024D01*
X12325691Y-15023024D02*
X12306643Y-15051595D01*
X12306643Y-15051595D02*
X12287595Y-15070643D01*
X12287595Y-15070643D02*
X12268548Y-15080167D01*
X12478072Y-15223024D02*
X12516167Y-15223024D01*
X12516167Y-15223024D02*
X12535214Y-15213500D01*
X12535214Y-15213500D02*
X12544738Y-15203976D01*
X12544738Y-15203976D02*
X12563786Y-15175405D01*
X12563786Y-15175405D02*
X12573310Y-15137309D01*
X12573310Y-15137309D02*
X12573310Y-15061119D01*
X12573310Y-15061119D02*
X12563786Y-15042071D01*
X12563786Y-15042071D02*
X12554262Y-15032548D01*
X12554262Y-15032548D02*
X12535214Y-15023024D01*
X12535214Y-15023024D02*
X12497119Y-15023024D01*
X12497119Y-15023024D02*
X12478072Y-15032548D01*
X12478072Y-15032548D02*
X12468548Y-15042071D01*
X12468548Y-15042071D02*
X12459024Y-15061119D01*
X12459024Y-15061119D02*
X12459024Y-15108738D01*
X12459024Y-15108738D02*
X12468548Y-15127786D01*
X12468548Y-15127786D02*
X12478072Y-15137309D01*
X12478072Y-15137309D02*
X12497119Y-15146833D01*
X12497119Y-15146833D02*
X12535214Y-15146833D01*
X12535214Y-15146833D02*
X12554262Y-15137309D01*
X12554262Y-15137309D02*
X12563786Y-15127786D01*
X12563786Y-15127786D02*
X12573310Y-15108738D01*
X12639976Y-15023024D02*
X12773310Y-15023024D01*
X12773310Y-15023024D02*
X12687595Y-15223024D01*
X12839976Y-15023024D02*
X12839976Y-15061119D01*
X12916167Y-15023024D02*
X12916167Y-15061119D01*
X13211405Y-15299214D02*
X13201881Y-15289690D01*
X13201881Y-15289690D02*
X13182834Y-15261119D01*
X13182834Y-15261119D02*
X13173310Y-15242071D01*
X13173310Y-15242071D02*
X13163786Y-15213500D01*
X13163786Y-15213500D02*
X13154262Y-15165881D01*
X13154262Y-15165881D02*
X13154262Y-15127786D01*
X13154262Y-15127786D02*
X13163786Y-15080167D01*
X13163786Y-15080167D02*
X13173310Y-15051595D01*
X13173310Y-15051595D02*
X13182834Y-15032548D01*
X13182834Y-15032548D02*
X13201881Y-15003976D01*
X13201881Y-15003976D02*
X13211405Y-14994452D01*
X13268548Y-15023024D02*
X13392357Y-15023024D01*
X13392357Y-15023024D02*
X13325691Y-15099214D01*
X13325691Y-15099214D02*
X13354262Y-15099214D01*
X13354262Y-15099214D02*
X13373310Y-15108738D01*
X13373310Y-15108738D02*
X13382834Y-15118262D01*
X13382834Y-15118262D02*
X13392357Y-15137309D01*
X13392357Y-15137309D02*
X13392357Y-15184928D01*
X13392357Y-15184928D02*
X13382834Y-15203976D01*
X13382834Y-15203976D02*
X13373310Y-15213500D01*
X13373310Y-15213500D02*
X13354262Y-15223024D01*
X13354262Y-15223024D02*
X13297119Y-15223024D01*
X13297119Y-15223024D02*
X13278072Y-15213500D01*
X13278072Y-15213500D02*
X13268548Y-15203976D01*
X13630453Y-15223024D02*
X13630453Y-15023024D01*
X13716167Y-15223024D02*
X13716167Y-15118262D01*
X13716167Y-15118262D02*
X13706643Y-15099214D01*
X13706643Y-15099214D02*
X13687596Y-15089690D01*
X13687596Y-15089690D02*
X13659024Y-15089690D01*
X13659024Y-15089690D02*
X13639976Y-15099214D01*
X13639976Y-15099214D02*
X13630453Y-15108738D01*
X13839976Y-15223024D02*
X13820929Y-15213500D01*
X13820929Y-15213500D02*
X13811405Y-15203976D01*
X13811405Y-15203976D02*
X13801881Y-15184928D01*
X13801881Y-15184928D02*
X13801881Y-15127786D01*
X13801881Y-15127786D02*
X13811405Y-15108738D01*
X13811405Y-15108738D02*
X13820929Y-15099214D01*
X13820929Y-15099214D02*
X13839976Y-15089690D01*
X13839976Y-15089690D02*
X13868548Y-15089690D01*
X13868548Y-15089690D02*
X13887596Y-15099214D01*
X13887596Y-15099214D02*
X13897119Y-15108738D01*
X13897119Y-15108738D02*
X13906643Y-15127786D01*
X13906643Y-15127786D02*
X13906643Y-15184928D01*
X13906643Y-15184928D02*
X13897119Y-15203976D01*
X13897119Y-15203976D02*
X13887596Y-15213500D01*
X13887596Y-15213500D02*
X13868548Y-15223024D01*
X13868548Y-15223024D02*
X13839976Y-15223024D01*
X14020929Y-15223024D02*
X14001881Y-15213500D01*
X14001881Y-15213500D02*
X13992357Y-15194452D01*
X13992357Y-15194452D02*
X13992357Y-15023024D01*
X14173310Y-15213500D02*
X14154262Y-15223024D01*
X14154262Y-15223024D02*
X14116167Y-15223024D01*
X14116167Y-15223024D02*
X14097119Y-15213500D01*
X14097119Y-15213500D02*
X14087596Y-15194452D01*
X14087596Y-15194452D02*
X14087596Y-15118262D01*
X14087596Y-15118262D02*
X14097119Y-15099214D01*
X14097119Y-15099214D02*
X14116167Y-15089690D01*
X14116167Y-15089690D02*
X14154262Y-15089690D01*
X14154262Y-15089690D02*
X14173310Y-15099214D01*
X14173310Y-15099214D02*
X14182834Y-15118262D01*
X14182834Y-15118262D02*
X14182834Y-15137309D01*
X14182834Y-15137309D02*
X14087596Y-15156357D01*
X14259024Y-15213500D02*
X14278072Y-15223024D01*
X14278072Y-15223024D02*
X14316167Y-15223024D01*
X14316167Y-15223024D02*
X14335215Y-15213500D01*
X14335215Y-15213500D02*
X14344738Y-15194452D01*
X14344738Y-15194452D02*
X14344738Y-15184928D01*
X14344738Y-15184928D02*
X14335215Y-15165881D01*
X14335215Y-15165881D02*
X14316167Y-15156357D01*
X14316167Y-15156357D02*
X14287596Y-15156357D01*
X14287596Y-15156357D02*
X14268548Y-15146833D01*
X14268548Y-15146833D02*
X14259024Y-15127786D01*
X14259024Y-15127786D02*
X14259024Y-15118262D01*
X14259024Y-15118262D02*
X14268548Y-15099214D01*
X14268548Y-15099214D02*
X14287596Y-15089690D01*
X14287596Y-15089690D02*
X14316167Y-15089690D01*
X14316167Y-15089690D02*
X14335215Y-15099214D01*
X14411405Y-15299214D02*
X14420929Y-15289690D01*
X14420929Y-15289690D02*
X14439977Y-15261119D01*
X14439977Y-15261119D02*
X14449500Y-15242071D01*
X14449500Y-15242071D02*
X14459024Y-15213500D01*
X14459024Y-15213500D02*
X14468548Y-15165881D01*
X14468548Y-15165881D02*
X14468548Y-15127786D01*
X14468548Y-15127786D02*
X14459024Y-15080167D01*
X14459024Y-15080167D02*
X14449500Y-15051595D01*
X14449500Y-15051595D02*
X14439977Y-15032548D01*
X14439977Y-15032548D02*
X14420929Y-15003976D01*
X14420929Y-15003976D02*
X14411405Y-14994452D01*
D13*
X9607500Y-15352500D02*
X9607500Y-15436500D01*
X9565500Y-15394500D02*
X9649500Y-15394500D01*
D11*
X9935214Y-15287024D02*
X9954262Y-15287024D01*
X9954262Y-15287024D02*
X9973310Y-15296548D01*
X9973310Y-15296548D02*
X9982833Y-15306071D01*
X9982833Y-15306071D02*
X9992357Y-15325119D01*
X9992357Y-15325119D02*
X10001881Y-15363214D01*
X10001881Y-15363214D02*
X10001881Y-15410833D01*
X10001881Y-15410833D02*
X9992357Y-15448928D01*
X9992357Y-15448928D02*
X9982833Y-15467976D01*
X9982833Y-15467976D02*
X9973310Y-15477500D01*
X9973310Y-15477500D02*
X9954262Y-15487024D01*
X9954262Y-15487024D02*
X9935214Y-15487024D01*
X9935214Y-15487024D02*
X9916167Y-15477500D01*
X9916167Y-15477500D02*
X9906643Y-15467976D01*
X9906643Y-15467976D02*
X9897119Y-15448928D01*
X9897119Y-15448928D02*
X9887595Y-15410833D01*
X9887595Y-15410833D02*
X9887595Y-15363214D01*
X9887595Y-15363214D02*
X9897119Y-15325119D01*
X9897119Y-15325119D02*
X9906643Y-15306071D01*
X9906643Y-15306071D02*
X9916167Y-15296548D01*
X9916167Y-15296548D02*
X9935214Y-15287024D01*
X10087595Y-15467976D02*
X10097119Y-15477500D01*
X10097119Y-15477500D02*
X10087595Y-15487024D01*
X10087595Y-15487024D02*
X10078071Y-15477500D01*
X10078071Y-15477500D02*
X10087595Y-15467976D01*
X10087595Y-15467976D02*
X10087595Y-15487024D01*
X10211405Y-15372738D02*
X10192357Y-15363214D01*
X10192357Y-15363214D02*
X10182833Y-15353690D01*
X10182833Y-15353690D02*
X10173310Y-15334643D01*
X10173310Y-15334643D02*
X10173310Y-15325119D01*
X10173310Y-15325119D02*
X10182833Y-15306071D01*
X10182833Y-15306071D02*
X10192357Y-15296548D01*
X10192357Y-15296548D02*
X10211405Y-15287024D01*
X10211405Y-15287024D02*
X10249500Y-15287024D01*
X10249500Y-15287024D02*
X10268548Y-15296548D01*
X10268548Y-15296548D02*
X10278071Y-15306071D01*
X10278071Y-15306071D02*
X10287595Y-15325119D01*
X10287595Y-15325119D02*
X10287595Y-15334643D01*
X10287595Y-15334643D02*
X10278071Y-15353690D01*
X10278071Y-15353690D02*
X10268548Y-15363214D01*
X10268548Y-15363214D02*
X10249500Y-15372738D01*
X10249500Y-15372738D02*
X10211405Y-15372738D01*
X10211405Y-15372738D02*
X10192357Y-15382262D01*
X10192357Y-15382262D02*
X10182833Y-15391786D01*
X10182833Y-15391786D02*
X10173310Y-15410833D01*
X10173310Y-15410833D02*
X10173310Y-15448928D01*
X10173310Y-15448928D02*
X10182833Y-15467976D01*
X10182833Y-15467976D02*
X10192357Y-15477500D01*
X10192357Y-15477500D02*
X10211405Y-15487024D01*
X10211405Y-15487024D02*
X10249500Y-15487024D01*
X10249500Y-15487024D02*
X10268548Y-15477500D01*
X10268548Y-15477500D02*
X10278071Y-15467976D01*
X10278071Y-15467976D02*
X10287595Y-15448928D01*
X10287595Y-15448928D02*
X10287595Y-15410833D01*
X10287595Y-15410833D02*
X10278071Y-15391786D01*
X10278071Y-15391786D02*
X10268548Y-15382262D01*
X10268548Y-15382262D02*
X10249500Y-15372738D01*
X10459024Y-15353690D02*
X10459024Y-15487024D01*
X10411405Y-15277500D02*
X10363786Y-15420357D01*
X10363786Y-15420357D02*
X10487595Y-15420357D01*
X10601881Y-15287024D02*
X10620929Y-15287024D01*
X10620929Y-15287024D02*
X10639976Y-15296548D01*
X10639976Y-15296548D02*
X10649500Y-15306071D01*
X10649500Y-15306071D02*
X10659024Y-15325119D01*
X10659024Y-15325119D02*
X10668548Y-15363214D01*
X10668548Y-15363214D02*
X10668548Y-15410833D01*
X10668548Y-15410833D02*
X10659024Y-15448928D01*
X10659024Y-15448928D02*
X10649500Y-15467976D01*
X10649500Y-15467976D02*
X10639976Y-15477500D01*
X10639976Y-15477500D02*
X10620929Y-15487024D01*
X10620929Y-15487024D02*
X10601881Y-15487024D01*
X10601881Y-15487024D02*
X10582833Y-15477500D01*
X10582833Y-15477500D02*
X10573310Y-15467976D01*
X10573310Y-15467976D02*
X10563786Y-15448928D01*
X10563786Y-15448928D02*
X10554262Y-15410833D01*
X10554262Y-15410833D02*
X10554262Y-15363214D01*
X10554262Y-15363214D02*
X10563786Y-15325119D01*
X10563786Y-15325119D02*
X10573310Y-15306071D01*
X10573310Y-15306071D02*
X10582833Y-15296548D01*
X10582833Y-15296548D02*
X10601881Y-15287024D01*
X10754262Y-15487024D02*
X10754262Y-15353690D01*
X10754262Y-15372738D02*
X10763786Y-15363214D01*
X10763786Y-15363214D02*
X10782833Y-15353690D01*
X10782833Y-15353690D02*
X10811405Y-15353690D01*
X10811405Y-15353690D02*
X10830452Y-15363214D01*
X10830452Y-15363214D02*
X10839976Y-15382262D01*
X10839976Y-15382262D02*
X10839976Y-15487024D01*
X10839976Y-15382262D02*
X10849500Y-15363214D01*
X10849500Y-15363214D02*
X10868548Y-15353690D01*
X10868548Y-15353690D02*
X10897119Y-15353690D01*
X10897119Y-15353690D02*
X10916167Y-15363214D01*
X10916167Y-15363214D02*
X10925691Y-15382262D01*
X10925691Y-15382262D02*
X10925691Y-15487024D01*
X11020929Y-15487024D02*
X11020929Y-15353690D01*
X11020929Y-15372738D02*
X11030452Y-15363214D01*
X11030452Y-15363214D02*
X11049500Y-15353690D01*
X11049500Y-15353690D02*
X11078072Y-15353690D01*
X11078072Y-15353690D02*
X11097119Y-15363214D01*
X11097119Y-15363214D02*
X11106643Y-15382262D01*
X11106643Y-15382262D02*
X11106643Y-15487024D01*
X11106643Y-15382262D02*
X11116167Y-15363214D01*
X11116167Y-15363214D02*
X11135214Y-15353690D01*
X11135214Y-15353690D02*
X11163786Y-15353690D01*
X11163786Y-15353690D02*
X11182833Y-15363214D01*
X11182833Y-15363214D02*
X11192357Y-15382262D01*
X11192357Y-15382262D02*
X11192357Y-15487024D01*
X11582833Y-15277500D02*
X11411405Y-15534643D01*
X11839976Y-15287024D02*
X11859024Y-15287024D01*
X11859024Y-15287024D02*
X11878072Y-15296548D01*
X11878072Y-15296548D02*
X11887595Y-15306071D01*
X11887595Y-15306071D02*
X11897119Y-15325119D01*
X11897119Y-15325119D02*
X11906643Y-15363214D01*
X11906643Y-15363214D02*
X11906643Y-15410833D01*
X11906643Y-15410833D02*
X11897119Y-15448928D01*
X11897119Y-15448928D02*
X11887595Y-15467976D01*
X11887595Y-15467976D02*
X11878072Y-15477500D01*
X11878072Y-15477500D02*
X11859024Y-15487024D01*
X11859024Y-15487024D02*
X11839976Y-15487024D01*
X11839976Y-15487024D02*
X11820929Y-15477500D01*
X11820929Y-15477500D02*
X11811405Y-15467976D01*
X11811405Y-15467976D02*
X11801881Y-15448928D01*
X11801881Y-15448928D02*
X11792357Y-15410833D01*
X11792357Y-15410833D02*
X11792357Y-15363214D01*
X11792357Y-15363214D02*
X11801881Y-15325119D01*
X11801881Y-15325119D02*
X11811405Y-15306071D01*
X11811405Y-15306071D02*
X11820929Y-15296548D01*
X11820929Y-15296548D02*
X11839976Y-15287024D01*
X11992357Y-15467976D02*
X12001881Y-15477500D01*
X12001881Y-15477500D02*
X11992357Y-15487024D01*
X11992357Y-15487024D02*
X11982833Y-15477500D01*
X11982833Y-15477500D02*
X11992357Y-15467976D01*
X11992357Y-15467976D02*
X11992357Y-15487024D01*
X12125691Y-15287024D02*
X12144738Y-15287024D01*
X12144738Y-15287024D02*
X12163786Y-15296548D01*
X12163786Y-15296548D02*
X12173310Y-15306071D01*
X12173310Y-15306071D02*
X12182833Y-15325119D01*
X12182833Y-15325119D02*
X12192357Y-15363214D01*
X12192357Y-15363214D02*
X12192357Y-15410833D01*
X12192357Y-15410833D02*
X12182833Y-15448928D01*
X12182833Y-15448928D02*
X12173310Y-15467976D01*
X12173310Y-15467976D02*
X12163786Y-15477500D01*
X12163786Y-15477500D02*
X12144738Y-15487024D01*
X12144738Y-15487024D02*
X12125691Y-15487024D01*
X12125691Y-15487024D02*
X12106643Y-15477500D01*
X12106643Y-15477500D02*
X12097119Y-15467976D01*
X12097119Y-15467976D02*
X12087595Y-15448928D01*
X12087595Y-15448928D02*
X12078072Y-15410833D01*
X12078072Y-15410833D02*
X12078072Y-15363214D01*
X12078072Y-15363214D02*
X12087595Y-15325119D01*
X12087595Y-15325119D02*
X12097119Y-15306071D01*
X12097119Y-15306071D02*
X12106643Y-15296548D01*
X12106643Y-15296548D02*
X12125691Y-15287024D01*
X12259024Y-15287024D02*
X12382833Y-15287024D01*
X12382833Y-15287024D02*
X12316167Y-15363214D01*
X12316167Y-15363214D02*
X12344738Y-15363214D01*
X12344738Y-15363214D02*
X12363786Y-15372738D01*
X12363786Y-15372738D02*
X12373310Y-15382262D01*
X12373310Y-15382262D02*
X12382833Y-15401309D01*
X12382833Y-15401309D02*
X12382833Y-15448928D01*
X12382833Y-15448928D02*
X12373310Y-15467976D01*
X12373310Y-15467976D02*
X12363786Y-15477500D01*
X12363786Y-15477500D02*
X12344738Y-15487024D01*
X12344738Y-15487024D02*
X12287595Y-15487024D01*
X12287595Y-15487024D02*
X12268548Y-15477500D01*
X12268548Y-15477500D02*
X12259024Y-15467976D01*
X12449500Y-15287024D02*
X12573310Y-15287024D01*
X12573310Y-15287024D02*
X12506643Y-15363214D01*
X12506643Y-15363214D02*
X12535214Y-15363214D01*
X12535214Y-15363214D02*
X12554262Y-15372738D01*
X12554262Y-15372738D02*
X12563786Y-15382262D01*
X12563786Y-15382262D02*
X12573310Y-15401309D01*
X12573310Y-15401309D02*
X12573310Y-15448928D01*
X12573310Y-15448928D02*
X12563786Y-15467976D01*
X12563786Y-15467976D02*
X12554262Y-15477500D01*
X12554262Y-15477500D02*
X12535214Y-15487024D01*
X12535214Y-15487024D02*
X12478072Y-15487024D01*
X12478072Y-15487024D02*
X12459024Y-15477500D01*
X12459024Y-15477500D02*
X12449500Y-15467976D01*
X12763786Y-15487024D02*
X12649500Y-15487024D01*
X12706643Y-15487024D02*
X12706643Y-15287024D01*
X12706643Y-15287024D02*
X12687595Y-15315595D01*
X12687595Y-15315595D02*
X12668548Y-15334643D01*
X12668548Y-15334643D02*
X12649500Y-15344167D01*
X12839976Y-15287024D02*
X12839976Y-15325119D01*
X12916167Y-15287024D02*
X12916167Y-15325119D01*
X13211405Y-15563214D02*
X13201881Y-15553690D01*
X13201881Y-15553690D02*
X13182834Y-15525119D01*
X13182834Y-15525119D02*
X13173310Y-15506071D01*
X13173310Y-15506071D02*
X13163786Y-15477500D01*
X13163786Y-15477500D02*
X13154262Y-15429881D01*
X13154262Y-15429881D02*
X13154262Y-15391786D01*
X13154262Y-15391786D02*
X13163786Y-15344167D01*
X13163786Y-15344167D02*
X13173310Y-15315595D01*
X13173310Y-15315595D02*
X13182834Y-15296548D01*
X13182834Y-15296548D02*
X13201881Y-15267976D01*
X13201881Y-15267976D02*
X13211405Y-15258452D01*
X13382834Y-15287024D02*
X13287595Y-15287024D01*
X13287595Y-15287024D02*
X13278072Y-15382262D01*
X13278072Y-15382262D02*
X13287595Y-15372738D01*
X13287595Y-15372738D02*
X13306643Y-15363214D01*
X13306643Y-15363214D02*
X13354262Y-15363214D01*
X13354262Y-15363214D02*
X13373310Y-15372738D01*
X13373310Y-15372738D02*
X13382834Y-15382262D01*
X13382834Y-15382262D02*
X13392357Y-15401309D01*
X13392357Y-15401309D02*
X13392357Y-15448928D01*
X13392357Y-15448928D02*
X13382834Y-15467976D01*
X13382834Y-15467976D02*
X13373310Y-15477500D01*
X13373310Y-15477500D02*
X13354262Y-15487024D01*
X13354262Y-15487024D02*
X13306643Y-15487024D01*
X13306643Y-15487024D02*
X13287595Y-15477500D01*
X13287595Y-15477500D02*
X13278072Y-15467976D01*
X13468548Y-15306071D02*
X13478072Y-15296548D01*
X13478072Y-15296548D02*
X13497119Y-15287024D01*
X13497119Y-15287024D02*
X13544738Y-15287024D01*
X13544738Y-15287024D02*
X13563786Y-15296548D01*
X13563786Y-15296548D02*
X13573310Y-15306071D01*
X13573310Y-15306071D02*
X13582834Y-15325119D01*
X13582834Y-15325119D02*
X13582834Y-15344167D01*
X13582834Y-15344167D02*
X13573310Y-15372738D01*
X13573310Y-15372738D02*
X13459024Y-15487024D01*
X13459024Y-15487024D02*
X13582834Y-15487024D01*
X13820929Y-15487024D02*
X13820929Y-15287024D01*
X13906643Y-15487024D02*
X13906643Y-15382262D01*
X13906643Y-15382262D02*
X13897119Y-15363214D01*
X13897119Y-15363214D02*
X13878072Y-15353690D01*
X13878072Y-15353690D02*
X13849500Y-15353690D01*
X13849500Y-15353690D02*
X13830453Y-15363214D01*
X13830453Y-15363214D02*
X13820929Y-15372738D01*
X14030453Y-15487024D02*
X14011405Y-15477500D01*
X14011405Y-15477500D02*
X14001881Y-15467976D01*
X14001881Y-15467976D02*
X13992357Y-15448928D01*
X13992357Y-15448928D02*
X13992357Y-15391786D01*
X13992357Y-15391786D02*
X14001881Y-15372738D01*
X14001881Y-15372738D02*
X14011405Y-15363214D01*
X14011405Y-15363214D02*
X14030453Y-15353690D01*
X14030453Y-15353690D02*
X14059024Y-15353690D01*
X14059024Y-15353690D02*
X14078072Y-15363214D01*
X14078072Y-15363214D02*
X14087596Y-15372738D01*
X14087596Y-15372738D02*
X14097119Y-15391786D01*
X14097119Y-15391786D02*
X14097119Y-15448928D01*
X14097119Y-15448928D02*
X14087596Y-15467976D01*
X14087596Y-15467976D02*
X14078072Y-15477500D01*
X14078072Y-15477500D02*
X14059024Y-15487024D01*
X14059024Y-15487024D02*
X14030453Y-15487024D01*
X14211405Y-15487024D02*
X14192357Y-15477500D01*
X14192357Y-15477500D02*
X14182834Y-15458452D01*
X14182834Y-15458452D02*
X14182834Y-15287024D01*
X14363786Y-15477500D02*
X14344738Y-15487024D01*
X14344738Y-15487024D02*
X14306643Y-15487024D01*
X14306643Y-15487024D02*
X14287596Y-15477500D01*
X14287596Y-15477500D02*
X14278072Y-15458452D01*
X14278072Y-15458452D02*
X14278072Y-15382262D01*
X14278072Y-15382262D02*
X14287596Y-15363214D01*
X14287596Y-15363214D02*
X14306643Y-15353690D01*
X14306643Y-15353690D02*
X14344738Y-15353690D01*
X14344738Y-15353690D02*
X14363786Y-15363214D01*
X14363786Y-15363214D02*
X14373310Y-15382262D01*
X14373310Y-15382262D02*
X14373310Y-15401309D01*
X14373310Y-15401309D02*
X14278072Y-15420357D01*
X14449500Y-15477500D02*
X14468548Y-15487024D01*
X14468548Y-15487024D02*
X14506643Y-15487024D01*
X14506643Y-15487024D02*
X14525691Y-15477500D01*
X14525691Y-15477500D02*
X14535215Y-15458452D01*
X14535215Y-15458452D02*
X14535215Y-15448928D01*
X14535215Y-15448928D02*
X14525691Y-15429881D01*
X14525691Y-15429881D02*
X14506643Y-15420357D01*
X14506643Y-15420357D02*
X14478072Y-15420357D01*
X14478072Y-15420357D02*
X14459024Y-15410833D01*
X14459024Y-15410833D02*
X14449500Y-15391786D01*
X14449500Y-15391786D02*
X14449500Y-15382262D01*
X14449500Y-15382262D02*
X14459024Y-15363214D01*
X14459024Y-15363214D02*
X14478072Y-15353690D01*
X14478072Y-15353690D02*
X14506643Y-15353690D01*
X14506643Y-15353690D02*
X14525691Y-15363214D01*
X14601881Y-15563214D02*
X14611405Y-15553690D01*
X14611405Y-15553690D02*
X14630453Y-15525119D01*
X14630453Y-15525119D02*
X14639977Y-15506071D01*
X14639977Y-15506071D02*
X14649500Y-15477500D01*
X14649500Y-15477500D02*
X14659024Y-15429881D01*
X14659024Y-15429881D02*
X14659024Y-15391786D01*
X14659024Y-15391786D02*
X14649500Y-15344167D01*
X14649500Y-15344167D02*
X14639977Y-15315595D01*
X14639977Y-15315595D02*
X14630453Y-15296548D01*
X14630453Y-15296548D02*
X14611405Y-15267976D01*
X14611405Y-15267976D02*
X14601881Y-15258452D01*
D14*
X9636320Y-15690320D02*
X9636320Y-15626680D01*
X9572680Y-15626680D01*
X9572680Y-15690320D01*
X9636320Y-15690320D01*
D11*
X9935214Y-15551024D02*
X9954262Y-15551024D01*
X9954262Y-15551024D02*
X9973310Y-15560548D01*
X9973310Y-15560548D02*
X9982833Y-15570071D01*
X9982833Y-15570071D02*
X9992357Y-15589119D01*
X9992357Y-15589119D02*
X10001881Y-15627214D01*
X10001881Y-15627214D02*
X10001881Y-15674833D01*
X10001881Y-15674833D02*
X9992357Y-15712928D01*
X9992357Y-15712928D02*
X9982833Y-15731976D01*
X9982833Y-15731976D02*
X9973310Y-15741500D01*
X9973310Y-15741500D02*
X9954262Y-15751024D01*
X9954262Y-15751024D02*
X9935214Y-15751024D01*
X9935214Y-15751024D02*
X9916167Y-15741500D01*
X9916167Y-15741500D02*
X9906643Y-15731976D01*
X9906643Y-15731976D02*
X9897119Y-15712928D01*
X9897119Y-15712928D02*
X9887595Y-15674833D01*
X9887595Y-15674833D02*
X9887595Y-15627214D01*
X9887595Y-15627214D02*
X9897119Y-15589119D01*
X9897119Y-15589119D02*
X9906643Y-15570071D01*
X9906643Y-15570071D02*
X9916167Y-15560548D01*
X9916167Y-15560548D02*
X9935214Y-15551024D01*
X10087595Y-15731976D02*
X10097119Y-15741500D01*
X10097119Y-15741500D02*
X10087595Y-15751024D01*
X10087595Y-15751024D02*
X10078071Y-15741500D01*
X10078071Y-15741500D02*
X10087595Y-15731976D01*
X10087595Y-15731976D02*
X10087595Y-15751024D01*
X10192357Y-15751024D02*
X10230452Y-15751024D01*
X10230452Y-15751024D02*
X10249500Y-15741500D01*
X10249500Y-15741500D02*
X10259024Y-15731976D01*
X10259024Y-15731976D02*
X10278071Y-15703405D01*
X10278071Y-15703405D02*
X10287595Y-15665309D01*
X10287595Y-15665309D02*
X10287595Y-15589119D01*
X10287595Y-15589119D02*
X10278071Y-15570071D01*
X10278071Y-15570071D02*
X10268548Y-15560548D01*
X10268548Y-15560548D02*
X10249500Y-15551024D01*
X10249500Y-15551024D02*
X10211405Y-15551024D01*
X10211405Y-15551024D02*
X10192357Y-15560548D01*
X10192357Y-15560548D02*
X10182833Y-15570071D01*
X10182833Y-15570071D02*
X10173310Y-15589119D01*
X10173310Y-15589119D02*
X10173310Y-15636738D01*
X10173310Y-15636738D02*
X10182833Y-15655786D01*
X10182833Y-15655786D02*
X10192357Y-15665309D01*
X10192357Y-15665309D02*
X10211405Y-15674833D01*
X10211405Y-15674833D02*
X10249500Y-15674833D01*
X10249500Y-15674833D02*
X10268548Y-15665309D01*
X10268548Y-15665309D02*
X10278071Y-15655786D01*
X10278071Y-15655786D02*
X10287595Y-15636738D01*
X10411405Y-15551024D02*
X10430452Y-15551024D01*
X10430452Y-15551024D02*
X10449500Y-15560548D01*
X10449500Y-15560548D02*
X10459024Y-15570071D01*
X10459024Y-15570071D02*
X10468548Y-15589119D01*
X10468548Y-15589119D02*
X10478071Y-15627214D01*
X10478071Y-15627214D02*
X10478071Y-15674833D01*
X10478071Y-15674833D02*
X10468548Y-15712928D01*
X10468548Y-15712928D02*
X10459024Y-15731976D01*
X10459024Y-15731976D02*
X10449500Y-15741500D01*
X10449500Y-15741500D02*
X10430452Y-15751024D01*
X10430452Y-15751024D02*
X10411405Y-15751024D01*
X10411405Y-15751024D02*
X10392357Y-15741500D01*
X10392357Y-15741500D02*
X10382833Y-15731976D01*
X10382833Y-15731976D02*
X10373310Y-15712928D01*
X10373310Y-15712928D02*
X10363786Y-15674833D01*
X10363786Y-15674833D02*
X10363786Y-15627214D01*
X10363786Y-15627214D02*
X10373310Y-15589119D01*
X10373310Y-15589119D02*
X10382833Y-15570071D01*
X10382833Y-15570071D02*
X10392357Y-15560548D01*
X10392357Y-15560548D02*
X10411405Y-15551024D01*
X10601881Y-15551024D02*
X10620929Y-15551024D01*
X10620929Y-15551024D02*
X10639976Y-15560548D01*
X10639976Y-15560548D02*
X10649500Y-15570071D01*
X10649500Y-15570071D02*
X10659024Y-15589119D01*
X10659024Y-15589119D02*
X10668548Y-15627214D01*
X10668548Y-15627214D02*
X10668548Y-15674833D01*
X10668548Y-15674833D02*
X10659024Y-15712928D01*
X10659024Y-15712928D02*
X10649500Y-15731976D01*
X10649500Y-15731976D02*
X10639976Y-15741500D01*
X10639976Y-15741500D02*
X10620929Y-15751024D01*
X10620929Y-15751024D02*
X10601881Y-15751024D01*
X10601881Y-15751024D02*
X10582833Y-15741500D01*
X10582833Y-15741500D02*
X10573310Y-15731976D01*
X10573310Y-15731976D02*
X10563786Y-15712928D01*
X10563786Y-15712928D02*
X10554262Y-15674833D01*
X10554262Y-15674833D02*
X10554262Y-15627214D01*
X10554262Y-15627214D02*
X10563786Y-15589119D01*
X10563786Y-15589119D02*
X10573310Y-15570071D01*
X10573310Y-15570071D02*
X10582833Y-15560548D01*
X10582833Y-15560548D02*
X10601881Y-15551024D01*
X10754262Y-15751024D02*
X10754262Y-15617690D01*
X10754262Y-15636738D02*
X10763786Y-15627214D01*
X10763786Y-15627214D02*
X10782833Y-15617690D01*
X10782833Y-15617690D02*
X10811405Y-15617690D01*
X10811405Y-15617690D02*
X10830452Y-15627214D01*
X10830452Y-15627214D02*
X10839976Y-15646262D01*
X10839976Y-15646262D02*
X10839976Y-15751024D01*
X10839976Y-15646262D02*
X10849500Y-15627214D01*
X10849500Y-15627214D02*
X10868548Y-15617690D01*
X10868548Y-15617690D02*
X10897119Y-15617690D01*
X10897119Y-15617690D02*
X10916167Y-15627214D01*
X10916167Y-15627214D02*
X10925691Y-15646262D01*
X10925691Y-15646262D02*
X10925691Y-15751024D01*
X11020929Y-15751024D02*
X11020929Y-15617690D01*
X11020929Y-15636738D02*
X11030452Y-15627214D01*
X11030452Y-15627214D02*
X11049500Y-15617690D01*
X11049500Y-15617690D02*
X11078072Y-15617690D01*
X11078072Y-15617690D02*
X11097119Y-15627214D01*
X11097119Y-15627214D02*
X11106643Y-15646262D01*
X11106643Y-15646262D02*
X11106643Y-15751024D01*
X11106643Y-15646262D02*
X11116167Y-15627214D01*
X11116167Y-15627214D02*
X11135214Y-15617690D01*
X11135214Y-15617690D02*
X11163786Y-15617690D01*
X11163786Y-15617690D02*
X11182833Y-15627214D01*
X11182833Y-15627214D02*
X11192357Y-15646262D01*
X11192357Y-15646262D02*
X11192357Y-15751024D01*
X11582833Y-15541500D02*
X11411405Y-15798643D01*
X11839976Y-15551024D02*
X11859024Y-15551024D01*
X11859024Y-15551024D02*
X11878072Y-15560548D01*
X11878072Y-15560548D02*
X11887595Y-15570071D01*
X11887595Y-15570071D02*
X11897119Y-15589119D01*
X11897119Y-15589119D02*
X11906643Y-15627214D01*
X11906643Y-15627214D02*
X11906643Y-15674833D01*
X11906643Y-15674833D02*
X11897119Y-15712928D01*
X11897119Y-15712928D02*
X11887595Y-15731976D01*
X11887595Y-15731976D02*
X11878072Y-15741500D01*
X11878072Y-15741500D02*
X11859024Y-15751024D01*
X11859024Y-15751024D02*
X11839976Y-15751024D01*
X11839976Y-15751024D02*
X11820929Y-15741500D01*
X11820929Y-15741500D02*
X11811405Y-15731976D01*
X11811405Y-15731976D02*
X11801881Y-15712928D01*
X11801881Y-15712928D02*
X11792357Y-15674833D01*
X11792357Y-15674833D02*
X11792357Y-15627214D01*
X11792357Y-15627214D02*
X11801881Y-15589119D01*
X11801881Y-15589119D02*
X11811405Y-15570071D01*
X11811405Y-15570071D02*
X11820929Y-15560548D01*
X11820929Y-15560548D02*
X11839976Y-15551024D01*
X11992357Y-15731976D02*
X12001881Y-15741500D01*
X12001881Y-15741500D02*
X11992357Y-15751024D01*
X11992357Y-15751024D02*
X11982833Y-15741500D01*
X11982833Y-15741500D02*
X11992357Y-15731976D01*
X11992357Y-15731976D02*
X11992357Y-15751024D01*
X12125691Y-15551024D02*
X12144738Y-15551024D01*
X12144738Y-15551024D02*
X12163786Y-15560548D01*
X12163786Y-15560548D02*
X12173310Y-15570071D01*
X12173310Y-15570071D02*
X12182833Y-15589119D01*
X12182833Y-15589119D02*
X12192357Y-15627214D01*
X12192357Y-15627214D02*
X12192357Y-15674833D01*
X12192357Y-15674833D02*
X12182833Y-15712928D01*
X12182833Y-15712928D02*
X12173310Y-15731976D01*
X12173310Y-15731976D02*
X12163786Y-15741500D01*
X12163786Y-15741500D02*
X12144738Y-15751024D01*
X12144738Y-15751024D02*
X12125691Y-15751024D01*
X12125691Y-15751024D02*
X12106643Y-15741500D01*
X12106643Y-15741500D02*
X12097119Y-15731976D01*
X12097119Y-15731976D02*
X12087595Y-15712928D01*
X12087595Y-15712928D02*
X12078072Y-15674833D01*
X12078072Y-15674833D02*
X12078072Y-15627214D01*
X12078072Y-15627214D02*
X12087595Y-15589119D01*
X12087595Y-15589119D02*
X12097119Y-15570071D01*
X12097119Y-15570071D02*
X12106643Y-15560548D01*
X12106643Y-15560548D02*
X12125691Y-15551024D01*
X12259024Y-15551024D02*
X12382833Y-15551024D01*
X12382833Y-15551024D02*
X12316167Y-15627214D01*
X12316167Y-15627214D02*
X12344738Y-15627214D01*
X12344738Y-15627214D02*
X12363786Y-15636738D01*
X12363786Y-15636738D02*
X12373310Y-15646262D01*
X12373310Y-15646262D02*
X12382833Y-15665309D01*
X12382833Y-15665309D02*
X12382833Y-15712928D01*
X12382833Y-15712928D02*
X12373310Y-15731976D01*
X12373310Y-15731976D02*
X12363786Y-15741500D01*
X12363786Y-15741500D02*
X12344738Y-15751024D01*
X12344738Y-15751024D02*
X12287595Y-15751024D01*
X12287595Y-15751024D02*
X12268548Y-15741500D01*
X12268548Y-15741500D02*
X12259024Y-15731976D01*
X12563786Y-15551024D02*
X12468548Y-15551024D01*
X12468548Y-15551024D02*
X12459024Y-15646262D01*
X12459024Y-15646262D02*
X12468548Y-15636738D01*
X12468548Y-15636738D02*
X12487595Y-15627214D01*
X12487595Y-15627214D02*
X12535214Y-15627214D01*
X12535214Y-15627214D02*
X12554262Y-15636738D01*
X12554262Y-15636738D02*
X12563786Y-15646262D01*
X12563786Y-15646262D02*
X12573310Y-15665309D01*
X12573310Y-15665309D02*
X12573310Y-15712928D01*
X12573310Y-15712928D02*
X12563786Y-15731976D01*
X12563786Y-15731976D02*
X12554262Y-15741500D01*
X12554262Y-15741500D02*
X12535214Y-15751024D01*
X12535214Y-15751024D02*
X12487595Y-15751024D01*
X12487595Y-15751024D02*
X12468548Y-15741500D01*
X12468548Y-15741500D02*
X12459024Y-15731976D01*
X12744738Y-15617690D02*
X12744738Y-15751024D01*
X12697119Y-15541500D02*
X12649500Y-15684357D01*
X12649500Y-15684357D02*
X12773310Y-15684357D01*
X12839976Y-15551024D02*
X12839976Y-15589119D01*
X12916167Y-15551024D02*
X12916167Y-15589119D01*
X13211405Y-15827214D02*
X13201881Y-15817690D01*
X13201881Y-15817690D02*
X13182834Y-15789119D01*
X13182834Y-15789119D02*
X13173310Y-15770071D01*
X13173310Y-15770071D02*
X13163786Y-15741500D01*
X13163786Y-15741500D02*
X13154262Y-15693881D01*
X13154262Y-15693881D02*
X13154262Y-15655786D01*
X13154262Y-15655786D02*
X13163786Y-15608167D01*
X13163786Y-15608167D02*
X13173310Y-15579595D01*
X13173310Y-15579595D02*
X13182834Y-15560548D01*
X13182834Y-15560548D02*
X13201881Y-15531976D01*
X13201881Y-15531976D02*
X13211405Y-15522452D01*
X13373310Y-15551024D02*
X13335214Y-15551024D01*
X13335214Y-15551024D02*
X13316167Y-15560548D01*
X13316167Y-15560548D02*
X13306643Y-15570071D01*
X13306643Y-15570071D02*
X13287595Y-15598643D01*
X13287595Y-15598643D02*
X13278072Y-15636738D01*
X13278072Y-15636738D02*
X13278072Y-15712928D01*
X13278072Y-15712928D02*
X13287595Y-15731976D01*
X13287595Y-15731976D02*
X13297119Y-15741500D01*
X13297119Y-15741500D02*
X13316167Y-15751024D01*
X13316167Y-15751024D02*
X13354262Y-15751024D01*
X13354262Y-15751024D02*
X13373310Y-15741500D01*
X13373310Y-15741500D02*
X13382834Y-15731976D01*
X13382834Y-15731976D02*
X13392357Y-15712928D01*
X13392357Y-15712928D02*
X13392357Y-15665309D01*
X13392357Y-15665309D02*
X13382834Y-15646262D01*
X13382834Y-15646262D02*
X13373310Y-15636738D01*
X13373310Y-15636738D02*
X13354262Y-15627214D01*
X13354262Y-15627214D02*
X13316167Y-15627214D01*
X13316167Y-15627214D02*
X13297119Y-15636738D01*
X13297119Y-15636738D02*
X13287595Y-15646262D01*
X13287595Y-15646262D02*
X13278072Y-15665309D01*
X13563786Y-15617690D02*
X13563786Y-15751024D01*
X13516167Y-15541500D02*
X13468548Y-15684357D01*
X13468548Y-15684357D02*
X13592357Y-15684357D01*
X13820929Y-15751024D02*
X13820929Y-15551024D01*
X13906643Y-15751024D02*
X13906643Y-15646262D01*
X13906643Y-15646262D02*
X13897119Y-15627214D01*
X13897119Y-15627214D02*
X13878072Y-15617690D01*
X13878072Y-15617690D02*
X13849500Y-15617690D01*
X13849500Y-15617690D02*
X13830453Y-15627214D01*
X13830453Y-15627214D02*
X13820929Y-15636738D01*
X14030453Y-15751024D02*
X14011405Y-15741500D01*
X14011405Y-15741500D02*
X14001881Y-15731976D01*
X14001881Y-15731976D02*
X13992357Y-15712928D01*
X13992357Y-15712928D02*
X13992357Y-15655786D01*
X13992357Y-15655786D02*
X14001881Y-15636738D01*
X14001881Y-15636738D02*
X14011405Y-15627214D01*
X14011405Y-15627214D02*
X14030453Y-15617690D01*
X14030453Y-15617690D02*
X14059024Y-15617690D01*
X14059024Y-15617690D02*
X14078072Y-15627214D01*
X14078072Y-15627214D02*
X14087596Y-15636738D01*
X14087596Y-15636738D02*
X14097119Y-15655786D01*
X14097119Y-15655786D02*
X14097119Y-15712928D01*
X14097119Y-15712928D02*
X14087596Y-15731976D01*
X14087596Y-15731976D02*
X14078072Y-15741500D01*
X14078072Y-15741500D02*
X14059024Y-15751024D01*
X14059024Y-15751024D02*
X14030453Y-15751024D01*
X14211405Y-15751024D02*
X14192357Y-15741500D01*
X14192357Y-15741500D02*
X14182834Y-15722452D01*
X14182834Y-15722452D02*
X14182834Y-15551024D01*
X14363786Y-15741500D02*
X14344738Y-15751024D01*
X14344738Y-15751024D02*
X14306643Y-15751024D01*
X14306643Y-15751024D02*
X14287596Y-15741500D01*
X14287596Y-15741500D02*
X14278072Y-15722452D01*
X14278072Y-15722452D02*
X14278072Y-15646262D01*
X14278072Y-15646262D02*
X14287596Y-15627214D01*
X14287596Y-15627214D02*
X14306643Y-15617690D01*
X14306643Y-15617690D02*
X14344738Y-15617690D01*
X14344738Y-15617690D02*
X14363786Y-15627214D01*
X14363786Y-15627214D02*
X14373310Y-15646262D01*
X14373310Y-15646262D02*
X14373310Y-15665309D01*
X14373310Y-15665309D02*
X14278072Y-15684357D01*
X14449500Y-15741500D02*
X14468548Y-15751024D01*
X14468548Y-15751024D02*
X14506643Y-15751024D01*
X14506643Y-15751024D02*
X14525691Y-15741500D01*
X14525691Y-15741500D02*
X14535215Y-15722452D01*
X14535215Y-15722452D02*
X14535215Y-15712928D01*
X14535215Y-15712928D02*
X14525691Y-15693881D01*
X14525691Y-15693881D02*
X14506643Y-15684357D01*
X14506643Y-15684357D02*
X14478072Y-15684357D01*
X14478072Y-15684357D02*
X14459024Y-15674833D01*
X14459024Y-15674833D02*
X14449500Y-15655786D01*
X14449500Y-15655786D02*
X14449500Y-15646262D01*
X14449500Y-15646262D02*
X14459024Y-15627214D01*
X14459024Y-15627214D02*
X14478072Y-15617690D01*
X14478072Y-15617690D02*
X14506643Y-15617690D01*
X14506643Y-15617690D02*
X14525691Y-15627214D01*
X14601881Y-15827214D02*
X14611405Y-15817690D01*
X14611405Y-15817690D02*
X14630453Y-15789119D01*
X14630453Y-15789119D02*
X14639977Y-15770071D01*
X14639977Y-15770071D02*
X14649500Y-15741500D01*
X14649500Y-15741500D02*
X14659024Y-15693881D01*
X14659024Y-15693881D02*
X14659024Y-15655786D01*
X14659024Y-15655786D02*
X14649500Y-15608167D01*
X14649500Y-15608167D02*
X14639977Y-15579595D01*
X14639977Y-15579595D02*
X14630453Y-15560548D01*
X14630453Y-15560548D02*
X14611405Y-15531976D01*
X14611405Y-15531976D02*
X14601881Y-15522452D01*
D15*
X9599500Y-15972500D02*
X9649500Y-15922500D01*
X9599500Y-15872500D01*
X9549500Y-15922500D01*
X9599500Y-15972500D01*
D11*
X10001881Y-16015024D02*
X9887595Y-16015024D01*
X9944738Y-16015024D02*
X9944738Y-15815024D01*
X9944738Y-15815024D02*
X9925690Y-15843595D01*
X9925690Y-15843595D02*
X9906643Y-15862643D01*
X9906643Y-15862643D02*
X9887595Y-15872167D01*
X10087595Y-15995976D02*
X10097119Y-16005500D01*
X10097119Y-16005500D02*
X10087595Y-16015024D01*
X10087595Y-16015024D02*
X10078071Y-16005500D01*
X10078071Y-16005500D02*
X10087595Y-15995976D01*
X10087595Y-15995976D02*
X10087595Y-16015024D01*
X10220929Y-15815024D02*
X10239976Y-15815024D01*
X10239976Y-15815024D02*
X10259024Y-15824548D01*
X10259024Y-15824548D02*
X10268548Y-15834071D01*
X10268548Y-15834071D02*
X10278071Y-15853119D01*
X10278071Y-15853119D02*
X10287595Y-15891214D01*
X10287595Y-15891214D02*
X10287595Y-15938833D01*
X10287595Y-15938833D02*
X10278071Y-15976928D01*
X10278071Y-15976928D02*
X10268548Y-15995976D01*
X10268548Y-15995976D02*
X10259024Y-16005500D01*
X10259024Y-16005500D02*
X10239976Y-16015024D01*
X10239976Y-16015024D02*
X10220929Y-16015024D01*
X10220929Y-16015024D02*
X10201881Y-16005500D01*
X10201881Y-16005500D02*
X10192357Y-15995976D01*
X10192357Y-15995976D02*
X10182833Y-15976928D01*
X10182833Y-15976928D02*
X10173310Y-15938833D01*
X10173310Y-15938833D02*
X10173310Y-15891214D01*
X10173310Y-15891214D02*
X10182833Y-15853119D01*
X10182833Y-15853119D02*
X10192357Y-15834071D01*
X10192357Y-15834071D02*
X10201881Y-15824548D01*
X10201881Y-15824548D02*
X10220929Y-15815024D01*
X10411405Y-15815024D02*
X10430452Y-15815024D01*
X10430452Y-15815024D02*
X10449500Y-15824548D01*
X10449500Y-15824548D02*
X10459024Y-15834071D01*
X10459024Y-15834071D02*
X10468548Y-15853119D01*
X10468548Y-15853119D02*
X10478071Y-15891214D01*
X10478071Y-15891214D02*
X10478071Y-15938833D01*
X10478071Y-15938833D02*
X10468548Y-15976928D01*
X10468548Y-15976928D02*
X10459024Y-15995976D01*
X10459024Y-15995976D02*
X10449500Y-16005500D01*
X10449500Y-16005500D02*
X10430452Y-16015024D01*
X10430452Y-16015024D02*
X10411405Y-16015024D01*
X10411405Y-16015024D02*
X10392357Y-16005500D01*
X10392357Y-16005500D02*
X10382833Y-15995976D01*
X10382833Y-15995976D02*
X10373310Y-15976928D01*
X10373310Y-15976928D02*
X10363786Y-15938833D01*
X10363786Y-15938833D02*
X10363786Y-15891214D01*
X10363786Y-15891214D02*
X10373310Y-15853119D01*
X10373310Y-15853119D02*
X10382833Y-15834071D01*
X10382833Y-15834071D02*
X10392357Y-15824548D01*
X10392357Y-15824548D02*
X10411405Y-15815024D01*
X10601881Y-15815024D02*
X10620929Y-15815024D01*
X10620929Y-15815024D02*
X10639976Y-15824548D01*
X10639976Y-15824548D02*
X10649500Y-15834071D01*
X10649500Y-15834071D02*
X10659024Y-15853119D01*
X10659024Y-15853119D02*
X10668548Y-15891214D01*
X10668548Y-15891214D02*
X10668548Y-15938833D01*
X10668548Y-15938833D02*
X10659024Y-15976928D01*
X10659024Y-15976928D02*
X10649500Y-15995976D01*
X10649500Y-15995976D02*
X10639976Y-16005500D01*
X10639976Y-16005500D02*
X10620929Y-16015024D01*
X10620929Y-16015024D02*
X10601881Y-16015024D01*
X10601881Y-16015024D02*
X10582833Y-16005500D01*
X10582833Y-16005500D02*
X10573310Y-15995976D01*
X10573310Y-15995976D02*
X10563786Y-15976928D01*
X10563786Y-15976928D02*
X10554262Y-15938833D01*
X10554262Y-15938833D02*
X10554262Y-15891214D01*
X10554262Y-15891214D02*
X10563786Y-15853119D01*
X10563786Y-15853119D02*
X10573310Y-15834071D01*
X10573310Y-15834071D02*
X10582833Y-15824548D01*
X10582833Y-15824548D02*
X10601881Y-15815024D01*
X10754262Y-16015024D02*
X10754262Y-15881690D01*
X10754262Y-15900738D02*
X10763786Y-15891214D01*
X10763786Y-15891214D02*
X10782833Y-15881690D01*
X10782833Y-15881690D02*
X10811405Y-15881690D01*
X10811405Y-15881690D02*
X10830452Y-15891214D01*
X10830452Y-15891214D02*
X10839976Y-15910262D01*
X10839976Y-15910262D02*
X10839976Y-16015024D01*
X10839976Y-15910262D02*
X10849500Y-15891214D01*
X10849500Y-15891214D02*
X10868548Y-15881690D01*
X10868548Y-15881690D02*
X10897119Y-15881690D01*
X10897119Y-15881690D02*
X10916167Y-15891214D01*
X10916167Y-15891214D02*
X10925691Y-15910262D01*
X10925691Y-15910262D02*
X10925691Y-16015024D01*
X11020929Y-16015024D02*
X11020929Y-15881690D01*
X11020929Y-15900738D02*
X11030452Y-15891214D01*
X11030452Y-15891214D02*
X11049500Y-15881690D01*
X11049500Y-15881690D02*
X11078072Y-15881690D01*
X11078072Y-15881690D02*
X11097119Y-15891214D01*
X11097119Y-15891214D02*
X11106643Y-15910262D01*
X11106643Y-15910262D02*
X11106643Y-16015024D01*
X11106643Y-15910262D02*
X11116167Y-15891214D01*
X11116167Y-15891214D02*
X11135214Y-15881690D01*
X11135214Y-15881690D02*
X11163786Y-15881690D01*
X11163786Y-15881690D02*
X11182833Y-15891214D01*
X11182833Y-15891214D02*
X11192357Y-15910262D01*
X11192357Y-15910262D02*
X11192357Y-16015024D01*
X11582833Y-15805500D02*
X11411405Y-16062643D01*
X11839976Y-15815024D02*
X11859024Y-15815024D01*
X11859024Y-15815024D02*
X11878072Y-15824548D01*
X11878072Y-15824548D02*
X11887595Y-15834071D01*
X11887595Y-15834071D02*
X11897119Y-15853119D01*
X11897119Y-15853119D02*
X11906643Y-15891214D01*
X11906643Y-15891214D02*
X11906643Y-15938833D01*
X11906643Y-15938833D02*
X11897119Y-15976928D01*
X11897119Y-15976928D02*
X11887595Y-15995976D01*
X11887595Y-15995976D02*
X11878072Y-16005500D01*
X11878072Y-16005500D02*
X11859024Y-16015024D01*
X11859024Y-16015024D02*
X11839976Y-16015024D01*
X11839976Y-16015024D02*
X11820929Y-16005500D01*
X11820929Y-16005500D02*
X11811405Y-15995976D01*
X11811405Y-15995976D02*
X11801881Y-15976928D01*
X11801881Y-15976928D02*
X11792357Y-15938833D01*
X11792357Y-15938833D02*
X11792357Y-15891214D01*
X11792357Y-15891214D02*
X11801881Y-15853119D01*
X11801881Y-15853119D02*
X11811405Y-15834071D01*
X11811405Y-15834071D02*
X11820929Y-15824548D01*
X11820929Y-15824548D02*
X11839976Y-15815024D01*
X11992357Y-15995976D02*
X12001881Y-16005500D01*
X12001881Y-16005500D02*
X11992357Y-16015024D01*
X11992357Y-16015024D02*
X11982833Y-16005500D01*
X11982833Y-16005500D02*
X11992357Y-15995976D01*
X11992357Y-15995976D02*
X11992357Y-16015024D01*
X12125691Y-15815024D02*
X12144738Y-15815024D01*
X12144738Y-15815024D02*
X12163786Y-15824548D01*
X12163786Y-15824548D02*
X12173310Y-15834071D01*
X12173310Y-15834071D02*
X12182833Y-15853119D01*
X12182833Y-15853119D02*
X12192357Y-15891214D01*
X12192357Y-15891214D02*
X12192357Y-15938833D01*
X12192357Y-15938833D02*
X12182833Y-15976928D01*
X12182833Y-15976928D02*
X12173310Y-15995976D01*
X12173310Y-15995976D02*
X12163786Y-16005500D01*
X12163786Y-16005500D02*
X12144738Y-16015024D01*
X12144738Y-16015024D02*
X12125691Y-16015024D01*
X12125691Y-16015024D02*
X12106643Y-16005500D01*
X12106643Y-16005500D02*
X12097119Y-15995976D01*
X12097119Y-15995976D02*
X12087595Y-15976928D01*
X12087595Y-15976928D02*
X12078072Y-15938833D01*
X12078072Y-15938833D02*
X12078072Y-15891214D01*
X12078072Y-15891214D02*
X12087595Y-15853119D01*
X12087595Y-15853119D02*
X12097119Y-15834071D01*
X12097119Y-15834071D02*
X12106643Y-15824548D01*
X12106643Y-15824548D02*
X12125691Y-15815024D01*
X12259024Y-15815024D02*
X12382833Y-15815024D01*
X12382833Y-15815024D02*
X12316167Y-15891214D01*
X12316167Y-15891214D02*
X12344738Y-15891214D01*
X12344738Y-15891214D02*
X12363786Y-15900738D01*
X12363786Y-15900738D02*
X12373310Y-15910262D01*
X12373310Y-15910262D02*
X12382833Y-15929309D01*
X12382833Y-15929309D02*
X12382833Y-15976928D01*
X12382833Y-15976928D02*
X12373310Y-15995976D01*
X12373310Y-15995976D02*
X12363786Y-16005500D01*
X12363786Y-16005500D02*
X12344738Y-16015024D01*
X12344738Y-16015024D02*
X12287595Y-16015024D01*
X12287595Y-16015024D02*
X12268548Y-16005500D01*
X12268548Y-16005500D02*
X12259024Y-15995976D01*
X12478072Y-16015024D02*
X12516167Y-16015024D01*
X12516167Y-16015024D02*
X12535214Y-16005500D01*
X12535214Y-16005500D02*
X12544738Y-15995976D01*
X12544738Y-15995976D02*
X12563786Y-15967405D01*
X12563786Y-15967405D02*
X12573310Y-15929309D01*
X12573310Y-15929309D02*
X12573310Y-15853119D01*
X12573310Y-15853119D02*
X12563786Y-15834071D01*
X12563786Y-15834071D02*
X12554262Y-15824548D01*
X12554262Y-15824548D02*
X12535214Y-15815024D01*
X12535214Y-15815024D02*
X12497119Y-15815024D01*
X12497119Y-15815024D02*
X12478072Y-15824548D01*
X12478072Y-15824548D02*
X12468548Y-15834071D01*
X12468548Y-15834071D02*
X12459024Y-15853119D01*
X12459024Y-15853119D02*
X12459024Y-15900738D01*
X12459024Y-15900738D02*
X12468548Y-15919786D01*
X12468548Y-15919786D02*
X12478072Y-15929309D01*
X12478072Y-15929309D02*
X12497119Y-15938833D01*
X12497119Y-15938833D02*
X12535214Y-15938833D01*
X12535214Y-15938833D02*
X12554262Y-15929309D01*
X12554262Y-15929309D02*
X12563786Y-15919786D01*
X12563786Y-15919786D02*
X12573310Y-15900738D01*
X12744738Y-15881690D02*
X12744738Y-16015024D01*
X12697119Y-15805500D02*
X12649500Y-15948357D01*
X12649500Y-15948357D02*
X12773310Y-15948357D01*
X12839976Y-15815024D02*
X12839976Y-15853119D01*
X12916167Y-15815024D02*
X12916167Y-15853119D01*
X13211405Y-16091214D02*
X13201881Y-16081690D01*
X13201881Y-16081690D02*
X13182834Y-16053119D01*
X13182834Y-16053119D02*
X13173310Y-16034071D01*
X13173310Y-16034071D02*
X13163786Y-16005500D01*
X13163786Y-16005500D02*
X13154262Y-15957881D01*
X13154262Y-15957881D02*
X13154262Y-15919786D01*
X13154262Y-15919786D02*
X13163786Y-15872167D01*
X13163786Y-15872167D02*
X13173310Y-15843595D01*
X13173310Y-15843595D02*
X13182834Y-15824548D01*
X13182834Y-15824548D02*
X13201881Y-15795976D01*
X13201881Y-15795976D02*
X13211405Y-15786452D01*
X13373310Y-15881690D02*
X13373310Y-16015024D01*
X13325691Y-15805500D02*
X13278072Y-15948357D01*
X13278072Y-15948357D02*
X13401881Y-15948357D01*
X13630453Y-16015024D02*
X13630453Y-15815024D01*
X13716167Y-16015024D02*
X13716167Y-15910262D01*
X13716167Y-15910262D02*
X13706643Y-15891214D01*
X13706643Y-15891214D02*
X13687596Y-15881690D01*
X13687596Y-15881690D02*
X13659024Y-15881690D01*
X13659024Y-15881690D02*
X13639976Y-15891214D01*
X13639976Y-15891214D02*
X13630453Y-15900738D01*
X13839976Y-16015024D02*
X13820929Y-16005500D01*
X13820929Y-16005500D02*
X13811405Y-15995976D01*
X13811405Y-15995976D02*
X13801881Y-15976928D01*
X13801881Y-15976928D02*
X13801881Y-15919786D01*
X13801881Y-15919786D02*
X13811405Y-15900738D01*
X13811405Y-15900738D02*
X13820929Y-15891214D01*
X13820929Y-15891214D02*
X13839976Y-15881690D01*
X13839976Y-15881690D02*
X13868548Y-15881690D01*
X13868548Y-15881690D02*
X13887596Y-15891214D01*
X13887596Y-15891214D02*
X13897119Y-15900738D01*
X13897119Y-15900738D02*
X13906643Y-15919786D01*
X13906643Y-15919786D02*
X13906643Y-15976928D01*
X13906643Y-15976928D02*
X13897119Y-15995976D01*
X13897119Y-15995976D02*
X13887596Y-16005500D01*
X13887596Y-16005500D02*
X13868548Y-16015024D01*
X13868548Y-16015024D02*
X13839976Y-16015024D01*
X14020929Y-16015024D02*
X14001881Y-16005500D01*
X14001881Y-16005500D02*
X13992357Y-15986452D01*
X13992357Y-15986452D02*
X13992357Y-15815024D01*
X14173310Y-16005500D02*
X14154262Y-16015024D01*
X14154262Y-16015024D02*
X14116167Y-16015024D01*
X14116167Y-16015024D02*
X14097119Y-16005500D01*
X14097119Y-16005500D02*
X14087596Y-15986452D01*
X14087596Y-15986452D02*
X14087596Y-15910262D01*
X14087596Y-15910262D02*
X14097119Y-15891214D01*
X14097119Y-15891214D02*
X14116167Y-15881690D01*
X14116167Y-15881690D02*
X14154262Y-15881690D01*
X14154262Y-15881690D02*
X14173310Y-15891214D01*
X14173310Y-15891214D02*
X14182834Y-15910262D01*
X14182834Y-15910262D02*
X14182834Y-15929309D01*
X14182834Y-15929309D02*
X14087596Y-15948357D01*
X14259024Y-16005500D02*
X14278072Y-16015024D01*
X14278072Y-16015024D02*
X14316167Y-16015024D01*
X14316167Y-16015024D02*
X14335215Y-16005500D01*
X14335215Y-16005500D02*
X14344738Y-15986452D01*
X14344738Y-15986452D02*
X14344738Y-15976928D01*
X14344738Y-15976928D02*
X14335215Y-15957881D01*
X14335215Y-15957881D02*
X14316167Y-15948357D01*
X14316167Y-15948357D02*
X14287596Y-15948357D01*
X14287596Y-15948357D02*
X14268548Y-15938833D01*
X14268548Y-15938833D02*
X14259024Y-15919786D01*
X14259024Y-15919786D02*
X14259024Y-15910262D01*
X14259024Y-15910262D02*
X14268548Y-15891214D01*
X14268548Y-15891214D02*
X14287596Y-15881690D01*
X14287596Y-15881690D02*
X14316167Y-15881690D01*
X14316167Y-15881690D02*
X14335215Y-15891214D01*
X14411405Y-16091214D02*
X14420929Y-16081690D01*
X14420929Y-16081690D02*
X14439977Y-16053119D01*
X14439977Y-16053119D02*
X14449500Y-16034071D01*
X14449500Y-16034071D02*
X14459024Y-16005500D01*
X14459024Y-16005500D02*
X14468548Y-15957881D01*
X14468548Y-15957881D02*
X14468548Y-15919786D01*
X14468548Y-15919786D02*
X14459024Y-15872167D01*
X14459024Y-15872167D02*
X14449500Y-15843595D01*
X14449500Y-15843595D02*
X14439977Y-15824548D01*
X14439977Y-15824548D02*
X14420929Y-15795976D01*
X14420929Y-15795976D02*
X14411405Y-15786452D01*
D16*
X9539500Y-16131500D02*
X9649500Y-16241500D01*
X9649500Y-16131500D02*
X9539500Y-16241500D01*
X9649500Y-16186500D02*
G75*
G03*
X9649500Y-16186500I-55000J0D01*
G01*
D11*
X10001881Y-16279024D02*
X9887595Y-16279024D01*
X9944738Y-16279024D02*
X9944738Y-16079024D01*
X9944738Y-16079024D02*
X9925690Y-16107595D01*
X9925690Y-16107595D02*
X9906643Y-16126643D01*
X9906643Y-16126643D02*
X9887595Y-16136167D01*
X10087595Y-16259976D02*
X10097119Y-16269500D01*
X10097119Y-16269500D02*
X10087595Y-16279024D01*
X10087595Y-16279024D02*
X10078071Y-16269500D01*
X10078071Y-16269500D02*
X10087595Y-16259976D01*
X10087595Y-16259976D02*
X10087595Y-16279024D01*
X10287595Y-16279024D02*
X10173310Y-16279024D01*
X10230452Y-16279024D02*
X10230452Y-16079024D01*
X10230452Y-16079024D02*
X10211405Y-16107595D01*
X10211405Y-16107595D02*
X10192357Y-16126643D01*
X10192357Y-16126643D02*
X10173310Y-16136167D01*
X10411405Y-16079024D02*
X10430452Y-16079024D01*
X10430452Y-16079024D02*
X10449500Y-16088548D01*
X10449500Y-16088548D02*
X10459024Y-16098071D01*
X10459024Y-16098071D02*
X10468548Y-16117119D01*
X10468548Y-16117119D02*
X10478071Y-16155214D01*
X10478071Y-16155214D02*
X10478071Y-16202833D01*
X10478071Y-16202833D02*
X10468548Y-16240928D01*
X10468548Y-16240928D02*
X10459024Y-16259976D01*
X10459024Y-16259976D02*
X10449500Y-16269500D01*
X10449500Y-16269500D02*
X10430452Y-16279024D01*
X10430452Y-16279024D02*
X10411405Y-16279024D01*
X10411405Y-16279024D02*
X10392357Y-16269500D01*
X10392357Y-16269500D02*
X10382833Y-16259976D01*
X10382833Y-16259976D02*
X10373310Y-16240928D01*
X10373310Y-16240928D02*
X10363786Y-16202833D01*
X10363786Y-16202833D02*
X10363786Y-16155214D01*
X10363786Y-16155214D02*
X10373310Y-16117119D01*
X10373310Y-16117119D02*
X10382833Y-16098071D01*
X10382833Y-16098071D02*
X10392357Y-16088548D01*
X10392357Y-16088548D02*
X10411405Y-16079024D01*
X10601881Y-16079024D02*
X10620929Y-16079024D01*
X10620929Y-16079024D02*
X10639976Y-16088548D01*
X10639976Y-16088548D02*
X10649500Y-16098071D01*
X10649500Y-16098071D02*
X10659024Y-16117119D01*
X10659024Y-16117119D02*
X10668548Y-16155214D01*
X10668548Y-16155214D02*
X10668548Y-16202833D01*
X10668548Y-16202833D02*
X10659024Y-16240928D01*
X10659024Y-16240928D02*
X10649500Y-16259976D01*
X10649500Y-16259976D02*
X10639976Y-16269500D01*
X10639976Y-16269500D02*
X10620929Y-16279024D01*
X10620929Y-16279024D02*
X10601881Y-16279024D01*
X10601881Y-16279024D02*
X10582833Y-16269500D01*
X10582833Y-16269500D02*
X10573310Y-16259976D01*
X10573310Y-16259976D02*
X10563786Y-16240928D01*
X10563786Y-16240928D02*
X10554262Y-16202833D01*
X10554262Y-16202833D02*
X10554262Y-16155214D01*
X10554262Y-16155214D02*
X10563786Y-16117119D01*
X10563786Y-16117119D02*
X10573310Y-16098071D01*
X10573310Y-16098071D02*
X10582833Y-16088548D01*
X10582833Y-16088548D02*
X10601881Y-16079024D01*
X10754262Y-16279024D02*
X10754262Y-16145690D01*
X10754262Y-16164738D02*
X10763786Y-16155214D01*
X10763786Y-16155214D02*
X10782833Y-16145690D01*
X10782833Y-16145690D02*
X10811405Y-16145690D01*
X10811405Y-16145690D02*
X10830452Y-16155214D01*
X10830452Y-16155214D02*
X10839976Y-16174262D01*
X10839976Y-16174262D02*
X10839976Y-16279024D01*
X10839976Y-16174262D02*
X10849500Y-16155214D01*
X10849500Y-16155214D02*
X10868548Y-16145690D01*
X10868548Y-16145690D02*
X10897119Y-16145690D01*
X10897119Y-16145690D02*
X10916167Y-16155214D01*
X10916167Y-16155214D02*
X10925691Y-16174262D01*
X10925691Y-16174262D02*
X10925691Y-16279024D01*
X11020929Y-16279024D02*
X11020929Y-16145690D01*
X11020929Y-16164738D02*
X11030452Y-16155214D01*
X11030452Y-16155214D02*
X11049500Y-16145690D01*
X11049500Y-16145690D02*
X11078072Y-16145690D01*
X11078072Y-16145690D02*
X11097119Y-16155214D01*
X11097119Y-16155214D02*
X11106643Y-16174262D01*
X11106643Y-16174262D02*
X11106643Y-16279024D01*
X11106643Y-16174262D02*
X11116167Y-16155214D01*
X11116167Y-16155214D02*
X11135214Y-16145690D01*
X11135214Y-16145690D02*
X11163786Y-16145690D01*
X11163786Y-16145690D02*
X11182833Y-16155214D01*
X11182833Y-16155214D02*
X11192357Y-16174262D01*
X11192357Y-16174262D02*
X11192357Y-16279024D01*
X11582833Y-16069500D02*
X11411405Y-16326643D01*
X11839976Y-16079024D02*
X11859024Y-16079024D01*
X11859024Y-16079024D02*
X11878072Y-16088548D01*
X11878072Y-16088548D02*
X11887595Y-16098071D01*
X11887595Y-16098071D02*
X11897119Y-16117119D01*
X11897119Y-16117119D02*
X11906643Y-16155214D01*
X11906643Y-16155214D02*
X11906643Y-16202833D01*
X11906643Y-16202833D02*
X11897119Y-16240928D01*
X11897119Y-16240928D02*
X11887595Y-16259976D01*
X11887595Y-16259976D02*
X11878072Y-16269500D01*
X11878072Y-16269500D02*
X11859024Y-16279024D01*
X11859024Y-16279024D02*
X11839976Y-16279024D01*
X11839976Y-16279024D02*
X11820929Y-16269500D01*
X11820929Y-16269500D02*
X11811405Y-16259976D01*
X11811405Y-16259976D02*
X11801881Y-16240928D01*
X11801881Y-16240928D02*
X11792357Y-16202833D01*
X11792357Y-16202833D02*
X11792357Y-16155214D01*
X11792357Y-16155214D02*
X11801881Y-16117119D01*
X11801881Y-16117119D02*
X11811405Y-16098071D01*
X11811405Y-16098071D02*
X11820929Y-16088548D01*
X11820929Y-16088548D02*
X11839976Y-16079024D01*
X11992357Y-16259976D02*
X12001881Y-16269500D01*
X12001881Y-16269500D02*
X11992357Y-16279024D01*
X11992357Y-16279024D02*
X11982833Y-16269500D01*
X11982833Y-16269500D02*
X11992357Y-16259976D01*
X11992357Y-16259976D02*
X11992357Y-16279024D01*
X12125691Y-16079024D02*
X12144738Y-16079024D01*
X12144738Y-16079024D02*
X12163786Y-16088548D01*
X12163786Y-16088548D02*
X12173310Y-16098071D01*
X12173310Y-16098071D02*
X12182833Y-16117119D01*
X12182833Y-16117119D02*
X12192357Y-16155214D01*
X12192357Y-16155214D02*
X12192357Y-16202833D01*
X12192357Y-16202833D02*
X12182833Y-16240928D01*
X12182833Y-16240928D02*
X12173310Y-16259976D01*
X12173310Y-16259976D02*
X12163786Y-16269500D01*
X12163786Y-16269500D02*
X12144738Y-16279024D01*
X12144738Y-16279024D02*
X12125691Y-16279024D01*
X12125691Y-16279024D02*
X12106643Y-16269500D01*
X12106643Y-16269500D02*
X12097119Y-16259976D01*
X12097119Y-16259976D02*
X12087595Y-16240928D01*
X12087595Y-16240928D02*
X12078072Y-16202833D01*
X12078072Y-16202833D02*
X12078072Y-16155214D01*
X12078072Y-16155214D02*
X12087595Y-16117119D01*
X12087595Y-16117119D02*
X12097119Y-16098071D01*
X12097119Y-16098071D02*
X12106643Y-16088548D01*
X12106643Y-16088548D02*
X12125691Y-16079024D01*
X12363786Y-16145690D02*
X12363786Y-16279024D01*
X12316167Y-16069500D02*
X12268548Y-16212357D01*
X12268548Y-16212357D02*
X12392357Y-16212357D01*
X12449500Y-16079024D02*
X12573310Y-16079024D01*
X12573310Y-16079024D02*
X12506643Y-16155214D01*
X12506643Y-16155214D02*
X12535214Y-16155214D01*
X12535214Y-16155214D02*
X12554262Y-16164738D01*
X12554262Y-16164738D02*
X12563786Y-16174262D01*
X12563786Y-16174262D02*
X12573310Y-16193309D01*
X12573310Y-16193309D02*
X12573310Y-16240928D01*
X12573310Y-16240928D02*
X12563786Y-16259976D01*
X12563786Y-16259976D02*
X12554262Y-16269500D01*
X12554262Y-16269500D02*
X12535214Y-16279024D01*
X12535214Y-16279024D02*
X12478072Y-16279024D01*
X12478072Y-16279024D02*
X12459024Y-16269500D01*
X12459024Y-16269500D02*
X12449500Y-16259976D01*
X12639976Y-16079024D02*
X12763786Y-16079024D01*
X12763786Y-16079024D02*
X12697119Y-16155214D01*
X12697119Y-16155214D02*
X12725691Y-16155214D01*
X12725691Y-16155214D02*
X12744738Y-16164738D01*
X12744738Y-16164738D02*
X12754262Y-16174262D01*
X12754262Y-16174262D02*
X12763786Y-16193309D01*
X12763786Y-16193309D02*
X12763786Y-16240928D01*
X12763786Y-16240928D02*
X12754262Y-16259976D01*
X12754262Y-16259976D02*
X12744738Y-16269500D01*
X12744738Y-16269500D02*
X12725691Y-16279024D01*
X12725691Y-16279024D02*
X12668548Y-16279024D01*
X12668548Y-16279024D02*
X12649500Y-16269500D01*
X12649500Y-16269500D02*
X12639976Y-16259976D01*
X12839976Y-16079024D02*
X12839976Y-16117119D01*
X12916167Y-16079024D02*
X12916167Y-16117119D01*
X13211405Y-16355214D02*
X13201881Y-16345690D01*
X13201881Y-16345690D02*
X13182834Y-16317119D01*
X13182834Y-16317119D02*
X13173310Y-16298071D01*
X13173310Y-16298071D02*
X13163786Y-16269500D01*
X13163786Y-16269500D02*
X13154262Y-16221881D01*
X13154262Y-16221881D02*
X13154262Y-16183786D01*
X13154262Y-16183786D02*
X13163786Y-16136167D01*
X13163786Y-16136167D02*
X13173310Y-16107595D01*
X13173310Y-16107595D02*
X13182834Y-16088548D01*
X13182834Y-16088548D02*
X13201881Y-16059976D01*
X13201881Y-16059976D02*
X13211405Y-16050452D01*
X13373310Y-16145690D02*
X13373310Y-16279024D01*
X13325691Y-16069500D02*
X13278072Y-16212357D01*
X13278072Y-16212357D02*
X13401881Y-16212357D01*
X13459024Y-16079024D02*
X13582834Y-16079024D01*
X13582834Y-16079024D02*
X13516167Y-16155214D01*
X13516167Y-16155214D02*
X13544738Y-16155214D01*
X13544738Y-16155214D02*
X13563786Y-16164738D01*
X13563786Y-16164738D02*
X13573310Y-16174262D01*
X13573310Y-16174262D02*
X13582834Y-16193309D01*
X13582834Y-16193309D02*
X13582834Y-16240928D01*
X13582834Y-16240928D02*
X13573310Y-16259976D01*
X13573310Y-16259976D02*
X13563786Y-16269500D01*
X13563786Y-16269500D02*
X13544738Y-16279024D01*
X13544738Y-16279024D02*
X13487595Y-16279024D01*
X13487595Y-16279024D02*
X13468548Y-16269500D01*
X13468548Y-16269500D02*
X13459024Y-16259976D01*
X13820929Y-16279024D02*
X13820929Y-16079024D01*
X13906643Y-16279024D02*
X13906643Y-16174262D01*
X13906643Y-16174262D02*
X13897119Y-16155214D01*
X13897119Y-16155214D02*
X13878072Y-16145690D01*
X13878072Y-16145690D02*
X13849500Y-16145690D01*
X13849500Y-16145690D02*
X13830453Y-16155214D01*
X13830453Y-16155214D02*
X13820929Y-16164738D01*
X14030453Y-16279024D02*
X14011405Y-16269500D01*
X14011405Y-16269500D02*
X14001881Y-16259976D01*
X14001881Y-16259976D02*
X13992357Y-16240928D01*
X13992357Y-16240928D02*
X13992357Y-16183786D01*
X13992357Y-16183786D02*
X14001881Y-16164738D01*
X14001881Y-16164738D02*
X14011405Y-16155214D01*
X14011405Y-16155214D02*
X14030453Y-16145690D01*
X14030453Y-16145690D02*
X14059024Y-16145690D01*
X14059024Y-16145690D02*
X14078072Y-16155214D01*
X14078072Y-16155214D02*
X14087596Y-16164738D01*
X14087596Y-16164738D02*
X14097119Y-16183786D01*
X14097119Y-16183786D02*
X14097119Y-16240928D01*
X14097119Y-16240928D02*
X14087596Y-16259976D01*
X14087596Y-16259976D02*
X14078072Y-16269500D01*
X14078072Y-16269500D02*
X14059024Y-16279024D01*
X14059024Y-16279024D02*
X14030453Y-16279024D01*
X14211405Y-16279024D02*
X14192357Y-16269500D01*
X14192357Y-16269500D02*
X14182834Y-16250452D01*
X14182834Y-16250452D02*
X14182834Y-16079024D01*
X14363786Y-16269500D02*
X14344738Y-16279024D01*
X14344738Y-16279024D02*
X14306643Y-16279024D01*
X14306643Y-16279024D02*
X14287596Y-16269500D01*
X14287596Y-16269500D02*
X14278072Y-16250452D01*
X14278072Y-16250452D02*
X14278072Y-16174262D01*
X14278072Y-16174262D02*
X14287596Y-16155214D01*
X14287596Y-16155214D02*
X14306643Y-16145690D01*
X14306643Y-16145690D02*
X14344738Y-16145690D01*
X14344738Y-16145690D02*
X14363786Y-16155214D01*
X14363786Y-16155214D02*
X14373310Y-16174262D01*
X14373310Y-16174262D02*
X14373310Y-16193309D01*
X14373310Y-16193309D02*
X14278072Y-16212357D01*
X14449500Y-16269500D02*
X14468548Y-16279024D01*
X14468548Y-16279024D02*
X14506643Y-16279024D01*
X14506643Y-16279024D02*
X14525691Y-16269500D01*
X14525691Y-16269500D02*
X14535215Y-16250452D01*
X14535215Y-16250452D02*
X14535215Y-16240928D01*
X14535215Y-16240928D02*
X14525691Y-16221881D01*
X14525691Y-16221881D02*
X14506643Y-16212357D01*
X14506643Y-16212357D02*
X14478072Y-16212357D01*
X14478072Y-16212357D02*
X14459024Y-16202833D01*
X14459024Y-16202833D02*
X14449500Y-16183786D01*
X14449500Y-16183786D02*
X14449500Y-16174262D01*
X14449500Y-16174262D02*
X14459024Y-16155214D01*
X14459024Y-16155214D02*
X14478072Y-16145690D01*
X14478072Y-16145690D02*
X14506643Y-16145690D01*
X14506643Y-16145690D02*
X14525691Y-16155214D01*
X14601881Y-16355214D02*
X14611405Y-16345690D01*
X14611405Y-16345690D02*
X14630453Y-16317119D01*
X14630453Y-16317119D02*
X14639977Y-16298071D01*
X14639977Y-16298071D02*
X14649500Y-16269500D01*
X14649500Y-16269500D02*
X14659024Y-16221881D01*
X14659024Y-16221881D02*
X14659024Y-16183786D01*
X14659024Y-16183786D02*
X14649500Y-16136167D01*
X14649500Y-16136167D02*
X14639977Y-16107595D01*
X14639977Y-16107595D02*
X14630453Y-16088548D01*
X14630453Y-16088548D02*
X14611405Y-16059976D01*
X14611405Y-16059976D02*
X14601881Y-16050452D01*
D17*
X9522500Y-16387000D02*
X9649500Y-16514000D01*
X9649500Y-16387000D02*
X9522500Y-16514000D01*
X9586000Y-16387000D02*
X9586000Y-16514000D01*
X9522500Y-16450500D02*
X9649500Y-16450500D01*
D11*
X10001881Y-16543024D02*
X9887595Y-16543024D01*
X9944738Y-16543024D02*
X9944738Y-16343024D01*
X9944738Y-16343024D02*
X9925690Y-16371595D01*
X9925690Y-16371595D02*
X9906643Y-16390643D01*
X9906643Y-16390643D02*
X9887595Y-16400167D01*
X10087595Y-16523976D02*
X10097119Y-16533500D01*
X10097119Y-16533500D02*
X10087595Y-16543024D01*
X10087595Y-16543024D02*
X10078071Y-16533500D01*
X10078071Y-16533500D02*
X10087595Y-16523976D01*
X10087595Y-16523976D02*
X10087595Y-16543024D01*
X10173310Y-16362071D02*
X10182833Y-16352548D01*
X10182833Y-16352548D02*
X10201881Y-16343024D01*
X10201881Y-16343024D02*
X10249500Y-16343024D01*
X10249500Y-16343024D02*
X10268548Y-16352548D01*
X10268548Y-16352548D02*
X10278071Y-16362071D01*
X10278071Y-16362071D02*
X10287595Y-16381119D01*
X10287595Y-16381119D02*
X10287595Y-16400167D01*
X10287595Y-16400167D02*
X10278071Y-16428738D01*
X10278071Y-16428738D02*
X10163786Y-16543024D01*
X10163786Y-16543024D02*
X10287595Y-16543024D01*
X10354262Y-16343024D02*
X10487595Y-16343024D01*
X10487595Y-16343024D02*
X10401881Y-16543024D01*
X10601881Y-16343024D02*
X10620929Y-16343024D01*
X10620929Y-16343024D02*
X10639976Y-16352548D01*
X10639976Y-16352548D02*
X10649500Y-16362071D01*
X10649500Y-16362071D02*
X10659024Y-16381119D01*
X10659024Y-16381119D02*
X10668548Y-16419214D01*
X10668548Y-16419214D02*
X10668548Y-16466833D01*
X10668548Y-16466833D02*
X10659024Y-16504928D01*
X10659024Y-16504928D02*
X10649500Y-16523976D01*
X10649500Y-16523976D02*
X10639976Y-16533500D01*
X10639976Y-16533500D02*
X10620929Y-16543024D01*
X10620929Y-16543024D02*
X10601881Y-16543024D01*
X10601881Y-16543024D02*
X10582833Y-16533500D01*
X10582833Y-16533500D02*
X10573310Y-16523976D01*
X10573310Y-16523976D02*
X10563786Y-16504928D01*
X10563786Y-16504928D02*
X10554262Y-16466833D01*
X10554262Y-16466833D02*
X10554262Y-16419214D01*
X10554262Y-16419214D02*
X10563786Y-16381119D01*
X10563786Y-16381119D02*
X10573310Y-16362071D01*
X10573310Y-16362071D02*
X10582833Y-16352548D01*
X10582833Y-16352548D02*
X10601881Y-16343024D01*
X10754262Y-16543024D02*
X10754262Y-16409690D01*
X10754262Y-16428738D02*
X10763786Y-16419214D01*
X10763786Y-16419214D02*
X10782833Y-16409690D01*
X10782833Y-16409690D02*
X10811405Y-16409690D01*
X10811405Y-16409690D02*
X10830452Y-16419214D01*
X10830452Y-16419214D02*
X10839976Y-16438262D01*
X10839976Y-16438262D02*
X10839976Y-16543024D01*
X10839976Y-16438262D02*
X10849500Y-16419214D01*
X10849500Y-16419214D02*
X10868548Y-16409690D01*
X10868548Y-16409690D02*
X10897119Y-16409690D01*
X10897119Y-16409690D02*
X10916167Y-16419214D01*
X10916167Y-16419214D02*
X10925691Y-16438262D01*
X10925691Y-16438262D02*
X10925691Y-16543024D01*
X11020929Y-16543024D02*
X11020929Y-16409690D01*
X11020929Y-16428738D02*
X11030452Y-16419214D01*
X11030452Y-16419214D02*
X11049500Y-16409690D01*
X11049500Y-16409690D02*
X11078072Y-16409690D01*
X11078072Y-16409690D02*
X11097119Y-16419214D01*
X11097119Y-16419214D02*
X11106643Y-16438262D01*
X11106643Y-16438262D02*
X11106643Y-16543024D01*
X11106643Y-16438262D02*
X11116167Y-16419214D01*
X11116167Y-16419214D02*
X11135214Y-16409690D01*
X11135214Y-16409690D02*
X11163786Y-16409690D01*
X11163786Y-16409690D02*
X11182833Y-16419214D01*
X11182833Y-16419214D02*
X11192357Y-16438262D01*
X11192357Y-16438262D02*
X11192357Y-16543024D01*
X11582833Y-16333500D02*
X11411405Y-16590643D01*
X11839976Y-16343024D02*
X11859024Y-16343024D01*
X11859024Y-16343024D02*
X11878072Y-16352548D01*
X11878072Y-16352548D02*
X11887595Y-16362071D01*
X11887595Y-16362071D02*
X11897119Y-16381119D01*
X11897119Y-16381119D02*
X11906643Y-16419214D01*
X11906643Y-16419214D02*
X11906643Y-16466833D01*
X11906643Y-16466833D02*
X11897119Y-16504928D01*
X11897119Y-16504928D02*
X11887595Y-16523976D01*
X11887595Y-16523976D02*
X11878072Y-16533500D01*
X11878072Y-16533500D02*
X11859024Y-16543024D01*
X11859024Y-16543024D02*
X11839976Y-16543024D01*
X11839976Y-16543024D02*
X11820929Y-16533500D01*
X11820929Y-16533500D02*
X11811405Y-16523976D01*
X11811405Y-16523976D02*
X11801881Y-16504928D01*
X11801881Y-16504928D02*
X11792357Y-16466833D01*
X11792357Y-16466833D02*
X11792357Y-16419214D01*
X11792357Y-16419214D02*
X11801881Y-16381119D01*
X11801881Y-16381119D02*
X11811405Y-16362071D01*
X11811405Y-16362071D02*
X11820929Y-16352548D01*
X11820929Y-16352548D02*
X11839976Y-16343024D01*
X11992357Y-16523976D02*
X12001881Y-16533500D01*
X12001881Y-16533500D02*
X11992357Y-16543024D01*
X11992357Y-16543024D02*
X11982833Y-16533500D01*
X11982833Y-16533500D02*
X11992357Y-16523976D01*
X11992357Y-16523976D02*
X11992357Y-16543024D01*
X12125691Y-16343024D02*
X12144738Y-16343024D01*
X12144738Y-16343024D02*
X12163786Y-16352548D01*
X12163786Y-16352548D02*
X12173310Y-16362071D01*
X12173310Y-16362071D02*
X12182833Y-16381119D01*
X12182833Y-16381119D02*
X12192357Y-16419214D01*
X12192357Y-16419214D02*
X12192357Y-16466833D01*
X12192357Y-16466833D02*
X12182833Y-16504928D01*
X12182833Y-16504928D02*
X12173310Y-16523976D01*
X12173310Y-16523976D02*
X12163786Y-16533500D01*
X12163786Y-16533500D02*
X12144738Y-16543024D01*
X12144738Y-16543024D02*
X12125691Y-16543024D01*
X12125691Y-16543024D02*
X12106643Y-16533500D01*
X12106643Y-16533500D02*
X12097119Y-16523976D01*
X12097119Y-16523976D02*
X12087595Y-16504928D01*
X12087595Y-16504928D02*
X12078072Y-16466833D01*
X12078072Y-16466833D02*
X12078072Y-16419214D01*
X12078072Y-16419214D02*
X12087595Y-16381119D01*
X12087595Y-16381119D02*
X12097119Y-16362071D01*
X12097119Y-16362071D02*
X12106643Y-16352548D01*
X12106643Y-16352548D02*
X12125691Y-16343024D01*
X12373310Y-16343024D02*
X12278072Y-16343024D01*
X12278072Y-16343024D02*
X12268548Y-16438262D01*
X12268548Y-16438262D02*
X12278072Y-16428738D01*
X12278072Y-16428738D02*
X12297119Y-16419214D01*
X12297119Y-16419214D02*
X12344738Y-16419214D01*
X12344738Y-16419214D02*
X12363786Y-16428738D01*
X12363786Y-16428738D02*
X12373310Y-16438262D01*
X12373310Y-16438262D02*
X12382833Y-16457309D01*
X12382833Y-16457309D02*
X12382833Y-16504928D01*
X12382833Y-16504928D02*
X12373310Y-16523976D01*
X12373310Y-16523976D02*
X12363786Y-16533500D01*
X12363786Y-16533500D02*
X12344738Y-16543024D01*
X12344738Y-16543024D02*
X12297119Y-16543024D01*
X12297119Y-16543024D02*
X12278072Y-16533500D01*
X12278072Y-16533500D02*
X12268548Y-16523976D01*
X12506643Y-16343024D02*
X12525691Y-16343024D01*
X12525691Y-16343024D02*
X12544738Y-16352548D01*
X12544738Y-16352548D02*
X12554262Y-16362071D01*
X12554262Y-16362071D02*
X12563786Y-16381119D01*
X12563786Y-16381119D02*
X12573310Y-16419214D01*
X12573310Y-16419214D02*
X12573310Y-16466833D01*
X12573310Y-16466833D02*
X12563786Y-16504928D01*
X12563786Y-16504928D02*
X12554262Y-16523976D01*
X12554262Y-16523976D02*
X12544738Y-16533500D01*
X12544738Y-16533500D02*
X12525691Y-16543024D01*
X12525691Y-16543024D02*
X12506643Y-16543024D01*
X12506643Y-16543024D02*
X12487595Y-16533500D01*
X12487595Y-16533500D02*
X12478072Y-16523976D01*
X12478072Y-16523976D02*
X12468548Y-16504928D01*
X12468548Y-16504928D02*
X12459024Y-16466833D01*
X12459024Y-16466833D02*
X12459024Y-16419214D01*
X12459024Y-16419214D02*
X12468548Y-16381119D01*
X12468548Y-16381119D02*
X12478072Y-16362071D01*
X12478072Y-16362071D02*
X12487595Y-16352548D01*
X12487595Y-16352548D02*
X12506643Y-16343024D01*
X12697119Y-16343024D02*
X12716167Y-16343024D01*
X12716167Y-16343024D02*
X12735214Y-16352548D01*
X12735214Y-16352548D02*
X12744738Y-16362071D01*
X12744738Y-16362071D02*
X12754262Y-16381119D01*
X12754262Y-16381119D02*
X12763786Y-16419214D01*
X12763786Y-16419214D02*
X12763786Y-16466833D01*
X12763786Y-16466833D02*
X12754262Y-16504928D01*
X12754262Y-16504928D02*
X12744738Y-16523976D01*
X12744738Y-16523976D02*
X12735214Y-16533500D01*
X12735214Y-16533500D02*
X12716167Y-16543024D01*
X12716167Y-16543024D02*
X12697119Y-16543024D01*
X12697119Y-16543024D02*
X12678072Y-16533500D01*
X12678072Y-16533500D02*
X12668548Y-16523976D01*
X12668548Y-16523976D02*
X12659024Y-16504928D01*
X12659024Y-16504928D02*
X12649500Y-16466833D01*
X12649500Y-16466833D02*
X12649500Y-16419214D01*
X12649500Y-16419214D02*
X12659024Y-16381119D01*
X12659024Y-16381119D02*
X12668548Y-16362071D01*
X12668548Y-16362071D02*
X12678072Y-16352548D01*
X12678072Y-16352548D02*
X12697119Y-16343024D01*
X12839976Y-16343024D02*
X12839976Y-16381119D01*
X12916167Y-16343024D02*
X12916167Y-16381119D01*
X13211405Y-16619214D02*
X13201881Y-16609690D01*
X13201881Y-16609690D02*
X13182834Y-16581119D01*
X13182834Y-16581119D02*
X13173310Y-16562071D01*
X13173310Y-16562071D02*
X13163786Y-16533500D01*
X13163786Y-16533500D02*
X13154262Y-16485881D01*
X13154262Y-16485881D02*
X13154262Y-16447786D01*
X13154262Y-16447786D02*
X13163786Y-16400167D01*
X13163786Y-16400167D02*
X13173310Y-16371595D01*
X13173310Y-16371595D02*
X13182834Y-16352548D01*
X13182834Y-16352548D02*
X13201881Y-16323976D01*
X13201881Y-16323976D02*
X13211405Y-16314452D01*
X13278072Y-16362071D02*
X13287595Y-16352548D01*
X13287595Y-16352548D02*
X13306643Y-16343024D01*
X13306643Y-16343024D02*
X13354262Y-16343024D01*
X13354262Y-16343024D02*
X13373310Y-16352548D01*
X13373310Y-16352548D02*
X13382834Y-16362071D01*
X13382834Y-16362071D02*
X13392357Y-16381119D01*
X13392357Y-16381119D02*
X13392357Y-16400167D01*
X13392357Y-16400167D02*
X13382834Y-16428738D01*
X13382834Y-16428738D02*
X13268548Y-16543024D01*
X13268548Y-16543024D02*
X13392357Y-16543024D01*
X13630453Y-16543024D02*
X13630453Y-16343024D01*
X13716167Y-16543024D02*
X13716167Y-16438262D01*
X13716167Y-16438262D02*
X13706643Y-16419214D01*
X13706643Y-16419214D02*
X13687596Y-16409690D01*
X13687596Y-16409690D02*
X13659024Y-16409690D01*
X13659024Y-16409690D02*
X13639976Y-16419214D01*
X13639976Y-16419214D02*
X13630453Y-16428738D01*
X13839976Y-16543024D02*
X13820929Y-16533500D01*
X13820929Y-16533500D02*
X13811405Y-16523976D01*
X13811405Y-16523976D02*
X13801881Y-16504928D01*
X13801881Y-16504928D02*
X13801881Y-16447786D01*
X13801881Y-16447786D02*
X13811405Y-16428738D01*
X13811405Y-16428738D02*
X13820929Y-16419214D01*
X13820929Y-16419214D02*
X13839976Y-16409690D01*
X13839976Y-16409690D02*
X13868548Y-16409690D01*
X13868548Y-16409690D02*
X13887596Y-16419214D01*
X13887596Y-16419214D02*
X13897119Y-16428738D01*
X13897119Y-16428738D02*
X13906643Y-16447786D01*
X13906643Y-16447786D02*
X13906643Y-16504928D01*
X13906643Y-16504928D02*
X13897119Y-16523976D01*
X13897119Y-16523976D02*
X13887596Y-16533500D01*
X13887596Y-16533500D02*
X13868548Y-16543024D01*
X13868548Y-16543024D02*
X13839976Y-16543024D01*
X14020929Y-16543024D02*
X14001881Y-16533500D01*
X14001881Y-16533500D02*
X13992357Y-16514452D01*
X13992357Y-16514452D02*
X13992357Y-16343024D01*
X14173310Y-16533500D02*
X14154262Y-16543024D01*
X14154262Y-16543024D02*
X14116167Y-16543024D01*
X14116167Y-16543024D02*
X14097119Y-16533500D01*
X14097119Y-16533500D02*
X14087596Y-16514452D01*
X14087596Y-16514452D02*
X14087596Y-16438262D01*
X14087596Y-16438262D02*
X14097119Y-16419214D01*
X14097119Y-16419214D02*
X14116167Y-16409690D01*
X14116167Y-16409690D02*
X14154262Y-16409690D01*
X14154262Y-16409690D02*
X14173310Y-16419214D01*
X14173310Y-16419214D02*
X14182834Y-16438262D01*
X14182834Y-16438262D02*
X14182834Y-16457309D01*
X14182834Y-16457309D02*
X14087596Y-16476357D01*
X14259024Y-16533500D02*
X14278072Y-16543024D01*
X14278072Y-16543024D02*
X14316167Y-16543024D01*
X14316167Y-16543024D02*
X14335215Y-16533500D01*
X14335215Y-16533500D02*
X14344738Y-16514452D01*
X14344738Y-16514452D02*
X14344738Y-16504928D01*
X14344738Y-16504928D02*
X14335215Y-16485881D01*
X14335215Y-16485881D02*
X14316167Y-16476357D01*
X14316167Y-16476357D02*
X14287596Y-16476357D01*
X14287596Y-16476357D02*
X14268548Y-16466833D01*
X14268548Y-16466833D02*
X14259024Y-16447786D01*
X14259024Y-16447786D02*
X14259024Y-16438262D01*
X14259024Y-16438262D02*
X14268548Y-16419214D01*
X14268548Y-16419214D02*
X14287596Y-16409690D01*
X14287596Y-16409690D02*
X14316167Y-16409690D01*
X14316167Y-16409690D02*
X14335215Y-16419214D01*
X14411405Y-16619214D02*
X14420929Y-16609690D01*
X14420929Y-16609690D02*
X14439977Y-16581119D01*
X14439977Y-16581119D02*
X14449500Y-16562071D01*
X14449500Y-16562071D02*
X14459024Y-16533500D01*
X14459024Y-16533500D02*
X14468548Y-16485881D01*
X14468548Y-16485881D02*
X14468548Y-16447786D01*
X14468548Y-16447786D02*
X14459024Y-16400167D01*
X14459024Y-16400167D02*
X14449500Y-16371595D01*
X14449500Y-16371595D02*
X14439977Y-16352548D01*
X14439977Y-16352548D02*
X14420929Y-16323976D01*
X14420929Y-16323976D02*
X14411405Y-16314452D01*
M02*
