%TF.GenerationSoftware,KiCad,Pcbnew,7.0.1*%
%TF.CreationDate,2023-06-06T13:02:27-04:00*%
%TF.ProjectId,nixie,6e697869-652e-46b6-9963-61645f706362,rev?*%
%TF.SameCoordinates,Original*%
%TF.FileFunction,Legend,Top*%
%TF.FilePolarity,Positive*%
%FSLAX46Y46*%
G04 Gerber Fmt 4.6, Leading zero omitted, Abs format (unit mm)*
G04 Created by KiCad (PCBNEW 7.0.1) date 2023-06-06 13:02:27*
%MOMM*%
%LPD*%
G01*
G04 APERTURE LIST*
%ADD10C,0.142240*%
%ADD11C,0.101600*%
%ADD12C,0.500000*%
%ADD13C,0.304800*%
%ADD14C,0.097790*%
%ADD15C,0.254000*%
%ADD16C,0.200000*%
%ADD17C,0.127000*%
%ADD18C,0.203200*%
G04 APERTURE END LIST*
D10*
X101409476Y-128082638D02*
X102076142Y-130082638D01*
X102076142Y-130082638D02*
X102742809Y-128082638D01*
X104457095Y-130082638D02*
X103314238Y-130082638D01*
X103885666Y-130082638D02*
X103885666Y-128082638D01*
X103885666Y-128082638D02*
X103695190Y-128368352D01*
X103695190Y-128368352D02*
X103504714Y-128558828D01*
X103504714Y-128558828D02*
X103314238Y-128654066D01*
X105314238Y-129892161D02*
X105409476Y-129987400D01*
X105409476Y-129987400D02*
X105314238Y-130082638D01*
X105314238Y-130082638D02*
X105219000Y-129987400D01*
X105219000Y-129987400D02*
X105314238Y-129892161D01*
X105314238Y-129892161D02*
X105314238Y-130082638D01*
X107314238Y-130082638D02*
X106171381Y-130082638D01*
X106742809Y-130082638D02*
X106742809Y-128082638D01*
X106742809Y-128082638D02*
X106552333Y-128368352D01*
X106552333Y-128368352D02*
X106361857Y-128558828D01*
X106361857Y-128558828D02*
X106171381Y-128654066D01*
D11*
X190447990Y-120580791D02*
X190837457Y-120580791D01*
X191004371Y-121192810D02*
X190447990Y-121192810D01*
X190447990Y-121192810D02*
X190447990Y-120024410D01*
X190447990Y-120024410D02*
X191004371Y-120024410D01*
X191505114Y-121192810D02*
X191505114Y-120024410D01*
X191505114Y-120024410D02*
X192172771Y-121192810D01*
X192172771Y-121192810D02*
X192172771Y-120024410D01*
D12*
X101622076Y-127302495D02*
X101622076Y-122302495D01*
X101622076Y-122302495D02*
X103526838Y-122302495D01*
X103526838Y-122302495D02*
X104003028Y-122540590D01*
X104003028Y-122540590D02*
X104241123Y-122778685D01*
X104241123Y-122778685D02*
X104479219Y-123254876D01*
X104479219Y-123254876D02*
X104479219Y-123969161D01*
X104479219Y-123969161D02*
X104241123Y-124445352D01*
X104241123Y-124445352D02*
X104003028Y-124683447D01*
X104003028Y-124683447D02*
X103526838Y-124921542D01*
X103526838Y-124921542D02*
X101622076Y-124921542D01*
X106622076Y-127302495D02*
X106622076Y-123969161D01*
X106622076Y-122302495D02*
X106383980Y-122540590D01*
X106383980Y-122540590D02*
X106622076Y-122778685D01*
X106622076Y-122778685D02*
X106860171Y-122540590D01*
X106860171Y-122540590D02*
X106622076Y-122302495D01*
X106622076Y-122302495D02*
X106622076Y-122778685D01*
X110907790Y-127064400D02*
X110431599Y-127302495D01*
X110431599Y-127302495D02*
X109479218Y-127302495D01*
X109479218Y-127302495D02*
X109003028Y-127064400D01*
X109003028Y-127064400D02*
X108764932Y-126588209D01*
X108764932Y-126588209D02*
X108764932Y-124683447D01*
X108764932Y-124683447D02*
X109003028Y-124207257D01*
X109003028Y-124207257D02*
X109479218Y-123969161D01*
X109479218Y-123969161D02*
X110431599Y-123969161D01*
X110431599Y-123969161D02*
X110907790Y-124207257D01*
X110907790Y-124207257D02*
X111145885Y-124683447D01*
X111145885Y-124683447D02*
X111145885Y-125159638D01*
X111145885Y-125159638D02*
X108764932Y-125635828D01*
X113288742Y-127302495D02*
X113288742Y-123969161D01*
X113288742Y-124921542D02*
X113526837Y-124445352D01*
X113526837Y-124445352D02*
X113764932Y-124207257D01*
X113764932Y-124207257D02*
X114241123Y-123969161D01*
X114241123Y-123969161D02*
X114717313Y-123969161D01*
X117098265Y-127302495D02*
X116622075Y-127064400D01*
X116622075Y-127064400D02*
X116383980Y-126826304D01*
X116383980Y-126826304D02*
X116145884Y-126350114D01*
X116145884Y-126350114D02*
X116145884Y-124921542D01*
X116145884Y-124921542D02*
X116383980Y-124445352D01*
X116383980Y-124445352D02*
X116622075Y-124207257D01*
X116622075Y-124207257D02*
X117098265Y-123969161D01*
X117098265Y-123969161D02*
X117812551Y-123969161D01*
X117812551Y-123969161D02*
X118288742Y-124207257D01*
X118288742Y-124207257D02*
X118526837Y-124445352D01*
X118526837Y-124445352D02*
X118764932Y-124921542D01*
X118764932Y-124921542D02*
X118764932Y-126350114D01*
X118764932Y-126350114D02*
X118526837Y-126826304D01*
X118526837Y-126826304D02*
X118288742Y-127064400D01*
X118288742Y-127064400D02*
X117812551Y-127302495D01*
X117812551Y-127302495D02*
X117098265Y-127302495D01*
X123050647Y-123969161D02*
X123050647Y-128016780D01*
X123050647Y-128016780D02*
X122812552Y-128492971D01*
X122812552Y-128492971D02*
X122574456Y-128731066D01*
X122574456Y-128731066D02*
X122098266Y-128969161D01*
X122098266Y-128969161D02*
X121383980Y-128969161D01*
X121383980Y-128969161D02*
X120907790Y-128731066D01*
X123050647Y-127064400D02*
X122574456Y-127302495D01*
X122574456Y-127302495D02*
X121622075Y-127302495D01*
X121622075Y-127302495D02*
X121145885Y-127064400D01*
X121145885Y-127064400D02*
X120907790Y-126826304D01*
X120907790Y-126826304D02*
X120669694Y-126350114D01*
X120669694Y-126350114D02*
X120669694Y-124921542D01*
X120669694Y-124921542D02*
X120907790Y-124445352D01*
X120907790Y-124445352D02*
X121145885Y-124207257D01*
X121145885Y-124207257D02*
X121622075Y-123969161D01*
X121622075Y-123969161D02*
X122574456Y-123969161D01*
X122574456Y-123969161D02*
X123050647Y-124207257D01*
X125431600Y-127302495D02*
X125431600Y-123969161D01*
X125431600Y-122302495D02*
X125193504Y-122540590D01*
X125193504Y-122540590D02*
X125431600Y-122778685D01*
X125431600Y-122778685D02*
X125669695Y-122540590D01*
X125669695Y-122540590D02*
X125431600Y-122302495D01*
X125431600Y-122302495D02*
X125431600Y-122778685D01*
X131622076Y-127302495D02*
X131622076Y-122302495D01*
X131622076Y-122302495D02*
X134479219Y-127302495D01*
X134479219Y-127302495D02*
X134479219Y-122302495D01*
X136860171Y-127302495D02*
X136860171Y-123969161D01*
X136860171Y-122302495D02*
X136622075Y-122540590D01*
X136622075Y-122540590D02*
X136860171Y-122778685D01*
X136860171Y-122778685D02*
X137098266Y-122540590D01*
X137098266Y-122540590D02*
X136860171Y-122302495D01*
X136860171Y-122302495D02*
X136860171Y-122778685D01*
X138764932Y-127302495D02*
X141383980Y-123969161D01*
X138764932Y-123969161D02*
X141383980Y-127302495D01*
X143288742Y-127302495D02*
X143288742Y-123969161D01*
X143288742Y-122302495D02*
X143050646Y-122540590D01*
X143050646Y-122540590D02*
X143288742Y-122778685D01*
X143288742Y-122778685D02*
X143526837Y-122540590D01*
X143526837Y-122540590D02*
X143288742Y-122302495D01*
X143288742Y-122302495D02*
X143288742Y-122778685D01*
X147574456Y-127064400D02*
X147098265Y-127302495D01*
X147098265Y-127302495D02*
X146145884Y-127302495D01*
X146145884Y-127302495D02*
X145669694Y-127064400D01*
X145669694Y-127064400D02*
X145431598Y-126588209D01*
X145431598Y-126588209D02*
X145431598Y-124683447D01*
X145431598Y-124683447D02*
X145669694Y-124207257D01*
X145669694Y-124207257D02*
X146145884Y-123969161D01*
X146145884Y-123969161D02*
X147098265Y-123969161D01*
X147098265Y-123969161D02*
X147574456Y-124207257D01*
X147574456Y-124207257D02*
X147812551Y-124683447D01*
X147812551Y-124683447D02*
X147812551Y-125159638D01*
X147812551Y-125159638D02*
X145431598Y-125635828D01*
D13*
X142755076Y-90927038D02*
X142755076Y-88927038D01*
X142755076Y-88927038D02*
X143231266Y-88927038D01*
X143231266Y-88927038D02*
X143516981Y-89022276D01*
X143516981Y-89022276D02*
X143707457Y-89212752D01*
X143707457Y-89212752D02*
X143802695Y-89403228D01*
X143802695Y-89403228D02*
X143897933Y-89784180D01*
X143897933Y-89784180D02*
X143897933Y-90069895D01*
X143897933Y-90069895D02*
X143802695Y-90450847D01*
X143802695Y-90450847D02*
X143707457Y-90641323D01*
X143707457Y-90641323D02*
X143516981Y-90831800D01*
X143516981Y-90831800D02*
X143231266Y-90927038D01*
X143231266Y-90927038D02*
X142755076Y-90927038D01*
X144659838Y-90355609D02*
X145612219Y-90355609D01*
X144469362Y-90927038D02*
X145136028Y-88927038D01*
X145136028Y-88927038D02*
X145802695Y-90927038D01*
X146469362Y-90927038D02*
X146469362Y-88927038D01*
X146469362Y-88927038D02*
X147612219Y-90927038D01*
X147612219Y-90927038D02*
X147612219Y-88927038D01*
X149612219Y-89022276D02*
X149421743Y-88927038D01*
X149421743Y-88927038D02*
X149136029Y-88927038D01*
X149136029Y-88927038D02*
X148850314Y-89022276D01*
X148850314Y-89022276D02*
X148659838Y-89212752D01*
X148659838Y-89212752D02*
X148564600Y-89403228D01*
X148564600Y-89403228D02*
X148469362Y-89784180D01*
X148469362Y-89784180D02*
X148469362Y-90069895D01*
X148469362Y-90069895D02*
X148564600Y-90450847D01*
X148564600Y-90450847D02*
X148659838Y-90641323D01*
X148659838Y-90641323D02*
X148850314Y-90831800D01*
X148850314Y-90831800D02*
X149136029Y-90927038D01*
X149136029Y-90927038D02*
X149326505Y-90927038D01*
X149326505Y-90927038D02*
X149612219Y-90831800D01*
X149612219Y-90831800D02*
X149707457Y-90736561D01*
X149707457Y-90736561D02*
X149707457Y-90069895D01*
X149707457Y-90069895D02*
X149326505Y-90069895D01*
X150564600Y-89879419D02*
X151231267Y-89879419D01*
X151516981Y-90927038D02*
X150564600Y-90927038D01*
X150564600Y-90927038D02*
X150564600Y-88927038D01*
X150564600Y-88927038D02*
X151516981Y-88927038D01*
X153516981Y-90927038D02*
X152850314Y-89974657D01*
X152374124Y-90927038D02*
X152374124Y-88927038D01*
X152374124Y-88927038D02*
X153136029Y-88927038D01*
X153136029Y-88927038D02*
X153326505Y-89022276D01*
X153326505Y-89022276D02*
X153421743Y-89117514D01*
X153421743Y-89117514D02*
X153516981Y-89307990D01*
X153516981Y-89307990D02*
X153516981Y-89593704D01*
X153516981Y-89593704D02*
X153421743Y-89784180D01*
X153421743Y-89784180D02*
X153326505Y-89879419D01*
X153326505Y-89879419D02*
X153136029Y-89974657D01*
X153136029Y-89974657D02*
X152374124Y-89974657D01*
X154374124Y-90736561D02*
X154469362Y-90831800D01*
X154469362Y-90831800D02*
X154374124Y-90927038D01*
X154374124Y-90927038D02*
X154278886Y-90831800D01*
X154278886Y-90831800D02*
X154374124Y-90736561D01*
X154374124Y-90736561D02*
X154374124Y-90927038D01*
X154374124Y-90165133D02*
X154278886Y-89022276D01*
X154278886Y-89022276D02*
X154374124Y-88927038D01*
X154374124Y-88927038D02*
X154469362Y-89022276D01*
X154469362Y-89022276D02*
X154374124Y-90165133D01*
X154374124Y-90165133D02*
X154374124Y-88927038D01*
X146374123Y-94167038D02*
X145231266Y-94167038D01*
X145802694Y-94167038D02*
X145802694Y-92167038D01*
X145802694Y-92167038D02*
X145612218Y-92452752D01*
X145612218Y-92452752D02*
X145421742Y-92643228D01*
X145421742Y-92643228D02*
X145231266Y-92738466D01*
X147040790Y-92167038D02*
X148374123Y-92167038D01*
X148374123Y-92167038D02*
X147516980Y-94167038D01*
X149516980Y-92167038D02*
X149707457Y-92167038D01*
X149707457Y-92167038D02*
X149897933Y-92262276D01*
X149897933Y-92262276D02*
X149993171Y-92357514D01*
X149993171Y-92357514D02*
X150088409Y-92547990D01*
X150088409Y-92547990D02*
X150183647Y-92928942D01*
X150183647Y-92928942D02*
X150183647Y-93405133D01*
X150183647Y-93405133D02*
X150088409Y-93786085D01*
X150088409Y-93786085D02*
X149993171Y-93976561D01*
X149993171Y-93976561D02*
X149897933Y-94071800D01*
X149897933Y-94071800D02*
X149707457Y-94167038D01*
X149707457Y-94167038D02*
X149516980Y-94167038D01*
X149516980Y-94167038D02*
X149326504Y-94071800D01*
X149326504Y-94071800D02*
X149231266Y-93976561D01*
X149231266Y-93976561D02*
X149136028Y-93786085D01*
X149136028Y-93786085D02*
X149040790Y-93405133D01*
X149040790Y-93405133D02*
X149040790Y-92928942D01*
X149040790Y-92928942D02*
X149136028Y-92547990D01*
X149136028Y-92547990D02*
X149231266Y-92357514D01*
X149231266Y-92357514D02*
X149326504Y-92262276D01*
X149326504Y-92262276D02*
X149516980Y-92167038D01*
X150755076Y-92167038D02*
X151421742Y-94167038D01*
X151421742Y-94167038D02*
X152088409Y-92167038D01*
D11*
X193904809Y-120003848D02*
X193793533Y-119948210D01*
X193793533Y-119948210D02*
X193626619Y-119948210D01*
X193626619Y-119948210D02*
X193459704Y-120003848D01*
X193459704Y-120003848D02*
X193348428Y-120115124D01*
X193348428Y-120115124D02*
X193292790Y-120226400D01*
X193292790Y-120226400D02*
X193237152Y-120448952D01*
X193237152Y-120448952D02*
X193237152Y-120615867D01*
X193237152Y-120615867D02*
X193292790Y-120838419D01*
X193292790Y-120838419D02*
X193348428Y-120949695D01*
X193348428Y-120949695D02*
X193459704Y-121060972D01*
X193459704Y-121060972D02*
X193626619Y-121116610D01*
X193626619Y-121116610D02*
X193737895Y-121116610D01*
X193737895Y-121116610D02*
X193904809Y-121060972D01*
X193904809Y-121060972D02*
X193960447Y-121005333D01*
X193960447Y-121005333D02*
X193960447Y-120615867D01*
X193960447Y-120615867D02*
X193737895Y-120615867D01*
X194461190Y-121116610D02*
X194461190Y-119948210D01*
X194461190Y-119948210D02*
X195128847Y-121116610D01*
X195128847Y-121116610D02*
X195128847Y-119948210D01*
X195685228Y-121116610D02*
X195685228Y-119948210D01*
X195685228Y-119948210D02*
X195963418Y-119948210D01*
X195963418Y-119948210D02*
X196130333Y-120003848D01*
X196130333Y-120003848D02*
X196241609Y-120115124D01*
X196241609Y-120115124D02*
X196297247Y-120226400D01*
X196297247Y-120226400D02*
X196352885Y-120448952D01*
X196352885Y-120448952D02*
X196352885Y-120615867D01*
X196352885Y-120615867D02*
X196297247Y-120838419D01*
X196297247Y-120838419D02*
X196241609Y-120949695D01*
X196241609Y-120949695D02*
X196130333Y-121060972D01*
X196130333Y-121060972D02*
X195963418Y-121116610D01*
X195963418Y-121116610D02*
X195685228Y-121116610D01*
X182779609Y-121167410D02*
X182111952Y-121167410D01*
X182445780Y-121167410D02*
X182445780Y-119999010D01*
X182445780Y-119999010D02*
X182334504Y-120165924D01*
X182334504Y-120165924D02*
X182223228Y-120277200D01*
X182223228Y-120277200D02*
X182111952Y-120332838D01*
X183169076Y-119999010D02*
X183948009Y-119999010D01*
X183948009Y-119999010D02*
X183447266Y-121167410D01*
X184615666Y-119999010D02*
X184726943Y-119999010D01*
X184726943Y-119999010D02*
X184838219Y-120054648D01*
X184838219Y-120054648D02*
X184893857Y-120110286D01*
X184893857Y-120110286D02*
X184949495Y-120221562D01*
X184949495Y-120221562D02*
X185005133Y-120444114D01*
X185005133Y-120444114D02*
X185005133Y-120722305D01*
X185005133Y-120722305D02*
X184949495Y-120944857D01*
X184949495Y-120944857D02*
X184893857Y-121056133D01*
X184893857Y-121056133D02*
X184838219Y-121111772D01*
X184838219Y-121111772D02*
X184726943Y-121167410D01*
X184726943Y-121167410D02*
X184615666Y-121167410D01*
X184615666Y-121167410D02*
X184504390Y-121111772D01*
X184504390Y-121111772D02*
X184448752Y-121056133D01*
X184448752Y-121056133D02*
X184393114Y-120944857D01*
X184393114Y-120944857D02*
X184337476Y-120722305D01*
X184337476Y-120722305D02*
X184337476Y-120444114D01*
X184337476Y-120444114D02*
X184393114Y-120221562D01*
X184393114Y-120221562D02*
X184448752Y-120110286D01*
X184448752Y-120110286D02*
X184504390Y-120054648D01*
X184504390Y-120054648D02*
X184615666Y-119999010D01*
X185338962Y-119999010D02*
X185728428Y-121167410D01*
X185728428Y-121167410D02*
X186117895Y-119999010D01*
X187300809Y-121142010D02*
X186633152Y-121142010D01*
X186966980Y-121142010D02*
X186966980Y-119973610D01*
X186966980Y-119973610D02*
X186855704Y-120140524D01*
X186855704Y-120140524D02*
X186744428Y-120251800D01*
X186744428Y-120251800D02*
X186633152Y-120307438D01*
X187745914Y-120084886D02*
X187801552Y-120029248D01*
X187801552Y-120029248D02*
X187912828Y-119973610D01*
X187912828Y-119973610D02*
X188191019Y-119973610D01*
X188191019Y-119973610D02*
X188302295Y-120029248D01*
X188302295Y-120029248D02*
X188357933Y-120084886D01*
X188357933Y-120084886D02*
X188413571Y-120196162D01*
X188413571Y-120196162D02*
X188413571Y-120307438D01*
X188413571Y-120307438D02*
X188357933Y-120474352D01*
X188357933Y-120474352D02*
X187690276Y-121142010D01*
X187690276Y-121142010D02*
X188413571Y-121142010D01*
X188747400Y-119973610D02*
X189136866Y-121142010D01*
X189136866Y-121142010D02*
X189526333Y-119973610D01*
%TO.C,C6*%
X108001847Y-132079733D02*
X107946209Y-132135372D01*
X107946209Y-132135372D02*
X107779295Y-132191010D01*
X107779295Y-132191010D02*
X107668019Y-132191010D01*
X107668019Y-132191010D02*
X107501104Y-132135372D01*
X107501104Y-132135372D02*
X107389828Y-132024095D01*
X107389828Y-132024095D02*
X107334190Y-131912819D01*
X107334190Y-131912819D02*
X107278552Y-131690267D01*
X107278552Y-131690267D02*
X107278552Y-131523352D01*
X107278552Y-131523352D02*
X107334190Y-131300800D01*
X107334190Y-131300800D02*
X107389828Y-131189524D01*
X107389828Y-131189524D02*
X107501104Y-131078248D01*
X107501104Y-131078248D02*
X107668019Y-131022610D01*
X107668019Y-131022610D02*
X107779295Y-131022610D01*
X107779295Y-131022610D02*
X107946209Y-131078248D01*
X107946209Y-131078248D02*
X108001847Y-131133886D01*
X109003333Y-131022610D02*
X108780780Y-131022610D01*
X108780780Y-131022610D02*
X108669504Y-131078248D01*
X108669504Y-131078248D02*
X108613866Y-131133886D01*
X108613866Y-131133886D02*
X108502590Y-131300800D01*
X108502590Y-131300800D02*
X108446952Y-131523352D01*
X108446952Y-131523352D02*
X108446952Y-131968457D01*
X108446952Y-131968457D02*
X108502590Y-132079733D01*
X108502590Y-132079733D02*
X108558228Y-132135372D01*
X108558228Y-132135372D02*
X108669504Y-132191010D01*
X108669504Y-132191010D02*
X108892057Y-132191010D01*
X108892057Y-132191010D02*
X109003333Y-132135372D01*
X109003333Y-132135372D02*
X109058971Y-132079733D01*
X109058971Y-132079733D02*
X109114609Y-131968457D01*
X109114609Y-131968457D02*
X109114609Y-131690267D01*
X109114609Y-131690267D02*
X109058971Y-131578991D01*
X109058971Y-131578991D02*
X109003333Y-131523352D01*
X109003333Y-131523352D02*
X108892057Y-131467714D01*
X108892057Y-131467714D02*
X108669504Y-131467714D01*
X108669504Y-131467714D02*
X108558228Y-131523352D01*
X108558228Y-131523352D02*
X108502590Y-131578991D01*
X108502590Y-131578991D02*
X108446952Y-131690267D01*
%TO.C,IC6*%
X186819419Y-135160524D02*
X186819419Y-133992124D01*
X188043457Y-135049247D02*
X187987819Y-135104886D01*
X187987819Y-135104886D02*
X187820905Y-135160524D01*
X187820905Y-135160524D02*
X187709629Y-135160524D01*
X187709629Y-135160524D02*
X187542714Y-135104886D01*
X187542714Y-135104886D02*
X187431438Y-134993609D01*
X187431438Y-134993609D02*
X187375800Y-134882333D01*
X187375800Y-134882333D02*
X187320162Y-134659781D01*
X187320162Y-134659781D02*
X187320162Y-134492866D01*
X187320162Y-134492866D02*
X187375800Y-134270314D01*
X187375800Y-134270314D02*
X187431438Y-134159038D01*
X187431438Y-134159038D02*
X187542714Y-134047762D01*
X187542714Y-134047762D02*
X187709629Y-133992124D01*
X187709629Y-133992124D02*
X187820905Y-133992124D01*
X187820905Y-133992124D02*
X187987819Y-134047762D01*
X187987819Y-134047762D02*
X188043457Y-134103400D01*
X189044943Y-133992124D02*
X188822390Y-133992124D01*
X188822390Y-133992124D02*
X188711114Y-134047762D01*
X188711114Y-134047762D02*
X188655476Y-134103400D01*
X188655476Y-134103400D02*
X188544200Y-134270314D01*
X188544200Y-134270314D02*
X188488562Y-134492866D01*
X188488562Y-134492866D02*
X188488562Y-134937971D01*
X188488562Y-134937971D02*
X188544200Y-135049247D01*
X188544200Y-135049247D02*
X188599838Y-135104886D01*
X188599838Y-135104886D02*
X188711114Y-135160524D01*
X188711114Y-135160524D02*
X188933667Y-135160524D01*
X188933667Y-135160524D02*
X189044943Y-135104886D01*
X189044943Y-135104886D02*
X189100581Y-135049247D01*
X189100581Y-135049247D02*
X189156219Y-134937971D01*
X189156219Y-134937971D02*
X189156219Y-134659781D01*
X189156219Y-134659781D02*
X189100581Y-134548505D01*
X189100581Y-134548505D02*
X189044943Y-134492866D01*
X189044943Y-134492866D02*
X188933667Y-134437228D01*
X188933667Y-134437228D02*
X188711114Y-134437228D01*
X188711114Y-134437228D02*
X188599838Y-134492866D01*
X188599838Y-134492866D02*
X188544200Y-134548505D01*
X188544200Y-134548505D02*
X188488562Y-134659781D01*
%TO.C,R5*%
X195194685Y-128635010D02*
X194805218Y-128078629D01*
X194527028Y-128635010D02*
X194527028Y-127466610D01*
X194527028Y-127466610D02*
X194972133Y-127466610D01*
X194972133Y-127466610D02*
X195083409Y-127522248D01*
X195083409Y-127522248D02*
X195139047Y-127577886D01*
X195139047Y-127577886D02*
X195194685Y-127689162D01*
X195194685Y-127689162D02*
X195194685Y-127856076D01*
X195194685Y-127856076D02*
X195139047Y-127967352D01*
X195139047Y-127967352D02*
X195083409Y-128022991D01*
X195083409Y-128022991D02*
X194972133Y-128078629D01*
X194972133Y-128078629D02*
X194527028Y-128078629D01*
X196251809Y-127466610D02*
X195695428Y-127466610D01*
X195695428Y-127466610D02*
X195639790Y-128022991D01*
X195639790Y-128022991D02*
X195695428Y-127967352D01*
X195695428Y-127967352D02*
X195806704Y-127911714D01*
X195806704Y-127911714D02*
X196084895Y-127911714D01*
X196084895Y-127911714D02*
X196196171Y-127967352D01*
X196196171Y-127967352D02*
X196251809Y-128022991D01*
X196251809Y-128022991D02*
X196307447Y-128134267D01*
X196307447Y-128134267D02*
X196307447Y-128412457D01*
X196307447Y-128412457D02*
X196251809Y-128523733D01*
X196251809Y-128523733D02*
X196196171Y-128579372D01*
X196196171Y-128579372D02*
X196084895Y-128635010D01*
X196084895Y-128635010D02*
X195806704Y-128635010D01*
X195806704Y-128635010D02*
X195695428Y-128579372D01*
X195695428Y-128579372D02*
X195639790Y-128523733D01*
D14*
%TO.C,IC3*%
X163510383Y-105719571D02*
X163510383Y-104928361D01*
X164339270Y-105644218D02*
X164301593Y-105681895D01*
X164301593Y-105681895D02*
X164188563Y-105719571D01*
X164188563Y-105719571D02*
X164113210Y-105719571D01*
X164113210Y-105719571D02*
X164000180Y-105681895D01*
X164000180Y-105681895D02*
X163924827Y-105606541D01*
X163924827Y-105606541D02*
X163887150Y-105531188D01*
X163887150Y-105531188D02*
X163849473Y-105380481D01*
X163849473Y-105380481D02*
X163849473Y-105267451D01*
X163849473Y-105267451D02*
X163887150Y-105116745D01*
X163887150Y-105116745D02*
X163924827Y-105041391D01*
X163924827Y-105041391D02*
X164000180Y-104966038D01*
X164000180Y-104966038D02*
X164113210Y-104928361D01*
X164113210Y-104928361D02*
X164188563Y-104928361D01*
X164188563Y-104928361D02*
X164301593Y-104966038D01*
X164301593Y-104966038D02*
X164339270Y-105003715D01*
X164603007Y-104928361D02*
X165092803Y-104928361D01*
X165092803Y-104928361D02*
X164829067Y-105229775D01*
X164829067Y-105229775D02*
X164942097Y-105229775D01*
X164942097Y-105229775D02*
X165017450Y-105267451D01*
X165017450Y-105267451D02*
X165055127Y-105305128D01*
X165055127Y-105305128D02*
X165092803Y-105380481D01*
X165092803Y-105380481D02*
X165092803Y-105568865D01*
X165092803Y-105568865D02*
X165055127Y-105644218D01*
X165055127Y-105644218D02*
X165017450Y-105681895D01*
X165017450Y-105681895D02*
X164942097Y-105719571D01*
X164942097Y-105719571D02*
X164716037Y-105719571D01*
X164716037Y-105719571D02*
X164640683Y-105681895D01*
X164640683Y-105681895D02*
X164603007Y-105644218D01*
D11*
%TO.C,BAT1*%
X164134799Y-126244991D02*
X164301713Y-126300629D01*
X164301713Y-126300629D02*
X164357351Y-126356267D01*
X164357351Y-126356267D02*
X164412989Y-126467543D01*
X164412989Y-126467543D02*
X164412989Y-126634457D01*
X164412989Y-126634457D02*
X164357351Y-126745733D01*
X164357351Y-126745733D02*
X164301713Y-126801372D01*
X164301713Y-126801372D02*
X164190437Y-126857010D01*
X164190437Y-126857010D02*
X163745332Y-126857010D01*
X163745332Y-126857010D02*
X163745332Y-125688610D01*
X163745332Y-125688610D02*
X164134799Y-125688610D01*
X164134799Y-125688610D02*
X164246075Y-125744248D01*
X164246075Y-125744248D02*
X164301713Y-125799886D01*
X164301713Y-125799886D02*
X164357351Y-125911162D01*
X164357351Y-125911162D02*
X164357351Y-126022438D01*
X164357351Y-126022438D02*
X164301713Y-126133714D01*
X164301713Y-126133714D02*
X164246075Y-126189352D01*
X164246075Y-126189352D02*
X164134799Y-126244991D01*
X164134799Y-126244991D02*
X163745332Y-126244991D01*
X164858094Y-126523181D02*
X165414475Y-126523181D01*
X164746818Y-126857010D02*
X165136284Y-125688610D01*
X165136284Y-125688610D02*
X165525751Y-126857010D01*
X165748304Y-125688610D02*
X166415961Y-125688610D01*
X166082132Y-126857010D02*
X166082132Y-125688610D01*
X167417447Y-126857010D02*
X166749790Y-126857010D01*
X167083618Y-126857010D02*
X167083618Y-125688610D01*
X167083618Y-125688610D02*
X166972342Y-125855524D01*
X166972342Y-125855524D02*
X166861066Y-125966800D01*
X166861066Y-125966800D02*
X166749790Y-126022438D01*
D15*
%TO.C,IC5*%
X175310237Y-137173526D02*
X175310237Y-135903526D01*
X176640714Y-137052573D02*
X176580238Y-137113050D01*
X176580238Y-137113050D02*
X176398809Y-137173526D01*
X176398809Y-137173526D02*
X176277857Y-137173526D01*
X176277857Y-137173526D02*
X176096428Y-137113050D01*
X176096428Y-137113050D02*
X175975476Y-136992097D01*
X175975476Y-136992097D02*
X175914999Y-136871145D01*
X175914999Y-136871145D02*
X175854523Y-136629240D01*
X175854523Y-136629240D02*
X175854523Y-136447811D01*
X175854523Y-136447811D02*
X175914999Y-136205907D01*
X175914999Y-136205907D02*
X175975476Y-136084954D01*
X175975476Y-136084954D02*
X176096428Y-135964002D01*
X176096428Y-135964002D02*
X176277857Y-135903526D01*
X176277857Y-135903526D02*
X176398809Y-135903526D01*
X176398809Y-135903526D02*
X176580238Y-135964002D01*
X176580238Y-135964002D02*
X176640714Y-136024478D01*
X177789761Y-135903526D02*
X177184999Y-135903526D01*
X177184999Y-135903526D02*
X177124523Y-136508288D01*
X177124523Y-136508288D02*
X177184999Y-136447811D01*
X177184999Y-136447811D02*
X177305952Y-136387335D01*
X177305952Y-136387335D02*
X177608333Y-136387335D01*
X177608333Y-136387335D02*
X177729285Y-136447811D01*
X177729285Y-136447811D02*
X177789761Y-136508288D01*
X177789761Y-136508288D02*
X177850238Y-136629240D01*
X177850238Y-136629240D02*
X177850238Y-136931621D01*
X177850238Y-136931621D02*
X177789761Y-137052573D01*
X177789761Y-137052573D02*
X177729285Y-137113050D01*
X177729285Y-137113050D02*
X177608333Y-137173526D01*
X177608333Y-137173526D02*
X177305952Y-137173526D01*
X177305952Y-137173526D02*
X177184999Y-137113050D01*
X177184999Y-137113050D02*
X177124523Y-137052573D01*
D14*
%TO.C,IC4*%
X186956882Y-105667171D02*
X186956882Y-104875961D01*
X187785769Y-105591818D02*
X187748092Y-105629495D01*
X187748092Y-105629495D02*
X187635062Y-105667171D01*
X187635062Y-105667171D02*
X187559709Y-105667171D01*
X187559709Y-105667171D02*
X187446679Y-105629495D01*
X187446679Y-105629495D02*
X187371326Y-105554141D01*
X187371326Y-105554141D02*
X187333649Y-105478788D01*
X187333649Y-105478788D02*
X187295972Y-105328081D01*
X187295972Y-105328081D02*
X187295972Y-105215051D01*
X187295972Y-105215051D02*
X187333649Y-105064345D01*
X187333649Y-105064345D02*
X187371326Y-104988991D01*
X187371326Y-104988991D02*
X187446679Y-104913638D01*
X187446679Y-104913638D02*
X187559709Y-104875961D01*
X187559709Y-104875961D02*
X187635062Y-104875961D01*
X187635062Y-104875961D02*
X187748092Y-104913638D01*
X187748092Y-104913638D02*
X187785769Y-104951315D01*
X188463949Y-105139698D02*
X188463949Y-105667171D01*
X188275566Y-104838285D02*
X188087182Y-105403435D01*
X188087182Y-105403435D02*
X188576979Y-105403435D01*
%TO.C,IC2*%
X133462183Y-105643371D02*
X133462183Y-104852161D01*
X134291070Y-105568018D02*
X134253393Y-105605695D01*
X134253393Y-105605695D02*
X134140363Y-105643371D01*
X134140363Y-105643371D02*
X134065010Y-105643371D01*
X134065010Y-105643371D02*
X133951980Y-105605695D01*
X133951980Y-105605695D02*
X133876627Y-105530341D01*
X133876627Y-105530341D02*
X133838950Y-105454988D01*
X133838950Y-105454988D02*
X133801273Y-105304281D01*
X133801273Y-105304281D02*
X133801273Y-105191251D01*
X133801273Y-105191251D02*
X133838950Y-105040545D01*
X133838950Y-105040545D02*
X133876627Y-104965191D01*
X133876627Y-104965191D02*
X133951980Y-104889838D01*
X133951980Y-104889838D02*
X134065010Y-104852161D01*
X134065010Y-104852161D02*
X134140363Y-104852161D01*
X134140363Y-104852161D02*
X134253393Y-104889838D01*
X134253393Y-104889838D02*
X134291070Y-104927515D01*
X134592483Y-104927515D02*
X134630160Y-104889838D01*
X134630160Y-104889838D02*
X134705513Y-104852161D01*
X134705513Y-104852161D02*
X134893897Y-104852161D01*
X134893897Y-104852161D02*
X134969250Y-104889838D01*
X134969250Y-104889838D02*
X135006927Y-104927515D01*
X135006927Y-104927515D02*
X135044603Y-105002868D01*
X135044603Y-105002868D02*
X135044603Y-105078221D01*
X135044603Y-105078221D02*
X135006927Y-105191251D01*
X135006927Y-105191251D02*
X134554807Y-105643371D01*
X134554807Y-105643371D02*
X135044603Y-105643371D01*
D11*
%TO.C,R6*%
X195509847Y-134731010D02*
X195120380Y-134174629D01*
X194842190Y-134731010D02*
X194842190Y-133562610D01*
X194842190Y-133562610D02*
X195287295Y-133562610D01*
X195287295Y-133562610D02*
X195398571Y-133618248D01*
X195398571Y-133618248D02*
X195454209Y-133673886D01*
X195454209Y-133673886D02*
X195509847Y-133785162D01*
X195509847Y-133785162D02*
X195509847Y-133952076D01*
X195509847Y-133952076D02*
X195454209Y-134063352D01*
X195454209Y-134063352D02*
X195398571Y-134118991D01*
X195398571Y-134118991D02*
X195287295Y-134174629D01*
X195287295Y-134174629D02*
X194842190Y-134174629D01*
X196511333Y-133562610D02*
X196288780Y-133562610D01*
X196288780Y-133562610D02*
X196177504Y-133618248D01*
X196177504Y-133618248D02*
X196121866Y-133673886D01*
X196121866Y-133673886D02*
X196010590Y-133840800D01*
X196010590Y-133840800D02*
X195954952Y-134063352D01*
X195954952Y-134063352D02*
X195954952Y-134508457D01*
X195954952Y-134508457D02*
X196010590Y-134619733D01*
X196010590Y-134619733D02*
X196066228Y-134675372D01*
X196066228Y-134675372D02*
X196177504Y-134731010D01*
X196177504Y-134731010D02*
X196400057Y-134731010D01*
X196400057Y-134731010D02*
X196511333Y-134675372D01*
X196511333Y-134675372D02*
X196566971Y-134619733D01*
X196566971Y-134619733D02*
X196622609Y-134508457D01*
X196622609Y-134508457D02*
X196622609Y-134230267D01*
X196622609Y-134230267D02*
X196566971Y-134118991D01*
X196566971Y-134118991D02*
X196511333Y-134063352D01*
X196511333Y-134063352D02*
X196400057Y-134007714D01*
X196400057Y-134007714D02*
X196177504Y-134007714D01*
X196177504Y-134007714D02*
X196066228Y-134063352D01*
X196066228Y-134063352D02*
X196010590Y-134118991D01*
X196010590Y-134118991D02*
X195954952Y-134230267D01*
D14*
%TO.C,IC1*%
X109687783Y-105694171D02*
X109687783Y-104902961D01*
X110516670Y-105618818D02*
X110478993Y-105656495D01*
X110478993Y-105656495D02*
X110365963Y-105694171D01*
X110365963Y-105694171D02*
X110290610Y-105694171D01*
X110290610Y-105694171D02*
X110177580Y-105656495D01*
X110177580Y-105656495D02*
X110102227Y-105581141D01*
X110102227Y-105581141D02*
X110064550Y-105505788D01*
X110064550Y-105505788D02*
X110026873Y-105355081D01*
X110026873Y-105355081D02*
X110026873Y-105242051D01*
X110026873Y-105242051D02*
X110064550Y-105091345D01*
X110064550Y-105091345D02*
X110102227Y-105015991D01*
X110102227Y-105015991D02*
X110177580Y-104940638D01*
X110177580Y-104940638D02*
X110290610Y-104902961D01*
X110290610Y-104902961D02*
X110365963Y-104902961D01*
X110365963Y-104902961D02*
X110478993Y-104940638D01*
X110478993Y-104940638D02*
X110516670Y-104978315D01*
X111270203Y-105694171D02*
X110818083Y-105694171D01*
X111044143Y-105694171D02*
X111044143Y-104902961D01*
X111044143Y-104902961D02*
X110968790Y-105015991D01*
X110968790Y-105015991D02*
X110893437Y-105091345D01*
X110893437Y-105091345D02*
X110818083Y-105129021D01*
D11*
%TO.C,N4*%
X188757010Y-90058609D02*
X187588610Y-90058609D01*
X187588610Y-90058609D02*
X188757010Y-89390952D01*
X188757010Y-89390952D02*
X187588610Y-89390952D01*
X187978076Y-88333828D02*
X188757010Y-88333828D01*
X187532972Y-88612019D02*
X188367543Y-88890209D01*
X188367543Y-88890209D02*
X188367543Y-88166914D01*
%TO.C,N3*%
X109157010Y-89858609D02*
X107988610Y-89858609D01*
X107988610Y-89858609D02*
X109157010Y-89190952D01*
X109157010Y-89190952D02*
X107988610Y-89190952D01*
X107988610Y-88745847D02*
X107988610Y-88022552D01*
X107988610Y-88022552D02*
X108433714Y-88412019D01*
X108433714Y-88412019D02*
X108433714Y-88245104D01*
X108433714Y-88245104D02*
X108489352Y-88133828D01*
X108489352Y-88133828D02*
X108544991Y-88078190D01*
X108544991Y-88078190D02*
X108656267Y-88022552D01*
X108656267Y-88022552D02*
X108934457Y-88022552D01*
X108934457Y-88022552D02*
X109045733Y-88078190D01*
X109045733Y-88078190D02*
X109101372Y-88133828D01*
X109101372Y-88133828D02*
X109157010Y-88245104D01*
X109157010Y-88245104D02*
X109157010Y-88578933D01*
X109157010Y-88578933D02*
X109101372Y-88690209D01*
X109101372Y-88690209D02*
X109045733Y-88745847D01*
%TO.C,N1*%
X164457010Y-90258609D02*
X163288610Y-90258609D01*
X163288610Y-90258609D02*
X164457010Y-89590952D01*
X164457010Y-89590952D02*
X163288610Y-89590952D01*
X164457010Y-88422552D02*
X164457010Y-89090209D01*
X164457010Y-88756381D02*
X163288610Y-88756381D01*
X163288610Y-88756381D02*
X163455524Y-88867657D01*
X163455524Y-88867657D02*
X163566800Y-88978933D01*
X163566800Y-88978933D02*
X163622438Y-89090209D01*
%TO.C,N2*%
X133857010Y-90258609D02*
X132688610Y-90258609D01*
X132688610Y-90258609D02*
X133857010Y-89590952D01*
X133857010Y-89590952D02*
X132688610Y-89590952D01*
X132799886Y-89090209D02*
X132744248Y-89034571D01*
X132744248Y-89034571D02*
X132688610Y-88923295D01*
X132688610Y-88923295D02*
X132688610Y-88645104D01*
X132688610Y-88645104D02*
X132744248Y-88533828D01*
X132744248Y-88533828D02*
X132799886Y-88478190D01*
X132799886Y-88478190D02*
X132911162Y-88422552D01*
X132911162Y-88422552D02*
X133022438Y-88422552D01*
X133022438Y-88422552D02*
X133189352Y-88478190D01*
X133189352Y-88478190D02*
X133857010Y-89145847D01*
X133857010Y-89145847D02*
X133857010Y-88422552D01*
D16*
%TO.C,IC6*%
X182285000Y-129500000D02*
X184210000Y-129500000D01*
X184560000Y-129470000D02*
X191360000Y-129470000D01*
X184560000Y-139770000D02*
X184560000Y-129470000D01*
X191360000Y-129470000D02*
X191360000Y-139770000D01*
X191360000Y-139770000D02*
X184560000Y-139770000D01*
%TO.C,U$2*%
G36*
X144098550Y-87498650D02*
G01*
X143539750Y-87498650D01*
X143539750Y-87473250D01*
X144098550Y-87473250D01*
X144098550Y-87498650D01*
G37*
G36*
X144073150Y-87524050D02*
G01*
X143539750Y-87524050D01*
X143539750Y-87498650D01*
X144073150Y-87498650D01*
X144073150Y-87524050D01*
G37*
G36*
X144073150Y-87549450D02*
G01*
X143539750Y-87549450D01*
X143539750Y-87524050D01*
X144073150Y-87524050D01*
X144073150Y-87549450D01*
G37*
G36*
X144047750Y-87574850D02*
G01*
X143539750Y-87574850D01*
X143539750Y-87549450D01*
X144047750Y-87549450D01*
X144047750Y-87574850D01*
G37*
G36*
X144047750Y-87600250D02*
G01*
X143539750Y-87600250D01*
X143539750Y-87574850D01*
X144047750Y-87574850D01*
X144047750Y-87600250D01*
G37*
G36*
X144073150Y-87625650D02*
G01*
X143539750Y-87625650D01*
X143539750Y-87600250D01*
X144073150Y-87600250D01*
X144073150Y-87625650D01*
G37*
G36*
X153521950Y-87651050D02*
G01*
X143539750Y-87651050D01*
X143539750Y-87625650D01*
X153521950Y-87625650D01*
X153521950Y-87651050D01*
G37*
G36*
X153521950Y-87676450D02*
G01*
X143539750Y-87676450D01*
X143539750Y-87651050D01*
X153521950Y-87651050D01*
X153521950Y-87676450D01*
G37*
G36*
X153521950Y-87701850D02*
G01*
X143539750Y-87701850D01*
X143539750Y-87676450D01*
X153521950Y-87676450D01*
X153521950Y-87701850D01*
G37*
G36*
X153521950Y-87727250D02*
G01*
X143539750Y-87727250D01*
X143539750Y-87701850D01*
X153521950Y-87701850D01*
X153521950Y-87727250D01*
G37*
G36*
X144149350Y-87397050D02*
G01*
X143565150Y-87397050D01*
X143565150Y-87371650D01*
X144149350Y-87371650D01*
X144149350Y-87397050D01*
G37*
G36*
X144149350Y-87422450D02*
G01*
X143565150Y-87422450D01*
X143565150Y-87397050D01*
X144149350Y-87397050D01*
X144149350Y-87422450D01*
G37*
G36*
X144123950Y-87447850D02*
G01*
X143565150Y-87447850D01*
X143565150Y-87422450D01*
X144123950Y-87422450D01*
X144123950Y-87447850D01*
G37*
G36*
X144123950Y-87473250D02*
G01*
X143565150Y-87473250D01*
X143565150Y-87447850D01*
X144123950Y-87447850D01*
X144123950Y-87473250D01*
G37*
G36*
X153496550Y-87752650D02*
G01*
X143565150Y-87752650D01*
X143565150Y-87727250D01*
X153496550Y-87727250D01*
X153496550Y-87752650D01*
G37*
G36*
X153496550Y-87778050D02*
G01*
X143565150Y-87778050D01*
X143565150Y-87752650D01*
X153496550Y-87752650D01*
X153496550Y-87778050D01*
G37*
G36*
X153496550Y-87803450D02*
G01*
X143565150Y-87803450D01*
X143565150Y-87778050D01*
X153496550Y-87778050D01*
X153496550Y-87803450D01*
G37*
G36*
X144174750Y-87346250D02*
G01*
X143590550Y-87346250D01*
X143590550Y-87320850D01*
X144174750Y-87320850D01*
X144174750Y-87346250D01*
G37*
G36*
X144174750Y-87371650D02*
G01*
X143590550Y-87371650D01*
X143590550Y-87346250D01*
X144174750Y-87346250D01*
X144174750Y-87371650D01*
G37*
G36*
X153471150Y-87828850D02*
G01*
X143590550Y-87828850D01*
X143590550Y-87803450D01*
X153471150Y-87803450D01*
X153471150Y-87828850D01*
G37*
G36*
X153471150Y-87854250D02*
G01*
X143590550Y-87854250D01*
X143590550Y-87828850D01*
X153471150Y-87828850D01*
X153471150Y-87854250D01*
G37*
G36*
X144225550Y-87295450D02*
G01*
X143615950Y-87295450D01*
X143615950Y-87270050D01*
X144225550Y-87270050D01*
X144225550Y-87295450D01*
G37*
G36*
X144200150Y-87320850D02*
G01*
X143615950Y-87320850D01*
X143615950Y-87295450D01*
X144200150Y-87295450D01*
X144200150Y-87320850D01*
G37*
G36*
X153445750Y-87879650D02*
G01*
X143615950Y-87879650D01*
X143615950Y-87854250D01*
X153445750Y-87854250D01*
X153445750Y-87879650D01*
G37*
G36*
X153445750Y-87905050D02*
G01*
X143615950Y-87905050D01*
X143615950Y-87879650D01*
X153445750Y-87879650D01*
X153445750Y-87905050D01*
G37*
G36*
X144250950Y-87244650D02*
G01*
X143641350Y-87244650D01*
X143641350Y-87219250D01*
X144250950Y-87219250D01*
X144250950Y-87244650D01*
G37*
G36*
X144225550Y-87270050D02*
G01*
X143641350Y-87270050D01*
X143641350Y-87244650D01*
X144225550Y-87244650D01*
X144225550Y-87270050D01*
G37*
G36*
X153420350Y-87930450D02*
G01*
X143641350Y-87930450D01*
X143641350Y-87905050D01*
X153420350Y-87905050D01*
X153420350Y-87930450D01*
G37*
G36*
X144250950Y-87219250D02*
G01*
X143666750Y-87219250D01*
X143666750Y-87193850D01*
X144250950Y-87193850D01*
X144250950Y-87219250D01*
G37*
G36*
X153394950Y-87955850D02*
G01*
X143666750Y-87955850D01*
X143666750Y-87930450D01*
X153394950Y-87930450D01*
X153394950Y-87955850D01*
G37*
G36*
X144276350Y-87168450D02*
G01*
X143692150Y-87168450D01*
X143692150Y-87143050D01*
X144276350Y-87143050D01*
X144276350Y-87168450D01*
G37*
G36*
X144276350Y-87193850D02*
G01*
X143692150Y-87193850D01*
X143692150Y-87168450D01*
X144276350Y-87168450D01*
X144276350Y-87193850D01*
G37*
G36*
X153369550Y-87981250D02*
G01*
X143692150Y-87981250D01*
X143692150Y-87955850D01*
X153369550Y-87955850D01*
X153369550Y-87981250D01*
G37*
G36*
X144327150Y-87117650D02*
G01*
X143717550Y-87117650D01*
X143717550Y-87092250D01*
X144327150Y-87092250D01*
X144327150Y-87117650D01*
G37*
G36*
X144301750Y-87143050D02*
G01*
X143717550Y-87143050D01*
X143717550Y-87117650D01*
X144301750Y-87117650D01*
X144301750Y-87143050D01*
G37*
G36*
X153344150Y-88006650D02*
G01*
X143717550Y-88006650D01*
X143717550Y-87981250D01*
X153344150Y-87981250D01*
X153344150Y-88006650D01*
G37*
G36*
X144352550Y-87066850D02*
G01*
X143742950Y-87066850D01*
X143742950Y-87041450D01*
X144352550Y-87041450D01*
X144352550Y-87066850D01*
G37*
G36*
X144327150Y-87092250D02*
G01*
X143742950Y-87092250D01*
X143742950Y-87066850D01*
X144327150Y-87066850D01*
X144327150Y-87092250D01*
G37*
G36*
X153318750Y-88032050D02*
G01*
X143742950Y-88032050D01*
X143742950Y-88006650D01*
X153318750Y-88006650D01*
X153318750Y-88032050D01*
G37*
G36*
X144352550Y-87041450D02*
G01*
X143768350Y-87041450D01*
X143768350Y-87016050D01*
X144352550Y-87016050D01*
X144352550Y-87041450D01*
G37*
G36*
X144377950Y-86990650D02*
G01*
X143793750Y-86990650D01*
X143793750Y-86965250D01*
X144377950Y-86965250D01*
X144377950Y-86990650D01*
G37*
G36*
X144377950Y-87016050D02*
G01*
X143793750Y-87016050D01*
X143793750Y-86990650D01*
X144377950Y-86990650D01*
X144377950Y-87016050D01*
G37*
G36*
X153267950Y-88057450D02*
G01*
X143793750Y-88057450D01*
X143793750Y-88032050D01*
X153267950Y-88032050D01*
X153267950Y-88057450D01*
G37*
G36*
X144428750Y-86939850D02*
G01*
X143819150Y-86939850D01*
X143819150Y-86914450D01*
X144428750Y-86914450D01*
X144428750Y-86939850D01*
G37*
G36*
X144403350Y-86965250D02*
G01*
X143819150Y-86965250D01*
X143819150Y-86939850D01*
X144403350Y-86939850D01*
X144403350Y-86965250D01*
G37*
G36*
X144454150Y-86889050D02*
G01*
X143844550Y-86889050D01*
X143844550Y-86863650D01*
X144454150Y-86863650D01*
X144454150Y-86889050D01*
G37*
G36*
X144428750Y-86914450D02*
G01*
X143844550Y-86914450D01*
X143844550Y-86889050D01*
X144428750Y-86889050D01*
X144428750Y-86914450D01*
G37*
G36*
X153217150Y-88082850D02*
G01*
X143844550Y-88082850D01*
X143844550Y-88057450D01*
X153217150Y-88057450D01*
X153217150Y-88082850D01*
G37*
G36*
X144454150Y-86863650D02*
G01*
X143869950Y-86863650D01*
X143869950Y-86838250D01*
X144454150Y-86838250D01*
X144454150Y-86863650D01*
G37*
G36*
X144479550Y-86812850D02*
G01*
X143895350Y-86812850D01*
X143895350Y-86787450D01*
X144479550Y-86787450D01*
X144479550Y-86812850D01*
G37*
G36*
X144479550Y-86838250D02*
G01*
X143895350Y-86838250D01*
X143895350Y-86812850D01*
X144479550Y-86812850D01*
X144479550Y-86838250D01*
G37*
G36*
X153166350Y-88108250D02*
G01*
X143895350Y-88108250D01*
X143895350Y-88082850D01*
X153166350Y-88082850D01*
X153166350Y-88108250D01*
G37*
G36*
X144530350Y-86762050D02*
G01*
X143920750Y-86762050D01*
X143920750Y-86736650D01*
X144530350Y-86736650D01*
X144530350Y-86762050D01*
G37*
G36*
X144504950Y-86787450D02*
G01*
X143920750Y-86787450D01*
X143920750Y-86762050D01*
X144504950Y-86762050D01*
X144504950Y-86787450D01*
G37*
G36*
X144530350Y-86736650D02*
G01*
X143946150Y-86736650D01*
X143946150Y-86711250D01*
X144530350Y-86711250D01*
X144530350Y-86736650D01*
G37*
G36*
X144555750Y-86685850D02*
G01*
X143971550Y-86685850D01*
X143971550Y-86660450D01*
X144555750Y-86660450D01*
X144555750Y-86685850D01*
G37*
G36*
X144555750Y-86711250D02*
G01*
X143971550Y-86711250D01*
X143971550Y-86685850D01*
X144555750Y-86685850D01*
X144555750Y-86711250D01*
G37*
G36*
X144581150Y-86635050D02*
G01*
X143996950Y-86635050D01*
X143996950Y-86609650D01*
X144581150Y-86609650D01*
X144581150Y-86635050D01*
G37*
G36*
X144581150Y-86660450D02*
G01*
X143996950Y-86660450D01*
X143996950Y-86635050D01*
X144581150Y-86635050D01*
X144581150Y-86660450D01*
G37*
G36*
X153064750Y-88133650D02*
G01*
X143996950Y-88133650D01*
X143996950Y-88108250D01*
X153064750Y-88108250D01*
X153064750Y-88133650D01*
G37*
G36*
X144631950Y-86584250D02*
G01*
X144022350Y-86584250D01*
X144022350Y-86558850D01*
X144631950Y-86558850D01*
X144631950Y-86584250D01*
G37*
G36*
X144606550Y-86609650D02*
G01*
X144022350Y-86609650D01*
X144022350Y-86584250D01*
X144606550Y-86584250D01*
X144606550Y-86609650D01*
G37*
G36*
X144631950Y-86558850D02*
G01*
X144047750Y-86558850D01*
X144047750Y-86533450D01*
X144631950Y-86533450D01*
X144631950Y-86558850D01*
G37*
G36*
X144657350Y-86508050D02*
G01*
X144073150Y-86508050D01*
X144073150Y-86482650D01*
X144657350Y-86482650D01*
X144657350Y-86508050D01*
G37*
G36*
X144657350Y-86533450D02*
G01*
X144073150Y-86533450D01*
X144073150Y-86508050D01*
X144657350Y-86508050D01*
X144657350Y-86533450D01*
G37*
G36*
X144682750Y-86457250D02*
G01*
X144098550Y-86457250D01*
X144098550Y-86431850D01*
X144682750Y-86431850D01*
X144682750Y-86457250D01*
G37*
G36*
X144682750Y-86482650D02*
G01*
X144098550Y-86482650D01*
X144098550Y-86457250D01*
X144682750Y-86457250D01*
X144682750Y-86482650D01*
G37*
G36*
X144733550Y-86406450D02*
G01*
X144123950Y-86406450D01*
X144123950Y-86381050D01*
X144733550Y-86381050D01*
X144733550Y-86406450D01*
G37*
G36*
X144708150Y-86431850D02*
G01*
X144123950Y-86431850D01*
X144123950Y-86406450D01*
X144708150Y-86406450D01*
X144708150Y-86431850D01*
G37*
G36*
X144733550Y-86381050D02*
G01*
X144149350Y-86381050D01*
X144149350Y-86355650D01*
X144733550Y-86355650D01*
X144733550Y-86381050D01*
G37*
G36*
X144758950Y-86330250D02*
G01*
X144174750Y-86330250D01*
X144174750Y-86304850D01*
X144758950Y-86304850D01*
X144758950Y-86330250D01*
G37*
G36*
X144758950Y-86355650D02*
G01*
X144174750Y-86355650D01*
X144174750Y-86330250D01*
X144758950Y-86330250D01*
X144758950Y-86355650D01*
G37*
G36*
X144809750Y-86279450D02*
G01*
X144200150Y-86279450D01*
X144200150Y-86254050D01*
X144809750Y-86254050D01*
X144809750Y-86279450D01*
G37*
G36*
X144784350Y-86304850D02*
G01*
X144200150Y-86304850D01*
X144200150Y-86279450D01*
X144784350Y-86279450D01*
X144784350Y-86304850D01*
G37*
G36*
X144835150Y-86228650D02*
G01*
X144225550Y-86228650D01*
X144225550Y-86203250D01*
X144835150Y-86203250D01*
X144835150Y-86228650D01*
G37*
G36*
X144809750Y-86254050D02*
G01*
X144225550Y-86254050D01*
X144225550Y-86228650D01*
X144809750Y-86228650D01*
X144809750Y-86254050D01*
G37*
G36*
X144835150Y-86203250D02*
G01*
X144250950Y-86203250D01*
X144250950Y-86177850D01*
X144835150Y-86177850D01*
X144835150Y-86203250D01*
G37*
G36*
X144860550Y-86152450D02*
G01*
X144276350Y-86152450D01*
X144276350Y-86127050D01*
X144860550Y-86127050D01*
X144860550Y-86152450D01*
G37*
G36*
X144860550Y-86177850D02*
G01*
X144276350Y-86177850D01*
X144276350Y-86152450D01*
X144860550Y-86152450D01*
X144860550Y-86177850D01*
G37*
G36*
X144911350Y-86101650D02*
G01*
X144301750Y-86101650D01*
X144301750Y-86076250D01*
X144911350Y-86076250D01*
X144911350Y-86101650D01*
G37*
G36*
X144885950Y-86127050D02*
G01*
X144301750Y-86127050D01*
X144301750Y-86101650D01*
X144885950Y-86101650D01*
X144885950Y-86127050D01*
G37*
G36*
X144936750Y-86050850D02*
G01*
X144327150Y-86050850D01*
X144327150Y-86025450D01*
X144936750Y-86025450D01*
X144936750Y-86050850D01*
G37*
G36*
X144911350Y-86076250D02*
G01*
X144327150Y-86076250D01*
X144327150Y-86050850D01*
X144911350Y-86050850D01*
X144911350Y-86076250D01*
G37*
G36*
X144936750Y-86025450D02*
G01*
X144352550Y-86025450D01*
X144352550Y-86000050D01*
X144936750Y-86000050D01*
X144936750Y-86025450D01*
G37*
G36*
X144962150Y-85974650D02*
G01*
X144377950Y-85974650D01*
X144377950Y-85949250D01*
X144962150Y-85949250D01*
X144962150Y-85974650D01*
G37*
G36*
X144962150Y-86000050D02*
G01*
X144377950Y-86000050D01*
X144377950Y-85974650D01*
X144962150Y-85974650D01*
X144962150Y-86000050D01*
G37*
G36*
X145012950Y-85923850D02*
G01*
X144403350Y-85923850D01*
X144403350Y-85898450D01*
X145012950Y-85898450D01*
X145012950Y-85923850D01*
G37*
G36*
X144987550Y-85949250D02*
G01*
X144403350Y-85949250D01*
X144403350Y-85923850D01*
X144987550Y-85923850D01*
X144987550Y-85949250D01*
G37*
G36*
X145038350Y-85873050D02*
G01*
X144428750Y-85873050D01*
X144428750Y-85847650D01*
X145038350Y-85847650D01*
X145038350Y-85873050D01*
G37*
G36*
X145012950Y-85898450D02*
G01*
X144428750Y-85898450D01*
X144428750Y-85873050D01*
X145012950Y-85873050D01*
X145012950Y-85898450D01*
G37*
G36*
X145038350Y-85847650D02*
G01*
X144454150Y-85847650D01*
X144454150Y-85822250D01*
X145038350Y-85822250D01*
X145038350Y-85847650D01*
G37*
G36*
X145063750Y-85796850D02*
G01*
X144479550Y-85796850D01*
X144479550Y-85771450D01*
X145063750Y-85771450D01*
X145063750Y-85796850D01*
G37*
G36*
X145063750Y-85822250D02*
G01*
X144479550Y-85822250D01*
X144479550Y-85796850D01*
X145063750Y-85796850D01*
X145063750Y-85822250D01*
G37*
G36*
X145114550Y-85746050D02*
G01*
X144504950Y-85746050D01*
X144504950Y-85720650D01*
X145114550Y-85720650D01*
X145114550Y-85746050D01*
G37*
G36*
X145089150Y-85771450D02*
G01*
X144504950Y-85771450D01*
X144504950Y-85746050D01*
X145089150Y-85746050D01*
X145089150Y-85771450D01*
G37*
G36*
X145139950Y-85695250D02*
G01*
X144530350Y-85695250D01*
X144530350Y-85669850D01*
X145139950Y-85669850D01*
X145139950Y-85695250D01*
G37*
G36*
X145114550Y-85720650D02*
G01*
X144530350Y-85720650D01*
X144530350Y-85695250D01*
X145114550Y-85695250D01*
X145114550Y-85720650D01*
G37*
G36*
X145139950Y-85669850D02*
G01*
X144555750Y-85669850D01*
X144555750Y-85644450D01*
X145139950Y-85644450D01*
X145139950Y-85669850D01*
G37*
G36*
X145165350Y-85619050D02*
G01*
X144581150Y-85619050D01*
X144581150Y-85593650D01*
X145165350Y-85593650D01*
X145165350Y-85619050D01*
G37*
G36*
X145165350Y-85644450D02*
G01*
X144581150Y-85644450D01*
X144581150Y-85619050D01*
X145165350Y-85619050D01*
X145165350Y-85644450D01*
G37*
G36*
X145216150Y-85568250D02*
G01*
X144606550Y-85568250D01*
X144606550Y-85542850D01*
X145216150Y-85542850D01*
X145216150Y-85568250D01*
G37*
G36*
X145190750Y-85593650D02*
G01*
X144606550Y-85593650D01*
X144606550Y-85568250D01*
X145190750Y-85568250D01*
X145190750Y-85593650D01*
G37*
G36*
X145216150Y-85542850D02*
G01*
X144631950Y-85542850D01*
X144631950Y-85517450D01*
X145216150Y-85517450D01*
X145216150Y-85542850D01*
G37*
G36*
X145241550Y-85492050D02*
G01*
X144657350Y-85492050D01*
X144657350Y-85466650D01*
X145241550Y-85466650D01*
X145241550Y-85492050D01*
G37*
G36*
X145241550Y-85517450D02*
G01*
X144657350Y-85517450D01*
X144657350Y-85492050D01*
X145241550Y-85492050D01*
X145241550Y-85517450D01*
G37*
G36*
X145266950Y-85441250D02*
G01*
X144682750Y-85441250D01*
X144682750Y-85415850D01*
X145266950Y-85415850D01*
X145266950Y-85441250D01*
G37*
G36*
X145266950Y-85466650D02*
G01*
X144682750Y-85466650D01*
X144682750Y-85441250D01*
X145266950Y-85441250D01*
X145266950Y-85466650D01*
G37*
G36*
X145317750Y-85390450D02*
G01*
X144708150Y-85390450D01*
X144708150Y-85365050D01*
X145317750Y-85365050D01*
X145317750Y-85390450D01*
G37*
G36*
X145292350Y-85415850D02*
G01*
X144708150Y-85415850D01*
X144708150Y-85390450D01*
X145292350Y-85390450D01*
X145292350Y-85415850D01*
G37*
G36*
X145317750Y-85365050D02*
G01*
X144733550Y-85365050D01*
X144733550Y-85339650D01*
X145317750Y-85339650D01*
X145317750Y-85365050D01*
G37*
G36*
X145343150Y-85314250D02*
G01*
X144758950Y-85314250D01*
X144758950Y-85288850D01*
X145343150Y-85288850D01*
X145343150Y-85314250D01*
G37*
G36*
X145343150Y-85339650D02*
G01*
X144758950Y-85339650D01*
X144758950Y-85314250D01*
X145343150Y-85314250D01*
X145343150Y-85339650D01*
G37*
G36*
X145368550Y-85263450D02*
G01*
X144784350Y-85263450D01*
X144784350Y-85238050D01*
X145368550Y-85238050D01*
X145368550Y-85263450D01*
G37*
G36*
X145368550Y-85288850D02*
G01*
X144784350Y-85288850D01*
X144784350Y-85263450D01*
X145368550Y-85263450D01*
X145368550Y-85288850D01*
G37*
G36*
X145419350Y-85212650D02*
G01*
X144809750Y-85212650D01*
X144809750Y-85187250D01*
X145419350Y-85187250D01*
X145419350Y-85212650D01*
G37*
G36*
X145393950Y-85238050D02*
G01*
X144809750Y-85238050D01*
X144809750Y-85212650D01*
X145393950Y-85212650D01*
X145393950Y-85238050D01*
G37*
G36*
X145419350Y-85187250D02*
G01*
X144835150Y-85187250D01*
X144835150Y-85161850D01*
X145419350Y-85161850D01*
X145419350Y-85187250D01*
G37*
G36*
X145444750Y-85136450D02*
G01*
X144860550Y-85136450D01*
X144860550Y-85111050D01*
X145444750Y-85111050D01*
X145444750Y-85136450D01*
G37*
G36*
X145444750Y-85161850D02*
G01*
X144860550Y-85161850D01*
X144860550Y-85136450D01*
X145444750Y-85136450D01*
X145444750Y-85161850D01*
G37*
G36*
X145495550Y-85085650D02*
G01*
X144885950Y-85085650D01*
X144885950Y-85060250D01*
X145495550Y-85060250D01*
X145495550Y-85085650D01*
G37*
G36*
X145470150Y-85111050D02*
G01*
X144885950Y-85111050D01*
X144885950Y-85085650D01*
X145470150Y-85085650D01*
X145470150Y-85111050D01*
G37*
G36*
X145520950Y-85034850D02*
G01*
X144911350Y-85034850D01*
X144911350Y-85009450D01*
X145520950Y-85009450D01*
X145520950Y-85034850D01*
G37*
G36*
X145495550Y-85060250D02*
G01*
X144911350Y-85060250D01*
X144911350Y-85034850D01*
X145495550Y-85034850D01*
X145495550Y-85060250D01*
G37*
G36*
X145520950Y-85009450D02*
G01*
X144936750Y-85009450D01*
X144936750Y-84984050D01*
X145520950Y-84984050D01*
X145520950Y-85009450D01*
G37*
G36*
X145546350Y-84958650D02*
G01*
X144962150Y-84958650D01*
X144962150Y-84933250D01*
X145546350Y-84933250D01*
X145546350Y-84958650D01*
G37*
G36*
X145546350Y-84984050D02*
G01*
X144962150Y-84984050D01*
X144962150Y-84958650D01*
X145546350Y-84958650D01*
X145546350Y-84984050D01*
G37*
G36*
X145597150Y-84907850D02*
G01*
X144987550Y-84907850D01*
X144987550Y-84882450D01*
X145597150Y-84882450D01*
X145597150Y-84907850D01*
G37*
G36*
X145571750Y-84933250D02*
G01*
X144987550Y-84933250D01*
X144987550Y-84907850D01*
X145571750Y-84907850D01*
X145571750Y-84933250D01*
G37*
G36*
X145622550Y-84857050D02*
G01*
X145012950Y-84857050D01*
X145012950Y-84831650D01*
X145622550Y-84831650D01*
X145622550Y-84857050D01*
G37*
G36*
X145597150Y-84882450D02*
G01*
X145012950Y-84882450D01*
X145012950Y-84857050D01*
X145597150Y-84857050D01*
X145597150Y-84882450D01*
G37*
G36*
X145622550Y-84831650D02*
G01*
X145038350Y-84831650D01*
X145038350Y-84806250D01*
X145622550Y-84806250D01*
X145622550Y-84831650D01*
G37*
G36*
X145647950Y-84780850D02*
G01*
X145063750Y-84780850D01*
X145063750Y-84755450D01*
X145647950Y-84755450D01*
X145647950Y-84780850D01*
G37*
G36*
X145647950Y-84806250D02*
G01*
X145063750Y-84806250D01*
X145063750Y-84780850D01*
X145647950Y-84780850D01*
X145647950Y-84806250D01*
G37*
G36*
X145698750Y-84730050D02*
G01*
X145089150Y-84730050D01*
X145089150Y-84704650D01*
X145698750Y-84704650D01*
X145698750Y-84730050D01*
G37*
G36*
X145673350Y-84755450D02*
G01*
X145089150Y-84755450D01*
X145089150Y-84730050D01*
X145673350Y-84730050D01*
X145673350Y-84755450D01*
G37*
G36*
X145724150Y-84679250D02*
G01*
X145114550Y-84679250D01*
X145114550Y-84653850D01*
X145724150Y-84653850D01*
X145724150Y-84679250D01*
G37*
G36*
X145698750Y-84704650D02*
G01*
X145114550Y-84704650D01*
X145114550Y-84679250D01*
X145698750Y-84679250D01*
X145698750Y-84704650D01*
G37*
G36*
X145724150Y-84653850D02*
G01*
X145139950Y-84653850D01*
X145139950Y-84628450D01*
X145724150Y-84628450D01*
X145724150Y-84653850D01*
G37*
G36*
X145749550Y-84603050D02*
G01*
X145165350Y-84603050D01*
X145165350Y-84577650D01*
X145749550Y-84577650D01*
X145749550Y-84603050D01*
G37*
G36*
X145749550Y-84628450D02*
G01*
X145165350Y-84628450D01*
X145165350Y-84603050D01*
X145749550Y-84603050D01*
X145749550Y-84628450D01*
G37*
G36*
X145800350Y-84552250D02*
G01*
X145190750Y-84552250D01*
X145190750Y-84526850D01*
X145800350Y-84526850D01*
X145800350Y-84552250D01*
G37*
G36*
X145774950Y-84577650D02*
G01*
X145190750Y-84577650D01*
X145190750Y-84552250D01*
X145774950Y-84552250D01*
X145774950Y-84577650D01*
G37*
G36*
X145825750Y-84501450D02*
G01*
X145216150Y-84501450D01*
X145216150Y-84476050D01*
X145825750Y-84476050D01*
X145825750Y-84501450D01*
G37*
G36*
X145800350Y-84526850D02*
G01*
X145216150Y-84526850D01*
X145216150Y-84501450D01*
X145800350Y-84501450D01*
X145800350Y-84526850D01*
G37*
G36*
X145825750Y-84476050D02*
G01*
X145241550Y-84476050D01*
X145241550Y-84450650D01*
X145825750Y-84450650D01*
X145825750Y-84476050D01*
G37*
G36*
X145851150Y-84425250D02*
G01*
X145266950Y-84425250D01*
X145266950Y-84399850D01*
X145851150Y-84399850D01*
X145851150Y-84425250D01*
G37*
G36*
X145851150Y-84450650D02*
G01*
X145266950Y-84450650D01*
X145266950Y-84425250D01*
X145851150Y-84425250D01*
X145851150Y-84450650D01*
G37*
G36*
X145901950Y-84374450D02*
G01*
X145292350Y-84374450D01*
X145292350Y-84349050D01*
X145901950Y-84349050D01*
X145901950Y-84374450D01*
G37*
G36*
X145876550Y-84399850D02*
G01*
X145292350Y-84399850D01*
X145292350Y-84374450D01*
X145876550Y-84374450D01*
X145876550Y-84399850D01*
G37*
G36*
X145901950Y-84349050D02*
G01*
X145317750Y-84349050D01*
X145317750Y-84323650D01*
X145901950Y-84323650D01*
X145901950Y-84349050D01*
G37*
G36*
X145927350Y-84298250D02*
G01*
X145343150Y-84298250D01*
X145343150Y-84272850D01*
X145927350Y-84272850D01*
X145927350Y-84298250D01*
G37*
G36*
X145927350Y-84323650D02*
G01*
X145343150Y-84323650D01*
X145343150Y-84298250D01*
X145927350Y-84298250D01*
X145927350Y-84323650D01*
G37*
G36*
X145952750Y-84247450D02*
G01*
X145368550Y-84247450D01*
X145368550Y-84222050D01*
X145952750Y-84222050D01*
X145952750Y-84247450D01*
G37*
G36*
X145952750Y-84272850D02*
G01*
X145368550Y-84272850D01*
X145368550Y-84247450D01*
X145952750Y-84247450D01*
X145952750Y-84272850D01*
G37*
G36*
X146003550Y-84196650D02*
G01*
X145393950Y-84196650D01*
X145393950Y-84171250D01*
X146003550Y-84171250D01*
X146003550Y-84196650D01*
G37*
G36*
X145978150Y-84222050D02*
G01*
X145393950Y-84222050D01*
X145393950Y-84196650D01*
X145978150Y-84196650D01*
X145978150Y-84222050D01*
G37*
G36*
X146003550Y-84171250D02*
G01*
X145419350Y-84171250D01*
X145419350Y-84145850D01*
X146003550Y-84145850D01*
X146003550Y-84171250D01*
G37*
G36*
X146028950Y-84120450D02*
G01*
X145444750Y-84120450D01*
X145444750Y-84095050D01*
X146028950Y-84095050D01*
X146028950Y-84120450D01*
G37*
G36*
X146028950Y-84145850D02*
G01*
X145444750Y-84145850D01*
X145444750Y-84120450D01*
X146028950Y-84120450D01*
X146028950Y-84145850D01*
G37*
G36*
X146054350Y-84069650D02*
G01*
X145470150Y-84069650D01*
X145470150Y-84044250D01*
X146054350Y-84044250D01*
X146054350Y-84069650D01*
G37*
G36*
X146054350Y-84095050D02*
G01*
X145470150Y-84095050D01*
X145470150Y-84069650D01*
X146054350Y-84069650D01*
X146054350Y-84095050D01*
G37*
G36*
X146105150Y-84018850D02*
G01*
X145495550Y-84018850D01*
X145495550Y-83993450D01*
X146105150Y-83993450D01*
X146105150Y-84018850D01*
G37*
G36*
X146079750Y-84044250D02*
G01*
X145495550Y-84044250D01*
X145495550Y-84018850D01*
X146079750Y-84018850D01*
X146079750Y-84044250D01*
G37*
G36*
X146105150Y-83993450D02*
G01*
X145520950Y-83993450D01*
X145520950Y-83968050D01*
X146105150Y-83968050D01*
X146105150Y-83993450D01*
G37*
G36*
X146130550Y-83942650D02*
G01*
X145546350Y-83942650D01*
X145546350Y-83917250D01*
X146130550Y-83917250D01*
X146130550Y-83942650D01*
G37*
G36*
X146130550Y-83968050D02*
G01*
X145546350Y-83968050D01*
X145546350Y-83942650D01*
X146130550Y-83942650D01*
X146130550Y-83968050D01*
G37*
G36*
X146181350Y-83891850D02*
G01*
X145571750Y-83891850D01*
X145571750Y-83866450D01*
X146181350Y-83866450D01*
X146181350Y-83891850D01*
G37*
G36*
X146155950Y-83917250D02*
G01*
X145571750Y-83917250D01*
X145571750Y-83891850D01*
X146155950Y-83891850D01*
X146155950Y-83917250D01*
G37*
G36*
X146206750Y-83841050D02*
G01*
X145597150Y-83841050D01*
X145597150Y-83815650D01*
X146206750Y-83815650D01*
X146206750Y-83841050D01*
G37*
G36*
X146181350Y-83866450D02*
G01*
X145597150Y-83866450D01*
X145597150Y-83841050D01*
X146181350Y-83841050D01*
X146181350Y-83866450D01*
G37*
G36*
X146206750Y-83815650D02*
G01*
X145622550Y-83815650D01*
X145622550Y-83790250D01*
X146206750Y-83790250D01*
X146206750Y-83815650D01*
G37*
G36*
X146232150Y-83764850D02*
G01*
X145647950Y-83764850D01*
X145647950Y-83739450D01*
X146232150Y-83739450D01*
X146232150Y-83764850D01*
G37*
G36*
X146232150Y-83790250D02*
G01*
X145647950Y-83790250D01*
X145647950Y-83764850D01*
X146232150Y-83764850D01*
X146232150Y-83790250D01*
G37*
G36*
X146282950Y-83714050D02*
G01*
X145673350Y-83714050D01*
X145673350Y-83688650D01*
X146282950Y-83688650D01*
X146282950Y-83714050D01*
G37*
G36*
X146257550Y-83739450D02*
G01*
X145673350Y-83739450D01*
X145673350Y-83714050D01*
X146257550Y-83714050D01*
X146257550Y-83739450D01*
G37*
G36*
X146308350Y-83663250D02*
G01*
X145698750Y-83663250D01*
X145698750Y-83637850D01*
X146308350Y-83637850D01*
X146308350Y-83663250D01*
G37*
G36*
X146282950Y-83688650D02*
G01*
X145698750Y-83688650D01*
X145698750Y-83663250D01*
X146282950Y-83663250D01*
X146282950Y-83688650D01*
G37*
G36*
X146308350Y-83637850D02*
G01*
X145724150Y-83637850D01*
X145724150Y-83612450D01*
X146308350Y-83612450D01*
X146308350Y-83637850D01*
G37*
G36*
X146333750Y-83587050D02*
G01*
X145749550Y-83587050D01*
X145749550Y-83561650D01*
X146333750Y-83561650D01*
X146333750Y-83587050D01*
G37*
G36*
X146333750Y-83612450D02*
G01*
X145749550Y-83612450D01*
X145749550Y-83587050D01*
X146333750Y-83587050D01*
X146333750Y-83612450D01*
G37*
G36*
X146384550Y-83536250D02*
G01*
X145774950Y-83536250D01*
X145774950Y-83510850D01*
X146384550Y-83510850D01*
X146384550Y-83536250D01*
G37*
G36*
X146359150Y-83561650D02*
G01*
X145774950Y-83561650D01*
X145774950Y-83536250D01*
X146359150Y-83536250D01*
X146359150Y-83561650D01*
G37*
G36*
X146409950Y-83485450D02*
G01*
X145800350Y-83485450D01*
X145800350Y-83460050D01*
X146409950Y-83460050D01*
X146409950Y-83485450D01*
G37*
G36*
X146384550Y-83510850D02*
G01*
X145800350Y-83510850D01*
X145800350Y-83485450D01*
X146384550Y-83485450D01*
X146384550Y-83510850D01*
G37*
G36*
X146409950Y-83460050D02*
G01*
X145825750Y-83460050D01*
X145825750Y-83434650D01*
X146409950Y-83434650D01*
X146409950Y-83460050D01*
G37*
G36*
X146435350Y-83409250D02*
G01*
X145851150Y-83409250D01*
X145851150Y-83383850D01*
X146435350Y-83383850D01*
X146435350Y-83409250D01*
G37*
G36*
X146435350Y-83434650D02*
G01*
X145851150Y-83434650D01*
X145851150Y-83409250D01*
X146435350Y-83409250D01*
X146435350Y-83434650D01*
G37*
G36*
X146486150Y-83358450D02*
G01*
X145876550Y-83358450D01*
X145876550Y-83333050D01*
X146486150Y-83333050D01*
X146486150Y-83358450D01*
G37*
G36*
X146460750Y-83383850D02*
G01*
X145876550Y-83383850D01*
X145876550Y-83358450D01*
X146460750Y-83358450D01*
X146460750Y-83383850D01*
G37*
G36*
X146486150Y-83333050D02*
G01*
X145901950Y-83333050D01*
X145901950Y-83307650D01*
X146486150Y-83307650D01*
X146486150Y-83333050D01*
G37*
G36*
X146511550Y-83282250D02*
G01*
X145927350Y-83282250D01*
X145927350Y-83256850D01*
X146511550Y-83256850D01*
X146511550Y-83282250D01*
G37*
G36*
X146511550Y-83307650D02*
G01*
X145927350Y-83307650D01*
X145927350Y-83282250D01*
X146511550Y-83282250D01*
X146511550Y-83307650D01*
G37*
G36*
X146536950Y-83231450D02*
G01*
X145952750Y-83231450D01*
X145952750Y-83206050D01*
X146536950Y-83206050D01*
X146536950Y-83231450D01*
G37*
G36*
X146536950Y-83256850D02*
G01*
X145952750Y-83256850D01*
X145952750Y-83231450D01*
X146536950Y-83231450D01*
X146536950Y-83256850D01*
G37*
G36*
X146587750Y-83180650D02*
G01*
X145978150Y-83180650D01*
X145978150Y-83155250D01*
X146587750Y-83155250D01*
X146587750Y-83180650D01*
G37*
G36*
X146562350Y-83206050D02*
G01*
X145978150Y-83206050D01*
X145978150Y-83180650D01*
X146562350Y-83180650D01*
X146562350Y-83206050D01*
G37*
G36*
X146587750Y-83155250D02*
G01*
X146003550Y-83155250D01*
X146003550Y-83129850D01*
X146587750Y-83129850D01*
X146587750Y-83155250D01*
G37*
G36*
X146613150Y-83104450D02*
G01*
X146028950Y-83104450D01*
X146028950Y-83079050D01*
X146613150Y-83079050D01*
X146613150Y-83104450D01*
G37*
G36*
X146613150Y-83129850D02*
G01*
X146028950Y-83129850D01*
X146028950Y-83104450D01*
X146613150Y-83104450D01*
X146613150Y-83129850D01*
G37*
G36*
X146638550Y-83053650D02*
G01*
X146054350Y-83053650D01*
X146054350Y-83028250D01*
X146638550Y-83028250D01*
X146638550Y-83053650D01*
G37*
G36*
X146638550Y-83079050D02*
G01*
X146054350Y-83079050D01*
X146054350Y-83053650D01*
X146638550Y-83053650D01*
X146638550Y-83079050D01*
G37*
G36*
X146689350Y-83002850D02*
G01*
X146079750Y-83002850D01*
X146079750Y-82977450D01*
X146689350Y-82977450D01*
X146689350Y-83002850D01*
G37*
G36*
X146663950Y-83028250D02*
G01*
X146079750Y-83028250D01*
X146079750Y-83002850D01*
X146663950Y-83002850D01*
X146663950Y-83028250D01*
G37*
G36*
X146689350Y-82977450D02*
G01*
X146105150Y-82977450D01*
X146105150Y-82952050D01*
X146689350Y-82952050D01*
X146689350Y-82977450D01*
G37*
G36*
X146714750Y-82926650D02*
G01*
X146130550Y-82926650D01*
X146130550Y-82901250D01*
X146714750Y-82901250D01*
X146714750Y-82926650D01*
G37*
G36*
X146714750Y-82952050D02*
G01*
X146130550Y-82952050D01*
X146130550Y-82926650D01*
X146714750Y-82926650D01*
X146714750Y-82952050D01*
G37*
G36*
X146765550Y-82875850D02*
G01*
X146155950Y-82875850D01*
X146155950Y-82850450D01*
X146765550Y-82850450D01*
X146765550Y-82875850D01*
G37*
G36*
X146740150Y-82901250D02*
G01*
X146155950Y-82901250D01*
X146155950Y-82875850D01*
X146740150Y-82875850D01*
X146740150Y-82901250D01*
G37*
G36*
X146790950Y-82825050D02*
G01*
X146181350Y-82825050D01*
X146181350Y-82799650D01*
X146790950Y-82799650D01*
X146790950Y-82825050D01*
G37*
G36*
X146765550Y-82850450D02*
G01*
X146181350Y-82850450D01*
X146181350Y-82825050D01*
X146765550Y-82825050D01*
X146765550Y-82850450D01*
G37*
G36*
X146790950Y-82799650D02*
G01*
X146206750Y-82799650D01*
X146206750Y-82774250D01*
X146790950Y-82774250D01*
X146790950Y-82799650D01*
G37*
G36*
X146816350Y-82748850D02*
G01*
X146232150Y-82748850D01*
X146232150Y-82723450D01*
X146816350Y-82723450D01*
X146816350Y-82748850D01*
G37*
G36*
X146816350Y-82774250D02*
G01*
X146232150Y-82774250D01*
X146232150Y-82748850D01*
X146816350Y-82748850D01*
X146816350Y-82774250D01*
G37*
G36*
X146867150Y-82698050D02*
G01*
X146257550Y-82698050D01*
X146257550Y-82672650D01*
X146867150Y-82672650D01*
X146867150Y-82698050D01*
G37*
G36*
X146841750Y-82723450D02*
G01*
X146257550Y-82723450D01*
X146257550Y-82698050D01*
X146841750Y-82698050D01*
X146841750Y-82723450D01*
G37*
G36*
X146892550Y-82647250D02*
G01*
X146282950Y-82647250D01*
X146282950Y-82621850D01*
X146892550Y-82621850D01*
X146892550Y-82647250D01*
G37*
G36*
X146867150Y-82672650D02*
G01*
X146282950Y-82672650D01*
X146282950Y-82647250D01*
X146867150Y-82647250D01*
X146867150Y-82672650D01*
G37*
G36*
X146892550Y-82621850D02*
G01*
X146308350Y-82621850D01*
X146308350Y-82596450D01*
X146892550Y-82596450D01*
X146892550Y-82621850D01*
G37*
G36*
X146917950Y-82571050D02*
G01*
X146333750Y-82571050D01*
X146333750Y-82545650D01*
X146917950Y-82545650D01*
X146917950Y-82571050D01*
G37*
G36*
X146917950Y-82596450D02*
G01*
X146333750Y-82596450D01*
X146333750Y-82571050D01*
X146917950Y-82571050D01*
X146917950Y-82596450D01*
G37*
G36*
X146968750Y-82520250D02*
G01*
X146359150Y-82520250D01*
X146359150Y-82494850D01*
X146968750Y-82494850D01*
X146968750Y-82520250D01*
G37*
G36*
X146943350Y-82545650D02*
G01*
X146359150Y-82545650D01*
X146359150Y-82520250D01*
X146943350Y-82520250D01*
X146943350Y-82545650D01*
G37*
G36*
X146994150Y-82469450D02*
G01*
X146384550Y-82469450D01*
X146384550Y-82444050D01*
X146994150Y-82444050D01*
X146994150Y-82469450D01*
G37*
G36*
X146968750Y-82494850D02*
G01*
X146384550Y-82494850D01*
X146384550Y-82469450D01*
X146968750Y-82469450D01*
X146968750Y-82494850D01*
G37*
G36*
X146994150Y-82444050D02*
G01*
X146409950Y-82444050D01*
X146409950Y-82418650D01*
X146994150Y-82418650D01*
X146994150Y-82444050D01*
G37*
G36*
X147019550Y-82393250D02*
G01*
X146435350Y-82393250D01*
X146435350Y-82367850D01*
X147019550Y-82367850D01*
X147019550Y-82393250D01*
G37*
G36*
X147019550Y-82418650D02*
G01*
X146435350Y-82418650D01*
X146435350Y-82393250D01*
X147019550Y-82393250D01*
X147019550Y-82418650D01*
G37*
G36*
X147070350Y-82342450D02*
G01*
X146460750Y-82342450D01*
X146460750Y-82317050D01*
X147070350Y-82317050D01*
X147070350Y-82342450D01*
G37*
G36*
X147044950Y-82367850D02*
G01*
X146460750Y-82367850D01*
X146460750Y-82342450D01*
X147044950Y-82342450D01*
X147044950Y-82367850D01*
G37*
G36*
X147095750Y-82291650D02*
G01*
X146486150Y-82291650D01*
X146486150Y-82266250D01*
X147095750Y-82266250D01*
X147095750Y-82291650D01*
G37*
G36*
X147070350Y-82317050D02*
G01*
X146486150Y-82317050D01*
X146486150Y-82291650D01*
X147070350Y-82291650D01*
X147070350Y-82317050D01*
G37*
G36*
X147095750Y-82266250D02*
G01*
X146511550Y-82266250D01*
X146511550Y-82240850D01*
X147095750Y-82240850D01*
X147095750Y-82266250D01*
G37*
G36*
X147121150Y-82215450D02*
G01*
X146536950Y-82215450D01*
X146536950Y-82190050D01*
X147121150Y-82190050D01*
X147121150Y-82215450D01*
G37*
G36*
X147121150Y-82240850D02*
G01*
X146536950Y-82240850D01*
X146536950Y-82215450D01*
X147121150Y-82215450D01*
X147121150Y-82240850D01*
G37*
G36*
X147171950Y-82164650D02*
G01*
X146562350Y-82164650D01*
X146562350Y-82139250D01*
X147171950Y-82139250D01*
X147171950Y-82164650D01*
G37*
G36*
X147146550Y-82190050D02*
G01*
X146562350Y-82190050D01*
X146562350Y-82164650D01*
X147146550Y-82164650D01*
X147146550Y-82190050D01*
G37*
G36*
X147171950Y-82139250D02*
G01*
X146587750Y-82139250D01*
X146587750Y-82113850D01*
X147171950Y-82113850D01*
X147171950Y-82139250D01*
G37*
G36*
X147197350Y-82088450D02*
G01*
X146613150Y-82088450D01*
X146613150Y-82063050D01*
X147197350Y-82063050D01*
X147197350Y-82088450D01*
G37*
G36*
X147197350Y-82113850D02*
G01*
X146613150Y-82113850D01*
X146613150Y-82088450D01*
X147197350Y-82088450D01*
X147197350Y-82113850D01*
G37*
G36*
X147222750Y-82037650D02*
G01*
X146638550Y-82037650D01*
X146638550Y-82012250D01*
X147222750Y-82012250D01*
X147222750Y-82037650D01*
G37*
G36*
X147222750Y-82063050D02*
G01*
X146638550Y-82063050D01*
X146638550Y-82037650D01*
X147222750Y-82037650D01*
X147222750Y-82063050D01*
G37*
G36*
X147273550Y-81986850D02*
G01*
X146663950Y-81986850D01*
X146663950Y-81961450D01*
X147273550Y-81961450D01*
X147273550Y-81986850D01*
G37*
G36*
X147248150Y-82012250D02*
G01*
X146663950Y-82012250D01*
X146663950Y-81986850D01*
X147248150Y-81986850D01*
X147248150Y-82012250D01*
G37*
G36*
X147273550Y-81961450D02*
G01*
X146689350Y-81961450D01*
X146689350Y-81936050D01*
X147273550Y-81936050D01*
X147273550Y-81961450D01*
G37*
G36*
X147298950Y-81910650D02*
G01*
X146714750Y-81910650D01*
X146714750Y-81885250D01*
X147298950Y-81885250D01*
X147298950Y-81910650D01*
G37*
G36*
X147298950Y-81936050D02*
G01*
X146714750Y-81936050D01*
X146714750Y-81910650D01*
X147298950Y-81910650D01*
X147298950Y-81936050D01*
G37*
G36*
X147324350Y-81859850D02*
G01*
X146740150Y-81859850D01*
X146740150Y-81834450D01*
X147324350Y-81834450D01*
X147324350Y-81859850D01*
G37*
G36*
X147324350Y-81885250D02*
G01*
X146740150Y-81885250D01*
X146740150Y-81859850D01*
X147324350Y-81859850D01*
X147324350Y-81885250D01*
G37*
G36*
X147375150Y-81809050D02*
G01*
X146765550Y-81809050D01*
X146765550Y-81783650D01*
X147375150Y-81783650D01*
X147375150Y-81809050D01*
G37*
G36*
X147349750Y-81834450D02*
G01*
X146765550Y-81834450D01*
X146765550Y-81809050D01*
X147349750Y-81809050D01*
X147349750Y-81834450D01*
G37*
G36*
X147375150Y-81783650D02*
G01*
X146790950Y-81783650D01*
X146790950Y-81758250D01*
X147375150Y-81758250D01*
X147375150Y-81783650D01*
G37*
G36*
X147400550Y-81732850D02*
G01*
X146816350Y-81732850D01*
X146816350Y-81707450D01*
X147400550Y-81707450D01*
X147400550Y-81732850D01*
G37*
G36*
X147400550Y-81758250D02*
G01*
X146816350Y-81758250D01*
X146816350Y-81732850D01*
X147400550Y-81732850D01*
X147400550Y-81758250D01*
G37*
G36*
X147451350Y-81682050D02*
G01*
X146841750Y-81682050D01*
X146841750Y-81656650D01*
X147451350Y-81656650D01*
X147451350Y-81682050D01*
G37*
G36*
X147425950Y-81707450D02*
G01*
X146841750Y-81707450D01*
X146841750Y-81682050D01*
X147425950Y-81682050D01*
X147425950Y-81707450D01*
G37*
G36*
X147476750Y-81631250D02*
G01*
X146867150Y-81631250D01*
X146867150Y-81605850D01*
X147476750Y-81605850D01*
X147476750Y-81631250D01*
G37*
G36*
X147451350Y-81656650D02*
G01*
X146867150Y-81656650D01*
X146867150Y-81631250D01*
X147451350Y-81631250D01*
X147451350Y-81656650D01*
G37*
G36*
X147476750Y-81605850D02*
G01*
X146892550Y-81605850D01*
X146892550Y-81580450D01*
X147476750Y-81580450D01*
X147476750Y-81605850D01*
G37*
G36*
X147502150Y-81555050D02*
G01*
X146917950Y-81555050D01*
X146917950Y-81529650D01*
X147502150Y-81529650D01*
X147502150Y-81555050D01*
G37*
G36*
X147502150Y-81580450D02*
G01*
X146917950Y-81580450D01*
X146917950Y-81555050D01*
X147502150Y-81555050D01*
X147502150Y-81580450D01*
G37*
G36*
X147552950Y-81504250D02*
G01*
X146943350Y-81504250D01*
X146943350Y-81478850D01*
X147552950Y-81478850D01*
X147552950Y-81504250D01*
G37*
G36*
X147527550Y-81529650D02*
G01*
X146943350Y-81529650D01*
X146943350Y-81504250D01*
X147527550Y-81504250D01*
X147527550Y-81529650D01*
G37*
G36*
X147578350Y-81453450D02*
G01*
X146968750Y-81453450D01*
X146968750Y-81428050D01*
X147578350Y-81428050D01*
X147578350Y-81453450D01*
G37*
G36*
X147552950Y-81478850D02*
G01*
X146968750Y-81478850D01*
X146968750Y-81453450D01*
X147552950Y-81453450D01*
X147552950Y-81478850D01*
G37*
G36*
X147578350Y-81428050D02*
G01*
X146994150Y-81428050D01*
X146994150Y-81402650D01*
X147578350Y-81402650D01*
X147578350Y-81428050D01*
G37*
G36*
X147603750Y-81377250D02*
G01*
X147019550Y-81377250D01*
X147019550Y-81351850D01*
X147603750Y-81351850D01*
X147603750Y-81377250D01*
G37*
G36*
X147603750Y-81402650D02*
G01*
X147019550Y-81402650D01*
X147019550Y-81377250D01*
X147603750Y-81377250D01*
X147603750Y-81402650D01*
G37*
G36*
X147654550Y-81326450D02*
G01*
X147044950Y-81326450D01*
X147044950Y-81301050D01*
X147654550Y-81301050D01*
X147654550Y-81326450D01*
G37*
G36*
X147629150Y-81351850D02*
G01*
X147044950Y-81351850D01*
X147044950Y-81326450D01*
X147629150Y-81326450D01*
X147629150Y-81351850D01*
G37*
G36*
X147679950Y-81275650D02*
G01*
X147070350Y-81275650D01*
X147070350Y-81250250D01*
X147679950Y-81250250D01*
X147679950Y-81275650D01*
G37*
G36*
X147654550Y-81301050D02*
G01*
X147070350Y-81301050D01*
X147070350Y-81275650D01*
X147654550Y-81275650D01*
X147654550Y-81301050D01*
G37*
G36*
X147679950Y-81250250D02*
G01*
X147095750Y-81250250D01*
X147095750Y-81224850D01*
X147679950Y-81224850D01*
X147679950Y-81250250D01*
G37*
G36*
X147705350Y-81199450D02*
G01*
X147121150Y-81199450D01*
X147121150Y-81174050D01*
X147705350Y-81174050D01*
X147705350Y-81199450D01*
G37*
G36*
X147705350Y-81224850D02*
G01*
X147121150Y-81224850D01*
X147121150Y-81199450D01*
X147705350Y-81199450D01*
X147705350Y-81224850D01*
G37*
G36*
X147756150Y-81148650D02*
G01*
X147146550Y-81148650D01*
X147146550Y-81123250D01*
X147756150Y-81123250D01*
X147756150Y-81148650D01*
G37*
G36*
X147730750Y-81174050D02*
G01*
X147146550Y-81174050D01*
X147146550Y-81148650D01*
X147730750Y-81148650D01*
X147730750Y-81174050D01*
G37*
G36*
X147781550Y-81097850D02*
G01*
X147171950Y-81097850D01*
X147171950Y-81072450D01*
X147781550Y-81072450D01*
X147781550Y-81097850D01*
G37*
G36*
X147756150Y-81123250D02*
G01*
X147171950Y-81123250D01*
X147171950Y-81097850D01*
X147756150Y-81097850D01*
X147756150Y-81123250D01*
G37*
G36*
X147781550Y-81072450D02*
G01*
X147197350Y-81072450D01*
X147197350Y-81047050D01*
X147781550Y-81047050D01*
X147781550Y-81072450D01*
G37*
G36*
X147806950Y-81021650D02*
G01*
X147222750Y-81021650D01*
X147222750Y-80996250D01*
X147806950Y-80996250D01*
X147806950Y-81021650D01*
G37*
G36*
X147806950Y-81047050D02*
G01*
X147222750Y-81047050D01*
X147222750Y-81021650D01*
X147806950Y-81021650D01*
X147806950Y-81047050D01*
G37*
G36*
X147857750Y-80970850D02*
G01*
X147248150Y-80970850D01*
X147248150Y-80945450D01*
X147857750Y-80945450D01*
X147857750Y-80970850D01*
G37*
G36*
X147832350Y-80996250D02*
G01*
X147248150Y-80996250D01*
X147248150Y-80970850D01*
X147832350Y-80970850D01*
X147832350Y-80996250D01*
G37*
G36*
X147857750Y-80945450D02*
G01*
X147273550Y-80945450D01*
X147273550Y-80920050D01*
X147857750Y-80920050D01*
X147857750Y-80945450D01*
G37*
G36*
X147883150Y-80894650D02*
G01*
X147298950Y-80894650D01*
X147298950Y-80869250D01*
X147883150Y-80869250D01*
X147883150Y-80894650D01*
G37*
G36*
X147883150Y-80920050D02*
G01*
X147298950Y-80920050D01*
X147298950Y-80894650D01*
X147883150Y-80894650D01*
X147883150Y-80920050D01*
G37*
G36*
X147908550Y-80843850D02*
G01*
X147324350Y-80843850D01*
X147324350Y-80818450D01*
X147908550Y-80818450D01*
X147908550Y-80843850D01*
G37*
G36*
X147908550Y-80869250D02*
G01*
X147324350Y-80869250D01*
X147324350Y-80843850D01*
X147908550Y-80843850D01*
X147908550Y-80869250D01*
G37*
G36*
X147959350Y-80793050D02*
G01*
X147349750Y-80793050D01*
X147349750Y-80767650D01*
X147959350Y-80767650D01*
X147959350Y-80793050D01*
G37*
G36*
X147933950Y-80818450D02*
G01*
X147349750Y-80818450D01*
X147349750Y-80793050D01*
X147933950Y-80793050D01*
X147933950Y-80818450D01*
G37*
G36*
X147959350Y-80767650D02*
G01*
X147375150Y-80767650D01*
X147375150Y-80742250D01*
X147959350Y-80742250D01*
X147959350Y-80767650D01*
G37*
G36*
X147984750Y-80716850D02*
G01*
X147400550Y-80716850D01*
X147400550Y-80691450D01*
X147984750Y-80691450D01*
X147984750Y-80716850D01*
G37*
G36*
X147984750Y-80742250D02*
G01*
X147400550Y-80742250D01*
X147400550Y-80716850D01*
X147984750Y-80716850D01*
X147984750Y-80742250D01*
G37*
G36*
X148010150Y-80666050D02*
G01*
X147425950Y-80666050D01*
X147425950Y-80640650D01*
X148010150Y-80640650D01*
X148010150Y-80666050D01*
G37*
G36*
X148010150Y-80691450D02*
G01*
X147425950Y-80691450D01*
X147425950Y-80666050D01*
X148010150Y-80666050D01*
X148010150Y-80691450D01*
G37*
G36*
X147603750Y-84425250D02*
G01*
X147425950Y-84425250D01*
X147425950Y-84399850D01*
X147603750Y-84399850D01*
X147603750Y-84425250D01*
G37*
G36*
X147552950Y-84450650D02*
G01*
X147425950Y-84450650D01*
X147425950Y-84425250D01*
X147552950Y-84425250D01*
X147552950Y-84450650D01*
G37*
G36*
X147476750Y-84476050D02*
G01*
X147425950Y-84476050D01*
X147425950Y-84450650D01*
X147476750Y-84450650D01*
X147476750Y-84476050D01*
G37*
G36*
X148060950Y-80615250D02*
G01*
X147451350Y-80615250D01*
X147451350Y-80589850D01*
X148060950Y-80589850D01*
X148060950Y-80615250D01*
G37*
G36*
X148035550Y-80640650D02*
G01*
X147451350Y-80640650D01*
X147451350Y-80615250D01*
X148035550Y-80615250D01*
X148035550Y-80640650D01*
G37*
G36*
X148035550Y-84272850D02*
G01*
X147451350Y-84272850D01*
X147451350Y-84247450D01*
X148035550Y-84247450D01*
X148035550Y-84272850D01*
G37*
G36*
X147984750Y-84298250D02*
G01*
X147451350Y-84298250D01*
X147451350Y-84272850D01*
X147984750Y-84272850D01*
X147984750Y-84298250D01*
G37*
G36*
X147908550Y-84323650D02*
G01*
X147451350Y-84323650D01*
X147451350Y-84298250D01*
X147908550Y-84298250D01*
X147908550Y-84323650D01*
G37*
G36*
X147832350Y-84349050D02*
G01*
X147451350Y-84349050D01*
X147451350Y-84323650D01*
X147832350Y-84323650D01*
X147832350Y-84349050D01*
G37*
G36*
X147756150Y-84374450D02*
G01*
X147451350Y-84374450D01*
X147451350Y-84349050D01*
X147756150Y-84349050D01*
X147756150Y-84374450D01*
G37*
G36*
X147679950Y-84399850D02*
G01*
X147451350Y-84399850D01*
X147451350Y-84374450D01*
X147679950Y-84374450D01*
X147679950Y-84399850D01*
G37*
G36*
X148060950Y-80589850D02*
G01*
X147476750Y-80589850D01*
X147476750Y-80564450D01*
X148060950Y-80564450D01*
X148060950Y-80589850D01*
G37*
G36*
X148416550Y-84145850D02*
G01*
X147476750Y-84145850D01*
X147476750Y-84120450D01*
X148416550Y-84120450D01*
X148416550Y-84145850D01*
G37*
G36*
X148340350Y-84171250D02*
G01*
X147476750Y-84171250D01*
X147476750Y-84145850D01*
X148340350Y-84145850D01*
X148340350Y-84171250D01*
G37*
G36*
X148264150Y-84196650D02*
G01*
X147476750Y-84196650D01*
X147476750Y-84171250D01*
X148264150Y-84171250D01*
X148264150Y-84196650D01*
G37*
G36*
X148187950Y-84222050D02*
G01*
X147476750Y-84222050D01*
X147476750Y-84196650D01*
X148187950Y-84196650D01*
X148187950Y-84222050D01*
G37*
G36*
X148111750Y-84247450D02*
G01*
X147476750Y-84247450D01*
X147476750Y-84222050D01*
X148111750Y-84222050D01*
X148111750Y-84247450D01*
G37*
G36*
X148086350Y-80539050D02*
G01*
X147502150Y-80539050D01*
X147502150Y-80513650D01*
X148086350Y-80513650D01*
X148086350Y-80539050D01*
G37*
G36*
X148086350Y-80564450D02*
G01*
X147502150Y-80564450D01*
X147502150Y-80539050D01*
X148086350Y-80539050D01*
X148086350Y-80564450D01*
G37*
G36*
X149330950Y-83993450D02*
G01*
X147502150Y-83993450D01*
X147502150Y-83968050D01*
X149330950Y-83968050D01*
X149330950Y-83993450D01*
G37*
G36*
X148772150Y-84018850D02*
G01*
X147502150Y-84018850D01*
X147502150Y-83993450D01*
X148772150Y-83993450D01*
X148772150Y-84018850D01*
G37*
G36*
X148695950Y-84044250D02*
G01*
X147502150Y-84044250D01*
X147502150Y-84018850D01*
X148695950Y-84018850D01*
X148695950Y-84044250D01*
G37*
G36*
X148619750Y-84069650D02*
G01*
X147502150Y-84069650D01*
X147502150Y-84044250D01*
X148619750Y-84044250D01*
X148619750Y-84069650D01*
G37*
G36*
X148543550Y-84095050D02*
G01*
X147502150Y-84095050D01*
X147502150Y-84069650D01*
X148543550Y-84069650D01*
X148543550Y-84095050D01*
G37*
G36*
X148492750Y-84120450D02*
G01*
X147502150Y-84120450D01*
X147502150Y-84095050D01*
X148492750Y-84095050D01*
X148492750Y-84120450D01*
G37*
G36*
X148137150Y-80488250D02*
G01*
X147527550Y-80488250D01*
X147527550Y-80462850D01*
X148137150Y-80462850D01*
X148137150Y-80488250D01*
G37*
G36*
X148111750Y-80513650D02*
G01*
X147527550Y-80513650D01*
X147527550Y-80488250D01*
X148111750Y-80488250D01*
X148111750Y-80513650D01*
G37*
G36*
X149381750Y-83866450D02*
G01*
X147527550Y-83866450D01*
X147527550Y-83841050D01*
X149381750Y-83841050D01*
X149381750Y-83866450D01*
G37*
G36*
X149356350Y-83891850D02*
G01*
X147527550Y-83891850D01*
X147527550Y-83866450D01*
X149356350Y-83866450D01*
X149356350Y-83891850D01*
G37*
G36*
X149356350Y-83917250D02*
G01*
X147527550Y-83917250D01*
X147527550Y-83891850D01*
X149356350Y-83891850D01*
X149356350Y-83917250D01*
G37*
G36*
X149330950Y-83942650D02*
G01*
X147527550Y-83942650D01*
X147527550Y-83917250D01*
X149330950Y-83917250D01*
X149330950Y-83942650D01*
G37*
G36*
X149330950Y-83968050D02*
G01*
X147527550Y-83968050D01*
X147527550Y-83942650D01*
X149330950Y-83942650D01*
X149330950Y-83968050D01*
G37*
G36*
X148162550Y-80437450D02*
G01*
X147552950Y-80437450D01*
X147552950Y-80412050D01*
X148162550Y-80412050D01*
X148162550Y-80437450D01*
G37*
G36*
X148137150Y-80462850D02*
G01*
X147552950Y-80462850D01*
X147552950Y-80437450D01*
X148137150Y-80437450D01*
X148137150Y-80462850D01*
G37*
G36*
X148060950Y-83714050D02*
G01*
X147552950Y-83714050D01*
X147552950Y-83688650D01*
X148060950Y-83688650D01*
X148060950Y-83714050D01*
G37*
G36*
X148035550Y-83739450D02*
G01*
X147552950Y-83739450D01*
X147552950Y-83714050D01*
X148035550Y-83714050D01*
X148035550Y-83739450D01*
G37*
G36*
X148035550Y-83764850D02*
G01*
X147552950Y-83764850D01*
X147552950Y-83739450D01*
X148035550Y-83739450D01*
X148035550Y-83764850D01*
G37*
G36*
X148010150Y-83790250D02*
G01*
X147552950Y-83790250D01*
X147552950Y-83764850D01*
X148010150Y-83764850D01*
X148010150Y-83790250D01*
G37*
G36*
X149407150Y-83815650D02*
G01*
X147552950Y-83815650D01*
X147552950Y-83790250D01*
X149407150Y-83790250D01*
X149407150Y-83815650D01*
G37*
G36*
X149381750Y-83841050D02*
G01*
X147552950Y-83841050D01*
X147552950Y-83815650D01*
X149381750Y-83815650D01*
X149381750Y-83841050D01*
G37*
G36*
X148162550Y-80412050D02*
G01*
X147578350Y-80412050D01*
X147578350Y-80386650D01*
X148162550Y-80386650D01*
X148162550Y-80412050D01*
G37*
G36*
X148086350Y-83587050D02*
G01*
X147578350Y-83587050D01*
X147578350Y-83561650D01*
X148086350Y-83561650D01*
X148086350Y-83587050D01*
G37*
G36*
X148086350Y-83612450D02*
G01*
X147578350Y-83612450D01*
X147578350Y-83587050D01*
X148086350Y-83587050D01*
X148086350Y-83612450D01*
G37*
G36*
X148086350Y-83637850D02*
G01*
X147578350Y-83637850D01*
X147578350Y-83612450D01*
X148086350Y-83612450D01*
X148086350Y-83637850D01*
G37*
G36*
X148060950Y-83663250D02*
G01*
X147578350Y-83663250D01*
X147578350Y-83637850D01*
X148060950Y-83637850D01*
X148060950Y-83663250D01*
G37*
G36*
X148060950Y-83688650D02*
G01*
X147578350Y-83688650D01*
X147578350Y-83663250D01*
X148060950Y-83663250D01*
X148060950Y-83688650D01*
G37*
G36*
X148187950Y-80361250D02*
G01*
X147603750Y-80361250D01*
X147603750Y-80335850D01*
X148187950Y-80335850D01*
X148187950Y-80361250D01*
G37*
G36*
X148187950Y-80386650D02*
G01*
X147603750Y-80386650D01*
X147603750Y-80361250D01*
X148187950Y-80361250D01*
X148187950Y-80386650D01*
G37*
G36*
X148162550Y-83434650D02*
G01*
X147603750Y-83434650D01*
X147603750Y-83409250D01*
X148162550Y-83409250D01*
X148162550Y-83434650D01*
G37*
G36*
X148137150Y-83460050D02*
G01*
X147603750Y-83460050D01*
X147603750Y-83434650D01*
X148137150Y-83434650D01*
X148137150Y-83460050D01*
G37*
G36*
X148137150Y-83485450D02*
G01*
X147603750Y-83485450D01*
X147603750Y-83460050D01*
X148137150Y-83460050D01*
X148137150Y-83485450D01*
G37*
G36*
X148137150Y-83510850D02*
G01*
X147603750Y-83510850D01*
X147603750Y-83485450D01*
X148137150Y-83485450D01*
X148137150Y-83510850D01*
G37*
G36*
X148111750Y-83536250D02*
G01*
X147603750Y-83536250D01*
X147603750Y-83510850D01*
X148111750Y-83510850D01*
X148111750Y-83536250D01*
G37*
G36*
X148111750Y-83561650D02*
G01*
X147603750Y-83561650D01*
X147603750Y-83536250D01*
X148111750Y-83536250D01*
X148111750Y-83561650D01*
G37*
G36*
X148238750Y-80310450D02*
G01*
X147629150Y-80310450D01*
X147629150Y-80285050D01*
X148238750Y-80285050D01*
X148238750Y-80310450D01*
G37*
G36*
X148213350Y-80335850D02*
G01*
X147629150Y-80335850D01*
X147629150Y-80310450D01*
X148213350Y-80310450D01*
X148213350Y-80335850D01*
G37*
G36*
X148213350Y-83307650D02*
G01*
X147629150Y-83307650D01*
X147629150Y-83282250D01*
X148213350Y-83282250D01*
X148213350Y-83307650D01*
G37*
G36*
X148187950Y-83333050D02*
G01*
X147629150Y-83333050D01*
X147629150Y-83307650D01*
X148187950Y-83307650D01*
X148187950Y-83333050D01*
G37*
G36*
X148187950Y-83358450D02*
G01*
X147629150Y-83358450D01*
X147629150Y-83333050D01*
X148187950Y-83333050D01*
X148187950Y-83358450D01*
G37*
G36*
X148187950Y-83383850D02*
G01*
X147629150Y-83383850D01*
X147629150Y-83358450D01*
X148187950Y-83358450D01*
X148187950Y-83383850D01*
G37*
G36*
X148162550Y-83409250D02*
G01*
X147629150Y-83409250D01*
X147629150Y-83383850D01*
X148162550Y-83383850D01*
X148162550Y-83409250D01*
G37*
G36*
X147654550Y-85746050D02*
G01*
X147629150Y-85746050D01*
X147629150Y-85720650D01*
X147654550Y-85720650D01*
X147654550Y-85746050D01*
G37*
G36*
X147679950Y-85771450D02*
G01*
X147629150Y-85771450D01*
X147629150Y-85746050D01*
X147679950Y-85746050D01*
X147679950Y-85771450D01*
G37*
G36*
X147730750Y-85796850D02*
G01*
X147629150Y-85796850D01*
X147629150Y-85771450D01*
X147730750Y-85771450D01*
X147730750Y-85796850D01*
G37*
G36*
X148264150Y-80259650D02*
G01*
X147654550Y-80259650D01*
X147654550Y-80234250D01*
X148264150Y-80234250D01*
X148264150Y-80259650D01*
G37*
G36*
X148238750Y-80285050D02*
G01*
X147654550Y-80285050D01*
X147654550Y-80259650D01*
X148238750Y-80259650D01*
X148238750Y-80285050D01*
G37*
G36*
X148264150Y-83155250D02*
G01*
X147654550Y-83155250D01*
X147654550Y-83129850D01*
X148264150Y-83129850D01*
X148264150Y-83155250D01*
G37*
G36*
X148264150Y-83180650D02*
G01*
X147654550Y-83180650D01*
X147654550Y-83155250D01*
X148264150Y-83155250D01*
X148264150Y-83180650D01*
G37*
G36*
X148238750Y-83206050D02*
G01*
X147654550Y-83206050D01*
X147654550Y-83180650D01*
X148238750Y-83180650D01*
X148238750Y-83206050D01*
G37*
G36*
X148238750Y-83231450D02*
G01*
X147654550Y-83231450D01*
X147654550Y-83206050D01*
X148238750Y-83206050D01*
X148238750Y-83231450D01*
G37*
G36*
X148213350Y-83256850D02*
G01*
X147654550Y-83256850D01*
X147654550Y-83231450D01*
X148213350Y-83231450D01*
X148213350Y-83256850D01*
G37*
G36*
X148213350Y-83282250D02*
G01*
X147654550Y-83282250D01*
X147654550Y-83256850D01*
X148213350Y-83256850D01*
X148213350Y-83282250D01*
G37*
G36*
X147756150Y-85822250D02*
G01*
X147654550Y-85822250D01*
X147654550Y-85796850D01*
X147756150Y-85796850D01*
X147756150Y-85822250D01*
G37*
G36*
X147781550Y-85847650D02*
G01*
X147654550Y-85847650D01*
X147654550Y-85822250D01*
X147781550Y-85822250D01*
X147781550Y-85847650D01*
G37*
G36*
X147832350Y-85873050D02*
G01*
X147654550Y-85873050D01*
X147654550Y-85847650D01*
X147832350Y-85847650D01*
X147832350Y-85873050D01*
G37*
G36*
X147857750Y-85898450D02*
G01*
X147654550Y-85898450D01*
X147654550Y-85873050D01*
X147857750Y-85873050D01*
X147857750Y-85898450D01*
G37*
G36*
X147883150Y-85923850D02*
G01*
X147654550Y-85923850D01*
X147654550Y-85898450D01*
X147883150Y-85898450D01*
X147883150Y-85923850D01*
G37*
G36*
X148264150Y-80234250D02*
G01*
X147679950Y-80234250D01*
X147679950Y-80208850D01*
X148264150Y-80208850D01*
X148264150Y-80234250D01*
G37*
G36*
X148314950Y-83028250D02*
G01*
X147679950Y-83028250D01*
X147679950Y-83002850D01*
X148314950Y-83002850D01*
X148314950Y-83028250D01*
G37*
G36*
X148289550Y-83053650D02*
G01*
X147679950Y-83053650D01*
X147679950Y-83028250D01*
X148289550Y-83028250D01*
X148289550Y-83053650D01*
G37*
G36*
X148289550Y-83079050D02*
G01*
X147679950Y-83079050D01*
X147679950Y-83053650D01*
X148289550Y-83053650D01*
X148289550Y-83079050D01*
G37*
G36*
X148289550Y-83104450D02*
G01*
X147679950Y-83104450D01*
X147679950Y-83079050D01*
X148289550Y-83079050D01*
X148289550Y-83104450D01*
G37*
G36*
X148264150Y-83129850D02*
G01*
X147679950Y-83129850D01*
X147679950Y-83104450D01*
X148264150Y-83104450D01*
X148264150Y-83129850D01*
G37*
G36*
X147933950Y-85949250D02*
G01*
X147679950Y-85949250D01*
X147679950Y-85923850D01*
X147933950Y-85923850D01*
X147933950Y-85949250D01*
G37*
G36*
X147959350Y-85974650D02*
G01*
X147679950Y-85974650D01*
X147679950Y-85949250D01*
X147959350Y-85949250D01*
X147959350Y-85974650D01*
G37*
G36*
X147984750Y-86000050D02*
G01*
X147679950Y-86000050D01*
X147679950Y-85974650D01*
X147984750Y-85974650D01*
X147984750Y-86000050D01*
G37*
G36*
X148035550Y-86025450D02*
G01*
X147679950Y-86025450D01*
X147679950Y-86000050D01*
X148035550Y-86000050D01*
X148035550Y-86025450D01*
G37*
G36*
X148416550Y-86050850D02*
G01*
X147679950Y-86050850D01*
X147679950Y-86025450D01*
X148416550Y-86025450D01*
X148416550Y-86050850D01*
G37*
G36*
X148289550Y-80183450D02*
G01*
X147705350Y-80183450D01*
X147705350Y-80158050D01*
X148289550Y-80158050D01*
X148289550Y-80183450D01*
G37*
G36*
X148289550Y-80208850D02*
G01*
X147705350Y-80208850D01*
X147705350Y-80183450D01*
X148289550Y-80183450D01*
X148289550Y-80208850D01*
G37*
G36*
X148365750Y-82875850D02*
G01*
X147705350Y-82875850D01*
X147705350Y-82850450D01*
X148365750Y-82850450D01*
X148365750Y-82875850D01*
G37*
G36*
X148365750Y-82901250D02*
G01*
X147705350Y-82901250D01*
X147705350Y-82875850D01*
X148365750Y-82875850D01*
X148365750Y-82901250D01*
G37*
G36*
X148340350Y-82926650D02*
G01*
X147705350Y-82926650D01*
X147705350Y-82901250D01*
X148340350Y-82901250D01*
X148340350Y-82926650D01*
G37*
G36*
X148340350Y-82952050D02*
G01*
X147705350Y-82952050D01*
X147705350Y-82926650D01*
X148340350Y-82926650D01*
X148340350Y-82952050D01*
G37*
G36*
X148340350Y-82977450D02*
G01*
X147705350Y-82977450D01*
X147705350Y-82952050D01*
X148340350Y-82952050D01*
X148340350Y-82977450D01*
G37*
G36*
X148314950Y-83002850D02*
G01*
X147705350Y-83002850D01*
X147705350Y-82977450D01*
X148314950Y-82977450D01*
X148314950Y-83002850D01*
G37*
G36*
X148416550Y-86076250D02*
G01*
X147705350Y-86076250D01*
X147705350Y-86050850D01*
X148416550Y-86050850D01*
X148416550Y-86076250D01*
G37*
G36*
X148416550Y-86101650D02*
G01*
X147705350Y-86101650D01*
X147705350Y-86076250D01*
X148416550Y-86076250D01*
X148416550Y-86101650D01*
G37*
G36*
X148899150Y-86127050D02*
G01*
X147705350Y-86127050D01*
X147705350Y-86101650D01*
X148899150Y-86101650D01*
X148899150Y-86127050D01*
G37*
G36*
X148899150Y-86152450D02*
G01*
X147705350Y-86152450D01*
X147705350Y-86127050D01*
X148899150Y-86127050D01*
X148899150Y-86152450D01*
G37*
G36*
X148873750Y-86177850D02*
G01*
X147705350Y-86177850D01*
X147705350Y-86152450D01*
X148873750Y-86152450D01*
X148873750Y-86177850D01*
G37*
G36*
X148340350Y-80132650D02*
G01*
X147730750Y-80132650D01*
X147730750Y-80107250D01*
X148340350Y-80107250D01*
X148340350Y-80132650D01*
G37*
G36*
X148314950Y-80158050D02*
G01*
X147730750Y-80158050D01*
X147730750Y-80132650D01*
X148314950Y-80132650D01*
X148314950Y-80158050D01*
G37*
G36*
X148416550Y-82723450D02*
G01*
X147730750Y-82723450D01*
X147730750Y-82698050D01*
X148416550Y-82698050D01*
X148416550Y-82723450D01*
G37*
G36*
X148416550Y-82748850D02*
G01*
X147730750Y-82748850D01*
X147730750Y-82723450D01*
X148416550Y-82723450D01*
X148416550Y-82748850D01*
G37*
G36*
X148416550Y-82774250D02*
G01*
X147730750Y-82774250D01*
X147730750Y-82748850D01*
X148416550Y-82748850D01*
X148416550Y-82774250D01*
G37*
G36*
X148391150Y-82799650D02*
G01*
X147730750Y-82799650D01*
X147730750Y-82774250D01*
X148391150Y-82774250D01*
X148391150Y-82799650D01*
G37*
G36*
X148391150Y-82825050D02*
G01*
X147730750Y-82825050D01*
X147730750Y-82799650D01*
X148391150Y-82799650D01*
X148391150Y-82825050D01*
G37*
G36*
X148391150Y-82850450D02*
G01*
X147730750Y-82850450D01*
X147730750Y-82825050D01*
X148391150Y-82825050D01*
X148391150Y-82850450D01*
G37*
G36*
X148848350Y-86203250D02*
G01*
X147730750Y-86203250D01*
X147730750Y-86177850D01*
X148848350Y-86177850D01*
X148848350Y-86203250D01*
G37*
G36*
X148822950Y-86228650D02*
G01*
X147730750Y-86228650D01*
X147730750Y-86203250D01*
X148822950Y-86203250D01*
X148822950Y-86228650D01*
G37*
G36*
X148822950Y-86254050D02*
G01*
X147730750Y-86254050D01*
X147730750Y-86228650D01*
X148822950Y-86228650D01*
X148822950Y-86254050D01*
G37*
G36*
X148797550Y-86279450D02*
G01*
X147730750Y-86279450D01*
X147730750Y-86254050D01*
X148797550Y-86254050D01*
X148797550Y-86279450D01*
G37*
G36*
X148772150Y-86304850D02*
G01*
X147730750Y-86304850D01*
X147730750Y-86279450D01*
X148772150Y-86279450D01*
X148772150Y-86304850D01*
G37*
G36*
X148365750Y-80081850D02*
G01*
X147756150Y-80081850D01*
X147756150Y-80056450D01*
X148365750Y-80056450D01*
X148365750Y-80081850D01*
G37*
G36*
X148340350Y-80107250D02*
G01*
X147756150Y-80107250D01*
X147756150Y-80081850D01*
X148340350Y-80081850D01*
X148340350Y-80107250D01*
G37*
G36*
X148467350Y-82596450D02*
G01*
X147756150Y-82596450D01*
X147756150Y-82571050D01*
X148467350Y-82571050D01*
X148467350Y-82596450D01*
G37*
G36*
X148467350Y-82621850D02*
G01*
X147756150Y-82621850D01*
X147756150Y-82596450D01*
X148467350Y-82596450D01*
X148467350Y-82621850D01*
G37*
G36*
X148467350Y-82647250D02*
G01*
X147756150Y-82647250D01*
X147756150Y-82621850D01*
X148467350Y-82621850D01*
X148467350Y-82647250D01*
G37*
G36*
X148441950Y-82672650D02*
G01*
X147756150Y-82672650D01*
X147756150Y-82647250D01*
X148441950Y-82647250D01*
X148441950Y-82672650D01*
G37*
G36*
X148441950Y-82698050D02*
G01*
X147756150Y-82698050D01*
X147756150Y-82672650D01*
X148441950Y-82672650D01*
X148441950Y-82698050D01*
G37*
G36*
X148746750Y-86330250D02*
G01*
X147756150Y-86330250D01*
X147756150Y-86304850D01*
X148746750Y-86304850D01*
X148746750Y-86330250D01*
G37*
G36*
X148721350Y-86355650D02*
G01*
X147756150Y-86355650D01*
X147756150Y-86330250D01*
X148721350Y-86330250D01*
X148721350Y-86355650D01*
G37*
G36*
X148721350Y-86381050D02*
G01*
X147756150Y-86381050D01*
X147756150Y-86355650D01*
X148721350Y-86355650D01*
X148721350Y-86381050D01*
G37*
G36*
X148695950Y-86406450D02*
G01*
X147756150Y-86406450D01*
X147756150Y-86381050D01*
X148695950Y-86381050D01*
X148695950Y-86406450D01*
G37*
G36*
X148670550Y-86431850D02*
G01*
X147756150Y-86431850D01*
X147756150Y-86406450D01*
X148670550Y-86406450D01*
X148670550Y-86431850D01*
G37*
G36*
X148365750Y-80056450D02*
G01*
X147781550Y-80056450D01*
X147781550Y-80031050D01*
X148365750Y-80031050D01*
X148365750Y-80056450D01*
G37*
G36*
X148543550Y-82444050D02*
G01*
X147781550Y-82444050D01*
X147781550Y-82418650D01*
X148543550Y-82418650D01*
X148543550Y-82444050D01*
G37*
G36*
X148518150Y-82469450D02*
G01*
X147781550Y-82469450D01*
X147781550Y-82444050D01*
X148518150Y-82444050D01*
X148518150Y-82469450D01*
G37*
G36*
X148518150Y-82494850D02*
G01*
X147781550Y-82494850D01*
X147781550Y-82469450D01*
X148518150Y-82469450D01*
X148518150Y-82494850D01*
G37*
G36*
X148492750Y-82520250D02*
G01*
X147781550Y-82520250D01*
X147781550Y-82494850D01*
X148492750Y-82494850D01*
X148492750Y-82520250D01*
G37*
G36*
X148492750Y-82545650D02*
G01*
X147781550Y-82545650D01*
X147781550Y-82520250D01*
X148492750Y-82520250D01*
X148492750Y-82545650D01*
G37*
G36*
X148492750Y-82571050D02*
G01*
X147781550Y-82571050D01*
X147781550Y-82545650D01*
X148492750Y-82545650D01*
X148492750Y-82571050D01*
G37*
G36*
X148645150Y-86457250D02*
G01*
X147781550Y-86457250D01*
X147781550Y-86431850D01*
X148645150Y-86431850D01*
X148645150Y-86457250D01*
G37*
G36*
X148619750Y-86482650D02*
G01*
X147781550Y-86482650D01*
X147781550Y-86457250D01*
X148619750Y-86457250D01*
X148619750Y-86482650D01*
G37*
G36*
X148619750Y-86508050D02*
G01*
X147781550Y-86508050D01*
X147781550Y-86482650D01*
X148619750Y-86482650D01*
X148619750Y-86508050D01*
G37*
G36*
X148594350Y-86533450D02*
G01*
X147781550Y-86533450D01*
X147781550Y-86508050D01*
X148594350Y-86508050D01*
X148594350Y-86533450D01*
G37*
G36*
X148568950Y-86558850D02*
G01*
X147781550Y-86558850D01*
X147781550Y-86533450D01*
X148568950Y-86533450D01*
X148568950Y-86558850D01*
G37*
G36*
X148391150Y-80005650D02*
G01*
X147806950Y-80005650D01*
X147806950Y-79980250D01*
X148391150Y-79980250D01*
X148391150Y-80005650D01*
G37*
G36*
X148391150Y-80031050D02*
G01*
X147806950Y-80031050D01*
X147806950Y-80005650D01*
X148391150Y-80005650D01*
X148391150Y-80031050D01*
G37*
G36*
X148594350Y-82317050D02*
G01*
X147806950Y-82317050D01*
X147806950Y-82291650D01*
X148594350Y-82291650D01*
X148594350Y-82317050D01*
G37*
G36*
X148568950Y-82342450D02*
G01*
X147806950Y-82342450D01*
X147806950Y-82317050D01*
X148568950Y-82317050D01*
X148568950Y-82342450D01*
G37*
G36*
X148568950Y-82367850D02*
G01*
X147806950Y-82367850D01*
X147806950Y-82342450D01*
X148568950Y-82342450D01*
X148568950Y-82367850D01*
G37*
G36*
X148543550Y-82393250D02*
G01*
X147806950Y-82393250D01*
X147806950Y-82367850D01*
X148543550Y-82367850D01*
X148543550Y-82393250D01*
G37*
G36*
X148543550Y-82418650D02*
G01*
X147806950Y-82418650D01*
X147806950Y-82393250D01*
X148543550Y-82393250D01*
X148543550Y-82418650D01*
G37*
G36*
X148543550Y-86584250D02*
G01*
X147806950Y-86584250D01*
X147806950Y-86558850D01*
X148543550Y-86558850D01*
X148543550Y-86584250D01*
G37*
G36*
X148518150Y-86609650D02*
G01*
X147806950Y-86609650D01*
X147806950Y-86584250D01*
X148518150Y-86584250D01*
X148518150Y-86609650D01*
G37*
G36*
X148518150Y-86635050D02*
G01*
X147806950Y-86635050D01*
X147806950Y-86609650D01*
X148518150Y-86609650D01*
X148518150Y-86635050D01*
G37*
G36*
X148492750Y-86660450D02*
G01*
X147806950Y-86660450D01*
X147806950Y-86635050D01*
X148492750Y-86635050D01*
X148492750Y-86660450D01*
G37*
G36*
X148467350Y-86685850D02*
G01*
X147806950Y-86685850D01*
X147806950Y-86660450D01*
X148467350Y-86660450D01*
X148467350Y-86685850D01*
G37*
G36*
X148441950Y-79954850D02*
G01*
X147832350Y-79954850D01*
X147832350Y-79929450D01*
X148441950Y-79929450D01*
X148441950Y-79954850D01*
G37*
G36*
X148416550Y-79980250D02*
G01*
X147832350Y-79980250D01*
X147832350Y-79954850D01*
X148416550Y-79954850D01*
X148416550Y-79980250D01*
G37*
G36*
X148645150Y-82164650D02*
G01*
X147832350Y-82164650D01*
X147832350Y-82139250D01*
X148645150Y-82139250D01*
X148645150Y-82164650D01*
G37*
G36*
X148619750Y-82190050D02*
G01*
X147832350Y-82190050D01*
X147832350Y-82164650D01*
X148619750Y-82164650D01*
X148619750Y-82190050D01*
G37*
G36*
X148619750Y-82215450D02*
G01*
X147832350Y-82215450D01*
X147832350Y-82190050D01*
X148619750Y-82190050D01*
X148619750Y-82215450D01*
G37*
G36*
X148619750Y-82240850D02*
G01*
X147832350Y-82240850D01*
X147832350Y-82215450D01*
X148619750Y-82215450D01*
X148619750Y-82240850D01*
G37*
G36*
X148594350Y-82266250D02*
G01*
X147832350Y-82266250D01*
X147832350Y-82240850D01*
X148594350Y-82240850D01*
X148594350Y-82266250D01*
G37*
G36*
X148594350Y-82291650D02*
G01*
X147832350Y-82291650D01*
X147832350Y-82266250D01*
X148594350Y-82266250D01*
X148594350Y-82291650D01*
G37*
G36*
X148441950Y-86711250D02*
G01*
X147832350Y-86711250D01*
X147832350Y-86685850D01*
X148441950Y-86685850D01*
X148441950Y-86711250D01*
G37*
G36*
X148416550Y-86736650D02*
G01*
X147832350Y-86736650D01*
X147832350Y-86711250D01*
X148416550Y-86711250D01*
X148416550Y-86736650D01*
G37*
G36*
X148416550Y-86762050D02*
G01*
X147832350Y-86762050D01*
X147832350Y-86736650D01*
X148416550Y-86736650D01*
X148416550Y-86762050D01*
G37*
G36*
X148391150Y-86787450D02*
G01*
X147832350Y-86787450D01*
X147832350Y-86762050D01*
X148391150Y-86762050D01*
X148391150Y-86787450D01*
G37*
G36*
X148365750Y-86812850D02*
G01*
X147832350Y-86812850D01*
X147832350Y-86787450D01*
X148365750Y-86787450D01*
X148365750Y-86812850D01*
G37*
G36*
X148467350Y-79904050D02*
G01*
X147857750Y-79904050D01*
X147857750Y-79878650D01*
X148467350Y-79878650D01*
X148467350Y-79904050D01*
G37*
G36*
X148441950Y-79929450D02*
G01*
X147857750Y-79929450D01*
X147857750Y-79904050D01*
X148441950Y-79904050D01*
X148441950Y-79929450D01*
G37*
G36*
X148695950Y-82037650D02*
G01*
X147857750Y-82037650D01*
X147857750Y-82012250D01*
X148695950Y-82012250D01*
X148695950Y-82037650D01*
G37*
G36*
X148670550Y-82063050D02*
G01*
X147857750Y-82063050D01*
X147857750Y-82037650D01*
X148670550Y-82037650D01*
X148670550Y-82063050D01*
G37*
G36*
X148670550Y-82088450D02*
G01*
X147857750Y-82088450D01*
X147857750Y-82063050D01*
X148670550Y-82063050D01*
X148670550Y-82088450D01*
G37*
G36*
X148670550Y-82113850D02*
G01*
X147857750Y-82113850D01*
X147857750Y-82088450D01*
X148670550Y-82088450D01*
X148670550Y-82113850D01*
G37*
G36*
X148645150Y-82139250D02*
G01*
X147857750Y-82139250D01*
X147857750Y-82113850D01*
X148645150Y-82113850D01*
X148645150Y-82139250D01*
G37*
G36*
X148340350Y-86838250D02*
G01*
X147857750Y-86838250D01*
X147857750Y-86812850D01*
X148340350Y-86812850D01*
X148340350Y-86838250D01*
G37*
G36*
X148314950Y-86863650D02*
G01*
X147857750Y-86863650D01*
X147857750Y-86838250D01*
X148314950Y-86838250D01*
X148314950Y-86863650D01*
G37*
G36*
X148314950Y-86889050D02*
G01*
X147857750Y-86889050D01*
X147857750Y-86863650D01*
X148314950Y-86863650D01*
X148314950Y-86889050D01*
G37*
G36*
X148289550Y-86914450D02*
G01*
X147857750Y-86914450D01*
X147857750Y-86889050D01*
X148289550Y-86889050D01*
X148289550Y-86914450D01*
G37*
G36*
X148264150Y-86939850D02*
G01*
X147857750Y-86939850D01*
X147857750Y-86914450D01*
X148264150Y-86914450D01*
X148264150Y-86939850D01*
G37*
G36*
X148467350Y-79878650D02*
G01*
X147883150Y-79878650D01*
X147883150Y-79853250D01*
X148467350Y-79853250D01*
X148467350Y-79878650D01*
G37*
G36*
X148746750Y-81885250D02*
G01*
X147883150Y-81885250D01*
X147883150Y-81859850D01*
X148746750Y-81859850D01*
X148746750Y-81885250D01*
G37*
G36*
X148746750Y-81910650D02*
G01*
X147883150Y-81910650D01*
X147883150Y-81885250D01*
X148746750Y-81885250D01*
X148746750Y-81910650D01*
G37*
G36*
X148721350Y-81936050D02*
G01*
X147883150Y-81936050D01*
X147883150Y-81910650D01*
X148721350Y-81910650D01*
X148721350Y-81936050D01*
G37*
G36*
X148721350Y-81961450D02*
G01*
X147883150Y-81961450D01*
X147883150Y-81936050D01*
X148721350Y-81936050D01*
X148721350Y-81961450D01*
G37*
G36*
X148695950Y-81986850D02*
G01*
X147883150Y-81986850D01*
X147883150Y-81961450D01*
X148695950Y-81961450D01*
X148695950Y-81986850D01*
G37*
G36*
X148695950Y-82012250D02*
G01*
X147883150Y-82012250D01*
X147883150Y-81986850D01*
X148695950Y-81986850D01*
X148695950Y-82012250D01*
G37*
G36*
X148238750Y-86965250D02*
G01*
X147883150Y-86965250D01*
X147883150Y-86939850D01*
X148238750Y-86939850D01*
X148238750Y-86965250D01*
G37*
G36*
X148213350Y-86990650D02*
G01*
X147883150Y-86990650D01*
X147883150Y-86965250D01*
X148213350Y-86965250D01*
X148213350Y-86990650D01*
G37*
G36*
X148213350Y-87016050D02*
G01*
X147883150Y-87016050D01*
X147883150Y-86990650D01*
X148213350Y-86990650D01*
X148213350Y-87016050D01*
G37*
G36*
X148187950Y-87041450D02*
G01*
X147883150Y-87041450D01*
X147883150Y-87016050D01*
X148187950Y-87016050D01*
X148187950Y-87041450D01*
G37*
G36*
X148162550Y-87066850D02*
G01*
X147883150Y-87066850D01*
X147883150Y-87041450D01*
X148162550Y-87041450D01*
X148162550Y-87066850D01*
G37*
G36*
X148492750Y-79827850D02*
G01*
X147908550Y-79827850D01*
X147908550Y-79802450D01*
X148492750Y-79802450D01*
X148492750Y-79827850D01*
G37*
G36*
X148492750Y-79853250D02*
G01*
X147908550Y-79853250D01*
X147908550Y-79827850D01*
X148492750Y-79827850D01*
X148492750Y-79853250D01*
G37*
G36*
X148797550Y-81758250D02*
G01*
X147908550Y-81758250D01*
X147908550Y-81732850D01*
X148797550Y-81732850D01*
X148797550Y-81758250D01*
G37*
G36*
X148797550Y-81783650D02*
G01*
X147908550Y-81783650D01*
X147908550Y-81758250D01*
X148797550Y-81758250D01*
X148797550Y-81783650D01*
G37*
G36*
X148772150Y-81809050D02*
G01*
X147908550Y-81809050D01*
X147908550Y-81783650D01*
X148772150Y-81783650D01*
X148772150Y-81809050D01*
G37*
G36*
X148772150Y-81834450D02*
G01*
X147908550Y-81834450D01*
X147908550Y-81809050D01*
X148772150Y-81809050D01*
X148772150Y-81834450D01*
G37*
G36*
X148746750Y-81859850D02*
G01*
X147908550Y-81859850D01*
X147908550Y-81834450D01*
X148746750Y-81834450D01*
X148746750Y-81859850D01*
G37*
G36*
X148137150Y-87092250D02*
G01*
X147908550Y-87092250D01*
X147908550Y-87066850D01*
X148137150Y-87066850D01*
X148137150Y-87092250D01*
G37*
G36*
X148111750Y-87117650D02*
G01*
X147908550Y-87117650D01*
X147908550Y-87092250D01*
X148111750Y-87092250D01*
X148111750Y-87117650D01*
G37*
G36*
X148111750Y-87143050D02*
G01*
X147908550Y-87143050D01*
X147908550Y-87117650D01*
X148111750Y-87117650D01*
X148111750Y-87143050D01*
G37*
G36*
X148086350Y-87168450D02*
G01*
X147908550Y-87168450D01*
X147908550Y-87143050D01*
X148086350Y-87143050D01*
X148086350Y-87168450D01*
G37*
G36*
X148060950Y-87193850D02*
G01*
X147908550Y-87193850D01*
X147908550Y-87168450D01*
X148060950Y-87168450D01*
X148060950Y-87193850D01*
G37*
G36*
X148543550Y-79777050D02*
G01*
X147933950Y-79777050D01*
X147933950Y-79751650D01*
X148543550Y-79751650D01*
X148543550Y-79777050D01*
G37*
G36*
X148518150Y-79802450D02*
G01*
X147933950Y-79802450D01*
X147933950Y-79777050D01*
X148518150Y-79777050D01*
X148518150Y-79802450D01*
G37*
G36*
X148848350Y-81605850D02*
G01*
X147933950Y-81605850D01*
X147933950Y-81580450D01*
X148848350Y-81580450D01*
X148848350Y-81605850D01*
G37*
G36*
X148848350Y-81631250D02*
G01*
X147933950Y-81631250D01*
X147933950Y-81605850D01*
X148848350Y-81605850D01*
X148848350Y-81631250D01*
G37*
G36*
X148822950Y-81656650D02*
G01*
X147933950Y-81656650D01*
X147933950Y-81631250D01*
X148822950Y-81631250D01*
X148822950Y-81656650D01*
G37*
G36*
X148822950Y-81682050D02*
G01*
X147933950Y-81682050D01*
X147933950Y-81656650D01*
X148822950Y-81656650D01*
X148822950Y-81682050D01*
G37*
G36*
X148822950Y-81707450D02*
G01*
X147933950Y-81707450D01*
X147933950Y-81682050D01*
X148822950Y-81682050D01*
X148822950Y-81707450D01*
G37*
G36*
X148797550Y-81732850D02*
G01*
X147933950Y-81732850D01*
X147933950Y-81707450D01*
X148797550Y-81707450D01*
X148797550Y-81732850D01*
G37*
G36*
X148035550Y-87219250D02*
G01*
X147933950Y-87219250D01*
X147933950Y-87193850D01*
X148035550Y-87193850D01*
X148035550Y-87219250D01*
G37*
G36*
X148010150Y-87244650D02*
G01*
X147933950Y-87244650D01*
X147933950Y-87219250D01*
X148010150Y-87219250D01*
X148010150Y-87244650D01*
G37*
G36*
X148010150Y-87270050D02*
G01*
X147933950Y-87270050D01*
X147933950Y-87244650D01*
X148010150Y-87244650D01*
X148010150Y-87270050D01*
G37*
G36*
X147984750Y-87295450D02*
G01*
X147933950Y-87295450D01*
X147933950Y-87270050D01*
X147984750Y-87270050D01*
X147984750Y-87295450D01*
G37*
G36*
X148568950Y-79751650D02*
G01*
X147959350Y-79751650D01*
X147959350Y-79726250D01*
X148568950Y-79726250D01*
X148568950Y-79751650D01*
G37*
G36*
X148899150Y-81478850D02*
G01*
X147959350Y-81478850D01*
X147959350Y-81453450D01*
X148899150Y-81453450D01*
X148899150Y-81478850D01*
G37*
G36*
X148899150Y-81504250D02*
G01*
X147959350Y-81504250D01*
X147959350Y-81478850D01*
X148899150Y-81478850D01*
X148899150Y-81504250D01*
G37*
G36*
X148873750Y-81529650D02*
G01*
X147959350Y-81529650D01*
X147959350Y-81504250D01*
X148873750Y-81504250D01*
X148873750Y-81529650D01*
G37*
G36*
X148873750Y-81555050D02*
G01*
X147959350Y-81555050D01*
X147959350Y-81529650D01*
X148873750Y-81529650D01*
X148873750Y-81555050D01*
G37*
G36*
X148873750Y-81580450D02*
G01*
X147959350Y-81580450D01*
X147959350Y-81555050D01*
X148873750Y-81555050D01*
X148873750Y-81580450D01*
G37*
G36*
X149153150Y-79700850D02*
G01*
X147984750Y-79700850D01*
X147984750Y-79675450D01*
X149153150Y-79675450D01*
X149153150Y-79700850D01*
G37*
G36*
X149178550Y-79726250D02*
G01*
X147984750Y-79726250D01*
X147984750Y-79700850D01*
X149178550Y-79700850D01*
X149178550Y-79726250D01*
G37*
G36*
X148949950Y-81377250D02*
G01*
X147984750Y-81377250D01*
X147984750Y-81351850D01*
X148949950Y-81351850D01*
X148949950Y-81377250D01*
G37*
G36*
X148924550Y-81402650D02*
G01*
X147984750Y-81402650D01*
X147984750Y-81377250D01*
X148924550Y-81377250D01*
X148924550Y-81402650D01*
G37*
G36*
X148924550Y-81428050D02*
G01*
X147984750Y-81428050D01*
X147984750Y-81402650D01*
X148924550Y-81402650D01*
X148924550Y-81428050D01*
G37*
G36*
X148899150Y-81453450D02*
G01*
X147984750Y-81453450D01*
X147984750Y-81428050D01*
X148899150Y-81428050D01*
X148899150Y-81453450D01*
G37*
G36*
X149127750Y-79650050D02*
G01*
X148010150Y-79650050D01*
X148010150Y-79624650D01*
X149127750Y-79624650D01*
X149127750Y-79650050D01*
G37*
G36*
X149153150Y-79675450D02*
G01*
X148010150Y-79675450D01*
X148010150Y-79650050D01*
X149153150Y-79650050D01*
X149153150Y-79675450D01*
G37*
G36*
X149102350Y-79599250D02*
G01*
X148035550Y-79599250D01*
X148035550Y-79573850D01*
X149102350Y-79573850D01*
X149102350Y-79599250D01*
G37*
G36*
X149102350Y-79624650D02*
G01*
X148035550Y-79624650D01*
X148035550Y-79599250D01*
X149102350Y-79599250D01*
X149102350Y-79624650D01*
G37*
G36*
X149076950Y-79573850D02*
G01*
X148060950Y-79573850D01*
X148060950Y-79548450D01*
X149076950Y-79548450D01*
X149076950Y-79573850D01*
G37*
G36*
X149407150Y-83790250D02*
G01*
X148060950Y-83790250D01*
X148060950Y-83764850D01*
X149407150Y-83764850D01*
X149407150Y-83790250D01*
G37*
G36*
X148467350Y-85974650D02*
G01*
X148060950Y-85974650D01*
X148060950Y-85949250D01*
X148467350Y-85949250D01*
X148467350Y-85974650D01*
G37*
G36*
X148441950Y-86000050D02*
G01*
X148060950Y-86000050D01*
X148060950Y-85974650D01*
X148441950Y-85974650D01*
X148441950Y-86000050D01*
G37*
G36*
X148441950Y-86025450D02*
G01*
X148060950Y-86025450D01*
X148060950Y-86000050D01*
X148441950Y-86000050D01*
X148441950Y-86025450D01*
G37*
G36*
X149051550Y-79523050D02*
G01*
X148086350Y-79523050D01*
X148086350Y-79497650D01*
X149051550Y-79497650D01*
X149051550Y-79523050D01*
G37*
G36*
X149076950Y-79548450D02*
G01*
X148086350Y-79548450D01*
X148086350Y-79523050D01*
X149076950Y-79523050D01*
X149076950Y-79548450D01*
G37*
G36*
X148492750Y-85923850D02*
G01*
X148086350Y-85923850D01*
X148086350Y-85898450D01*
X148492750Y-85898450D01*
X148492750Y-85923850D01*
G37*
G36*
X148467350Y-85949250D02*
G01*
X148086350Y-85949250D01*
X148086350Y-85923850D01*
X148467350Y-85923850D01*
X148467350Y-85949250D01*
G37*
G36*
X149026150Y-79497650D02*
G01*
X148111750Y-79497650D01*
X148111750Y-79472250D01*
X149026150Y-79472250D01*
X149026150Y-79497650D01*
G37*
G36*
X148518150Y-85847650D02*
G01*
X148111750Y-85847650D01*
X148111750Y-85822250D01*
X148518150Y-85822250D01*
X148518150Y-85847650D01*
G37*
G36*
X148492750Y-85873050D02*
G01*
X148111750Y-85873050D01*
X148111750Y-85847650D01*
X148492750Y-85847650D01*
X148492750Y-85873050D01*
G37*
G36*
X148492750Y-85898450D02*
G01*
X148111750Y-85898450D01*
X148111750Y-85873050D01*
X148492750Y-85873050D01*
X148492750Y-85898450D01*
G37*
G36*
X149000750Y-79446850D02*
G01*
X148137150Y-79446850D01*
X148137150Y-79421450D01*
X149000750Y-79421450D01*
X149000750Y-79446850D01*
G37*
G36*
X149026150Y-79472250D02*
G01*
X148137150Y-79472250D01*
X148137150Y-79446850D01*
X149026150Y-79446850D01*
X149026150Y-79472250D01*
G37*
G36*
X149407150Y-83764850D02*
G01*
X148137150Y-83764850D01*
X148137150Y-83739450D01*
X149407150Y-83739450D01*
X149407150Y-83764850D01*
G37*
G36*
X148543550Y-85771450D02*
G01*
X148137150Y-85771450D01*
X148137150Y-85746050D01*
X148543550Y-85746050D01*
X148543550Y-85771450D01*
G37*
G36*
X148543550Y-85796850D02*
G01*
X148137150Y-85796850D01*
X148137150Y-85771450D01*
X148543550Y-85771450D01*
X148543550Y-85796850D01*
G37*
G36*
X148518150Y-85822250D02*
G01*
X148137150Y-85822250D01*
X148137150Y-85796850D01*
X148518150Y-85796850D01*
X148518150Y-85822250D01*
G37*
G36*
X148975350Y-79421450D02*
G01*
X148162550Y-79421450D01*
X148162550Y-79396050D01*
X148975350Y-79396050D01*
X148975350Y-79421450D01*
G37*
G36*
X148568950Y-85720650D02*
G01*
X148162550Y-85720650D01*
X148162550Y-85695250D01*
X148568950Y-85695250D01*
X148568950Y-85720650D01*
G37*
G36*
X148568950Y-85746050D02*
G01*
X148162550Y-85746050D01*
X148162550Y-85720650D01*
X148568950Y-85720650D01*
X148568950Y-85746050D01*
G37*
G36*
X148949950Y-79396050D02*
G01*
X148187950Y-79396050D01*
X148187950Y-79370650D01*
X148949950Y-79370650D01*
X148949950Y-79396050D01*
G37*
G36*
X148594350Y-85644450D02*
G01*
X148187950Y-85644450D01*
X148187950Y-85619050D01*
X148594350Y-85619050D01*
X148594350Y-85644450D01*
G37*
G36*
X148594350Y-85669850D02*
G01*
X148187950Y-85669850D01*
X148187950Y-85644450D01*
X148594350Y-85644450D01*
X148594350Y-85669850D01*
G37*
G36*
X148594350Y-85695250D02*
G01*
X148187950Y-85695250D01*
X148187950Y-85669850D01*
X148594350Y-85669850D01*
X148594350Y-85695250D01*
G37*
G36*
X148924550Y-79370650D02*
G01*
X148213350Y-79370650D01*
X148213350Y-79345250D01*
X148924550Y-79345250D01*
X148924550Y-79370650D01*
G37*
G36*
X149432550Y-83739450D02*
G01*
X148213350Y-83739450D01*
X148213350Y-83714050D01*
X149432550Y-83714050D01*
X149432550Y-83739450D01*
G37*
G36*
X148645150Y-85568250D02*
G01*
X148213350Y-85568250D01*
X148213350Y-85542850D01*
X148645150Y-85542850D01*
X148645150Y-85568250D01*
G37*
G36*
X148619750Y-85593650D02*
G01*
X148213350Y-85593650D01*
X148213350Y-85568250D01*
X148619750Y-85568250D01*
X148619750Y-85593650D01*
G37*
G36*
X148619750Y-85619050D02*
G01*
X148213350Y-85619050D01*
X148213350Y-85593650D01*
X148619750Y-85593650D01*
X148619750Y-85619050D01*
G37*
G36*
X148899150Y-79345250D02*
G01*
X148238750Y-79345250D01*
X148238750Y-79319850D01*
X148899150Y-79319850D01*
X148899150Y-79345250D01*
G37*
G36*
X148670550Y-85517450D02*
G01*
X148238750Y-85517450D01*
X148238750Y-85492050D01*
X148670550Y-85492050D01*
X148670550Y-85517450D01*
G37*
G36*
X148645150Y-85542850D02*
G01*
X148238750Y-85542850D01*
X148238750Y-85517450D01*
X148645150Y-85517450D01*
X148645150Y-85542850D01*
G37*
G36*
X148695950Y-85441250D02*
G01*
X148264150Y-85441250D01*
X148264150Y-85415850D01*
X148695950Y-85415850D01*
X148695950Y-85441250D01*
G37*
G36*
X148670550Y-85466650D02*
G01*
X148264150Y-85466650D01*
X148264150Y-85441250D01*
X148670550Y-85441250D01*
X148670550Y-85466650D01*
G37*
G36*
X148670550Y-85492050D02*
G01*
X148264150Y-85492050D01*
X148264150Y-85466650D01*
X148670550Y-85466650D01*
X148670550Y-85492050D01*
G37*
G36*
X148873750Y-79319850D02*
G01*
X148289550Y-79319850D01*
X148289550Y-79294450D01*
X148873750Y-79294450D01*
X148873750Y-79319850D01*
G37*
G36*
X149432550Y-83714050D02*
G01*
X148289550Y-83714050D01*
X148289550Y-83688650D01*
X149432550Y-83688650D01*
X149432550Y-83714050D01*
G37*
G36*
X148721350Y-85365050D02*
G01*
X148289550Y-85365050D01*
X148289550Y-85339650D01*
X148721350Y-85339650D01*
X148721350Y-85365050D01*
G37*
G36*
X148721350Y-85390450D02*
G01*
X148289550Y-85390450D01*
X148289550Y-85365050D01*
X148721350Y-85365050D01*
X148721350Y-85390450D01*
G37*
G36*
X148695950Y-85415850D02*
G01*
X148289550Y-85415850D01*
X148289550Y-85390450D01*
X148695950Y-85390450D01*
X148695950Y-85415850D01*
G37*
G36*
X148822950Y-79294450D02*
G01*
X148314950Y-79294450D01*
X148314950Y-79269050D01*
X148822950Y-79269050D01*
X148822950Y-79294450D01*
G37*
G36*
X148746750Y-85314250D02*
G01*
X148314950Y-85314250D01*
X148314950Y-85288850D01*
X148746750Y-85288850D01*
X148746750Y-85314250D01*
G37*
G36*
X148746750Y-85339650D02*
G01*
X148314950Y-85339650D01*
X148314950Y-85314250D01*
X148746750Y-85314250D01*
X148746750Y-85339650D01*
G37*
G36*
X149457950Y-83688650D02*
G01*
X148340350Y-83688650D01*
X148340350Y-83663250D01*
X149457950Y-83663250D01*
X149457950Y-83688650D01*
G37*
G36*
X148772150Y-85238050D02*
G01*
X148340350Y-85238050D01*
X148340350Y-85212650D01*
X148772150Y-85212650D01*
X148772150Y-85238050D01*
G37*
G36*
X148772150Y-85263450D02*
G01*
X148340350Y-85263450D01*
X148340350Y-85238050D01*
X148772150Y-85238050D01*
X148772150Y-85263450D01*
G37*
G36*
X148746750Y-85288850D02*
G01*
X148340350Y-85288850D01*
X148340350Y-85263450D01*
X148746750Y-85263450D01*
X148746750Y-85288850D01*
G37*
G36*
X148772150Y-79269050D02*
G01*
X148365750Y-79269050D01*
X148365750Y-79243650D01*
X148772150Y-79243650D01*
X148772150Y-79269050D01*
G37*
G36*
X148822950Y-85161850D02*
G01*
X148365750Y-85161850D01*
X148365750Y-85136450D01*
X148822950Y-85136450D01*
X148822950Y-85161850D01*
G37*
G36*
X148797550Y-85187250D02*
G01*
X148365750Y-85187250D01*
X148365750Y-85161850D01*
X148797550Y-85161850D01*
X148797550Y-85187250D01*
G37*
G36*
X148797550Y-85212650D02*
G01*
X148365750Y-85212650D01*
X148365750Y-85187250D01*
X148797550Y-85187250D01*
X148797550Y-85212650D01*
G37*
G36*
X148848350Y-85111050D02*
G01*
X148391150Y-85111050D01*
X148391150Y-85085650D01*
X148848350Y-85085650D01*
X148848350Y-85111050D01*
G37*
G36*
X148822950Y-85136450D02*
G01*
X148391150Y-85136450D01*
X148391150Y-85111050D01*
X148822950Y-85111050D01*
X148822950Y-85136450D01*
G37*
G36*
X149457950Y-83663250D02*
G01*
X148416550Y-83663250D01*
X148416550Y-83637850D01*
X149457950Y-83637850D01*
X149457950Y-83663250D01*
G37*
G36*
X148873750Y-85034850D02*
G01*
X148416550Y-85034850D01*
X148416550Y-85009450D01*
X148873750Y-85009450D01*
X148873750Y-85034850D01*
G37*
G36*
X148848350Y-85060250D02*
G01*
X148416550Y-85060250D01*
X148416550Y-85034850D01*
X148848350Y-85034850D01*
X148848350Y-85060250D01*
G37*
G36*
X148848350Y-85085650D02*
G01*
X148416550Y-85085650D01*
X148416550Y-85060250D01*
X148848350Y-85060250D01*
X148848350Y-85085650D01*
G37*
G36*
X148695950Y-79243650D02*
G01*
X148441950Y-79243650D01*
X148441950Y-79218250D01*
X148695950Y-79218250D01*
X148695950Y-79243650D01*
G37*
G36*
X148899150Y-84958650D02*
G01*
X148441950Y-84958650D01*
X148441950Y-84933250D01*
X148899150Y-84933250D01*
X148899150Y-84958650D01*
G37*
G36*
X148899150Y-84984050D02*
G01*
X148441950Y-84984050D01*
X148441950Y-84958650D01*
X148899150Y-84958650D01*
X148899150Y-84984050D01*
G37*
G36*
X148873750Y-85009450D02*
G01*
X148441950Y-85009450D01*
X148441950Y-84984050D01*
X148873750Y-84984050D01*
X148873750Y-85009450D01*
G37*
G36*
X148924550Y-84907850D02*
G01*
X148467350Y-84907850D01*
X148467350Y-84882450D01*
X148924550Y-84882450D01*
X148924550Y-84907850D01*
G37*
G36*
X148924550Y-84933250D02*
G01*
X148467350Y-84933250D01*
X148467350Y-84907850D01*
X148924550Y-84907850D01*
X148924550Y-84933250D01*
G37*
G36*
X149483350Y-83637850D02*
G01*
X148492750Y-83637850D01*
X148492750Y-83612450D01*
X149483350Y-83612450D01*
X149483350Y-83637850D01*
G37*
G36*
X148949950Y-84831650D02*
G01*
X148492750Y-84831650D01*
X148492750Y-84806250D01*
X148949950Y-84806250D01*
X148949950Y-84831650D01*
G37*
G36*
X148949950Y-84857050D02*
G01*
X148492750Y-84857050D01*
X148492750Y-84831650D01*
X148949950Y-84831650D01*
X148949950Y-84857050D01*
G37*
G36*
X148924550Y-84882450D02*
G01*
X148492750Y-84882450D01*
X148492750Y-84857050D01*
X148924550Y-84857050D01*
X148924550Y-84882450D01*
G37*
G36*
X149000750Y-84755450D02*
G01*
X148518150Y-84755450D01*
X148518150Y-84730050D01*
X149000750Y-84730050D01*
X149000750Y-84755450D01*
G37*
G36*
X148975350Y-84780850D02*
G01*
X148518150Y-84780850D01*
X148518150Y-84755450D01*
X148975350Y-84755450D01*
X148975350Y-84780850D01*
G37*
G36*
X148975350Y-84806250D02*
G01*
X148518150Y-84806250D01*
X148518150Y-84780850D01*
X148975350Y-84780850D01*
X148975350Y-84806250D01*
G37*
G36*
X149000750Y-84704650D02*
G01*
X148543550Y-84704650D01*
X148543550Y-84679250D01*
X149000750Y-84679250D01*
X149000750Y-84704650D01*
G37*
G36*
X149000750Y-84730050D02*
G01*
X148543550Y-84730050D01*
X148543550Y-84704650D01*
X149000750Y-84704650D01*
X149000750Y-84730050D01*
G37*
G36*
X149483350Y-83612450D02*
G01*
X148568950Y-83612450D01*
X148568950Y-83587050D01*
X149483350Y-83587050D01*
X149483350Y-83612450D01*
G37*
G36*
X149051550Y-84628450D02*
G01*
X148568950Y-84628450D01*
X148568950Y-84603050D01*
X149051550Y-84603050D01*
X149051550Y-84628450D01*
G37*
G36*
X149026150Y-84653850D02*
G01*
X148568950Y-84653850D01*
X148568950Y-84628450D01*
X149026150Y-84628450D01*
X149026150Y-84653850D01*
G37*
G36*
X149026150Y-84679250D02*
G01*
X148568950Y-84679250D01*
X148568950Y-84653850D01*
X149026150Y-84653850D01*
X149026150Y-84679250D01*
G37*
G36*
X149178550Y-79751650D02*
G01*
X148594350Y-79751650D01*
X148594350Y-79726250D01*
X149178550Y-79726250D01*
X149178550Y-79751650D01*
G37*
G36*
X149076950Y-84552250D02*
G01*
X148594350Y-84552250D01*
X148594350Y-84526850D01*
X149076950Y-84526850D01*
X149076950Y-84552250D01*
G37*
G36*
X149076950Y-84577650D02*
G01*
X148594350Y-84577650D01*
X148594350Y-84552250D01*
X149076950Y-84552250D01*
X149076950Y-84577650D01*
G37*
G36*
X149051550Y-84603050D02*
G01*
X148594350Y-84603050D01*
X148594350Y-84577650D01*
X149051550Y-84577650D01*
X149051550Y-84603050D01*
G37*
G36*
X149203950Y-79777050D02*
G01*
X148619750Y-79777050D01*
X148619750Y-79751650D01*
X149203950Y-79751650D01*
X149203950Y-79777050D01*
G37*
G36*
X149203950Y-79802450D02*
G01*
X148619750Y-79802450D01*
X148619750Y-79777050D01*
X149203950Y-79777050D01*
X149203950Y-79802450D01*
G37*
G36*
X149508750Y-83587050D02*
G01*
X148619750Y-83587050D01*
X148619750Y-83561650D01*
X149508750Y-83561650D01*
X149508750Y-83587050D01*
G37*
G36*
X149102350Y-84501450D02*
G01*
X148619750Y-84501450D01*
X148619750Y-84476050D01*
X149102350Y-84476050D01*
X149102350Y-84501450D01*
G37*
G36*
X149076950Y-84526850D02*
G01*
X148619750Y-84526850D01*
X148619750Y-84501450D01*
X149076950Y-84501450D01*
X149076950Y-84526850D01*
G37*
G36*
X149229350Y-79827850D02*
G01*
X148645150Y-79827850D01*
X148645150Y-79802450D01*
X149229350Y-79802450D01*
X149229350Y-79827850D01*
G37*
G36*
X149229350Y-79853250D02*
G01*
X148645150Y-79853250D01*
X148645150Y-79827850D01*
X149229350Y-79827850D01*
X149229350Y-79853250D01*
G37*
G36*
X149127750Y-84425250D02*
G01*
X148645150Y-84425250D01*
X148645150Y-84399850D01*
X149127750Y-84399850D01*
X149127750Y-84425250D01*
G37*
G36*
X149127750Y-84450650D02*
G01*
X148645150Y-84450650D01*
X148645150Y-84425250D01*
X149127750Y-84425250D01*
X149127750Y-84450650D01*
G37*
G36*
X149102350Y-84476050D02*
G01*
X148645150Y-84476050D01*
X148645150Y-84450650D01*
X149102350Y-84450650D01*
X149102350Y-84476050D01*
G37*
G36*
X149254750Y-79878650D02*
G01*
X148670550Y-79878650D01*
X148670550Y-79853250D01*
X149254750Y-79853250D01*
X149254750Y-79878650D01*
G37*
G36*
X149280150Y-79904050D02*
G01*
X148670550Y-79904050D01*
X148670550Y-79878650D01*
X149280150Y-79878650D01*
X149280150Y-79904050D01*
G37*
G36*
X149178550Y-84349050D02*
G01*
X148670550Y-84349050D01*
X148670550Y-84323650D01*
X149178550Y-84323650D01*
X149178550Y-84349050D01*
G37*
G36*
X149153150Y-84374450D02*
G01*
X148670550Y-84374450D01*
X148670550Y-84349050D01*
X149153150Y-84349050D01*
X149153150Y-84374450D01*
G37*
G36*
X149153150Y-84399850D02*
G01*
X148670550Y-84399850D01*
X148670550Y-84374450D01*
X149153150Y-84374450D01*
X149153150Y-84399850D01*
G37*
G36*
X149280150Y-79929450D02*
G01*
X148695950Y-79929450D01*
X148695950Y-79904050D01*
X149280150Y-79904050D01*
X149280150Y-79929450D01*
G37*
G36*
X149508750Y-83561650D02*
G01*
X148695950Y-83561650D01*
X148695950Y-83536250D01*
X149508750Y-83536250D01*
X149508750Y-83561650D01*
G37*
G36*
X149178550Y-84298250D02*
G01*
X148695950Y-84298250D01*
X148695950Y-84272850D01*
X149178550Y-84272850D01*
X149178550Y-84298250D01*
G37*
G36*
X149178550Y-84323650D02*
G01*
X148695950Y-84323650D01*
X148695950Y-84298250D01*
X149178550Y-84298250D01*
X149178550Y-84323650D01*
G37*
G36*
X149305550Y-79954850D02*
G01*
X148721350Y-79954850D01*
X148721350Y-79929450D01*
X149305550Y-79929450D01*
X149305550Y-79954850D01*
G37*
G36*
X149305550Y-79980250D02*
G01*
X148721350Y-79980250D01*
X148721350Y-79954850D01*
X149305550Y-79954850D01*
X149305550Y-79980250D01*
G37*
G36*
X149229350Y-84222050D02*
G01*
X148721350Y-84222050D01*
X148721350Y-84196650D01*
X149229350Y-84196650D01*
X149229350Y-84222050D01*
G37*
G36*
X149203950Y-84247450D02*
G01*
X148721350Y-84247450D01*
X148721350Y-84222050D01*
X149203950Y-84222050D01*
X149203950Y-84247450D01*
G37*
G36*
X149203950Y-84272850D02*
G01*
X148721350Y-84272850D01*
X148721350Y-84247450D01*
X149203950Y-84247450D01*
X149203950Y-84272850D01*
G37*
G36*
X149330950Y-80005650D02*
G01*
X148746750Y-80005650D01*
X148746750Y-79980250D01*
X149330950Y-79980250D01*
X149330950Y-80005650D01*
G37*
G36*
X149330950Y-80031050D02*
G01*
X148746750Y-80031050D01*
X148746750Y-80005650D01*
X149330950Y-80005650D01*
X149330950Y-80031050D01*
G37*
G36*
X149254750Y-84145850D02*
G01*
X148746750Y-84145850D01*
X148746750Y-84120450D01*
X149254750Y-84120450D01*
X149254750Y-84145850D01*
G37*
G36*
X149254750Y-84171250D02*
G01*
X148746750Y-84171250D01*
X148746750Y-84145850D01*
X149254750Y-84145850D01*
X149254750Y-84171250D01*
G37*
G36*
X149229350Y-84196650D02*
G01*
X148746750Y-84196650D01*
X148746750Y-84171250D01*
X149229350Y-84171250D01*
X149229350Y-84196650D01*
G37*
G36*
X149356350Y-80056450D02*
G01*
X148772150Y-80056450D01*
X148772150Y-80031050D01*
X149356350Y-80031050D01*
X149356350Y-80056450D01*
G37*
G36*
X149381750Y-80081850D02*
G01*
X148772150Y-80081850D01*
X148772150Y-80056450D01*
X149381750Y-80056450D01*
X149381750Y-80081850D01*
G37*
G36*
X149508750Y-83536250D02*
G01*
X148772150Y-83536250D01*
X148772150Y-83510850D01*
X149508750Y-83510850D01*
X149508750Y-83536250D01*
G37*
G36*
X149280150Y-84095050D02*
G01*
X148772150Y-84095050D01*
X148772150Y-84069650D01*
X149280150Y-84069650D01*
X149280150Y-84095050D01*
G37*
G36*
X149254750Y-84120450D02*
G01*
X148772150Y-84120450D01*
X148772150Y-84095050D01*
X149254750Y-84095050D01*
X149254750Y-84120450D01*
G37*
G36*
X149381750Y-80107250D02*
G01*
X148797550Y-80107250D01*
X148797550Y-80081850D01*
X149381750Y-80081850D01*
X149381750Y-80107250D01*
G37*
G36*
X149305550Y-84018850D02*
G01*
X148797550Y-84018850D01*
X148797550Y-83993450D01*
X149305550Y-83993450D01*
X149305550Y-84018850D01*
G37*
G36*
X149305550Y-84044250D02*
G01*
X148797550Y-84044250D01*
X148797550Y-84018850D01*
X149305550Y-84018850D01*
X149305550Y-84044250D01*
G37*
G36*
X149280150Y-84069650D02*
G01*
X148797550Y-84069650D01*
X148797550Y-84044250D01*
X149280150Y-84044250D01*
X149280150Y-84069650D01*
G37*
G36*
X149407150Y-80132650D02*
G01*
X148822950Y-80132650D01*
X148822950Y-80107250D01*
X149407150Y-80107250D01*
X149407150Y-80132650D01*
G37*
G36*
X149407150Y-80158050D02*
G01*
X148822950Y-80158050D01*
X148822950Y-80132650D01*
X149407150Y-80132650D01*
X149407150Y-80158050D01*
G37*
G36*
X149432550Y-80183450D02*
G01*
X148848350Y-80183450D01*
X148848350Y-80158050D01*
X149432550Y-80158050D01*
X149432550Y-80183450D01*
G37*
G36*
X149432550Y-80208850D02*
G01*
X148848350Y-80208850D01*
X148848350Y-80183450D01*
X149432550Y-80183450D01*
X149432550Y-80208850D01*
G37*
G36*
X149534150Y-83510850D02*
G01*
X148848350Y-83510850D01*
X148848350Y-83485450D01*
X149534150Y-83485450D01*
X149534150Y-83510850D01*
G37*
G36*
X149457950Y-80234250D02*
G01*
X148873750Y-80234250D01*
X148873750Y-80208850D01*
X149457950Y-80208850D01*
X149457950Y-80234250D01*
G37*
G36*
X149483350Y-80259650D02*
G01*
X148873750Y-80259650D01*
X148873750Y-80234250D01*
X149483350Y-80234250D01*
X149483350Y-80259650D01*
G37*
G36*
X149483350Y-80285050D02*
G01*
X148899150Y-80285050D01*
X148899150Y-80259650D01*
X149483350Y-80259650D01*
X149483350Y-80285050D01*
G37*
G36*
X149508750Y-80310450D02*
G01*
X148924550Y-80310450D01*
X148924550Y-80285050D01*
X149508750Y-80285050D01*
X149508750Y-80310450D01*
G37*
G36*
X149508750Y-80335850D02*
G01*
X148924550Y-80335850D01*
X148924550Y-80310450D01*
X149508750Y-80310450D01*
X149508750Y-80335850D01*
G37*
G36*
X149534150Y-83485450D02*
G01*
X148924550Y-83485450D01*
X148924550Y-83460050D01*
X149534150Y-83460050D01*
X149534150Y-83485450D01*
G37*
G36*
X149534150Y-80361250D02*
G01*
X148949950Y-80361250D01*
X148949950Y-80335850D01*
X149534150Y-80335850D01*
X149534150Y-80361250D01*
G37*
G36*
X149534150Y-80386650D02*
G01*
X148949950Y-80386650D01*
X148949950Y-80361250D01*
X149534150Y-80361250D01*
X149534150Y-80386650D01*
G37*
G36*
X149559550Y-80412050D02*
G01*
X148975350Y-80412050D01*
X148975350Y-80386650D01*
X149559550Y-80386650D01*
X149559550Y-80412050D01*
G37*
G36*
X149559550Y-80437450D02*
G01*
X148975350Y-80437450D01*
X148975350Y-80412050D01*
X149559550Y-80412050D01*
X149559550Y-80437450D01*
G37*
G36*
X149559550Y-83460050D02*
G01*
X148975350Y-83460050D01*
X148975350Y-83434650D01*
X149559550Y-83434650D01*
X149559550Y-83460050D01*
G37*
G36*
X149584950Y-80462850D02*
G01*
X149000750Y-80462850D01*
X149000750Y-80437450D01*
X149584950Y-80437450D01*
X149584950Y-80462850D01*
G37*
G36*
X149610350Y-80488250D02*
G01*
X149000750Y-80488250D01*
X149000750Y-80462850D01*
X149610350Y-80462850D01*
X149610350Y-80488250D01*
G37*
G36*
X149610350Y-80513650D02*
G01*
X149026150Y-80513650D01*
X149026150Y-80488250D01*
X149610350Y-80488250D01*
X149610350Y-80513650D01*
G37*
G36*
X149635750Y-80539050D02*
G01*
X149051550Y-80539050D01*
X149051550Y-80513650D01*
X149635750Y-80513650D01*
X149635750Y-80539050D01*
G37*
G36*
X149635750Y-80564450D02*
G01*
X149051550Y-80564450D01*
X149051550Y-80539050D01*
X149635750Y-80539050D01*
X149635750Y-80564450D01*
G37*
G36*
X149559550Y-83434650D02*
G01*
X149051550Y-83434650D01*
X149051550Y-83409250D01*
X149559550Y-83409250D01*
X149559550Y-83434650D01*
G37*
G36*
X149661150Y-80589850D02*
G01*
X149076950Y-80589850D01*
X149076950Y-80564450D01*
X149661150Y-80564450D01*
X149661150Y-80589850D01*
G37*
G36*
X149661150Y-80615250D02*
G01*
X149076950Y-80615250D01*
X149076950Y-80589850D01*
X149661150Y-80589850D01*
X149661150Y-80615250D01*
G37*
G36*
X149686550Y-80640650D02*
G01*
X149102350Y-80640650D01*
X149102350Y-80615250D01*
X149686550Y-80615250D01*
X149686550Y-80640650D01*
G37*
G36*
X149711950Y-80666050D02*
G01*
X149102350Y-80666050D01*
X149102350Y-80640650D01*
X149711950Y-80640650D01*
X149711950Y-80666050D01*
G37*
G36*
X149711950Y-80691450D02*
G01*
X149127750Y-80691450D01*
X149127750Y-80666050D01*
X149711950Y-80666050D01*
X149711950Y-80691450D01*
G37*
G36*
X149584950Y-83409250D02*
G01*
X149127750Y-83409250D01*
X149127750Y-83383850D01*
X149584950Y-83383850D01*
X149584950Y-83409250D01*
G37*
G36*
X149737350Y-80716850D02*
G01*
X149153150Y-80716850D01*
X149153150Y-80691450D01*
X149737350Y-80691450D01*
X149737350Y-80716850D01*
G37*
G36*
X149737350Y-80742250D02*
G01*
X149153150Y-80742250D01*
X149153150Y-80716850D01*
X149737350Y-80716850D01*
X149737350Y-80742250D01*
G37*
G36*
X149762750Y-80767650D02*
G01*
X149178550Y-80767650D01*
X149178550Y-80742250D01*
X149762750Y-80742250D01*
X149762750Y-80767650D01*
G37*
G36*
X149762750Y-80793050D02*
G01*
X149178550Y-80793050D01*
X149178550Y-80767650D01*
X149762750Y-80767650D01*
X149762750Y-80793050D01*
G37*
G36*
X149788150Y-80818450D02*
G01*
X149203950Y-80818450D01*
X149203950Y-80793050D01*
X149788150Y-80793050D01*
X149788150Y-80818450D01*
G37*
G36*
X149788150Y-80843850D02*
G01*
X149203950Y-80843850D01*
X149203950Y-80818450D01*
X149788150Y-80818450D01*
X149788150Y-80843850D01*
G37*
G36*
X149584950Y-83383850D02*
G01*
X149203950Y-83383850D01*
X149203950Y-83358450D01*
X149584950Y-83358450D01*
X149584950Y-83383850D01*
G37*
G36*
X149813550Y-80869250D02*
G01*
X149229350Y-80869250D01*
X149229350Y-80843850D01*
X149813550Y-80843850D01*
X149813550Y-80869250D01*
G37*
G36*
X149838950Y-80894650D02*
G01*
X149229350Y-80894650D01*
X149229350Y-80869250D01*
X149838950Y-80869250D01*
X149838950Y-80894650D01*
G37*
G36*
X149838950Y-80920050D02*
G01*
X149254750Y-80920050D01*
X149254750Y-80894650D01*
X149838950Y-80894650D01*
X149838950Y-80920050D01*
G37*
G36*
X149584950Y-83358450D02*
G01*
X149254750Y-83358450D01*
X149254750Y-83333050D01*
X149584950Y-83333050D01*
X149584950Y-83358450D01*
G37*
G36*
X149864350Y-80945450D02*
G01*
X149280150Y-80945450D01*
X149280150Y-80920050D01*
X149864350Y-80920050D01*
X149864350Y-80945450D01*
G37*
G36*
X149864350Y-80970850D02*
G01*
X149280150Y-80970850D01*
X149280150Y-80945450D01*
X149864350Y-80945450D01*
X149864350Y-80970850D01*
G37*
G36*
X149889750Y-80996250D02*
G01*
X149305550Y-80996250D01*
X149305550Y-80970850D01*
X149889750Y-80970850D01*
X149889750Y-80996250D01*
G37*
G36*
X149889750Y-81021650D02*
G01*
X149305550Y-81021650D01*
X149305550Y-80996250D01*
X149889750Y-80996250D01*
X149889750Y-81021650D01*
G37*
G36*
X149915150Y-81047050D02*
G01*
X149330950Y-81047050D01*
X149330950Y-81021650D01*
X149915150Y-81021650D01*
X149915150Y-81047050D01*
G37*
G36*
X149940550Y-81072450D02*
G01*
X149330950Y-81072450D01*
X149330950Y-81047050D01*
X149940550Y-81047050D01*
X149940550Y-81072450D01*
G37*
G36*
X149610350Y-83333050D02*
G01*
X149330950Y-83333050D01*
X149330950Y-83307650D01*
X149610350Y-83307650D01*
X149610350Y-83333050D01*
G37*
G36*
X149940550Y-81097850D02*
G01*
X149356350Y-81097850D01*
X149356350Y-81072450D01*
X149940550Y-81072450D01*
X149940550Y-81097850D01*
G37*
G36*
X149965950Y-81123250D02*
G01*
X149381750Y-81123250D01*
X149381750Y-81097850D01*
X149965950Y-81097850D01*
X149965950Y-81123250D01*
G37*
G36*
X149965950Y-81148650D02*
G01*
X149381750Y-81148650D01*
X149381750Y-81123250D01*
X149965950Y-81123250D01*
X149965950Y-81148650D01*
G37*
G36*
X149991350Y-81174050D02*
G01*
X149407150Y-81174050D01*
X149407150Y-81148650D01*
X149991350Y-81148650D01*
X149991350Y-81174050D01*
G37*
G36*
X149991350Y-81199450D02*
G01*
X149407150Y-81199450D01*
X149407150Y-81174050D01*
X149991350Y-81174050D01*
X149991350Y-81199450D01*
G37*
G36*
X149610350Y-83307650D02*
G01*
X149407150Y-83307650D01*
X149407150Y-83282250D01*
X149610350Y-83282250D01*
X149610350Y-83307650D01*
G37*
G36*
X150016750Y-81224850D02*
G01*
X149432550Y-81224850D01*
X149432550Y-81199450D01*
X150016750Y-81199450D01*
X150016750Y-81224850D01*
G37*
G36*
X150042150Y-81250250D02*
G01*
X149432550Y-81250250D01*
X149432550Y-81224850D01*
X150042150Y-81224850D01*
X150042150Y-81250250D01*
G37*
G36*
X150042150Y-81275650D02*
G01*
X149457950Y-81275650D01*
X149457950Y-81250250D01*
X150042150Y-81250250D01*
X150042150Y-81275650D01*
G37*
G36*
X150067550Y-81301050D02*
G01*
X149483350Y-81301050D01*
X149483350Y-81275650D01*
X150067550Y-81275650D01*
X150067550Y-81301050D01*
G37*
G36*
X150067550Y-81326450D02*
G01*
X149483350Y-81326450D01*
X149483350Y-81301050D01*
X150067550Y-81301050D01*
X150067550Y-81326450D01*
G37*
G36*
X149635750Y-83282250D02*
G01*
X149483350Y-83282250D01*
X149483350Y-83256850D01*
X149635750Y-83256850D01*
X149635750Y-83282250D01*
G37*
G36*
X150092950Y-81351850D02*
G01*
X149508750Y-81351850D01*
X149508750Y-81326450D01*
X150092950Y-81326450D01*
X150092950Y-81351850D01*
G37*
G36*
X150092950Y-81377250D02*
G01*
X149508750Y-81377250D01*
X149508750Y-81351850D01*
X150092950Y-81351850D01*
X150092950Y-81377250D01*
G37*
G36*
X150118350Y-81402650D02*
G01*
X149534150Y-81402650D01*
X149534150Y-81377250D01*
X150118350Y-81377250D01*
X150118350Y-81402650D01*
G37*
G36*
X150118350Y-81428050D02*
G01*
X149534150Y-81428050D01*
X149534150Y-81402650D01*
X150118350Y-81402650D01*
X150118350Y-81428050D01*
G37*
G36*
X149635750Y-83256850D02*
G01*
X149534150Y-83256850D01*
X149534150Y-83231450D01*
X149635750Y-83231450D01*
X149635750Y-83256850D01*
G37*
G36*
X150143750Y-81453450D02*
G01*
X149559550Y-81453450D01*
X149559550Y-81428050D01*
X150143750Y-81428050D01*
X150143750Y-81453450D01*
G37*
G36*
X150169150Y-81478850D02*
G01*
X149559550Y-81478850D01*
X149559550Y-81453450D01*
X150169150Y-81453450D01*
X150169150Y-81478850D01*
G37*
G36*
X150169150Y-81504250D02*
G01*
X149584950Y-81504250D01*
X149584950Y-81478850D01*
X150169150Y-81478850D01*
X150169150Y-81504250D01*
G37*
G36*
X150194550Y-81529650D02*
G01*
X149610350Y-81529650D01*
X149610350Y-81504250D01*
X150194550Y-81504250D01*
X150194550Y-81529650D01*
G37*
G36*
X150194550Y-81555050D02*
G01*
X149610350Y-81555050D01*
X149610350Y-81529650D01*
X150194550Y-81529650D01*
X150194550Y-81555050D01*
G37*
G36*
X149635750Y-83231450D02*
G01*
X149610350Y-83231450D01*
X149610350Y-83206050D01*
X149635750Y-83206050D01*
X149635750Y-83231450D01*
G37*
G36*
X150219950Y-81580450D02*
G01*
X149635750Y-81580450D01*
X149635750Y-81555050D01*
X150219950Y-81555050D01*
X150219950Y-81580450D01*
G37*
G36*
X150219950Y-81605850D02*
G01*
X149635750Y-81605850D01*
X149635750Y-81580450D01*
X150219950Y-81580450D01*
X150219950Y-81605850D01*
G37*
G36*
X150245350Y-81631250D02*
G01*
X149661150Y-81631250D01*
X149661150Y-81605850D01*
X150245350Y-81605850D01*
X150245350Y-81631250D01*
G37*
G36*
X150270750Y-81656650D02*
G01*
X149661150Y-81656650D01*
X149661150Y-81631250D01*
X150270750Y-81631250D01*
X150270750Y-81656650D01*
G37*
G36*
X150270750Y-81682050D02*
G01*
X149686550Y-81682050D01*
X149686550Y-81656650D01*
X150270750Y-81656650D01*
X150270750Y-81682050D01*
G37*
G36*
X150296150Y-81707450D02*
G01*
X149711950Y-81707450D01*
X149711950Y-81682050D01*
X150296150Y-81682050D01*
X150296150Y-81707450D01*
G37*
G36*
X150296150Y-81732850D02*
G01*
X149711950Y-81732850D01*
X149711950Y-81707450D01*
X150296150Y-81707450D01*
X150296150Y-81732850D01*
G37*
G36*
X150321550Y-81758250D02*
G01*
X149737350Y-81758250D01*
X149737350Y-81732850D01*
X150321550Y-81732850D01*
X150321550Y-81758250D01*
G37*
G36*
X150321550Y-81783650D02*
G01*
X149737350Y-81783650D01*
X149737350Y-81758250D01*
X150321550Y-81758250D01*
X150321550Y-81783650D01*
G37*
G36*
X150346950Y-81809050D02*
G01*
X149762750Y-81809050D01*
X149762750Y-81783650D01*
X150346950Y-81783650D01*
X150346950Y-81809050D01*
G37*
G36*
X150372350Y-81834450D02*
G01*
X149762750Y-81834450D01*
X149762750Y-81809050D01*
X150372350Y-81809050D01*
X150372350Y-81834450D01*
G37*
G36*
X150372350Y-81859850D02*
G01*
X149788150Y-81859850D01*
X149788150Y-81834450D01*
X150372350Y-81834450D01*
X150372350Y-81859850D01*
G37*
G36*
X150397750Y-81885250D02*
G01*
X149788150Y-81885250D01*
X149788150Y-81859850D01*
X150397750Y-81859850D01*
X150397750Y-81885250D01*
G37*
G36*
X150397750Y-81910650D02*
G01*
X149813550Y-81910650D01*
X149813550Y-81885250D01*
X150397750Y-81885250D01*
X150397750Y-81910650D01*
G37*
G36*
X150423150Y-81936050D02*
G01*
X149838950Y-81936050D01*
X149838950Y-81910650D01*
X150423150Y-81910650D01*
X150423150Y-81936050D01*
G37*
G36*
X150423150Y-81961450D02*
G01*
X149838950Y-81961450D01*
X149838950Y-81936050D01*
X150423150Y-81936050D01*
X150423150Y-81961450D01*
G37*
G36*
X150448550Y-81986850D02*
G01*
X149864350Y-81986850D01*
X149864350Y-81961450D01*
X150448550Y-81961450D01*
X150448550Y-81986850D01*
G37*
G36*
X150448550Y-82012250D02*
G01*
X149864350Y-82012250D01*
X149864350Y-81986850D01*
X150448550Y-81986850D01*
X150448550Y-82012250D01*
G37*
G36*
X150473950Y-82037650D02*
G01*
X149889750Y-82037650D01*
X149889750Y-82012250D01*
X150473950Y-82012250D01*
X150473950Y-82037650D01*
G37*
G36*
X150499350Y-82063050D02*
G01*
X149889750Y-82063050D01*
X149889750Y-82037650D01*
X150499350Y-82037650D01*
X150499350Y-82063050D01*
G37*
G36*
X150499350Y-82088450D02*
G01*
X149915150Y-82088450D01*
X149915150Y-82063050D01*
X150499350Y-82063050D01*
X150499350Y-82088450D01*
G37*
G36*
X150524750Y-82113850D02*
G01*
X149940550Y-82113850D01*
X149940550Y-82088450D01*
X150524750Y-82088450D01*
X150524750Y-82113850D01*
G37*
G36*
X150524750Y-82139250D02*
G01*
X149940550Y-82139250D01*
X149940550Y-82113850D01*
X150524750Y-82113850D01*
X150524750Y-82139250D01*
G37*
G36*
X150550150Y-82164650D02*
G01*
X149965950Y-82164650D01*
X149965950Y-82139250D01*
X150550150Y-82139250D01*
X150550150Y-82164650D01*
G37*
G36*
X150550150Y-82190050D02*
G01*
X149965950Y-82190050D01*
X149965950Y-82164650D01*
X150550150Y-82164650D01*
X150550150Y-82190050D01*
G37*
G36*
X150575550Y-82215450D02*
G01*
X149991350Y-82215450D01*
X149991350Y-82190050D01*
X150575550Y-82190050D01*
X150575550Y-82215450D01*
G37*
G36*
X150600950Y-82240850D02*
G01*
X149991350Y-82240850D01*
X149991350Y-82215450D01*
X150600950Y-82215450D01*
X150600950Y-82240850D01*
G37*
G36*
X150600950Y-82266250D02*
G01*
X150016750Y-82266250D01*
X150016750Y-82240850D01*
X150600950Y-82240850D01*
X150600950Y-82266250D01*
G37*
G36*
X150626350Y-82291650D02*
G01*
X150042150Y-82291650D01*
X150042150Y-82266250D01*
X150626350Y-82266250D01*
X150626350Y-82291650D01*
G37*
G36*
X150626350Y-82317050D02*
G01*
X150042150Y-82317050D01*
X150042150Y-82291650D01*
X150626350Y-82291650D01*
X150626350Y-82317050D01*
G37*
G36*
X150651750Y-82342450D02*
G01*
X150067550Y-82342450D01*
X150067550Y-82317050D01*
X150651750Y-82317050D01*
X150651750Y-82342450D01*
G37*
G36*
X150651750Y-82367850D02*
G01*
X150067550Y-82367850D01*
X150067550Y-82342450D01*
X150651750Y-82342450D01*
X150651750Y-82367850D01*
G37*
G36*
X150677150Y-82393250D02*
G01*
X150092950Y-82393250D01*
X150092950Y-82367850D01*
X150677150Y-82367850D01*
X150677150Y-82393250D01*
G37*
G36*
X150677150Y-82418650D02*
G01*
X150092950Y-82418650D01*
X150092950Y-82393250D01*
X150677150Y-82393250D01*
X150677150Y-82418650D01*
G37*
G36*
X150702550Y-82444050D02*
G01*
X150118350Y-82444050D01*
X150118350Y-82418650D01*
X150702550Y-82418650D01*
X150702550Y-82444050D01*
G37*
G36*
X150727950Y-82469450D02*
G01*
X150118350Y-82469450D01*
X150118350Y-82444050D01*
X150727950Y-82444050D01*
X150727950Y-82469450D01*
G37*
G36*
X150727950Y-82494850D02*
G01*
X150143750Y-82494850D01*
X150143750Y-82469450D01*
X150727950Y-82469450D01*
X150727950Y-82494850D01*
G37*
G36*
X150753350Y-82520250D02*
G01*
X150169150Y-82520250D01*
X150169150Y-82494850D01*
X150753350Y-82494850D01*
X150753350Y-82520250D01*
G37*
G36*
X150753350Y-82545650D02*
G01*
X150169150Y-82545650D01*
X150169150Y-82520250D01*
X150753350Y-82520250D01*
X150753350Y-82545650D01*
G37*
G36*
X150778750Y-82571050D02*
G01*
X150194550Y-82571050D01*
X150194550Y-82545650D01*
X150778750Y-82545650D01*
X150778750Y-82571050D01*
G37*
G36*
X150778750Y-82596450D02*
G01*
X150194550Y-82596450D01*
X150194550Y-82571050D01*
X150778750Y-82571050D01*
X150778750Y-82596450D01*
G37*
G36*
X150804150Y-82621850D02*
G01*
X150219950Y-82621850D01*
X150219950Y-82596450D01*
X150804150Y-82596450D01*
X150804150Y-82621850D01*
G37*
G36*
X150829550Y-82647250D02*
G01*
X150219950Y-82647250D01*
X150219950Y-82621850D01*
X150829550Y-82621850D01*
X150829550Y-82647250D01*
G37*
G36*
X150829550Y-82672650D02*
G01*
X150245350Y-82672650D01*
X150245350Y-82647250D01*
X150829550Y-82647250D01*
X150829550Y-82672650D01*
G37*
G36*
X150854950Y-82698050D02*
G01*
X150270750Y-82698050D01*
X150270750Y-82672650D01*
X150854950Y-82672650D01*
X150854950Y-82698050D01*
G37*
G36*
X150854950Y-82723450D02*
G01*
X150270750Y-82723450D01*
X150270750Y-82698050D01*
X150854950Y-82698050D01*
X150854950Y-82723450D01*
G37*
G36*
X150880350Y-82748850D02*
G01*
X150296150Y-82748850D01*
X150296150Y-82723450D01*
X150880350Y-82723450D01*
X150880350Y-82748850D01*
G37*
G36*
X150880350Y-82774250D02*
G01*
X150296150Y-82774250D01*
X150296150Y-82748850D01*
X150880350Y-82748850D01*
X150880350Y-82774250D01*
G37*
G36*
X150905750Y-82799650D02*
G01*
X150321550Y-82799650D01*
X150321550Y-82774250D01*
X150905750Y-82774250D01*
X150905750Y-82799650D01*
G37*
G36*
X150931150Y-82825050D02*
G01*
X150321550Y-82825050D01*
X150321550Y-82799650D01*
X150931150Y-82799650D01*
X150931150Y-82825050D01*
G37*
G36*
X150931150Y-82850450D02*
G01*
X150346950Y-82850450D01*
X150346950Y-82825050D01*
X150931150Y-82825050D01*
X150931150Y-82850450D01*
G37*
G36*
X150956550Y-82875850D02*
G01*
X150372350Y-82875850D01*
X150372350Y-82850450D01*
X150956550Y-82850450D01*
X150956550Y-82875850D01*
G37*
G36*
X150956550Y-82901250D02*
G01*
X150372350Y-82901250D01*
X150372350Y-82875850D01*
X150956550Y-82875850D01*
X150956550Y-82901250D01*
G37*
G36*
X150981950Y-82926650D02*
G01*
X150397750Y-82926650D01*
X150397750Y-82901250D01*
X150981950Y-82901250D01*
X150981950Y-82926650D01*
G37*
G36*
X150981950Y-82952050D02*
G01*
X150397750Y-82952050D01*
X150397750Y-82926650D01*
X150981950Y-82926650D01*
X150981950Y-82952050D01*
G37*
G36*
X151007350Y-82977450D02*
G01*
X150423150Y-82977450D01*
X150423150Y-82952050D01*
X151007350Y-82952050D01*
X151007350Y-82977450D01*
G37*
G36*
X151007350Y-83002850D02*
G01*
X150423150Y-83002850D01*
X150423150Y-82977450D01*
X151007350Y-82977450D01*
X151007350Y-83002850D01*
G37*
G36*
X151032750Y-83028250D02*
G01*
X150448550Y-83028250D01*
X150448550Y-83002850D01*
X151032750Y-83002850D01*
X151032750Y-83028250D01*
G37*
G36*
X151058150Y-83053650D02*
G01*
X150448550Y-83053650D01*
X150448550Y-83028250D01*
X151058150Y-83028250D01*
X151058150Y-83053650D01*
G37*
G36*
X151058150Y-83079050D02*
G01*
X150473950Y-83079050D01*
X150473950Y-83053650D01*
X151058150Y-83053650D01*
X151058150Y-83079050D01*
G37*
G36*
X151083550Y-83104450D02*
G01*
X150499350Y-83104450D01*
X150499350Y-83079050D01*
X151083550Y-83079050D01*
X151083550Y-83104450D01*
G37*
G36*
X151083550Y-83129850D02*
G01*
X150499350Y-83129850D01*
X150499350Y-83104450D01*
X151083550Y-83104450D01*
X151083550Y-83129850D01*
G37*
G36*
X151108950Y-83155250D02*
G01*
X150524750Y-83155250D01*
X150524750Y-83129850D01*
X151108950Y-83129850D01*
X151108950Y-83155250D01*
G37*
G36*
X151108950Y-83180650D02*
G01*
X150524750Y-83180650D01*
X150524750Y-83155250D01*
X151108950Y-83155250D01*
X151108950Y-83180650D01*
G37*
G36*
X151134350Y-83206050D02*
G01*
X150550150Y-83206050D01*
X150550150Y-83180650D01*
X151134350Y-83180650D01*
X151134350Y-83206050D01*
G37*
G36*
X151159750Y-83231450D02*
G01*
X150550150Y-83231450D01*
X150550150Y-83206050D01*
X151159750Y-83206050D01*
X151159750Y-83231450D01*
G37*
G36*
X151159750Y-83256850D02*
G01*
X150575550Y-83256850D01*
X150575550Y-83231450D01*
X151159750Y-83231450D01*
X151159750Y-83256850D01*
G37*
G36*
X151185150Y-83282250D02*
G01*
X150600950Y-83282250D01*
X150600950Y-83256850D01*
X151185150Y-83256850D01*
X151185150Y-83282250D01*
G37*
G36*
X151185150Y-83307650D02*
G01*
X150600950Y-83307650D01*
X150600950Y-83282250D01*
X151185150Y-83282250D01*
X151185150Y-83307650D01*
G37*
G36*
X151210550Y-83333050D02*
G01*
X150626350Y-83333050D01*
X150626350Y-83307650D01*
X151210550Y-83307650D01*
X151210550Y-83333050D01*
G37*
G36*
X151210550Y-83358450D02*
G01*
X150626350Y-83358450D01*
X150626350Y-83333050D01*
X151210550Y-83333050D01*
X151210550Y-83358450D01*
G37*
G36*
X151235950Y-83383850D02*
G01*
X150651750Y-83383850D01*
X150651750Y-83358450D01*
X151235950Y-83358450D01*
X151235950Y-83383850D01*
G37*
G36*
X151235950Y-83409250D02*
G01*
X150651750Y-83409250D01*
X150651750Y-83383850D01*
X151235950Y-83383850D01*
X151235950Y-83409250D01*
G37*
G36*
X151261350Y-83434650D02*
G01*
X150677150Y-83434650D01*
X150677150Y-83409250D01*
X151261350Y-83409250D01*
X151261350Y-83434650D01*
G37*
G36*
X151286750Y-83460050D02*
G01*
X150677150Y-83460050D01*
X150677150Y-83434650D01*
X151286750Y-83434650D01*
X151286750Y-83460050D01*
G37*
G36*
X151286750Y-83485450D02*
G01*
X150702550Y-83485450D01*
X150702550Y-83460050D01*
X151286750Y-83460050D01*
X151286750Y-83485450D01*
G37*
G36*
X151312150Y-83510850D02*
G01*
X150727950Y-83510850D01*
X150727950Y-83485450D01*
X151312150Y-83485450D01*
X151312150Y-83510850D01*
G37*
G36*
X151312150Y-83536250D02*
G01*
X150727950Y-83536250D01*
X150727950Y-83510850D01*
X151312150Y-83510850D01*
X151312150Y-83536250D01*
G37*
G36*
X151337550Y-83561650D02*
G01*
X150753350Y-83561650D01*
X150753350Y-83536250D01*
X151337550Y-83536250D01*
X151337550Y-83561650D01*
G37*
G36*
X151337550Y-83587050D02*
G01*
X150753350Y-83587050D01*
X150753350Y-83561650D01*
X151337550Y-83561650D01*
X151337550Y-83587050D01*
G37*
G36*
X151362950Y-83612450D02*
G01*
X150778750Y-83612450D01*
X150778750Y-83587050D01*
X151362950Y-83587050D01*
X151362950Y-83612450D01*
G37*
G36*
X151388350Y-83637850D02*
G01*
X150778750Y-83637850D01*
X150778750Y-83612450D01*
X151388350Y-83612450D01*
X151388350Y-83637850D01*
G37*
G36*
X151388350Y-83663250D02*
G01*
X150804150Y-83663250D01*
X150804150Y-83637850D01*
X151388350Y-83637850D01*
X151388350Y-83663250D01*
G37*
G36*
X151413750Y-83688650D02*
G01*
X150829550Y-83688650D01*
X150829550Y-83663250D01*
X151413750Y-83663250D01*
X151413750Y-83688650D01*
G37*
G36*
X151413750Y-83714050D02*
G01*
X150829550Y-83714050D01*
X150829550Y-83688650D01*
X151413750Y-83688650D01*
X151413750Y-83714050D01*
G37*
G36*
X151439150Y-83739450D02*
G01*
X150854950Y-83739450D01*
X150854950Y-83714050D01*
X151439150Y-83714050D01*
X151439150Y-83739450D01*
G37*
G36*
X151439150Y-83764850D02*
G01*
X150854950Y-83764850D01*
X150854950Y-83739450D01*
X151439150Y-83739450D01*
X151439150Y-83764850D01*
G37*
G36*
X151464550Y-83790250D02*
G01*
X150880350Y-83790250D01*
X150880350Y-83764850D01*
X151464550Y-83764850D01*
X151464550Y-83790250D01*
G37*
G36*
X151489950Y-83815650D02*
G01*
X150880350Y-83815650D01*
X150880350Y-83790250D01*
X151489950Y-83790250D01*
X151489950Y-83815650D01*
G37*
G36*
X151489950Y-83841050D02*
G01*
X150905750Y-83841050D01*
X150905750Y-83815650D01*
X151489950Y-83815650D01*
X151489950Y-83841050D01*
G37*
G36*
X151515350Y-83866450D02*
G01*
X150931150Y-83866450D01*
X150931150Y-83841050D01*
X151515350Y-83841050D01*
X151515350Y-83866450D01*
G37*
G36*
X151515350Y-83891850D02*
G01*
X150931150Y-83891850D01*
X150931150Y-83866450D01*
X151515350Y-83866450D01*
X151515350Y-83891850D01*
G37*
G36*
X151540750Y-83917250D02*
G01*
X150956550Y-83917250D01*
X150956550Y-83891850D01*
X151540750Y-83891850D01*
X151540750Y-83917250D01*
G37*
G36*
X151540750Y-83942650D02*
G01*
X150956550Y-83942650D01*
X150956550Y-83917250D01*
X151540750Y-83917250D01*
X151540750Y-83942650D01*
G37*
G36*
X151566150Y-83968050D02*
G01*
X150981950Y-83968050D01*
X150981950Y-83942650D01*
X151566150Y-83942650D01*
X151566150Y-83968050D01*
G37*
G36*
X151566150Y-83993450D02*
G01*
X150981950Y-83993450D01*
X150981950Y-83968050D01*
X151566150Y-83968050D01*
X151566150Y-83993450D01*
G37*
G36*
X151591550Y-84018850D02*
G01*
X151007350Y-84018850D01*
X151007350Y-83993450D01*
X151591550Y-83993450D01*
X151591550Y-84018850D01*
G37*
G36*
X151616950Y-84044250D02*
G01*
X151007350Y-84044250D01*
X151007350Y-84018850D01*
X151616950Y-84018850D01*
X151616950Y-84044250D01*
G37*
G36*
X151616950Y-84069650D02*
G01*
X151032750Y-84069650D01*
X151032750Y-84044250D01*
X151616950Y-84044250D01*
X151616950Y-84069650D01*
G37*
G36*
X151642350Y-84095050D02*
G01*
X151058150Y-84095050D01*
X151058150Y-84069650D01*
X151642350Y-84069650D01*
X151642350Y-84095050D01*
G37*
G36*
X151642350Y-84120450D02*
G01*
X151058150Y-84120450D01*
X151058150Y-84095050D01*
X151642350Y-84095050D01*
X151642350Y-84120450D01*
G37*
G36*
X151667750Y-84145850D02*
G01*
X151083550Y-84145850D01*
X151083550Y-84120450D01*
X151667750Y-84120450D01*
X151667750Y-84145850D01*
G37*
G36*
X151667750Y-84171250D02*
G01*
X151083550Y-84171250D01*
X151083550Y-84145850D01*
X151667750Y-84145850D01*
X151667750Y-84171250D01*
G37*
G36*
X151693150Y-84196650D02*
G01*
X151108950Y-84196650D01*
X151108950Y-84171250D01*
X151693150Y-84171250D01*
X151693150Y-84196650D01*
G37*
G36*
X151718550Y-84222050D02*
G01*
X151108950Y-84222050D01*
X151108950Y-84196650D01*
X151718550Y-84196650D01*
X151718550Y-84222050D01*
G37*
G36*
X151718550Y-84247450D02*
G01*
X151134350Y-84247450D01*
X151134350Y-84222050D01*
X151718550Y-84222050D01*
X151718550Y-84247450D01*
G37*
G36*
X151743950Y-84272850D02*
G01*
X151159750Y-84272850D01*
X151159750Y-84247450D01*
X151743950Y-84247450D01*
X151743950Y-84272850D01*
G37*
G36*
X151743950Y-84298250D02*
G01*
X151159750Y-84298250D01*
X151159750Y-84272850D01*
X151743950Y-84272850D01*
X151743950Y-84298250D01*
G37*
G36*
X151769350Y-84323650D02*
G01*
X151185150Y-84323650D01*
X151185150Y-84298250D01*
X151769350Y-84298250D01*
X151769350Y-84323650D01*
G37*
G36*
X151769350Y-84349050D02*
G01*
X151185150Y-84349050D01*
X151185150Y-84323650D01*
X151769350Y-84323650D01*
X151769350Y-84349050D01*
G37*
G36*
X151794750Y-84374450D02*
G01*
X151210550Y-84374450D01*
X151210550Y-84349050D01*
X151794750Y-84349050D01*
X151794750Y-84374450D01*
G37*
G36*
X151794750Y-84399850D02*
G01*
X151210550Y-84399850D01*
X151210550Y-84374450D01*
X151794750Y-84374450D01*
X151794750Y-84399850D01*
G37*
G36*
X151820150Y-84425250D02*
G01*
X151235950Y-84425250D01*
X151235950Y-84399850D01*
X151820150Y-84399850D01*
X151820150Y-84425250D01*
G37*
G36*
X151845550Y-84450650D02*
G01*
X151235950Y-84450650D01*
X151235950Y-84425250D01*
X151845550Y-84425250D01*
X151845550Y-84450650D01*
G37*
G36*
X151845550Y-84476050D02*
G01*
X151261350Y-84476050D01*
X151261350Y-84450650D01*
X151845550Y-84450650D01*
X151845550Y-84476050D01*
G37*
G36*
X151870950Y-84501450D02*
G01*
X151286750Y-84501450D01*
X151286750Y-84476050D01*
X151870950Y-84476050D01*
X151870950Y-84501450D01*
G37*
G36*
X151870950Y-84526850D02*
G01*
X151286750Y-84526850D01*
X151286750Y-84501450D01*
X151870950Y-84501450D01*
X151870950Y-84526850D01*
G37*
G36*
X151896350Y-84552250D02*
G01*
X151312150Y-84552250D01*
X151312150Y-84526850D01*
X151896350Y-84526850D01*
X151896350Y-84552250D01*
G37*
G36*
X151896350Y-84577650D02*
G01*
X151312150Y-84577650D01*
X151312150Y-84552250D01*
X151896350Y-84552250D01*
X151896350Y-84577650D01*
G37*
G36*
X151921750Y-84603050D02*
G01*
X151337550Y-84603050D01*
X151337550Y-84577650D01*
X151921750Y-84577650D01*
X151921750Y-84603050D01*
G37*
G36*
X151947150Y-84628450D02*
G01*
X151337550Y-84628450D01*
X151337550Y-84603050D01*
X151947150Y-84603050D01*
X151947150Y-84628450D01*
G37*
G36*
X151947150Y-84653850D02*
G01*
X151362950Y-84653850D01*
X151362950Y-84628450D01*
X151947150Y-84628450D01*
X151947150Y-84653850D01*
G37*
G36*
X151972550Y-84679250D02*
G01*
X151388350Y-84679250D01*
X151388350Y-84653850D01*
X151972550Y-84653850D01*
X151972550Y-84679250D01*
G37*
G36*
X151972550Y-84704650D02*
G01*
X151388350Y-84704650D01*
X151388350Y-84679250D01*
X151972550Y-84679250D01*
X151972550Y-84704650D01*
G37*
G36*
X151997950Y-84730050D02*
G01*
X151413750Y-84730050D01*
X151413750Y-84704650D01*
X151997950Y-84704650D01*
X151997950Y-84730050D01*
G37*
G36*
X151997950Y-84755450D02*
G01*
X151413750Y-84755450D01*
X151413750Y-84730050D01*
X151997950Y-84730050D01*
X151997950Y-84755450D01*
G37*
G36*
X152023350Y-84780850D02*
G01*
X151439150Y-84780850D01*
X151439150Y-84755450D01*
X152023350Y-84755450D01*
X152023350Y-84780850D01*
G37*
G36*
X152048750Y-84806250D02*
G01*
X151439150Y-84806250D01*
X151439150Y-84780850D01*
X152048750Y-84780850D01*
X152048750Y-84806250D01*
G37*
G36*
X152048750Y-84831650D02*
G01*
X151464550Y-84831650D01*
X151464550Y-84806250D01*
X152048750Y-84806250D01*
X152048750Y-84831650D01*
G37*
G36*
X152074150Y-84857050D02*
G01*
X151489950Y-84857050D01*
X151489950Y-84831650D01*
X152074150Y-84831650D01*
X152074150Y-84857050D01*
G37*
G36*
X152074150Y-84882450D02*
G01*
X151489950Y-84882450D01*
X151489950Y-84857050D01*
X152074150Y-84857050D01*
X152074150Y-84882450D01*
G37*
G36*
X152099550Y-84907850D02*
G01*
X151515350Y-84907850D01*
X151515350Y-84882450D01*
X152099550Y-84882450D01*
X152099550Y-84907850D01*
G37*
G36*
X152099550Y-84933250D02*
G01*
X151515350Y-84933250D01*
X151515350Y-84907850D01*
X152099550Y-84907850D01*
X152099550Y-84933250D01*
G37*
G36*
X152124950Y-84958650D02*
G01*
X151540750Y-84958650D01*
X151540750Y-84933250D01*
X152124950Y-84933250D01*
X152124950Y-84958650D01*
G37*
G36*
X152124950Y-84984050D02*
G01*
X151540750Y-84984050D01*
X151540750Y-84958650D01*
X152124950Y-84958650D01*
X152124950Y-84984050D01*
G37*
G36*
X152150350Y-85009450D02*
G01*
X151566150Y-85009450D01*
X151566150Y-84984050D01*
X152150350Y-84984050D01*
X152150350Y-85009450D01*
G37*
G36*
X152175750Y-85034850D02*
G01*
X151566150Y-85034850D01*
X151566150Y-85009450D01*
X152175750Y-85009450D01*
X152175750Y-85034850D01*
G37*
G36*
X152175750Y-85060250D02*
G01*
X151591550Y-85060250D01*
X151591550Y-85034850D01*
X152175750Y-85034850D01*
X152175750Y-85060250D01*
G37*
G36*
X152201150Y-85085650D02*
G01*
X151616950Y-85085650D01*
X151616950Y-85060250D01*
X152201150Y-85060250D01*
X152201150Y-85085650D01*
G37*
G36*
X152201150Y-85111050D02*
G01*
X151616950Y-85111050D01*
X151616950Y-85085650D01*
X152201150Y-85085650D01*
X152201150Y-85111050D01*
G37*
G36*
X152226550Y-85136450D02*
G01*
X151642350Y-85136450D01*
X151642350Y-85111050D01*
X152226550Y-85111050D01*
X152226550Y-85136450D01*
G37*
G36*
X152226550Y-85161850D02*
G01*
X151642350Y-85161850D01*
X151642350Y-85136450D01*
X152226550Y-85136450D01*
X152226550Y-85161850D01*
G37*
G36*
X152251950Y-85187250D02*
G01*
X151667750Y-85187250D01*
X151667750Y-85161850D01*
X152251950Y-85161850D01*
X152251950Y-85187250D01*
G37*
G36*
X152277350Y-85212650D02*
G01*
X151667750Y-85212650D01*
X151667750Y-85187250D01*
X152277350Y-85187250D01*
X152277350Y-85212650D01*
G37*
G36*
X152277350Y-85238050D02*
G01*
X151693150Y-85238050D01*
X151693150Y-85212650D01*
X152277350Y-85212650D01*
X152277350Y-85238050D01*
G37*
G36*
X152302750Y-85263450D02*
G01*
X151718550Y-85263450D01*
X151718550Y-85238050D01*
X152302750Y-85238050D01*
X152302750Y-85263450D01*
G37*
G36*
X152302750Y-85288850D02*
G01*
X151718550Y-85288850D01*
X151718550Y-85263450D01*
X152302750Y-85263450D01*
X152302750Y-85288850D01*
G37*
G36*
X152328150Y-85314250D02*
G01*
X151743950Y-85314250D01*
X151743950Y-85288850D01*
X152328150Y-85288850D01*
X152328150Y-85314250D01*
G37*
G36*
X152328150Y-85339650D02*
G01*
X151743950Y-85339650D01*
X151743950Y-85314250D01*
X152328150Y-85314250D01*
X152328150Y-85339650D01*
G37*
G36*
X152353550Y-85365050D02*
G01*
X151769350Y-85365050D01*
X151769350Y-85339650D01*
X152353550Y-85339650D01*
X152353550Y-85365050D01*
G37*
G36*
X152353550Y-85390450D02*
G01*
X151769350Y-85390450D01*
X151769350Y-85365050D01*
X152353550Y-85365050D01*
X152353550Y-85390450D01*
G37*
G36*
X152378950Y-85415850D02*
G01*
X151794750Y-85415850D01*
X151794750Y-85390450D01*
X152378950Y-85390450D01*
X152378950Y-85415850D01*
G37*
G36*
X152404350Y-85441250D02*
G01*
X151794750Y-85441250D01*
X151794750Y-85415850D01*
X152404350Y-85415850D01*
X152404350Y-85441250D01*
G37*
G36*
X152404350Y-85466650D02*
G01*
X151820150Y-85466650D01*
X151820150Y-85441250D01*
X152404350Y-85441250D01*
X152404350Y-85466650D01*
G37*
G36*
X152429750Y-85492050D02*
G01*
X151845550Y-85492050D01*
X151845550Y-85466650D01*
X152429750Y-85466650D01*
X152429750Y-85492050D01*
G37*
G36*
X152429750Y-85517450D02*
G01*
X151845550Y-85517450D01*
X151845550Y-85492050D01*
X152429750Y-85492050D01*
X152429750Y-85517450D01*
G37*
G36*
X152455150Y-85542850D02*
G01*
X151870950Y-85542850D01*
X151870950Y-85517450D01*
X152455150Y-85517450D01*
X152455150Y-85542850D01*
G37*
G36*
X152455150Y-85568250D02*
G01*
X151870950Y-85568250D01*
X151870950Y-85542850D01*
X152455150Y-85542850D01*
X152455150Y-85568250D01*
G37*
G36*
X152480550Y-85593650D02*
G01*
X151896350Y-85593650D01*
X151896350Y-85568250D01*
X152480550Y-85568250D01*
X152480550Y-85593650D01*
G37*
G36*
X152505950Y-85619050D02*
G01*
X151896350Y-85619050D01*
X151896350Y-85593650D01*
X152505950Y-85593650D01*
X152505950Y-85619050D01*
G37*
G36*
X152505950Y-85644450D02*
G01*
X151921750Y-85644450D01*
X151921750Y-85619050D01*
X152505950Y-85619050D01*
X152505950Y-85644450D01*
G37*
G36*
X152531350Y-85669850D02*
G01*
X151947150Y-85669850D01*
X151947150Y-85644450D01*
X152531350Y-85644450D01*
X152531350Y-85669850D01*
G37*
G36*
X152531350Y-85695250D02*
G01*
X151947150Y-85695250D01*
X151947150Y-85669850D01*
X152531350Y-85669850D01*
X152531350Y-85695250D01*
G37*
G36*
X152556750Y-85720650D02*
G01*
X151972550Y-85720650D01*
X151972550Y-85695250D01*
X152556750Y-85695250D01*
X152556750Y-85720650D01*
G37*
G36*
X152556750Y-85746050D02*
G01*
X151972550Y-85746050D01*
X151972550Y-85720650D01*
X152556750Y-85720650D01*
X152556750Y-85746050D01*
G37*
G36*
X152582150Y-85771450D02*
G01*
X151997950Y-85771450D01*
X151997950Y-85746050D01*
X152582150Y-85746050D01*
X152582150Y-85771450D01*
G37*
G36*
X152607550Y-85796850D02*
G01*
X151997950Y-85796850D01*
X151997950Y-85771450D01*
X152607550Y-85771450D01*
X152607550Y-85796850D01*
G37*
G36*
X152607550Y-85822250D02*
G01*
X152023350Y-85822250D01*
X152023350Y-85796850D01*
X152607550Y-85796850D01*
X152607550Y-85822250D01*
G37*
G36*
X152632950Y-85847650D02*
G01*
X152048750Y-85847650D01*
X152048750Y-85822250D01*
X152632950Y-85822250D01*
X152632950Y-85847650D01*
G37*
G36*
X152632950Y-85873050D02*
G01*
X152048750Y-85873050D01*
X152048750Y-85847650D01*
X152632950Y-85847650D01*
X152632950Y-85873050D01*
G37*
G36*
X152658350Y-85898450D02*
G01*
X152074150Y-85898450D01*
X152074150Y-85873050D01*
X152658350Y-85873050D01*
X152658350Y-85898450D01*
G37*
G36*
X152658350Y-85923850D02*
G01*
X152074150Y-85923850D01*
X152074150Y-85898450D01*
X152658350Y-85898450D01*
X152658350Y-85923850D01*
G37*
G36*
X152683750Y-85949250D02*
G01*
X152099550Y-85949250D01*
X152099550Y-85923850D01*
X152683750Y-85923850D01*
X152683750Y-85949250D01*
G37*
G36*
X152683750Y-85974650D02*
G01*
X152099550Y-85974650D01*
X152099550Y-85949250D01*
X152683750Y-85949250D01*
X152683750Y-85974650D01*
G37*
G36*
X152709150Y-86000050D02*
G01*
X152124950Y-86000050D01*
X152124950Y-85974650D01*
X152709150Y-85974650D01*
X152709150Y-86000050D01*
G37*
G36*
X152734550Y-86025450D02*
G01*
X152124950Y-86025450D01*
X152124950Y-86000050D01*
X152734550Y-86000050D01*
X152734550Y-86025450D01*
G37*
G36*
X152734550Y-86050850D02*
G01*
X152150350Y-86050850D01*
X152150350Y-86025450D01*
X152734550Y-86025450D01*
X152734550Y-86050850D01*
G37*
G36*
X152759950Y-86076250D02*
G01*
X152175750Y-86076250D01*
X152175750Y-86050850D01*
X152759950Y-86050850D01*
X152759950Y-86076250D01*
G37*
G36*
X152759950Y-86101650D02*
G01*
X152175750Y-86101650D01*
X152175750Y-86076250D01*
X152759950Y-86076250D01*
X152759950Y-86101650D01*
G37*
G36*
X152785350Y-86127050D02*
G01*
X152201150Y-86127050D01*
X152201150Y-86101650D01*
X152785350Y-86101650D01*
X152785350Y-86127050D01*
G37*
G36*
X152785350Y-86152450D02*
G01*
X152201150Y-86152450D01*
X152201150Y-86127050D01*
X152785350Y-86127050D01*
X152785350Y-86152450D01*
G37*
G36*
X152810750Y-86177850D02*
G01*
X152226550Y-86177850D01*
X152226550Y-86152450D01*
X152810750Y-86152450D01*
X152810750Y-86177850D01*
G37*
G36*
X152836150Y-86203250D02*
G01*
X152226550Y-86203250D01*
X152226550Y-86177850D01*
X152836150Y-86177850D01*
X152836150Y-86203250D01*
G37*
G36*
X152836150Y-86228650D02*
G01*
X152251950Y-86228650D01*
X152251950Y-86203250D01*
X152836150Y-86203250D01*
X152836150Y-86228650D01*
G37*
G36*
X152861550Y-86254050D02*
G01*
X152277350Y-86254050D01*
X152277350Y-86228650D01*
X152861550Y-86228650D01*
X152861550Y-86254050D01*
G37*
G36*
X152861550Y-86279450D02*
G01*
X152277350Y-86279450D01*
X152277350Y-86254050D01*
X152861550Y-86254050D01*
X152861550Y-86279450D01*
G37*
G36*
X152886950Y-86304850D02*
G01*
X152302750Y-86304850D01*
X152302750Y-86279450D01*
X152886950Y-86279450D01*
X152886950Y-86304850D01*
G37*
G36*
X152886950Y-86330250D02*
G01*
X152302750Y-86330250D01*
X152302750Y-86304850D01*
X152886950Y-86304850D01*
X152886950Y-86330250D01*
G37*
G36*
X152912350Y-86355650D02*
G01*
X152328150Y-86355650D01*
X152328150Y-86330250D01*
X152912350Y-86330250D01*
X152912350Y-86355650D01*
G37*
G36*
X152937750Y-86381050D02*
G01*
X152328150Y-86381050D01*
X152328150Y-86355650D01*
X152937750Y-86355650D01*
X152937750Y-86381050D01*
G37*
G36*
X152937750Y-86406450D02*
G01*
X152353550Y-86406450D01*
X152353550Y-86381050D01*
X152937750Y-86381050D01*
X152937750Y-86406450D01*
G37*
G36*
X152963150Y-86431850D02*
G01*
X152353550Y-86431850D01*
X152353550Y-86406450D01*
X152963150Y-86406450D01*
X152963150Y-86431850D01*
G37*
G36*
X152963150Y-86457250D02*
G01*
X152378950Y-86457250D01*
X152378950Y-86431850D01*
X152963150Y-86431850D01*
X152963150Y-86457250D01*
G37*
G36*
X152988550Y-86482650D02*
G01*
X152404350Y-86482650D01*
X152404350Y-86457250D01*
X152988550Y-86457250D01*
X152988550Y-86482650D01*
G37*
G36*
X152988550Y-86508050D02*
G01*
X152404350Y-86508050D01*
X152404350Y-86482650D01*
X152988550Y-86482650D01*
X152988550Y-86508050D01*
G37*
G36*
X153013950Y-86533450D02*
G01*
X152429750Y-86533450D01*
X152429750Y-86508050D01*
X153013950Y-86508050D01*
X153013950Y-86533450D01*
G37*
G36*
X153013950Y-86558850D02*
G01*
X152429750Y-86558850D01*
X152429750Y-86533450D01*
X153013950Y-86533450D01*
X153013950Y-86558850D01*
G37*
G36*
X153039350Y-86584250D02*
G01*
X152455150Y-86584250D01*
X152455150Y-86558850D01*
X153039350Y-86558850D01*
X153039350Y-86584250D01*
G37*
G36*
X153064750Y-86609650D02*
G01*
X152455150Y-86609650D01*
X152455150Y-86584250D01*
X153064750Y-86584250D01*
X153064750Y-86609650D01*
G37*
G36*
X153064750Y-86635050D02*
G01*
X152480550Y-86635050D01*
X152480550Y-86609650D01*
X153064750Y-86609650D01*
X153064750Y-86635050D01*
G37*
G36*
X153090150Y-86660450D02*
G01*
X152505950Y-86660450D01*
X152505950Y-86635050D01*
X153090150Y-86635050D01*
X153090150Y-86660450D01*
G37*
G36*
X153090150Y-86685850D02*
G01*
X152505950Y-86685850D01*
X152505950Y-86660450D01*
X153090150Y-86660450D01*
X153090150Y-86685850D01*
G37*
G36*
X153115550Y-86711250D02*
G01*
X152531350Y-86711250D01*
X152531350Y-86685850D01*
X153115550Y-86685850D01*
X153115550Y-86711250D01*
G37*
G36*
X153115550Y-86736650D02*
G01*
X152531350Y-86736650D01*
X152531350Y-86711250D01*
X153115550Y-86711250D01*
X153115550Y-86736650D01*
G37*
G36*
X153140950Y-86762050D02*
G01*
X152556750Y-86762050D01*
X152556750Y-86736650D01*
X153140950Y-86736650D01*
X153140950Y-86762050D01*
G37*
G36*
X153166350Y-86787450D02*
G01*
X152556750Y-86787450D01*
X152556750Y-86762050D01*
X153166350Y-86762050D01*
X153166350Y-86787450D01*
G37*
G36*
X153166350Y-86812850D02*
G01*
X152582150Y-86812850D01*
X152582150Y-86787450D01*
X153166350Y-86787450D01*
X153166350Y-86812850D01*
G37*
G36*
X153191750Y-86838250D02*
G01*
X152607550Y-86838250D01*
X152607550Y-86812850D01*
X153191750Y-86812850D01*
X153191750Y-86838250D01*
G37*
G36*
X153191750Y-86863650D02*
G01*
X152607550Y-86863650D01*
X152607550Y-86838250D01*
X153191750Y-86838250D01*
X153191750Y-86863650D01*
G37*
G36*
X153217150Y-86889050D02*
G01*
X152632950Y-86889050D01*
X152632950Y-86863650D01*
X153217150Y-86863650D01*
X153217150Y-86889050D01*
G37*
G36*
X153217150Y-86914450D02*
G01*
X152632950Y-86914450D01*
X152632950Y-86889050D01*
X153217150Y-86889050D01*
X153217150Y-86914450D01*
G37*
G36*
X153242550Y-86939850D02*
G01*
X152658350Y-86939850D01*
X152658350Y-86914450D01*
X153242550Y-86914450D01*
X153242550Y-86939850D01*
G37*
G36*
X153242550Y-86965250D02*
G01*
X152658350Y-86965250D01*
X152658350Y-86939850D01*
X153242550Y-86939850D01*
X153242550Y-86965250D01*
G37*
G36*
X153267950Y-86990650D02*
G01*
X152683750Y-86990650D01*
X152683750Y-86965250D01*
X153267950Y-86965250D01*
X153267950Y-86990650D01*
G37*
G36*
X153293350Y-87016050D02*
G01*
X152683750Y-87016050D01*
X152683750Y-86990650D01*
X153293350Y-86990650D01*
X153293350Y-87016050D01*
G37*
G36*
X153293350Y-87041450D02*
G01*
X152709150Y-87041450D01*
X152709150Y-87016050D01*
X153293350Y-87016050D01*
X153293350Y-87041450D01*
G37*
G36*
X153318750Y-87066850D02*
G01*
X152734550Y-87066850D01*
X152734550Y-87041450D01*
X153318750Y-87041450D01*
X153318750Y-87066850D01*
G37*
G36*
X153318750Y-87092250D02*
G01*
X152734550Y-87092250D01*
X152734550Y-87066850D01*
X153318750Y-87066850D01*
X153318750Y-87092250D01*
G37*
G36*
X153344150Y-87117650D02*
G01*
X152759950Y-87117650D01*
X152759950Y-87092250D01*
X153344150Y-87092250D01*
X153344150Y-87117650D01*
G37*
G36*
X153344150Y-87143050D02*
G01*
X152759950Y-87143050D01*
X152759950Y-87117650D01*
X153344150Y-87117650D01*
X153344150Y-87143050D01*
G37*
G36*
X153369550Y-87168450D02*
G01*
X152785350Y-87168450D01*
X152785350Y-87143050D01*
X153369550Y-87143050D01*
X153369550Y-87168450D01*
G37*
G36*
X153394950Y-87193850D02*
G01*
X152785350Y-87193850D01*
X152785350Y-87168450D01*
X153394950Y-87168450D01*
X153394950Y-87193850D01*
G37*
G36*
X153394950Y-87219250D02*
G01*
X152810750Y-87219250D01*
X152810750Y-87193850D01*
X153394950Y-87193850D01*
X153394950Y-87219250D01*
G37*
G36*
X153420350Y-87244650D02*
G01*
X152836150Y-87244650D01*
X152836150Y-87219250D01*
X153420350Y-87219250D01*
X153420350Y-87244650D01*
G37*
G36*
X153420350Y-87270050D02*
G01*
X152836150Y-87270050D01*
X152836150Y-87244650D01*
X153420350Y-87244650D01*
X153420350Y-87270050D01*
G37*
G36*
X153445750Y-87295450D02*
G01*
X152861550Y-87295450D01*
X152861550Y-87270050D01*
X153445750Y-87270050D01*
X153445750Y-87295450D01*
G37*
G36*
X153445750Y-87320850D02*
G01*
X152861550Y-87320850D01*
X152861550Y-87295450D01*
X153445750Y-87295450D01*
X153445750Y-87320850D01*
G37*
G36*
X153471150Y-87346250D02*
G01*
X152886950Y-87346250D01*
X152886950Y-87320850D01*
X153471150Y-87320850D01*
X153471150Y-87346250D01*
G37*
G36*
X153471150Y-87371650D02*
G01*
X152886950Y-87371650D01*
X152886950Y-87346250D01*
X153471150Y-87346250D01*
X153471150Y-87371650D01*
G37*
G36*
X153496550Y-87397050D02*
G01*
X152912350Y-87397050D01*
X152912350Y-87371650D01*
X153496550Y-87371650D01*
X153496550Y-87397050D01*
G37*
G36*
X153496550Y-87422450D02*
G01*
X152937750Y-87422450D01*
X152937750Y-87397050D01*
X153496550Y-87397050D01*
X153496550Y-87422450D01*
G37*
G36*
X153496550Y-87447850D02*
G01*
X152937750Y-87447850D01*
X152937750Y-87422450D01*
X153496550Y-87422450D01*
X153496550Y-87447850D01*
G37*
G36*
X153496550Y-87473250D02*
G01*
X152963150Y-87473250D01*
X152963150Y-87447850D01*
X153496550Y-87447850D01*
X153496550Y-87473250D01*
G37*
G36*
X153521950Y-87498650D02*
G01*
X152963150Y-87498650D01*
X152963150Y-87473250D01*
X153521950Y-87473250D01*
X153521950Y-87498650D01*
G37*
G36*
X153521950Y-87524050D02*
G01*
X152988550Y-87524050D01*
X152988550Y-87498650D01*
X153521950Y-87498650D01*
X153521950Y-87524050D01*
G37*
G36*
X153521950Y-87549450D02*
G01*
X152988550Y-87549450D01*
X152988550Y-87524050D01*
X153521950Y-87524050D01*
X153521950Y-87549450D01*
G37*
G36*
X153521950Y-87625650D02*
G01*
X152988550Y-87625650D01*
X152988550Y-87600250D01*
X153521950Y-87600250D01*
X153521950Y-87625650D01*
G37*
G36*
X153521950Y-87574850D02*
G01*
X153013950Y-87574850D01*
X153013950Y-87549450D01*
X153521950Y-87549450D01*
X153521950Y-87574850D01*
G37*
G36*
X153521950Y-87600250D02*
G01*
X153013950Y-87600250D01*
X153013950Y-87574850D01*
X153521950Y-87574850D01*
X153521950Y-87600250D01*
G37*
D17*
%TO.C,IC3*%
X153720000Y-102235000D02*
X154305000Y-102235000D01*
X153720000Y-104140000D02*
X153720000Y-102235000D01*
X153720000Y-108585000D02*
X153720000Y-106680000D01*
X153720000Y-108585000D02*
X154030000Y-108585000D01*
X154940000Y-105360000D02*
X154940000Y-105460000D01*
X155625000Y-102235000D02*
X156845000Y-102235000D01*
X155830000Y-108585000D02*
X156845000Y-108585000D01*
X158165000Y-102235000D02*
X159385000Y-102235000D01*
X158165000Y-108585000D02*
X159385000Y-108585000D01*
X160705000Y-102235000D02*
X161925000Y-102235000D01*
X160705000Y-108585000D02*
X161925000Y-108585000D01*
X163245000Y-102235000D02*
X164465000Y-102235000D01*
X163245000Y-108585000D02*
X164465000Y-108585000D01*
X165785000Y-102235000D02*
X167005000Y-102235000D01*
X165785000Y-108585000D02*
X167005000Y-108585000D01*
X168325000Y-102235000D02*
X169545000Y-102235000D01*
X168325000Y-108585000D02*
X169545000Y-108585000D01*
X170865000Y-102235000D02*
X172085000Y-102235000D01*
X170865000Y-108585000D02*
X172085000Y-108585000D01*
X173405000Y-102235000D02*
X173940000Y-102235000D01*
X173405000Y-108585000D02*
X173940000Y-108585000D01*
X173940000Y-102235000D02*
X173940000Y-108585000D01*
X154940001Y-105360001D02*
G75*
G03*
X153720000Y-104140000I-1220001J0D01*
G01*
X153719999Y-106679999D02*
G75*
G03*
X154940000Y-105460000I2J1219999D01*
G01*
D18*
%TO.C,BAT1*%
X168250000Y-141480000D02*
X168250000Y-135180000D01*
X168250000Y-141480000D02*
X161950000Y-141480000D01*
X165700000Y-136980000D02*
X164500000Y-136980000D01*
X165700000Y-114115000D02*
X164500000Y-114115000D01*
X165100000Y-137580000D02*
X165100000Y-136380000D01*
X161950000Y-141480000D02*
X161950000Y-135180000D01*
X176500000Y-124180000D02*
G75*
G03*
X176500000Y-124180000I-11400000J0D01*
G01*
D16*
%TO.C,IC5*%
X178400000Y-138086000D02*
X177200000Y-138086000D01*
X176850000Y-138036000D02*
X176250000Y-138036000D01*
X176850000Y-135136000D02*
X176850000Y-138036000D01*
X176250000Y-138036000D02*
X176250000Y-135136000D01*
X176250000Y-135136000D02*
X176850000Y-135136000D01*
D17*
%TO.C,IC4*%
X177596000Y-102235000D02*
X178181000Y-102235000D01*
X177596000Y-104140000D02*
X177596000Y-102235000D01*
X177596000Y-108585000D02*
X177596000Y-106680000D01*
X177596000Y-108585000D02*
X177906000Y-108585000D01*
X178816000Y-105360000D02*
X178816000Y-105460000D01*
X179501000Y-102235000D02*
X180721000Y-102235000D01*
X179706000Y-108585000D02*
X180721000Y-108585000D01*
X182041000Y-102235000D02*
X183261000Y-102235000D01*
X182041000Y-108585000D02*
X183261000Y-108585000D01*
X184581000Y-102235000D02*
X185801000Y-102235000D01*
X184581000Y-108585000D02*
X185801000Y-108585000D01*
X187121000Y-102235000D02*
X188341000Y-102235000D01*
X187121000Y-108585000D02*
X188341000Y-108585000D01*
X189661000Y-102235000D02*
X190881000Y-102235000D01*
X189661000Y-108585000D02*
X190881000Y-108585000D01*
X192201000Y-102235000D02*
X193421000Y-102235000D01*
X192201000Y-108585000D02*
X193421000Y-108585000D01*
X194741000Y-102235000D02*
X195961000Y-102235000D01*
X194741000Y-108585000D02*
X195961000Y-108585000D01*
X197281000Y-102235000D02*
X197816000Y-102235000D01*
X197281000Y-108585000D02*
X197816000Y-108585000D01*
X197816000Y-102235000D02*
X197816000Y-108585000D01*
X178816001Y-105360001D02*
G75*
G03*
X177596000Y-104140000I-1220001J0D01*
G01*
X177595999Y-106679999D02*
G75*
G03*
X178816000Y-105460000I2J1219999D01*
G01*
%TO.C,IC2*%
X123240000Y-102235000D02*
X123825000Y-102235000D01*
X123240000Y-104140000D02*
X123240000Y-102235000D01*
X123240000Y-108585000D02*
X123240000Y-106680000D01*
X123240000Y-108585000D02*
X123550000Y-108585000D01*
X124460000Y-105360000D02*
X124460000Y-105460000D01*
X125145000Y-102235000D02*
X126365000Y-102235000D01*
X125350000Y-108585000D02*
X126365000Y-108585000D01*
X127685000Y-102235000D02*
X128905000Y-102235000D01*
X127685000Y-108585000D02*
X128905000Y-108585000D01*
X130225000Y-102235000D02*
X131445000Y-102235000D01*
X130225000Y-108585000D02*
X131445000Y-108585000D01*
X132765000Y-102235000D02*
X133985000Y-102235000D01*
X132765000Y-108585000D02*
X133985000Y-108585000D01*
X135305000Y-102235000D02*
X136525000Y-102235000D01*
X135305000Y-108585000D02*
X136525000Y-108585000D01*
X137845000Y-102235000D02*
X139065000Y-102235000D01*
X137845000Y-108585000D02*
X139065000Y-108585000D01*
X140385000Y-102235000D02*
X141605000Y-102235000D01*
X140385000Y-108585000D02*
X141605000Y-108585000D01*
X142925000Y-102235000D02*
X143460000Y-102235000D01*
X142925000Y-108585000D02*
X143460000Y-108585000D01*
X143460000Y-102235000D02*
X143460000Y-108585000D01*
X124460001Y-105360001D02*
G75*
G03*
X123240000Y-104140000I-1220001J0D01*
G01*
X123239999Y-106679999D02*
G75*
G03*
X124460000Y-105460000I2J1219999D01*
G01*
%TO.C,IC1*%
X99618000Y-102235000D02*
X100203000Y-102235000D01*
X99618000Y-104140000D02*
X99618000Y-102235000D01*
X99618000Y-108585000D02*
X99618000Y-106680000D01*
X99618000Y-108585000D02*
X99928000Y-108585000D01*
X100838000Y-105360000D02*
X100838000Y-105460000D01*
X101523000Y-102235000D02*
X102743000Y-102235000D01*
X101728000Y-108585000D02*
X102743000Y-108585000D01*
X104063000Y-102235000D02*
X105283000Y-102235000D01*
X104063000Y-108585000D02*
X105283000Y-108585000D01*
X106603000Y-102235000D02*
X107823000Y-102235000D01*
X106603000Y-108585000D02*
X107823000Y-108585000D01*
X109143000Y-102235000D02*
X110363000Y-102235000D01*
X109143000Y-108585000D02*
X110363000Y-108585000D01*
X111683000Y-102235000D02*
X112903000Y-102235000D01*
X111683000Y-108585000D02*
X112903000Y-108585000D01*
X114223000Y-102235000D02*
X115443000Y-102235000D01*
X114223000Y-108585000D02*
X115443000Y-108585000D01*
X116763000Y-102235000D02*
X117983000Y-102235000D01*
X116763000Y-108585000D02*
X117983000Y-108585000D01*
X119303000Y-102235000D02*
X119838000Y-102235000D01*
X119303000Y-108585000D02*
X119838000Y-108585000D01*
X119838000Y-102235000D02*
X119838000Y-108585000D01*
X100838001Y-105360001D02*
G75*
G03*
X99618000Y-104140000I-1220001J0D01*
G01*
X99617999Y-106679999D02*
G75*
G03*
X100838000Y-105460000I2J1219999D01*
G01*
D15*
%TO.C,N4*%
X196834400Y-88900000D02*
G75*
G03*
X196834400Y-88900000I-8874400J0D01*
G01*
X195579999Y-89058800D02*
G75*
G03*
X180339901Y-88900000I-7620049J79399D01*
G01*
%TO.C,N3*%
X171661299Y-89058800D02*
G75*
G03*
X156421201Y-88900000I-7620049J79399D01*
G01*
X172915700Y-88900000D02*
G75*
G03*
X172915700Y-88900000I-8874400J0D01*
G01*
%TO.C,N1*%
X116854199Y-89058800D02*
G75*
G03*
X101614101Y-88900000I-7620049J79399D01*
G01*
X118108600Y-88900000D02*
G75*
G03*
X118108600Y-88900000I-8874400J0D01*
G01*
%TO.C,N2*%
X140715999Y-89058800D02*
G75*
G03*
X125475901Y-88900000I-7620049J79399D01*
G01*
X141970400Y-88900000D02*
G75*
G03*
X141970400Y-88900000I-8874400J0D01*
G01*
%TD*%
M02*
