%TF.GenerationSoftware,KiCad,Pcbnew,7.0.1*%
%TF.CreationDate,2023-06-06T13:02:27-04:00*%
%TF.ProjectId,nixie,6e697869-652e-46b6-9963-61645f706362,rev?*%
%TF.SameCoordinates,Original*%
%TF.FileFunction,Soldermask,Bot*%
%TF.FilePolarity,Negative*%
%FSLAX46Y46*%
G04 Gerber Fmt 4.6, Leading zero omitted, Abs format (unit mm)*
G04 Created by KiCad (PCBNEW 7.0.1) date 2023-06-06 13:02:27*
%MOMM*%
%LPD*%
G01*
G04 APERTURE LIST*
G04 Aperture macros list*
%AMRoundRect*
0 Rectangle with rounded corners*
0 $1 Rounding radius*
0 $2 $3 $4 $5 $6 $7 $8 $9 X,Y pos of 4 corners*
0 Add a 4 corners polygon primitive as box body*
4,1,4,$2,$3,$4,$5,$6,$7,$8,$9,$2,$3,0*
0 Add four circle primitives for the rounded corners*
1,1,$1+$1,$2,$3*
1,1,$1+$1,$4,$5*
1,1,$1+$1,$6,$7*
1,1,$1+$1,$8,$9*
0 Add four rect primitives between the rounded corners*
20,1,$1+$1,$2,$3,$4,$5,0*
20,1,$1+$1,$4,$5,$6,$7,0*
20,1,$1+$1,$6,$7,$8,$9,0*
20,1,$1+$1,$8,$9,$2,$3,0*%
G04 Aperture macros list end*
%ADD10RoundRect,0.101600X-0.700000X-0.700000X0.700000X-0.700000X0.700000X0.700000X-0.700000X0.700000X0*%
%ADD11C,1.603200*%
%ADD12O,2.519200X2.519200*%
%ADD13C,2.519200*%
%ADD14RoundRect,0.101600X0.750000X-0.650000X0.750000X0.650000X-0.750000X0.650000X-0.750000X-0.650000X0*%
%ADD15C,1.703200*%
%ADD16C,1.551200*%
%ADD17O,1.803200X3.403200*%
%ADD18O,3.403200X1.803200*%
%ADD19RoundRect,0.101600X-0.750000X0.650000X-0.750000X-0.650000X0.750000X-0.650000X0.750000X0.650000X0*%
%ADD20RoundRect,0.101600X0.650000X0.750000X-0.650000X0.750000X-0.650000X-0.750000X0.650000X-0.750000X0*%
G04 APERTURE END LIST*
D10*
%TO.C,IC3*%
X154940000Y-109220000D03*
D11*
X157480000Y-109220000D03*
X160020000Y-109220000D03*
X162560000Y-109220000D03*
X165100000Y-109220000D03*
X167640000Y-109220000D03*
X170180000Y-109220000D03*
X172720000Y-109220000D03*
X172720000Y-101600000D03*
X170180000Y-101600000D03*
X167640000Y-101600000D03*
X165100000Y-101600000D03*
X162560000Y-101600000D03*
X160020000Y-101600000D03*
X157480000Y-101600000D03*
X154940000Y-101600000D03*
%TD*%
D12*
%TO.C,BAT1*%
X165100000Y-139700000D03*
D13*
X165100000Y-119200000D03*
%TD*%
D10*
%TO.C,IC4*%
X178816000Y-109220000D03*
D11*
X181356000Y-109220000D03*
X183896000Y-109220000D03*
X186436000Y-109220000D03*
X188976000Y-109220000D03*
X191516000Y-109220000D03*
X194056000Y-109220000D03*
X196596000Y-109220000D03*
X196596000Y-101600000D03*
X194056000Y-101600000D03*
X191516000Y-101600000D03*
X188976000Y-101600000D03*
X186436000Y-101600000D03*
X183896000Y-101600000D03*
X181356000Y-101600000D03*
X178816000Y-101600000D03*
%TD*%
D10*
%TO.C,IC2*%
X124460000Y-109220000D03*
D11*
X127000000Y-109220000D03*
X129540000Y-109220000D03*
X132080000Y-109220000D03*
X134620000Y-109220000D03*
X137160000Y-109220000D03*
X139700000Y-109220000D03*
X142240000Y-109220000D03*
X142240000Y-101600000D03*
X139700000Y-101600000D03*
X137160000Y-101600000D03*
X134620000Y-101600000D03*
X132080000Y-101600000D03*
X129540000Y-101600000D03*
X127000000Y-101600000D03*
X124460000Y-101600000D03*
%TD*%
D10*
%TO.C,IC1*%
X100838000Y-109220000D03*
D11*
X103378000Y-109220000D03*
X105918000Y-109220000D03*
X108458000Y-109220000D03*
X110998000Y-109220000D03*
X113538000Y-109220000D03*
X116078000Y-109220000D03*
X118618000Y-109220000D03*
X118618000Y-101600000D03*
X116078000Y-101600000D03*
X113538000Y-101600000D03*
X110998000Y-101600000D03*
X108458000Y-101600000D03*
X105918000Y-101600000D03*
X103378000Y-101600000D03*
X100838000Y-101600000D03*
%TD*%
D14*
%TO.C,C1*%
X110998000Y-106934000D03*
X110998000Y-105034000D03*
%TD*%
D15*
%TO.C,J1*%
X184262000Y-118872000D03*
X187762000Y-118872000D03*
X191262000Y-118872000D03*
X194762000Y-118872000D03*
%TD*%
D14*
%TO.C,C4*%
X188976000Y-106934000D03*
X188976000Y-105034000D03*
%TD*%
%TO.C,C2*%
X134620000Y-107056000D03*
X134620000Y-105156000D03*
%TD*%
D16*
%TO.C,N4*%
X190836600Y-94380900D03*
X185083400Y-94380900D03*
X187960000Y-95089900D03*
X181815200Y-89646100D03*
X182172300Y-86705000D03*
X183855300Y-84266800D03*
X186478700Y-82889900D03*
X189441300Y-82889900D03*
X192064700Y-84266800D03*
X193747700Y-86705000D03*
X194104800Y-89646100D03*
X193054200Y-92416300D03*
X182865800Y-92416300D03*
%TD*%
D17*
%TO.C,U$1*%
X111760000Y-135420000D03*
X109220000Y-135420000D03*
X114300000Y-135420000D03*
X119380000Y-135420000D03*
X106680000Y-116040000D03*
X119380000Y-116040000D03*
X132080000Y-116040000D03*
X144780000Y-116040000D03*
D18*
X150430000Y-125730000D03*
D17*
X144780000Y-135420000D03*
X132080000Y-135420000D03*
X106680000Y-135420000D03*
X101600000Y-116040000D03*
X104140000Y-116040000D03*
X109220000Y-116040000D03*
X111760000Y-116040000D03*
X114300000Y-116040000D03*
X116840000Y-116040000D03*
X121920000Y-116040000D03*
X124460000Y-116040000D03*
X127000000Y-116040000D03*
X129540000Y-116040000D03*
X134620000Y-116040000D03*
X137160000Y-116040000D03*
X139700000Y-116040000D03*
X142240000Y-116040000D03*
X147320000Y-116040000D03*
X149860000Y-116040000D03*
X149860000Y-135420000D03*
X147320000Y-135420000D03*
X142240000Y-135420000D03*
X139700000Y-135420000D03*
X137160000Y-135420000D03*
X134620000Y-135420000D03*
X129540000Y-135420000D03*
X124460000Y-135420000D03*
X121920000Y-135420000D03*
X116840000Y-135420000D03*
X127000000Y-135420000D03*
D18*
X150430000Y-123190000D03*
X150430000Y-128270000D03*
D17*
X101600000Y-135420000D03*
X104140000Y-135420000D03*
%TD*%
D19*
%TO.C,R3*%
X173736000Y-95570000D03*
X173736000Y-97470000D03*
%TD*%
D14*
%TO.C,C3*%
X165100000Y-106934000D03*
X165100000Y-105034000D03*
%TD*%
%TO.C,C5*%
X187198000Y-130987800D03*
X187198000Y-129087800D03*
%TD*%
D19*
%TO.C,R2*%
X142240000Y-95570000D03*
X142240000Y-97470000D03*
%TD*%
%TO.C,R4*%
X197104000Y-95570000D03*
X197104000Y-97470000D03*
%TD*%
%TO.C,R1*%
X119380000Y-95570000D03*
X119380000Y-97470000D03*
%TD*%
D20*
%TO.C,C7*%
X171196000Y-137414000D03*
X169296000Y-137414000D03*
%TD*%
D16*
%TO.C,N3*%
X158947100Y-92416300D03*
X169135500Y-92416300D03*
X170186100Y-89646100D03*
X169829000Y-86705000D03*
X168146000Y-84266800D03*
X165522600Y-82889900D03*
X162560000Y-82889900D03*
X159936600Y-84266800D03*
X158253600Y-86705000D03*
X157896500Y-89646100D03*
X164041300Y-95089900D03*
X161164700Y-94380900D03*
X166917900Y-94380900D03*
%TD*%
%TO.C,N1*%
X104140000Y-92416300D03*
X114328400Y-92416300D03*
X115379000Y-89646100D03*
X115021900Y-86705000D03*
X113338900Y-84266800D03*
X110715500Y-82889900D03*
X107752900Y-82889900D03*
X105129500Y-84266800D03*
X103446500Y-86705000D03*
X103089400Y-89646100D03*
X109234200Y-95089900D03*
X106357600Y-94380900D03*
X112110800Y-94380900D03*
%TD*%
%TO.C,N2*%
X128001800Y-92416300D03*
X138190200Y-92416300D03*
X139240800Y-89646100D03*
X138883700Y-86705000D03*
X137200700Y-84266800D03*
X134577300Y-82889900D03*
X131614700Y-82889900D03*
X128991300Y-84266800D03*
X127308300Y-86705000D03*
X126951200Y-89646100D03*
X133096000Y-95089900D03*
X130219400Y-94380900D03*
X135972600Y-94380900D03*
%TD*%
M02*
